<?xml version="1.0" encoding="UTF-8"?><svg id="Layer_2" xmlns="http://www.w3.org/2000/svg" viewBox="0 0 764.88 720.81"><defs><style>.cls-1{fill:none;stroke:red;stroke-miterlimit:10;}</style></defs><path class="cls-1" d="m200.9,512.91c-14.39-10.9-14.98-21.09-2.56-34.94-1.52-3.89-3.02-7.73-4.53-11.59-3.15.32-6.31.98-9.46.9-12.73-.33-20.64-12.09-15.82-23.26,1.54-3.58,4.15-5.89,7.92-6.8,4.45-1.07,8.98.75,9.97,3.92,1.28,4.1-.03,5.93-6.09,9.12,1.97.58,4.16,2.02,5.88,1.59,4.38-1.09,8.95-2.38,12.72-4.74,9.88-6.17,15.72-15.83,21.26-26.57-2.08-.27-3.63-.52-5.19-.65-8.93-.75-16.76-4.2-23.25-10.25-6.43-6-9.4-13.41-6.97-22.27,1.68-6.11,6.81-9.64,12.83-9.03,3.21.32,5.56,1.71,5.94,5.3.37,3.39-1.52,4.79-4.5,5.34-.36.07-.67.42-1.23.79,1.64,2.85,4.4,2.62,6.56,1.93,3.93-1.24,8.04-2.6,11.37-4.92,5.77-4,11.01-8.77,16.12-12.93-3.13-3.06-6.03-5.2-7.99-8-2.02-2.88-2.2-6.73.42-9.29,1.74-1.7,4.77-2.93,7.2-2.89,4.8.09,6.57,4.04,5.08,11.43,4.78-.3,9.3-.58,15.11-.94-2.47-1.58-3.97-2.44-5.36-3.44-5.75-4.13-8.89-9.94-10.01-16.75-.49-3.02-1.33-4.71-4.53-5.85-9.42-3.35-13.94-14.35-10.05-23.36,2.33-5.4,7.97-8.08,13.39-6.34,3.43,1.1,5.51,3.36,5.28,7.07-.22,3.61-2.38,5.47-6.01,5.64-.49.02-.97.23-1.45.35l-.15,1.39c2.37.33,5.01,1.49,7.06.83,4.15-1.33,8.43-3.07,11.87-5.67,8.11-6.15,13.33-14.66,18.28-24.05-9.21-.1-15.85-4.14-21.31-10.24-4.72-5.28-6.46-11.62-5.41-18.62.6-4,2.25-7.45,6.1-9.41,4.05-2.05,8.32-1.16,9.85,2.08,1.53,3.23-.02,6.18-4.35,9.17,2.32,0,4.76.45,6.95-.08,9.61-2.33,16.24-8.66,21.9-17.11-1.57-.15-2.7-.25-3.83-.36-3.93-.38-6.61-2.58-7.32-6.32-.37-1.95.07-4.59,1.22-6.09.68-.89,3.47-.15,5.3-.16,3.66,0,7.61.87,10.9-.23,4.89-1.64,9.31-4.67,13.79-8.13-2.1.15-4.23.15-6.31.47-14,2.12-24.85-8.1-23.38-22.09.53-5.08,3.8-8.93,8.13-9.27,2.92-.23,5.64.87,5.77,4.01.06,1.52-1.98,3.13-3.51,5.34.59.13,2.46,1.21,3.58.68,2.98-1.39,6-3.09,8.33-5.36,4.18-4.07,7.88-8.64,12-13.26-.6-1.54-1.48-4.27-2.74-6.81-.46-.93-1.74-1.62-2.79-2.07-6.06-2.58-9.82-9.74-7.48-15.79.86-2.21,3.38-4.31,5.65-5.29,2.4-1.04,4.89.64,5.11,3.39.12,1.51-1.36,3.14-2.37,5.25,2.08,2.62,7.34,1.76,15.32-3.94-3.97-1.17-5.94-3.75-4.67-7.47.54-1.57,2.58-3.79,3.8-3.71,2.2.15,4.3,1.81,7.5,3.35,4.49-2.6,6.37-8.38,8.8-14.38-1.36-.34-2.37-.61-3.38-.85-8.34-1.96-13.99-10.18-12.57-18.56.27-1.56,1.04-3.25,2.09-4.42,1.73-1.93,4.24-2.76,6.11-.53.65.78-.43,3.02-.87,5.43,1.09-.36,2.72-.52,3.92-1.33,6.15-4.17,9.42-10.39,11.99-17.07-4.06-2.72-5.33-6.47-3.28-9.33,1.96-2.73,4.21-2.42,8.95,1.6,2.82-3.1,5.65-6.23,8.25-9.08-2.38-1.76-4.74-2.89-6.18-4.73-1.75-2.23-1.13-4.89,1.14-6.66,1.98-1.56,3.59-.66,5.49.87.94.75,3.88.41,4.86-.54,4.33-4.14,7.26-9.11,6.79-15.48-.21-2.78-.61-5.56,3.01-6.9.76-.28.83-2.45,1.22-3.75-.35-.24-.71-.48-1.06-.72-3.25,2.21-6.5,4.41-9.75,6.63-.92.63-1.74,1.5-2.75,1.86-1.29.46-2.73.51-4.11.74,0-1.27-.38-2.68.04-3.8,1.76-4.68,3.66-9.32,5.71-13.89,1.1-2.45.9-3.78-1.71-5.26-4.45-2.53-8.61-5.61-12.72-8.68-.93-.69-1.16-2.31-1.72-3.5,1.23-.45,2.44-1.26,3.68-1.3,4.73-.18,9.48-.33,14.2-.06,3.49.2,5.2-.86,6.05-4.41,1.19-4.99,2.96-9.85,4.61-14.72.31-.9,1.26-1.58,1.92-2.36.73.73,1.82,1.33,2.12,2.21,1.75,5.13,3.45,10.29,4.9,15.52.78,2.84,2,4.18,5.2,3.93,4.85-.38,9.74-.32,14.61-.32,1.01,0,2.03.54,3.04.83-.37,1.12-.39,2.65-1.16,3.28-3.75,3.07-7.54,6.16-11.63,8.73-2.92,1.83-3.77,3.54-2.25,6.74,1.9,4.02,3.5,8.18,5,12.37.5,1.42.28,3.09.39,4.65-1.5-.34-3.2-.33-4.46-1.07-4.08-2.37-8-5.01-11.98-7.54-.42.19-.84.38-1.26.58.62,1.37,1.24,2.74,1.86,4.11.78,1.72,2.33,3.5,2.21,5.15-.48,6.36,2.1,11.42,6.16,15.8,1.85,1.99,4.26,3.65,7.13.7.61-.63,3.69-.2,3.86.31.67,2.06,1.4,4.67.64,6.45-.71,1.66-3.28,2.52-5.48,4.05,2.36,2.77,4.9,5.76,7.33,8.61,5.62-3.06,8-3.01,9.55-.17,1.54,2.82-.05,5.84-4.03,7.64.77,8.29,10.36,18.73,16.68,18.37-.5-1.27-1.56-2.68-1.34-3.84.16-.84,2.49-2.17,3.07-1.85,1.82.98,3.99,2.34,4.73,4.1,2.99,7.14-2.46,17.2-10.33,19.68-1.56.49-3.16.85-5.9,1.57,3.62,5.5,6.9,10.47,9.88,14.99,3.14-1.62,5.24-2.98,7.54-3.73.81-.26,2.39.73,3.15,1.57,2.63,2.9,1.18,6.8-3.46,9.76,3.32,4.24,9.81,5.82,15.97,3.65-.59-.5-1.16-.79-1.44-1.25-.76-1.28-2.26-3.01-1.89-3.88.65-1.52,2.81-3.75,3.77-3.5,2.43.64,5.36,1.97,6.63,3.95,3.25,5.05.84,13.12-4.78,15.23-4.44,1.66-7.23,3.97-8.38,8.47-.23.9-.93,1.68-1.39,2.47,8.87,12.41,20.71,20.39,26.09,17.36-3.05-1.55-5.29-3.54-3.11-7.11,1.54-2.53,5.39-2.65,8.58-.23,4.46,3.38,4.93,8.22,4.16,13.22-1.51,9.74-10.08,16.79-20.37,16.96-2.94.05-5.89,0-8.94.5,7.29,2.15,12.41,9.83,21.2,7.81,1.48-.34,2.95-.75,4.44-1.04,4.59-.87,7.29,2.1,5.93,6.62-1.55,5.14-5.72,6.37-10.49,6.52,5.27,11.09,20.63,20.98,27.42,16.87,0-.25.1-.66-.02-.74-4.21-2.65-5.36-5.61-3.39-8.81,1.63-2.64,5.71-3.05,9.37-.92,4.69,2.72,7.16,9.78,5.64,16.76-2.36,10.85-9.85,16.7-19.91,19.89-1.98.63-4.01,1.06-6.58,1.73,1.01,1.98,1.71,3.75,2.75,5.29,4.96,7.4,9.69,15.15,17.46,19.96,3.3,2.04,7.36,3.03,11.19,3.98,1.58.39,3.5-.55,5.56-.94-2.48-1.6-4.62-2.45-5.99-3.98-3.24-3.63-1.07-9.41,3.68-10.42,5.46-1.17,10.81,1.49,13.15,6.53,4.04,8.71.58,18.68-8.25,22.37-3.83,1.6-5.57,3.29-6.19,7.79-1.18,8.7-6.91,14.64-15.89,19.01,6.28.31,11.41.57,16.8.84-.55-2.51-1.61-4.4-1.09-5.59.93-2.12,2.48-4.75,4.39-5.43,1.87-.67,5.09.13,6.72,1.49,4.64,3.86,3.35,11.72-2.1,14.89-1.3.76-2.74,1.26-4.12,1.88,6.77,12.95,26.52,23.26,34.28,17.67-4.07-.63-6.24-2.66-5.31-6.83.74-3.33,3.48-4.86,7.85-4.5,5.85.49,10.54,5.22,11.29,11.58.96,8.19-2.38,14.66-8.37,19.92-6.51,5.72-14.27,8.5-22.81,9.32-1.49.14-2.98.33-5.27.58,7.05,13.52,14.49,25.71,29.08,31.3,3.58,1.37,7.29,1.67,10.2-.89-1.81-1.67-3.8-2.99-5.01-4.84-.66-1.01-.34-3.03.17-4.36,1.5-3.93,6.03-5.21,10.66-3.26,9.23,3.89,11.12,17.53,3.32,24.55-5.15,4.64-11.37,5.72-17.96,4.46-3.44-.66-5.17-.03-5.57,3.8-.26,2.41-1.51,4.71-2.32,7.06,13.02,13.63,12.11,24.45-2.95,34.81,8.32,9.08,28.07,9.51,36.35.78,5.62-5.93,4.95-14.08-1.38-16.88-3.65-1.61-6.32-.61-8.1,3.25.71.32,1.65.46,2.07,1.01,1.12,1.43,2.8,3.04,2.8,4.57,0,1.57-1.39,3.64-2.79,4.61-3.34,2.32-8.32.87-11.51-2.87-6.26-7.34-3.75-19.47,4.97-23.99,14.17-7.36,31.39,2.14,33.76,18.61,2.11,14.66-6.13,27.52-20.85,32.54-2.1.71-4.23,1.32-6.3,1.96.3,9.36,6.28,15.55,12.37,14.36-.65-2.25-2.01-4.59-1.76-6.73.27-2.23,1.62-4.86,3.35-6.26,3.23-2.62,9.41-1.09,12,2.36,3.55,4.73,2.26,9.84-4.57,16.46,12.16,2.6,20.55,10.96,30.04,17.55,2.98,2.07,6.3,3.01,10.79.79-1.55-.64-2.12-1-2.73-1.11-3.2-.6-4.98-2.44-4.89-5.74.09-3.33,2.36-4.92,5.24-5.67,4.56-1.19,8.6,0,11.83,3.37,4,4.17,5.12,9.27,3.52,14.7-1.92,6.52-6.81,10.02-13.31,11.17-2.59.46-3.57,1.64-3.5,4.15.43,15.91-8.33,26.22-20.91,34.18-1.88,1.19-3.85,2.24-5.72,3.45-3.85,2.47-3.8,4.95.19,7.25,3.54,2.04,5.54,5.26,4.48,9.01-.69,2.45-3,5.51-5.22,6.18-2.43.73-6.1-.24-8.32-1.77-3.81-2.63-3.66-7.83-.67-11.93.68-.94.78-2.31,1.14-3.49-1.14-.28-2.39-1.01-3.4-.76-16.23,4.12-32.01,2.64-47.62-3.7-.72,4.36-.86,7.53,4.04,10.2,9.5,5.18,12.22,17.53,6.99,27.38-5.17,9.73-16.56,13.55-26.93,9.01-9.48-4.14-14.32-15.81-10.8-26.05,1.75-5.07,4.82-9.01,9.62-11.59,1-.54,2.42-1.54,2.47-2.39.19-3.28.17-6.43,4.08-7.75.13-.04-.03-2.54-.69-3.04-8.08-6.02-16.27-11.88-24.71-17.98-1.84,8.25-6.14,15.87-12.54,22.28-6.48,6.49-14.27,10.55-23.31,12.52-.43,4.11-.41,7.33,3.7,10.06,5.04,3.35,6.15,10.71,3.64,16.67-2.37,5.65-7.7,9.22-13.35,8.94-6.07-.3-11.49-4.83-13.21-11.03-1.66-5.97.68-12.2,5.9-15.69q3.2-2.14,2.18-7.12c-4.47,0-9.1.57-13.54-.13-6.98-1.11-13.87-2.89-20.69-4.76-3.44-.94-4.97-.28-5.06,3.39-.04,1.62-.52,3.24-.8,4.84,8.74,1.98,12.57,6.03,11.44,11.99-.9,4.74-5,8.06-9.48,7.68-5.87-.5-8.63-5.26-8.14-14.36-3.75-.36-7.92-1.07-7.94-5.82-.02-4.26,3.89-4.36,7.25-4.64.86-3.15.1-5.77-2.29-7.89-7.15-6.37-14.32-12.72-21.65-19.22-.12.66-.47,1.64-.46,2.62.31,19.13,1.45,38.21,8.02,56.36,2.57,7.1,6.49,13.8,10.46,20.27,3.28,5.34,8.78,7.92,14.98,8.91,2.19.35,4.76.42,6.37,1.65,1.75,1.34,3.35,3.77,3.63,5.91.38,2.85-2.1,4.31-4.84,4.71-1.51.22-3.05.32-4.57.32-36.2.04-72.41.06-108.61.06-1.81,0-3.91.36-5.34-.42-1.84-1-4.06-2.8-4.42-4.59-.31-1.59,1.44-3.86,2.78-5.4.78-.89,2.51-1.12,3.86-1.32,11.4-1.71,18.62-8.72,23.6-18.55,5.86-11.56,8.95-23.98,10.57-36.73,1.14-8.97,1.68-18.01,2.41-27.03.17-2.14.03-4.3.03-7.46-1.72,1.5-2.52,2.19-3.32,2.89-5.31,4.67-10.48,9.54-16,13.95-3.52,2.82-5.97,5.78-5.21,10.8,3.12.79,7.8.11,7.11,5.65-.46,3.69-2.63,4.77-8.9,4.46,1.17,4.4,2.17,8.98-1.79,12.32-1.49,1.26-3.64,2.24-5.56,2.38-5.28.37-10.15-4.43-10.18-9.53-.03-5.75,4.18-9.06,12.39-9.56-.41-3.26-.82-6.5-1.3-10.32-2.91.94-5.32,2.05-7.83,2.46-8.61,1.37-17.27,2.43-25.88,3.75-1.68.26-4.14.69-4.72,1.83-1.17,2.27.03,4.18,2.43,5.74,7.38,4.81,9.03,13.2,4.36,20.37-3.33,5.12-8.09,7.13-14,6.11-5.76-.99-9.53-4.61-11.05-10.15-1.57-5.68-1.27-11.51,3.88-15.16,3.47-2.46,4.7-4.97,3.7-9.45-8.96-1.72-17.09-5.97-23.91-12.65-6.75-6.62-10.67-14.81-14.43-24.82-.88,1.32-1.57,2.85-2.69,3.93-4.49,4.34-9.02,8.65-13.73,12.75-3.44,3-3.38,4.62.33,7.1,1.18.79,2.45,2.64,2.34,3.89-.27,3.35,1.35,4.88,3.9,6.55,8.93,5.88,11.72,16.78,7.19,26.94-3.85,8.64-13.96,13.44-23.31,11.07-8.09-2.05-14.43-8.92-15.51-16.81-1.31-9.6,2.3-17.42,10.38-21.8,2.52-1.37,3.72-2.88,3.4-5.9-.14-1.29,1.03-2.8,1.82-4.08.46-.75,1.34-1.24,2.03-1.85-.21-.33-.42-.66-.64-.98-1.06.43-2.16.77-3.17,1.31-16.82,8.94-34.58,9.54-52.84,6.14-1.47-.27-3.05.09-4.58.15.5,1.31.97,2.64,1.52,3.93.49,1.14,1.25,2.19,1.6,3.37,1.25,4.22-.91,8.95-4.68,10.49-3.8,1.55-8.04-.3-10.06-4.39-2.01-4.07-.86-8.72,2.75-11.09,5.12-3.37,5-4.88-.39-8.19-4.03-2.47-8.17-4.85-11.85-7.79-8.01-6.41-13.35-14.49-14.19-25.05-.19-2.34-.49-4.67-.62-5.85-4.58-2.77-8.92-4.56-12.15-7.56-4.64-4.3-5.79-10.06-3.34-16.12,2.17-5.36,6.42-8.01,12.09-7.91,2.08.04,4.56.72,6.08,2.01,1.32,1.12,2.4,3.72,2.04,5.31-.36,1.58-2.57,2.83-4.14,4-.65.49-1.74.4-2.63.57,0,.52,0,1.04-.01,1.56,2.09,0,4.3.41,6.25-.11,2.09-.56,4.14-1.74,5.86-3.09,8.11-6.35,16.03-12.96,26.69-16.03-1.27-1.62-2.24-2.75-3.09-3.96-4.62-6.59-1.38-15.51,5.93-16.15,3.33-.29,6.47.39,8.49,3.38,2.23,3.3,1.61,6.58-.63,9.68,6.07,1.85,9.82-1.95,13.22-12.85-4.76-1.89-9.76-3.25-14.11-5.74-11.38-6.52-16.62-18.85-13.93-31.33,2.86-13.25,17.17-21.77,30.19-17.97,11.56,3.37,15.83,18.91,7.16,26.86-1.86,1.71-4.93,2.88-7.44,2.87-1.84,0-4.62-2.01-5.23-3.74-.57-1.63,1.05-4.1,1.89-6.13.47-1.13,1.32-2.11,1.99-3.15-1.25-.72-2.45-1.94-3.75-2.07-6.42-.63-10.72,4.77-9.09,11.15,1.81,7.06,8.75,12.07,17.55,12.25,7.83.15,15-2.34,22.17-6.45Zm124.93,69.62c5.53-3.11,11.15-5.65,17.7-3.21,1.1.41,2.3.58,3.62.91-3.27-12-16.15-19.23-27.52-15.77-6.1,1.86-9.84,7.51-9.07,13.71.51,4.09,3.43,7.1,7.74,8.26,3.89,1.05,5.92-1.17,7.67-4.04l-.15.14Zm195.47-55.85c-1.41-6.18-5.52-10.65-9.73-16.45-.45,4.93-.79,8.61-1,10.88,4.09,2.08,7.45,3.78,10.81,5.49-.06,6.36-3.25,8.81-8.97,6.6-3.38-1.31-5.57-.76-6.83,3.1,5.32,2.72,7.76,7.02,6.92,12.97-.57,4.01-3.72,7.14-7.03,7.03-2.98-.1-4.98-2.88-5.27-7.3-.02-.38-.11-.75-.16-1.08-3.29,1.55-6.47,3.05-10.06,4.74,5.87,5.14,11.71,9.25,19.68,7.6,13.54-2.8,20.2-22.17,11.64-33.58Zm-233.16-190.83l.13.09c-6.11-1.92-11.59,1.17-13,7.33-1.64,7.14,1.97,14.01,8.22,14.34,4.46.24,9.09-.6,13.48-1.64,7.14-1.69,7.18-1.84,6.01,5.33-1.32,8.07.91,11.09,8.76,13.31,11.74,3.31,26.7-6.25,34.93-19.52-6.89.72-12.36-2.27-16.25-7.18-3.65-4.6-6.13-10.13-8.88-14.83-.04.22-.86,1.83-.37,2.49,3,4.05,1.74,10.13,6.57,13.32,1,.66,1.46,2.35,1.84,3.66,1.45,5.05.56,9.74-3,13.61-2.98,3.25-6.83,4.86-11.31,3.87-6-1.33-9.77-6.04-10.87-13.22-.66-4.29,2.92-10.31,7.56-12.87.9-.5,2.09-1.17,2.36-2.01.79-2.46,1.18-5.06,1.79-7.88-8.99,3.33-18.43,3.55-27.96,1.8Zm184.42,204.61c2.92-.64,6.05-.82,8.74-2,13.89-6.06,20.49-23.5,14.36-37.33-5.71-12.87-19.89-20.33-35.09-16.72-9.73,2.31-18.88,7.01-28.29,10.63,4.58,5.12,8.57,9.59,12.18,13.62,3.62-2.44,7.5-5.05,11.39-7.67-.27-.33-.54-.66-.81-.99-3.1.98-6.47,2.43-8.11-1.87-.94-2.47-.67-5.21,2.35-6.26,3.91-1.37,5.41,1.43,6.6,4.52,2.5-5.95,6.7-8.65,12.68-8.24,10.01.69,18.23,10.43,17.27,20.45-.37,3.82-2.88,7.13-5.2,6.43-3.41-1.02-2.69-4-2.55-6.62.37-7.28-4.41-11.98-11.54-11.51-3.26.22-4.7,1.76-4.49,4.93,13.03,4.43,16.71,16.62,8.74,28.16,4.6,4.19,4.85,5.76,1.79,10.46Zm-200.28,25.66c-.85.24-1.55.32-2.12.63-10.17,5.51-17.81,13.42-21.66,24.39-3.22,9.16-1.06,17.66,5.24,24.91,5.11,5.87,11.85,7.07,19.07,5.09,7.17-1.97,12.65-6.52,14.12-13.89,1.26-6.32,1.97-12.6,6.46-17.27-4.37-1.58-8.43-3.23-12.61-4.45-1.4-.41-3.24-.06-4.66.51-6.21,2.52-12.43-1.78-12.07-8.5.16-3.15,1.83-5.03,4.95-5.04,2.93-.01,4.61,1.64,4.61,4.74,0,.51.23,1.02.36,1.53.37-.07.73-.14,1.1-.21-.91-4.07-1.83-8.14-2.79-12.44Zm202.59,12.59c1.28-2.05,2.16-4.98,4.01-5.88,1.26-.61,4.43,1.18,5.79,2.73,2.07,2.36.19,7.56-3.33,10.69-2.62,2.32-5.22,1.76-8.05.14-1.46-.84-3.53-1.63-5.02-1.24-4.22,1.09-8.29,2.8-11.54,3.95,1.53,5.06,3.81,10.41,4.69,15.97,1.36,8.56,8,15.76,16.63,16.7,13.72,1.49,24.09-8.35,23.83-22.55-.24-13.07-7.96-21.48-17.77-28.55-2.01-1.45-4.36-2.44-6.67-3.71q-3.82,10.88-2.58,11.74Zm-114.98-32.36c-15.03,3.52-22.15,1-23.36-8.48-.38-2.99.81-6.66,2.43-9.33,3.59-5.92,9.84-6.24,16.25-5.62-3.52-8.21-12.83-16.55-20.57-18.45-6.66-1.63-13-1.52-17.97,4.31-6.22,7.28-6.45,17.34.27,24.22,3.53,3.61,7.97,6.44,12.28,9.18,11.1,7.05,20.83,15.36,26.57,27.53,1.38,2.93,2.46,6,4.11,10.04v-33.38Zm29.35-.72v33.1c1.36-2.28,2.08-4.76,3.09-7.11,5.94-13.9,16.18-23.63,29.28-30.91,4.62-2.57,9.19-6.01,12.45-10.1,6.02-7.54,3.94-17.77-3.82-23.56-6.93-5.16-18.09-4.23-25.8,2.58-4.16,3.67-8.14,7.68-10.34,13.25,13.43.38,19.48,5.34,17.87,15.01-.52,3.15-2.47,6.73-4.9,8.77-5.51,4.62-11.53,1.61-17.83-1.04Zm-84.99-36.81c3.81-4.46,7.44-8.7,10.98-12.85-4.9-2.62-10.08-5.3-15.17-8.13-7.54-4.2-15.6-5.24-23.86-3.44-11.14,2.44-19.91,8.1-22.91,19.94-2.46,9.7-.94,18.9,5.18,26.91,4.86,6.35,11.61,9.04,19.51,8.77-.81-2.02-2.12-3.77-2.01-5.42.1-1.6,1.67-3.1,2.53-4.54-2.28-1.61-4.63-3.27-7.19-5.08-1.72,3.54-3.79,6.86-7.93,4.79-1.64-.82-3.02-3.64-3.17-5.65-.35-4.6,3.22-5.66,7.08-5.68-.96-2.45-1.94-4.47-2.55-6.58-3.54-12.24,6.27-24.75,18.7-23.93,6.21.41,10.57,5.33,9.09,11.37-.85,3.46-3.47,6.49-5.44,9.99.83-.22,2.48-.22,3.54-1.01,5.82-4.35,8.67-4.26,13.63.56Zm120.94-27.34c-.34-.27-.68-.55-1.02-.82-.41.5-.81,1.02-1.24,1.51-1.96,2.2-3.84,4.85-7.29,2.55-3.25-2.17-3.7-6.1-1.13-9.51,2.29-3.05,5.35-4.43,9.15-3.44,4.11,1.07,7.51,3.08,8.43,7.66.37,1.85.44,3.75.71,6.3,4.21-3.5,8.43-6.16,11.52-9.79,3.27-3.83,6.01-8.35,7.97-12.99,2.1-4.95.25-11.59-3.65-13.45-2.38-1.13-6.02-1.14-8.49-.15-3.11,1.24-3.53,4.81-2.85,7.99.54,2.55,1.85,4.61,5.34,4.52-.2-.71-.54-1.25-.42-1.65.59-2,.92-4.27,2.14-5.8.6-.74,3.69-.69,4.37.1,1.3,1.51,1.89,3.77,2.33,5.81.2.91-.55,2.12-1.08,3.09-2.36,4.32-6.66,6.37-11.18,5.43-5.3-1.11-9.5-5.49-10.02-10.95-.31-3.25-.06-6.55-.06-9.88-4.44,1.21-9.19,2.51-13.99,3.83,1.6,3.07,2.68,6.34,4.74,8.78,2.54,3,1.35,5.19-.62,7.28-2.03,2.15-4.68,2.67-7.1.56-2.5-2.18-2.65-4.73-.43-7.33.39-.46.67-1.03,1.05-1.64-5.36-3.43-10.4-3.23-16.25-.05,8.22,1.85,13.87,6.22,14.76,14.05.77,6.83-.1,13.84-.24,20.43,4.55-3.54,14.68-2.17,14.54-12.43Zm-204.59,84.37c-9.34-4.87-13.91-11.54-14.28-21.06-.37-9.33,4.48-16.47,9.88-23.8-8.28,3.55-16.01,6.89-23.76,10.17-8.24,3.48-12.47,9.84-12.15,18.42.31,8.28,5.68,15.27,14.08,17.64,8.37,2.36,16.71,1.39,26.24-1.38Zm313-44.32c5.67,7.52,10.29,14.81,9.41,24.01-.89,9.27-5.23,16.4-14.48,20.63,10.16,2.98,19.62,4.09,28.9.13,6.72-2.86,11.17-7.94,11.41-15.57.22-7.13-1.39-13.8-8.53-17.23-8.48-4.07-17.17-7.72-26.71-11.97Zm-194.78-118.53c-.74,6.16-5.19,10.69-10.18,10.17-5.62-.59-11.43-7.73-10.96-13.48.46-5.65,4.75-8.6,12.62-8.24-.86-1.62-1.58-2.99-2.27-4.29-12.78,3.74-20.96,17.25-18.56,30.13,1.85,9.95,12.28,18.54,21.63,17.83-3.06-11.07-1.28-18.1,5.47-19.62,2.76-.62,6.1-.11,8.82.87,5.34,1.91,5.79,7.15,6.7,13.26,3.66-5.47,6.6-9.88,9.32-13.94-2.37-1.5-4.68-2.19-5.5-3.69-.92-1.68-.51-4.1-.62-5.44-5.46-1.19-10.82-2.35-16.47-3.58Zm-38.69.08c-7.75,2.43-14.92,4.54-22,6.93-6.23,2.11-9.55,9.51-7.29,15.67,1.77,4.83,7.27,7.47,11.85,5.69,2.72-1.06,3.77-3.01,3.89-6.8-3.35,2.86-5.99,4.59-8.65,1.13-2.8-3.65-.82-9.22,3.63-10.4,5.4-1.43,10.44,1.58,11.86,7.08,1.43,5.55-.13,10.14-4.36,13.92-4.57,4.09-9.78,4.19-15.27,2.44-1.37-.44-2.67-1.14-3.57-1.53-1.48,6.15-2.87,11.9-4.38,18.18,12.66-10.23,25.17-20.15,44.06-17.28-10.12-10.79-10.89-22.71-9.77-35.03Zm117.26,31.86c11.76-.15,21.79-8.89,23.38-19.88,1.73-11.93-9.28-24.2-17.89-26.84-3.04-.94-3.34.99-3.93,3.15,7.81-.58,11.97,1.99,12.84,7.69.86,5.61-4.06,12.59-9.79,13.87-5.54,1.24-9.38-2.02-11.38-9.53-5.49,1.22-10.96,2.43-16.57,3.67,1.42,3.69.25,6.17-3.28,7.78-.67.31-1.44,2-1.17,2.48,2.08,3.62,4.41,7.09,6.66,10.6.36-.12.72-.25,1.08-.37.14-6.04,2.37-10.61,8.49-12.29,4.3-1.18,8.27-.2,10.9,3.28,3.87,5.11,3.93,10.76.65,16.4Zm46.81-11.44c-2.22,3.31-1.3,6.32,2.36,7.74,4.05,1.56,8.94-.15,11.26-3.95,4.08-6.69.92-14.25-7.32-17.12-7.07-2.46-14.21-4.72-21.73-7.2,2.47,12.72.04,24.35-9.71,34.76,18.97-2.65,31.74,7.95,44.78,17.41-1.34-6.2-2.63-12.13-3.92-18.12-.59.37-1.48.99-2.43,1.5-5.53,2.94-13.9,1.49-18.56-3.2-3.99-4.02-4.72-10.67-1.74-15.83,2.98-5.16,9.68-6.66,13.86-2.68,1.44,1.37,2.24,4.12,2.11,6.16-.09,1.43-2.22,3.75-3.52,3.81-1.52.07-3.12-1.9-4.7-2.97-.22-.15-.49-.22-.74-.31Zm-130,28.92c-5.09-1.45-9.93-2.82-14.63-4.16-.32,4.52-.16,8.86-1.03,12.98-.99,4.65-6.61,7.95-11.27,7.41-4.45-.51-8.76-4.48-8.7-8.74.03-1.93,1.27-4.13,2.6-5.64.62-.71,3.66-.61,4.04.04.92,1.58.94,3.68,1.28,5.58.06.35-.05.73-.1,1.25,2.87.67,4.35-.64,5.12-3.05,1.25-3.89-.47-8.23-3.75-9.55-3.75-1.51-8.77.3-9.84,4.51-.95,3.74-1.33,8.14-.28,11.77,2.74,9.45,10.26,14.98,18.44,20.26-.34-6.79,1.84-11.13,6.45-12.87,6.37-2.4,11.17-.03,14.84,5.87,1.36-8.95,4.88-15.64,14.08-17.92-4.96-3.98-11.38-3.83-14.84-.38.87,1.92,2.32,3.67,2.21,5.33-.09,1.41-2.22,3.97-3.02,3.81-2.13-.42-4.4-1.68-5.9-3.27-.92-.98-1.15-3.45-.6-4.81,1.11-2.76,2.97-5.23,4.88-8.43Zm80.89-143.99c12.38,15.97,26.94,21.2,42.95,18.35,7.88-1.4,13.19-6.43,15.98-13.78,2.88-7.56-2.73-18.41-9.7-19.25-1.01-.12-2.12.59-3.19.91.68.92,1.31,1.88,2.05,2.74,2.21,2.55,5,4.77,6.57,7.67,2.48,4.57.99,10.51-2.73,14.22-3.63,3.62-9.23,5.01-13.44,3.17-5.27-2.3-7.82-6.49-7.92-12.17-.1-5.47,2.34-9.53,6.86-12.6,1.06-.72,2.2-3.41,1.96-3.61-1.54-1.31-3.4-2.35-5.31-3.04-.33-.12-1.81,1.72-2.08,2.83-1.14,4.73-3.75,8.26-7.76,10.95-7.31,4.9-15.28,5.45-24.25,3.62Zm-160.07,109.41c-14.39-2.48-24.56,3.94-28.05,17.4-2.23,8.62.86,17.94,7.27,21.9,6.87,4.25,15.77,3.19,21-2.5,6.35-6.92,7.71-17.96,2.62-24.13-1.12-1.36-3.53-2.36-5.31-2.32-5.39.11-8.93,5.44-7.61,11.05.26,1.1,1.2,2.05,1.82,3.07.96-.65,1.86-1.39,2.88-1.92,1.46-.77,3.73-2.36,4.35-1.89,1.57,1.19,3.16,3.24,3.39,5.12.48,3.79-2.85,7.1-6.79,7.62-7.25.96-13.93-4.13-14.94-11.38-1.04-7.4,2.5-14.55,9.31-18.05,3.05-1.57,6.41-2.55,10.07-3.96Zm78.02-109.43c-1.64.28-3.13.54-4.62.78-11.12,1.77-24.15-2.23-27.46-16.35-.97-4.12-3.43-1.69-5.42-1.29-.65,3.28-.3,5.59,2.89,7.45,1.97,1.15,3.46,3.62,4.48,5.82,2.84,6.13-.51,13.98-7.02,17.17-5.4,2.64-11.6.5-15-5.19-4.16-6.96-1.38-15.5,6.17-19.44.97-.51,1.52-1.83,2.26-2.78-1.19-.34-2.72-1.33-3.51-.92-2.73,1.43-5.96,2.82-7.65,5.19-7.61,10.64-2.18,23.5,11.32,27.62,14.04,4.28,36.17-4.81,43.55-18.06Zm168.61,134.29c.73-.53,1.82-.98,2.39-1.79,2.15-3.08.09-9.99-3.39-11.76-3.88-1.97-9.11-.35-10.55,3.66-2.58,7.17-1.4,14.01,2.95,20.2,6.13,8.74,18.63,9.21,25.55,1.07,5.69-6.7,5.95-17.28.64-26.2-4.86-8.16-13.7-11.82-22.62-9.89,3.19,1.64,7.3,3.12,10.68,5.6,7.37,5.4,8.72,15.58,3.54,23.1-3.73,5.42-11.47,6.85-16.03,2.41-1.59-1.55-2.11-4.6-2.28-7.03-.08-1.1,2.29-3.51,2.86-3.31,2.02.7,3.74,2.26,5.58,3.49.11.08.23.15.68.45Zm-119.38-180.79c3.22,7.04,5.82,13.28,11.71,17.34,8.89,6.13,18.24,3.6,22.83-6.13,5.58-11.85-1.41-27.65-14.1-31.87,1.88,18.61-5.11,26.24-20.44,20.67Zm-35.66-21.74c-2.83,2.07-5.05,3.62-7.2,5.26-7.26,5.56-10.08,13.08-9.11,21.98.95,8.67,7.57,15.44,14.41,15.2,9.11-.32,20.73-11.91,21.22-21.36-5.22,3.77-10.67,3.91-15.49.01-6.68-5.42-5.89-12.84-3.84-21.09Zm-10.8,374.33c-10.05-3.11-11.06-4.1-14.84-14.17-.29-.77-.54-1.69-1.11-2.19-4.51-4-9.88-5.07-15.57-3.74-5.03,1.18-8.11,4.62-9.17,9.75-1.21,5.87,2.17,12.54,7.91,15.64,9.66,5.22,24.46,2.94,32.78-5.29Zm78.33-.44c5.39,7.34,20.12,10.7,29.54,6.22,3.63-1.73,7.14-4.96,9.23-8.4,3.44-5.68.08-13.91-5.84-16.55-6.38-2.85-16.39-.27-18.33,5.1-2.57,7.09-6.37,12.6-14.6,13.64Zm-185.29-15.39c-6.5.04-10.98-1.82-13.76-6.53-1.34-2.26-2.26-4.76-3.58-7.03-.53-.91-1.87-2.29-2.41-2.12-4.56,1.45-9.54,2.44-13.37,5.07-5.49,3.76-6.98,12.09-4.41,17.68,2.6,5.64,8.6,8.69,15.74,7.39,8.72-1.59,15.34-6.67,21.79-14.46Zm79.26-342.26c2.61,2.11,4.96,1.29,7.08-1,3.06-3.32,3.43-8.84.94-12.83-1.96-3.15-6.38-4.4-10.81-3.21-13.68,3.69-16.13,22.67-8.03,30.72,3.59,3.57,8.03,4.9,13.03,3.41,4.75-1.42,8.57-5.56,9.29-10.13-2.09.54-4.05,1.24-6.07,1.52-4.49.61-8.35-.82-10.87-4.65-2.17-3.3-2.8-7.01-.7-10.63,1.47-2.54,4.03-3.97,6.67-2.54,1.44.78,2.73,3.25,2.7,4.93-.03,1.45-2.02,2.86-3.24,4.41Zm120.12,6.58c.9,4.95,7.19,10.4,12.63,11.07,5.41.66,11.38-2.74,13.97-7.96,4.65-9.39-.35-22.47-10.04-26.27-4.51-1.76-10.48-.29-12.41,3.06-2.21,3.84-1.45,10.01,1.67,12.73,2.4,2.09,4.97,2.79,8.04.36-3.34-1.09-5.23-3.23-4.12-6.34.51-1.43,2.59-2.87,4.19-3.21,2.93-.63,5.05,1.12,6.04,3.92.4,1.14.59,2.45.51,3.66-.46,7.15-5.87,11.72-12.95,10.82-2.45-.31-4.83-1.16-7.53-1.84Zm8.28,79.84c3.31,1.44,6.14,5.22,7.86,9.97.27.75.65,1.96,1.15,2.05,5.95,1.13,11.92,2.87,17.89,2.88,6.74.01,11.75-6.22,11.09-12.08-.74-6.61-6.76-11.58-13.72-10.19-9.6,1.92-18.94,2.07-27.51-1.13.87,2.3,1.83,4.82,3.23,8.5Zm84.53,255.73c3.43,7.05,13.87,14.1,21.45,14.76,10.96.95,17.96-7.64,14.82-18.21-1.86-6.26-10.22-12.28-17.04-12.04-.87.03-2.21,1.2-2.45,2.09-2.28,8.45-7.8,12.8-16.77,13.4Zm-282.66-87.82c-.43-.18-.85-.35-1.28-.53-3.53,6.34-7.8,12.39-10.33,19.1-1.83,4.85-2.07,10.63-1.68,15.89.57,7.74,6.44,13.58,13.53,15.05,6.35,1.32,17.12-3.13,20.23-8.26-3.13-1.3-6.27-2.61-9.67-4.03,0,.85.19,1.49-.03,1.91-1.09,2.05-2.02,5.39-3.53,5.7-1.99.41-5.09-1.01-6.62-2.65-3.95-4.24-3.3-10.5.93-14.56,1.05-1.01,2.19-1.92,3.16-2.76-1.41-3.9-3.39-3.3-6.29-2.01-1.8.8-4.87.7-6.38-.39-1.37-.98-2.36-4.21-1.76-5.78.75-1.94,3.09-3.63,5.14-4.6,1.54-.73,3.7-.14,5.54-.14-.33-4.1-.64-8.03-.95-11.95Zm342.05,91.82c-.35-9.09,2.92-16.08,13.16-19.49-2.27-.58-3.41-.92-4.57-1.17-4.1-.9-6.52-3.48-7.6-7.46-1.14-4.23.22-7.62,3.75-9.64,3.86-2.21,5.74.63,8.16,2.64-.93-1.53-2.03-3.14-3.51-3.67-5.04-1.79-11.35.83-15,4.87-2.83,3.14-6.38,5.69-9.85,8.16-1.85,1.32-4.21,1.91-6.58,2.94,2.61,4.23,5.04,8.16,7.48,12.11,3-4.18,5.84-5.23,8.48-3.17,2.59,2.01,2.39,5.01-.45,8.78,2.13,1.67,4.26,3.33,6.53,5.1Zm-411.68-.57c2.43-1.73,4.2-2.99,5.98-4.25-3.73-3.61-4.38-6.17-1.57-8.28,1.43-1.07,3.9-1.57,5.62-1.17,1.67.39,2.99,2.27,4.14,3.22,2.63-3.99,5.25-7.98,7.98-12.13-1.86-.71-3.75-1.05-5.17-2.06-4.01-2.85-8.35-5.51-11.58-9.12-3.5-3.91-8.56-6.83-13.41-4.96-2.09.81-4.14,3.19-4.96,5.34-.55,1.44,1.1,3.71,1.77,5.62.38-.15.75-.3,1.13-.46-2.69-3.03-2.68-5.72.03-7.98,2.6-2.17,6.27-1.76,8.49,1.04,2.37,3.01,2.6,6.41,1.23,9.85-1.35,3.36-4.17,4.64-7.65,4.78-1.48.06-2.95.26-4.43.39-.14.35-.28.71-.43,1.06,8.7,3.36,12.61,9.89,12.83,19.08Zm212.42-281.02c2.37,5.88,4.29,10.65,6.49,16.12,3.16-7.66,4.56-9.51,8.37-10.7,3.81-1.19,7.84-1.12,10.33,2.17,1.43,1.89,1.97,5.1,1.62,7.53-.42,2.99-3.08,4.88-6.23,4-3.36-.94-3.36-3.6-2.05-6.39.15-.32.06-.75.08-1.13-.3-.23-.61-.46-.91-.69-1.08,1.47-2.94,2.88-3.05,4.42-.17,2.24.25,5.14,1.6,6.77,3.31,3.98,9.83,3.81,13.95.24,8.05-6.99,5.32-23.77-4.69-27.58-1.39-.53-3.98.51-5.31,1.65-4.74,4.04-9.74,6.4-16.06,4.45-.88-.27-1.81-.38-4.15-.86Zm-19.49,15.93c1.83-5.03,3.66-10.06,5.69-15.64-1.72,0-2.32-.17-2.76.02-6.99,2.99-12.76,1.21-17.54-4.44-2.2-2.6-4.47-1.53-6.68-.13-5.28,3.34-8.65,11.77-7.43,18.42,1.55,8.4,9.44,13.39,16.23,9.75,2.03-1.09,3.62-4.08,4.17-6.48.38-1.67-1.39-3.82-2.2-5.75l-1.22.53c0,.93.16,1.9-.04,2.79-.34,1.53-.54,3.91-1.46,4.29-1.35.55-3.52.04-4.93-.74-2.95-1.64-3.91-4.78-2.55-7.57,1.15-2.36,3.32-5.1,5.63-5.85,6.52-2.11,11.76,2.14,15.1,10.82Zm-40.32,218.23c.12.1-.23-.35-.69-.54-9.23-3.92-18.69-4.37-28.07-.93-7.53,2.76-11.22,9.85-9.94,17.71.85,5.21,5.05,8.75,10.18,8.56,5.02-.19,7.82-2.61,8.35-7.22-6.37-.5-9.24-2.6-9.61-7.01-.32-3.84,1.77-7.49,5.22-7.92,2.17-.27,4.88.13,6.63,1.31,1.66,1.12,2.38,3.63,2.95,4.59,4.92-2.81,9.85-5.62,14.98-8.54Zm121.22,8.67c.26-.75.3-2.03.93-2.47,2.14-1.48,4.36-3.42,6.77-3.78,3.21-.49,6.33,1.47,6.93,4.75.43,2.39-.32,5.44-1.61,7.54-.83,1.35-3.56,1.7-5.52,2.16-3.29.77-4.12,2.5-1.56,4.7,1.87,1.6,4.5,2.84,6.93,3.16,4.46.59,8.76-2.47,10.56-6.66,2.12-4.93,1.07-10.99-2.55-14.77-7.32-7.62-27.33-9.25-35.68-3.18,4.71,2.72,9.57,5.52,14.8,8.54Zm-187.23-169.52c4.03.66,6.09-1.23,7.21-4.4,1.65-4.66-.86-11.14-5.25-13.82-4.37-2.67-9.87-1.77-13.55,2.46-4.19,4.82-5.23,10.38-2.82,16.33,4.44,10.95,22.68,14.45,33.49,6.37-3.22-2.16-6.31-3.1-10.1-1.19-2.03,1.02-4.55,1.44-6.86,1.45-7.45.03-12.63-8.38-9.07-14.44,1.59-2.71,5.07-3.84,7.53-2.26,2.85,1.82,2.62,4.3,1.09,6.88-.48.81-1.01,1.58-1.68,2.62Zm-24.68,78.94c.24,1.51.34,2.33.49,3.13.56,2.92-.5,5-3.39,5.76-2.9.76-5.02-.66-5.89-3.33-1.2-3.68-.79-7.19,2.5-9.81,1.29-1.03,2.67-1.93,3.75-2.7-4.58-5.04-9.01-9.92-13.52-14.87-10.31,6.05-11.94,20.3-2.54,27.31,2.63,1.96,5.71,3.52,8.82,4.59,8.95,3.08,20.6-.72,25.45-7.74-4.96-.74-10.05-1.49-15.67-2.33Zm242.81-72.01c6.96,3.66,13.84,4.89,20.63,3.86,10.24-1.55,16.26-8.68,15.48-18.32-.58-7.2-6.52-12.3-13.63-11.72-5.83.48-10.17,6.68-9.52,13.59.42,4.52,3.77,6.77,6.91,5.7-.51-2.51-1.58-4.95-1.22-7.15.22-1.3,2.8-3.18,4.17-3.07,2.05.17,4.92,1.41,5.71,3.03,1.01,2.07,1,5.24.18,7.47-2.27,6.18-9.35,8.82-16.11,5.64-4.52-2.12-8.17-1.35-12.6.96Zm28.21,73.52c6.59,8.77,19.39,11.89,29.47,7.64,6.42-2.71,11.07-7.11,11.94-14.3.87-7.21-3.94-11.67-8.1-16.09-4.68,4.93-9.08,9.56-13.42,14.14,5.11,2.22,7.41,5.92,6.61,10.85-.53,3.23-3.14,5.36-6.15,4.87-3.21-.53-4.32-2.67-4.08-5.73.07-.92.11-1.85.17-3.1-2.91.49-5.47,1.04-8.06,1.31-2.58.27-5.19.27-8.38.41Zm-56.68-114.84c-1.27,1.96-2.1,3.56-3.23,4.92-3.1,3.73-7.08,5.97-12,5.37-4.79-.59-8.26-3.47-9.82-8.02-2.13-6.22-1.47-12.05,3.53-16.9,2.88-2.8,2.86-2.82,2.15-6.39-2.97,3.61-5.62,8.09-9.43,11.1-3.71,2.95-8.61,4.41-14.01,7.02,5.63,4.64,10.91,9.76,16.95,13.73,5.59,3.68,12.05,5.77,19.05,3.67,7.65-2.29,9.63-6.15,6.81-14.51Zm-43.19,220.76c9.33-3.57,17.29-2.96,23.75,4.87.71.86,2.51,1.23,3.77,1.16,6.53-.38,11.01-7.51,8.72-13.65-1.89-5.06-5.77-7.85-10.87-8.58-11.39-1.62-21.48,2.44-25.37,16.21Zm211.1,28.87c12.35-12.42,6.32-34.96-11.48-41.31-.79,2.62-1.57,5.25-2.36,7.87-1.31,4.36.11,7.29,4.22,8.76,4.56,1.63,8.57,4.51,9.41,9.2.91,5.09.21,10.47.21,15.48Zm-476.56.32c-.51-2.15-1.04-3.99-1.39-5.86-1.66-8.88,2.84-17.11,11.26-19.25,3.97-1.01,4.63-3.53,4.27-6.34-.48-3.72-1.93-7.31-2.99-11.1-18.68,11.64-24.11,32.46-11.15,42.54Zm260.89-111.54c3.84-3.83,5.81-11.2,4.75-19.43-.93-7.25-6.76-11.8-13.34-10.41-5.44,1.15-9.83,9.63-8.06,15.56,5.16-2.93,10.91-2.86,12.97,1.19,2.07,4.09,2.59,8.96,3.68,13.09Zm-27.87-15.1c-1.04-3.05-1.74-6.28-3.21-9.11-1.96-3.79-5.16-6.14-9.8-5.65-4.74.5-7.41,3.47-8.96,7.64-2.64,7.1-.28,17.66,4.64,22.6,1.01-4.17,1.43-8.96,3.37-13.02,2.13-4.48,6.8-4.81,13.96-2.46Zm-69.28,31.69c-2.9.63-5.27,1.12-7.63,1.67-4.08.95-7.74.52-10.46-3.09-3.11-4.13-2.59-8.29,1.23-12.21,1.03-1.06,1.45-2.71,2.14-4.09-1.68-.39-3.43-1.29-5.03-1.08-4.81.63-8.37,4.78-8.83,9.71-.73,7.77,4.64,15.72,12.21,17.77,6.29,1.71,14.84-.75,16.36-8.68Zm-29.56-156.5c-.78-1.95-1.72-3.57-2.06-5.31-.67-3.36-1.89-5.38-5.83-6.12-5.1-.96-6.92-8.16-3.58-12.18,2.2-2.65,5.84-2.77,7.45-.19.53.86.83,1.86,1.4,3.17,2.77-2.98,5.17-5.55,7.6-8.15-4.09-5.21-11.36-6.3-16.72-2.28-5.21,3.91-7.45,11.11-5.45,17.58,2.29,7.44,9.27,13.04,17.19,13.47Zm207.73.33c8.86-1.99,14.72-6.47,17.26-14.63,2.38-7.65.24-13.15-6.47-17.48-5.14-3.32-9.84-2.51-16.26,2.9,2.66,2.75,5.31,5.5,8.14,8.42.6-.96,1.02-1.5,1.3-2.1,1.8-3.85,4.69-4.32,7.59-1.21,3.59,3.86,2.17,10.92-3.16,12.2-4.32,1.04-5.81,3.12-6.37,6.99-.21,1.45-1.13,2.8-2.04,4.91Zm-85.51,22.68c-5.3-.31-7.9,2.5-6.42,7.89.96,3.52,3.03,6.25,6.81,7.21,4.79,1.22,9.18.44,12.74-3.1,3.65-3.63,4.8-8.11,3.4-13.06-1.72-6.04-9.49-9.69-15.1-6.95,1.18.72,2.26,1.26,3.2,1.99,4.17,3.24,4.54,9.79.45,13.11-1.2.97-4.02,1.46-5.07.72-1.57-1.11-2.53-3.43-3.05-5.42-.14-.55,2.19-1.75,3.06-2.41Zm-42.22-180.42c-2.77,3.22-1.28,5.91.25,8.63,1.44,2.55,1.26,5.42-1.31,6.47-1.82.74-4.51-.36-6.72-.99-.71-.2-1.27-1.46-1.6-2.34-.95-2.58-2.45-3.51-5.13-2.36-2.85,1.22-3.08,3.34-2.19,5.83,1.39,3.87,4.33,6.05,8.21,6.98,9.36,2.26,19.48-4.46,22.28-14.75q-5.01.25-13.8-7.46Zm-25.88,3.94c2.43-5.74-1.74-5.99-4.79-7.35-3.83-1.7-6.7-.87-8.94,2.57-6.99,10.7-.83,27.25,11.7,30.82-3.09-6.64-3.12-13.16.36-20.04-3.18,2.4-5.4,1.75-6.94-1.38-1.44-2.92-1.42-5.9,1.19-7.94,3.64-2.84,5.11,1.17,7.43,3.32Zm29.62,167.59c-1.06.08-2.68.05-4.23.36-7.42,1.5-11.76,7.34-10.49,13.97,1.16,6.04,8.34,10.86,14.88,9.97,4.14-.56,7.58-3.85,8.31-8.19.5-2.98.25-5.8-2.7-7.13-1.08,2.43-1.7,5.02-3.25,6.81-.73.84-4.25.81-4.74.04-1.54-2.4-3.41-5.54-2.97-8.01.5-2.81,3.35-5.21,5.2-7.82Zm72-141.49c10.09-4.09,15.93-14.42,14.44-24.1-.67-4.36-2.88-8.09-6.73-9.3-2.85-.89-6.55.43-9.68,1.38-.65.2-.46,3.13-.56,4.01,2.62-.7,5.65-2.24,6.32-1.54,1.67,1.76,3.23,4.6,3.08,6.89-.27,3.99-3.75,3.67-6.99,2.69,2.42,6.7,4.06,12.96.13,19.96Zm-29.38-30.32c-1.52,6.92-5.96,8.87-12.2,7.8,2.15,5.8,6.42,10.92,10.91,13.39,5.56,3.07,13.74,1.88,17.24-2.51,3.7-4.64,2.4-8.14-3.53-9.39-.8,1.57-1.42,3.29-2.46,4.7-1.75,2.37-4.2,3.42-6.91,1.77-2.68-1.63-3.68-4.09-2.09-7.13.45-.86.9-1.72,1.37-2.57,1.42-2.59.66-4.44-2.33-6.06Zm-17.11-41.48c12.7-7.07,24.58-1.27,28.5,11.63,3.27-4.81,3.76-14.32.79-18.48-4.3,1.94-8.34,5.97-13.67,2.42-4.96-3.31-5.09-8.14-3.88-13.33-7.64.61-12.83,8.8-11.73,17.76Zm79.34,233.37c3.41,0,5.92.29,8.35-.05,7.54-1.05,12.48-7.46,11.32-14.7-.24-1.48-1.19-3.67-2.31-4.05-4.55-1.53-9.29-2.49-13.96-3.66-.18.36-.36.73-.55,1.09,5.75,7.72,3.91,14.58-2.85,21.37Zm-100.57-251.07c1.28,6.49.33,10.06-3.2,12.67-6,4.44-10.66.72-15.12-2.95-3.6,5.52-3.22,15.86.51,20.11.88-6.84,5.39-10.9,10.94-13.84,5.96-3.16,11.72-1.27,17.24,2.05.63-9.75-2.69-15.55-10.37-18.04Zm-68.84,250.57c-7.3-6.07-8.41-13.11-2.96-21.51-3.97.53-7.27.82-10.51,1.44-4.65.9-6.23,3.17-5.95,8.01.58,9.98,7.98,14.71,19.42,12.06Zm37.18-201.47c5.88.16,10.16-2.67,10.27-6.79.15-5.48-5.08-12.86-9.18-12.95-4.46-.1-10.75,6.17-10.96,10.91-.23,5.13,3.71,8.66,9.88,8.83Zm-40.6,265.63c-6.94,6.66-13.64,13.1-20.34,19.53.28.29.56.58.84.86,4.15-.9,8.26-2.16,12.46-2.62,4.14-.45,8.37-.1,11.73-.1-1.39-5.23-2.9-10.91-4.7-17.68Zm82.36-169.19c-3.89,2.62-6.96,4.48-9.8,6.64-4.26,3.24-5.59,7.88-5.21,12.97.27,3.71,2.83,5.18,6.17,3.57,1.67-.81,3.36-2.15,4.34-3.69,3.52-5.57,4.37-11.86,4.51-19.49Zm40.11,8.23c4.81,4.85,17.51,7.16,23.86,3.88,5.22-2.69,7.27-8.17,4.67-12.49-2.42-4.02-6.8-4.34-12.05-1.11-5.49,3.37-11.09,6.55-16.48,9.73Zm74.07,181.06c-5.8-7.16-12.18-13.68-19.79-18.38-1.84,6.03-3.56,11.65-5.21,17.04,13.58-1.83,14.47-1.78,25.01,1.34Zm-102.35-188.55c.13,7.84.96,14.49,5.5,19.9,1.34,1.6,4.28,2.93,6.27,2.68,3.15-.4,3.29-3.63,3.19-6.35-.35-9.24-7.97-11.66-14.96-16.23Zm49.14-106.1c.07-5.53-4.86-10.79-10.11-10.8-3.55,0-8.71,7.02-8.82,11.99-.09,4,4.23,7.43,9.44,7.5,5.87.07,9.42-3.18,9.49-8.69Zm-90,113.47c-4.9-2.9-9.91-5.89-14.96-8.82-1.31-.76-2.71-1.42-4.13-1.94-4.86-1.74-7.87-.9-9.7,2.59-1.86,3.55-.46,8.61,3.08,11.07,6.47,4.52,21.21,2.44,25.72-2.91Zm-121.92,204.46c-.43-.11-.87-.22-1.3-.34-3.33,4.04-5.86,4.87-8.12,2.67-3.14-3.07-2.02-6.53,4.06-11.74-1.77-1.03-3.39-2.04-5.06-2.94-3.82-2.06-6.1-1.38-8.2,2.37-2.41,4.32-1.01,10.85,3,13.97,3.97,3.09,10.89,2.9,14.26-.59.79-.81.92-2.25,1.36-3.41Zm317.58-9.3c5.08,1.19,8.17,3.32,7.88,7.75-.11,1.63-1.73,4.49-2.63,4.48-2.76-.05-5.49-1.21-8.52-2.02-.58,2.47,1.69,3.92,4.13,4.69,4.42,1.38,8.55.32,12.03-2.71,3.41-2.97,3.98-6.91,3.02-11.06-1.2-5.18-3.99-6.48-8.92-4.39-1.99.85-3.93,1.82-7,3.25Zm63.15,127.9c-7.12-.6-13.1-2.85-16.91-10.29-1.73,8.41-7.9,11.54-14.8,15.06,11.68.91,22.04.37,31.71-4.76Zm-302.97-336.81c-2.73-2.63-5.34-4.68-7.36-7.21-2.03-2.53-3.48-5.53-5.72-9.19-3.16,3.28-6.44,5.88-8.66,9.2-2.98,4.46-1.38,7.96,3.71,9.62,6.38,2.07,12.25.33,18.04-2.41Zm-11.14,251.66c-.09,1.28-.25,3.5-.37,5.28h23.26c-2-4.38-3.69-8.09-5.02-11.01-5.98,1.92-11.75,3.77-17.86,5.73Zm168.82-251.26c4.91,2.32,10.73,4.09,16.91,2.25,6.57-1.95,8.08-7.98,3.36-12.87-1.79-1.85-4.01-3.29-5.61-4.58-5.06,5.25-9.77,10.12-14.67,15.2Zm-301.15,337.56c9.23,4.38,18.87,4.27,28.84,3.24-7.32-1.53-11.06-6.6-13.04-12.16-5.22,2.95-10.26,5.79-15.8,8.92Zm212.04-443.05c2.82-3.69,2.63-7.07-.57-10.28-3.02-3.04-8.78-2.96-12.61.17-4.03,3.3-5.48,10.16-2.94,13.98,2.18,3.28,7.01,4.76,10.17,3.28-.86-2.3-1.71-4.58-2.62-6.99,0,0-.39.09-.75.25-1.28.57-2.55,1.17-3.82,1.76-.57-1.6-1.58-3.2-1.6-4.82-.05-2.95,2.07-4.37,4.77-4.92,4.94-1,8.09,1.42,9.96,7.57Zm57.77,420.8c.01-4.85-4.56-8.51-10.86-8.69-4.32-.13-7.67,3.45-7.61,8.15.06,4.89,4.26,9.46,8.73,9.48,5.14.03,9.73-4.19,9.75-8.94Zm-94.15.26c0,4.84,3.96,8.8,8.71,8.74,4.91-.07,9.35-4.69,9.46-9.85.09-4.38-3.91-7.98-8.89-7.98-5.39,0-9.29,3.81-9.29,9.09Zm63.26-413.27c4.38.36,7.85-.84,9.94-4.72,2-3.71,1.34-8.14-1.47-11.26-3.22-3.58-8.12-5.26-11.59-3.86-3.18,1.29-4.8,3.85-4.74,7.17.03,1.68.98,3.34,1.51,5.02,1.85-5.8,3.58-7.93,7.57-7.88,3.11.04,6.45.47,7.23,4.23.55,2.66.46,5.55-3.07,6.53-1.21-1.45-2.27-2.71-3.63-4.33-.65,3.4-1.16,6.02-1.75,9.1Zm-33.01,267.24c1.61-2.57,2.5-5.77,4.23-6.3,1.86-.58,4.5,1.33,6.33,1.98v-13.02c-3.86,2.49-6.82,4.49-9.87,6.36-3.08,1.89-6.25,3.66-10.23,5.97,4.05,2.13,7.07,3.71,9.54,5.01Zm-130.29-60.89c-3.12,2.41-6.39,4.5-9.13,7.16-4.67,4.54-3.2,9.83,3.31,10.87,4.32.69,8.89-.2,13.14-.37-2.54-6.12-4.74-11.41-7.33-17.65Zm152.54,43.26c-.25,5.62-.44,9.86-.59,13.36,2.84-.84,5.48-2.53,7.39-1.91,1.76.56,2.72,3.6,4.34,6.01,2.09-1.05,4.98-2.5,8.62-4.32-6.65-4.42-12.59-8.38-19.75-13.14Zm-11.46-80.43c-.4-.15-.8-.31-1.21-.46-3.58,4.06-7.17,8.12-10.53,11.93,4.26,3.42,7.96,6.4,11.74,9.44v-20.91Zm11.54,20.37c3.7-2.9,7.63-5.98,11.87-9.31-3.78-4.05-7.42-7.95-11.87-12.72v22.04Zm91.51,255.64c-4.04-3.1-7.24-5.69-10.61-8.05-.8-.56-2.45-.85-3.17-.41-3.94,2.45-7.71,5.16-12.51,8.45h26.29Zm-171.02.09c-3.59-3.27-6.35-5.95-9.33-8.36-.72-.58-2.49-.76-3.22-.28-3.86,2.52-7.54,5.3-12.17,8.64h24.73Zm220.71-238.49c-2.61,6.1-4.9,11.46-7.65,17.9,4.15,0,8.18.49,12.03-.12,5.62-.88,7.44-5.81,3.83-10.19-2.33-2.83-5.41-5.05-8.22-7.59Zm-174.05-199.16c-5.16-2.1-16.34,6.64-15.76,11.55,9.38,1.95,11.57-5.81,15.76-11.55Zm70,11.67c-.84-8.5-9.71-8.51-13.54-13.42-.47-.6-2.38-.08-3.62-.08l-.17,1.33c4.79,5,7.58,12.61,17.34,12.17Zm24.47,335.09h24.6c-.55-1.2-1.1-2.4-1.71-3.75-6.78,1.27-12.99.37-18.35-4.79-1.46,2.74-2.73,5.14-4.53,8.53Zm-117.28-57.36c-2.8,5.14,4.96,11.84,14.56,12.07-.73-4.01-1.47-8.09-2.04-11.25-1.9,1.23-4.04,3.72-5.96,3.56-2.22-.19-4.23-2.71-6.56-4.38Zm23.27,60.22c3.57-.7,9.5-5.69,8.63-7.78-.68-1.64-3.58-3.03-5.64-3.28-3.73-.44-6.92,2.6-6.34,5.94.32,1.85,2.18,3.42,3.35,5.12Zm-158.03,75.59c-1.58-1.92-3.12-3.35-4.09-5.09-1.74-3.11-4.19-5.11-7.65-5.67-1.21-.19-2.52.24-3.78.39.25,1.29.09,2.88.81,3.81,3.6,4.65,8.5,6.65,14.72,6.56Zm251.77-233.83c4.4,4.18,10.87,4.95,13.52,1.6.92-1.17,1.57-3.84.91-4.64-.91-1.1-3.42-1.83-4.83-1.4-3.22,1-6.19,2.8-9.6,4.44Zm-89.44-131.94c2.33,4.79,5.38,6.15,8.64,4.31,3.66-2.07,5.01-8.2,2.58-11.73-1.8-2.63-4.52-2.77-8.1-.18,3.73.94,5.87,3.11,4.35,6.82-1.52,3.71-4.45,2.67-7.47.78Zm40.39,280.27c-.16.65-.32,1.29-.48,1.94,1.7,1.92,3.21,4.06,5.18,5.65,1.08.87,3.44,1.54,4.3.96,1.35-.92,2.59-2.97,2.61-4.56.02-1.38-1.54-3.76-2.72-3.98-2.86-.53-5.92-.07-8.89,0Zm0-289.24c-2.35-1.56-5.04-1.03-7.06,2.1-2.32,3.6-1.52,8.71,1.68,10.76,2.9,1.86,5.84,1.16,7.3-1.02-1.93-1.82-4.75-3.27-5.17-5.23-.38-1.75,1.9-4.07,3.25-6.6Zm-1.2-121.51c1.54.96,3.58,3.15,4.74,2.75,2.16-.73,4.53-2.63,5.51-4.67,1.49-3.1.37-6.56-2.55-8.44-1.36-.88-3.77-.15-5.15-.15,1.47,2.73,3.12,4.81,3.51,7.1.11.66-3.37,1.94-6.07,3.4Zm-83.66,262.31c-3.63-1.56-6.61-3.08-9.76-4.1-2.23-.73-5.14-1.12-5.88,1.97-.71,2.95,1.52,4.58,4.16,5.26,4.07,1.06,7.58-.41,11.48-3.13Zm252.4,232.84c3.79,1.29,12.44-2.24,13.78-5.82.8-2.13.31-4.3-2.22-4.15-1.98.11-4.26,1.21-5.72,2.6-2.26,2.15-3.94,4.91-5.84,7.37Zm-334.41-111.18c2.88-3.13,6.19-6.72,9.03-9.81-3.35-.28-7.76-.64-11.57-.96.91,3.84,1.8,7.61,2.55,10.77Zm171.58-356.66c2,1.22,3.35,1.14,5.32-.83,2.39-2.4,2.9-7.08,1.11-10.05-2.05-3.39-6.69-4.68-11.61-3.07,3.63,1.4,8.31,1.75,8.23,6.73-.04,2.25-1.83,4.47-3.05,7.22Zm-41.79-14.01c-4.36-1.38-7.55-.24-9.67,2.86-2.14,3.14-2.06,6.8.5,9.66,1.25,1.4,3.59,1.81,5.44,2.67-3.93-8.84-3.46-11.22,3.74-15.19Zm-.63-23.69c-3.38-2.07-6.01-1.53-7.81,2.13-1.74,3.54-.34,8.84,2.92,10.1,2.6,1.01,5,.75,5.67-1.26-2.2-2.46-4.79-4.09-4.97-5.95-.15-1.49,2.62-3.27,4.19-5.03Zm4.06,16.71c2.96,2.06,6.17,4.28,9.66,6.71-.47-5.68-.43-11.14-4.99-15.32-1.75,3.23-3.18,5.86-4.67,8.62Zm153.43,368.56c4.59,3.8,8.32,6.9,11.38,9.43.51-2.94,1.18-6.8,1.83-10.55-3.82.32-7.79.66-13.22,1.11Zm-123.32-368.5c-1.28-2.69-2.49-5.24-3.7-7.79-4.06,2.64-5.99,8.7-4.42,13.71,2.62-1.91,5.26-3.84,8.12-5.93Zm-5.47-31.95c.17.19.32.53.5.55,2.99.29,4.76,1.88,4.25,4.91-.47,2.81-2.15,4.03-5.15,2.6-.54-.26-1.99.45-2.37,1.09-.36.62-.18,2.07.33,2.55.68.63,1.97,1.06,2.89.9,4.93-.86,8.07-7.26,5.9-11.78-1.49-3.11-3.5-3.37-6.36-.82Zm-14.45,127.24c-2.92,3.33-5.22,5.95-7.61,8.68,2.68,1.93,5.06,3.63,7.61,5.47v-14.15Zm159.66,362.33c-6.85,3.24-11.12-.97-15.74-4.04,1.73,4.49,3.39,8.86,8.97,9.22,3.29.21,5.5-1.28,6.78-5.18ZM364.4,94.75c-2.86-2-5.86-.75-6.45,3.29-.54,3.75,2.24,8.42,5.91,9.65,2.73.91,3.85-.28,3.59-3.17-2.88-.7-7.02.03-6.7-4.43.12-1.75,2.24-3.37,3.65-5.34Zm23.3,136.19c-2.52-2.2-4.81-4.21-7.96-6.96v12.99c2.68-2.03,4.96-3.76,7.96-6.03Zm-166.85,354.43c1.24,3.92,3.68,4.86,6.91,4.5,4.02-.46,6.79-3.52,8.33-9.7-4.53,3.98-8.64,8.05-15.24,5.2Zm193.38-184.93c2.71,4.06,5.75,4.79,9.05,3.09.85-.44,1.52-1.94,1.53-2.97,0-.55-1.61-1.67-2.41-1.59-2.75.27-5.46.94-8.18,1.47Zm-86.93-178.61c.32,7.15,5.05,10.87,11.23,8.78-3.73-2.92-7.54-5.9-11.23-8.78Zm7.87,180.73c-.03-.52-.06-1.04-.08-1.56-2.47-.7-4.9-1.65-7.42-1.96-.95-.12-2.08,1.27-3.14,1.97.79.96,1.6,2.74,2.37,2.72,2.76-.06,5.51-.73,8.27-1.17Zm75.16-171.58c7.12.93,11.82-2.98,10.85-8.82-3.56,2.9-7.28,5.92-10.85,8.82Zm-28.36,169.06c1.37,3.79,2.4,6.65,3.42,9.45,1.86-1.68,3.56-3.2,5.24-4.72-2.48-1.36-5.13-2.81-8.65-4.73Zm-.94-203.24c3.81-5.66,3.59-7.07-1.58-10.95.6,4.18,1.09,7.56,1.58,10.95Zm-89.99,22.94c.18.54.36,1.07.55,1.61,2.49-.61,5.66-.55,7.21-2.09.96-.95-.56-4.38-.96-6.7-.39,0-.78,0-1.17,0-1.48,2.7,0,7.65-5.63,7.19Zm76.44-22.43c.47-4.42.83-7.83,1.29-12.22-5.38,5.15-5.46,5.9-1.29,12.22Zm37.61-68.95c3.4.7,6.16,1.27,8.93,1.84-4.84-5.91-5.86-6.13-8.93-1.84Zm51.2,93.67c-2.04-3.38-3.44-5.71-5.46-9.07-.56,2.55-1.85,5.25-1.15,5.95,1.51,1.52,4.06,2.02,6.61,3.12Zm-92.31,187.72c.77-2.61,1.55-5.25,2.62-8.86-3.13,1.55-5.19,2.57-6.95,3.44,1.42,1.78,2.72,3.4,4.33,5.42Zm-30.38-280.46c3.59.81,6.68,1.02,8.94-2.4-2.53-2.25-5.62-1.42-8.94,2.4Zm35.13-39.53c.3-.1.59-.2.89-.3-.19-2.88-.37-5.76-.64-9.89-1.72,2.88-2.75,4.6-3.81,6.38,1.35,1.44,2.45,2.63,3.56,3.81Zm9.89.05c5.09-3.56,5.13-4.48.63-8.26-.21,2.71-.39,5.14-.63,8.26Zm-163.38,552.07c.48-3.42.74-5.52-2.26-5.15-1.06.13-1.97,1.44-2.95,2.21,1.52.86,3.04,1.71,5.21,2.94Zm330.84-1.31c-1.48-1.97-2.34-3.12-3.2-4.27-1.37,1.03-2.73,2.05-4.1,3.08.26.39.52.79.78,1.18h6.52Z"/></svg>