<?xml version="1.0" encoding="UTF-8"?><svg id="Layer_3" xmlns="http://www.w3.org/2000/svg" viewBox="0 0 771 774.25"><defs><style>.cls-1{fill:none;stroke:red;stroke-miterlimit:10;}</style></defs><path class="cls-1" d="m421.64,474c3.27-3.31,6.32-6.39,9.1-9.21-4.14.93-8.69,1.95-13.76,3.09,1.83,2.4,3.36,4.42,4.66,6.12Z"/><path class="cls-1" d="m335.39,170.29c1.4-2.01,2.81-4.03,4.3-6.17-5.22-1.16-3.92,3.23-4.3,6.17Z"/><path class="cls-1" d="m307.4,477.74c.72-8.14,2.54-16.17,3.53-24.3.63-5.16.63-10.4.91-15.6-.32-.02-.65-.04-.97-.06-.75,3.73-1.53,7.45-2.24,11.19-1.05,5.48-2.87,10.53-7.35,14.26-.79.65-1.29,1.75-1.71,2.73-5.63,13.01-11.25,26.02-16.81,39.06-2.9,6.78-5.68,13.61-8.76,21,4.65-1.83,8.3-3.63,12.15-4.7,6.92-1.92,14-3.07,20.08-7.46,2.12-1.53,5.28-1.62,8.33-2.48-7.05-10.43-8.21-21.9-7.16-33.63Z"/><path class="cls-1" d="m392.86,406.31c-1.12-.57-3.28-.28-4.38.5-2.66,1.86-5.19,4.02-7.33,6.44-1.67,1.89-2.67,4.37-4.12,6.84.86,1.56,1.25,3.3,2.31,3.91.92.53,2.97.25,3.83-.49,3.46-2.97,6.75-6.16,9.89-9.46.89-.94,1.48-2.57,1.45-3.86-.04-1.36-.64-3.38-1.63-3.88Z"/><path class="cls-1" d="m740.75,34.25H49.75c-6.6,0-12,5.4-12,12v682c0,6.6,5.4,12,12,12h691c6.6,0,12-5.4,12-12V46.25c0-6.6-5.4-12-12-12Zm-172.38,583.15c1.09,2.33.98,4.39-.95,6.29-.5.49-.86,1.38-.84,2.08.08,2.89-.71,5.19-3.63,6.22,1.44,5.79-.1,7.62-6.04,7.59-1.39,0-2.81.39-4.16.78-14.92,4.32-30.19,4.75-45.55,4.25-8.86-.29-17.71-.66-26.56-1.07-2.07-.1-4.16-.33-6.18-.77-9.83-2.16-14.63-9.87-12.09-19.62.62-2.39,1.53-4.94,3.05-6.81,1.88-2.32,1.43-4.16.79-6.73-1.36-5.42-2.05-11.02-3.02-16.58-5.28.68-11.31,1.48-17.34,2.22-1.41.17-2.87.35-4.25.16-7-.97-13.68-1.58-20.13,3-2.53,1.8-6.74,1.6-10.2,1.68-13.56.31-27.13.37-40.69.52-1.83.02-3.65,0-5.29,0,7.11,4.43,14.21,8.83,21.3,13.25,5.42,3.38,8.75,7.97,8.03,14.64-.72,6.71-4.86,10.78-10.88,13.17-1.82.72-3.7,1.41-5.61,1.8-10.48,2.17-20.94,4.55-31.51,6.22-4.85.76-9.94-.02-14.92.05-1.36.02-2.74.91-4.05.78-2.38-.23-5.14-.32-6.95-1.59-2.25-1.57-1.93-4.43-.62-6.88-4.45-.86-5.56-2.54-4.87-7.08.09-.56-.15-1.17-.24-1.75-.28-1.96-.57-3.91-.87-6.04-5.15-2.52-10.82-5.07-16.27-8.01-10.76-5.8-18.49-14.5-23.67-25.54-.59-1.26-1.32-2.61-2.36-3.46-8.71-7.08-15.02-15.72-17.93-26.99-1.36,1.69-2.6,3.17-3.77,4.7-.31.4-.72,1.02-.61,1.41,1.31,4.86.49,10.23,3.79,14.65,1.4,1.87,1.96,4.24-.28,6.21-1.39,1.21-2.55,1.4-3.79-.35-2.62-3.7-5.39-7.3-8.65-11.67,0,2.81-.2,5.08.06,7.29.25,2.15,1.05,4.24,1.48,6.38.57,2.86-.52,4.47-3.01,4.7-2.85.26-3.7-1.24-3.45-3.8.02-.24-.15-.51-.5-1.56-.53,2.15-.8,3.58-1.24,4.96-.84,2.61-2.84,3.2-5.23,2.6-2.56-.65-2.07-2.42-1.63-4.43.79-3.56,1.22-7.19,1.8-10.8-.29-.13-.58-.25-.88-.38-.91,1.39-1.86,2.75-2.72,4.17-.79,1.3-1.2,3.2-2.33,3.84-1.38.77-3.54,1.04-5.01.52-2.06-.72-.81-2.4-.23-3.83,1.51-3.73,2.56-7.67,4.34-11.26,1.47-2.97,3.52-5.73,5.68-8.27,2.58-3.03,4.46-5.86,4.69-10.28.26-5.1,2.3-10.11,3.65-15.13.31-1.14.98-2.19,1.46-3.28,2.48-5.66,3.93-10.98,2.3-17.68-1.39-5.72.19-12.37,1.31-18.44,3.05-16.55,6.29-33.07,9.99-49.48,1.64-7.26,5.9-13.49,9.79-19.89,4.97-8.18,8.77-17.08,12.92-25.75,4.25-8.89,5.9-18.47,7.32-28.13,1.54-10.55,6.75-19.31,14.29-26.71,2.87-2.82,3.31-2.85,5.88.32,9.08,11.22,18.25,22.39,27.03,33.84,18.23,23.79,36.51,47.55,54.26,71.7,15.99,21.76,31.3,44.03,46.91,66.08.06.09.12.18.18.27,1.35,1.97,1.28,1.79,3.66.89,2.23-.85,4.68-1.94,6.92-1.74,3.48.31,5.93-1.46,8.71-2.76,11.83-5.54,23.64-4.96,35.03.99,4.77,2.49,9.51,3.93,14.83,4.52,10.03,1.1,19.58,3.78,26.94,11.38,8.05,8.3,10.61,18.12,7.91,29.31-.56,2.33-1.1,4.75-2.17,6.86-3.24,6.35-1.86,13.01-1.97,19.23,6.62-.2,13.04-.37,19.46-.62.95-.04,1.87-.53,2.82-.71,2.45-.44,4.91-1.14,7.38-1.15,3.6-.02,6.6,1.52,8.25,4.95,1.41,2.94.74,5.66-2.19,9.64,4.51,2.9,4.72,3.69,2.73,9.04-.19.51.14,1.31.41,1.89Zm-195.38-236.64c-.33-2.82-3.02-4.62-6.09-3.68-1.82.56-2.95.48-3.56-1.41-.72-2.22.35-3.58,2.29-4.4,6.39-2.73,14.38,1.98,15.31,8.99.91,6.82-2.91,12.16-9.73,13.13-3.76.53-7.59.48-11.69.71,2.57,2.84,5.11,5.64,7.68,8.48-1.33,2.03-2.51,3.84-4.09,6.24-5.98-6.77-11.78-13.33-18.24-20.65,4.29-.69,8.04-1.45,11.82-1.87,3.8-.41,7.63-.45,11.45-.7,3.38-.22,5.17-2.05,4.84-4.85Zm42.79,53.08c-.27-2.63-2.53-4.18-5.57-3.55-1.59.33-3.4.94-3.55-1.23-.08-1.27.96-3.19,2.07-3.85,3.43-2.04,6.99-1.37,10.18.82,4.08,2.8,5.68,7.52,4.41,12.46-1.15,4.52-5,7.63-10.47,7.99-4.01.26-8.05.05-12.2.05,1.14,1.2,2.45,2.67,3.84,4.04,1.47,1.45,3.02,2.81,4.48,4.16-1.2,1.86-2.18,3.37-3.15,4.87.03-.03.06-.05.08-.08l-.11.12s.02-.03.03-.04c-.51.47-1.03.95-1.72,1.58-5.82-6.74-11.56-13.41-17.85-20.7,4.69-.65,8.83-1.38,13.01-1.75,3.92-.35,7.87-.26,11.8-.45,3.44-.17,5-1.71,4.72-4.45Zm13.33,49.41c-1.42,1.44-2.92,2.95-4.88,4.94-.74-1.27-1.29-2.2-2.09-3.57-1.31,1.71-2.22,2.91-3.38,4.42-2.08-2.74-3.83-5.06-5.73-7.56,1.24-.92,2.25-1.67,3.49-2.59-2.45-3.47-4.87-6.81-7.19-10.22-.62-.91-.95-2.02-1.4-3.05-.05,0-.1.02-.15.03,0,0,.11-.12.11-.12.01.03.02.06.04.09,7.97-1.56,15.97-3,23.9-4.77,2.25-.5,4.27-1.99,6.97-3.31,1.27,1.71,2.97,4.01,4.56,6.16-5.61,5.25-11,10.31-16.52,15.48.74,1.33,1.42,2.54,2.27,4.07Zm-28.17-67.44c-.23.81-.49,1.61-.68,2.22l-5.78,7.42c-.96.72-1.87,1.52-2.89,2.14-6.53,3.94-13.36,3.37-17.7-1.42-4.18-4.62-4.08-12.47.68-18.03,2.3-2.69,5.12-5.11,8.11-7,4.69-2.98,9.6-2.64,14.08.78,4.08,3.11,5.67,8.63,4.19,13.9Zm169.95,111.59c.4,1.92,1.25,3.79,1.38,5.72.09,1.29-.52,3.6-1.21,3.76-1.32.31-3.34-.15-4.31-1.09-1.31-1.26-1.91-3.26-3.09-5.46-.24,3.68-.58,6.78-.6,9.88-.01,2.2-.7,3.79-2.95,3.94-2.46.15-3.73-1.34-4.02-3.79-.4-3.46-.92-6.9-1.39-10.35-.44.03-.88.06-1.32.09-.21,3.27-.28,6.57-.68,9.82-.18,1.43-.64,3.19-1.62,4.09-2.14,1.97-5.51-.1-5.28-3.65.36-5.51-2.2-9.86-4.06-13.68-6.18-1.01-11.89-1.78-17.52-2.93-4.31-.88-7.3-3.67-9.35-7.6-.54-1.04-1.86-1.72-2.89-2.46-3.26-2.33-7.02-4.17-9.77-7-12.79-13.16-23.58-27.85-32.59-43.85-.51-.91-1.04-1.8-1.86-3.23.79,8.76,1.53,16.83,2.26,24.91-.29.08-.59.16-.88.24-33.36-59.62-74.11-113.71-121.29-163.28,2.85-1.54,6.07-3.28,9.13-4.93-.66-3.45-1.25-6.75-1.94-10.04-.15-.7-.62-1.35-1.05-1.95-3.12-4.42-6.27-8.82-9.17-12.9-2.29.35-5.24,1.47-7.96,1.05-3.58-.55-5.73-3.67-6.7-7.03-2.47-8.6-4.67-17.28-6.94-25.93-.16-.62-.11-1.31-.13-1.96-.16-5.88,1.87-7.98,7.88-8.16.13-.3.25-.6.38-.9-1.07-.45-2.11-1.01-3.22-1.32-1.69-.46-4.57,1.12-4.21-2.63.03-.28-.13-.75-.33-.85-1.47-.75-2.79-1.36-1.48-3.48.27-.43-.93-2.09-1.77-2.81-2.26-1.93-2.59-4.6-2.19-7.05.24-1.45,2.09-2.64,3.23-3.96-.49-.19-1.37-.52-2.61-1,1.12-.2,1.9-.34,3.37-.61-2.59-2.35-4.77-4.34-7.26-6.6.83-2.17,3.39-4.03,2.09-7.69-.73-2.07,2.58-5.3-2.14-7.63h3.36c.9-2,1.81-4.02,2.71-6.03-.96-.31-1.79-.57-2.62-.84.58-.46,1.16-.91,1.87-1.47-.26-.29-.64-.71-.89-.99,3.32-2.3-.34-9.11,6.47-9.23-.73-.84-1.16-1.34-1.81-2.09,2.35-1,2.48-2.58,2.16-5.08-.28-2.2,1.32-4.64,2.18-7.26,2.38,2.46,3.21,1.06,3.63-.97.29-1.43.04-3.05.59-4.34.6-1.41,1.68-2.75,2.87-3.73,1.59-1.29,2.74-.36,4.08,1.02,1.2,1.23,3.15,1.73,4.77,2.56.14-.24.27-.49.41-.73-1.1-.94-2.21-1.87-3.88-3.28,2.31.42,4.3,1.4,5.1.81,3.06-2.29,6.79-2.64,10.05-4.22.39-.19.66-1.18.55-1.71-.77-3.63-1.58-7.26-2.53-10.84-.66-2.49-1.29-4.79-4.61-5.55-2.46-.56-3.35-3.16-2.31-5.65.92-2.18,2.66-3.49,5.25-2.77,2.57.71,4.18,3.07,3.24,5.52-1.11,2.9-.02,4.64,2.24,6.02,2.61,1.59,5.41,1.94,8.01.13,3.13-2.19,3.69-5.87,2.01-9.37-.42-.88-.35-2.69.24-3.18.82-.67,2.51-.93,3.49-.54.74.3,1.63,2.23,1.32,2.85-1.55,3.02.53,4.36,2.44,5.46,3.05,1.76,6.37,1.66,9.37-.18,3.25-1.99,5.09-5.12,5.58-8.85.1-.76-1.22-1.8-2.03-2.56-2.41-2.28-3.04-5.42-1.5-8.01,1.45-2.44,4.54-3.58,7.45-2.75,2.99.86,5.15,3.66,4.55,6.7-.33,1.65-1.73,3.09-2.65,4.62-.46.76-1.35,1.5-1.35,2.25.01,6.14,7.86,11.53,13.47,9.14,2.29-.97,4.94-2.12,3.94-5.77-.22-.78.7-2.31,1.52-2.81.67-.41,2.42-.15,2.87.44.57.74.5,2.15.38,3.23-.18,1.53-1.14,3.11-.9,4.52.44,2.63,1.64,5.11,4.74,5.61,3.13.5,6.05-.36,7.89-2.91.73-1-.08-2.99.26-4.43.39-1.65.95-4.18,2.03-4.54,1.62-.54,4.2-.07,5.53,1.01,1.01.82,1.24,3.39.83,4.91-.28,1.05-2.3,1.58-3.47,2.44-1.03.75-2.56,1.46-2.84,2.47-1.09,3.99-1.9,8.08-2.57,12.17-.6,3.67,3.06,3.93,5,5.25,2.26,1.53,5.92,1.49,7.51,3.38,1.85,2.18,4.11,4,5.75,6.36.23.34.52.63,1.33.72l-.92-3.03c.23-.1.46-.19.69-.29.4.79.81,1.59,1.55,3.05.33-1.6.53-2.61.91-4.43,1.13,2.98,2.01,5.29,2.58,6.79,1.34,1.28,2.26,1.91,2.84,2.77.66.99,1.02,2.18,1.48,3.21-.2,1.29-.43,2.74-.75,4.77,1.06-.31,1.69-.49,1.88-.54h0s.02,0,.03,0c.04-.01.04-.01,0,0,0,0-.02,0-.03,0,.89,1.27,1.48,2.17,2.13,3.02.57.75,1.94,1.34.23,2.37-.15.09.04,1.25.39,1.59,3.7,3.58,3.98,4.77,1.67,9.77,1.67-.51,2.9-.9,3.62-1.12.06.91.19,2.05.17,3.19-.01.85.09,2.13-.39,2.47-2.87,2.05-.4,3.2.71,4.51-2.83,2.86-2.53,4.5,1.4,9.25-.68.55-1.56.97-1.97,1.66-1.04,1.75-1.86,3.63-2.79,5.46-.33.65-1.1,1.77-.99,1.86,3.85,3.2.5,7.32,1.44,10.85.08.29.22.57-.42.4-1.02,1.33-2.45,2.52-2.99,4.02-1.27,3.53-3.66,5.79-7.1,6.29-.99.14-1.89.85-2.65,1.65,7.05-.76,10.47,1.93,9.48,8.92-.99,6.99-3.11,13.83-4.93,20.68-.84,3.15-1.8,6.36-3.32,9.21-2.67,5-8.2,6-12.15,3.21-3.76,4.66-8.19,8.88-10.98,14-2.54,4.67-3.33,10.3-4.73,15.55-.1.37,1,1.27,1.7,1.61,6.22,3.04,12.63,5.41,19.61,6.14,26.01,2.71,42.3,25,42.38,47.76.05,14.46,4.26,27.28,11.25,39.53.22.38.54.74.62,1.15,1.62,7.79,6.38,13.54,11.52,19.37,5.18,5.87,7.36,13.55,9.65,21.01,1.89,6.15,4.12,12.2,6.3,18.27.43,1.2,1.17,2.37,2.02,3.33,2.98,3.4,4.9,7.28,5.28,11.77.21,2.47,1.46,3.39,3.69,3.74,2.16.34,4.41.59,6.4,1.41,10.86,4.48,21.13,9.75,26.02,21.49.34.81.68,1.61,1.03,2.41.74,1.72,1.67,3.39-.46,4.96-.41.3-.27,1.61-.11,2.4Z"/><path class="cls-1" d="m358.1,155.59c2.77-.91,5.5-1.71,8.16-2.72,2.61-.99,5.75-3.71,7.57-2.98,3.5,1.41,4.5-2,6.87-2.05,2.59-.06,5.18-.01,7.77-.01.71,0,1.63,1.22,2.28,1.1,1.73-.33,3.22-2.51,5.18-.42,3.69-2.33,7.32-.45,10.62.75,1.96.71,3.2.76,4.48.45,3.14.94,6.29,1.88,9.43,2.83.08-.36.16-.72.23-1.09-14.42-8.72-50.21-8.87-62.59,4.16Z"/></svg>