<?xml version="1.0" encoding="UTF-8"?><svg id="Layer_2" xmlns="http://www.w3.org/2000/svg" viewBox="0 0 768 768"><defs><style>.cls-1{fill:red;stroke-width:0px;}</style></defs><path class="cls-1" d="m671.04,509s.02.02.04.03c.26.21.69.55.81.73-.05.25-.46.8-.79,1.24-.06.08-.12.16-.18.25-.06-.07-.11-.14-.16-.21-.25-.32-.55-.71-.65-.91.12-.32.54-.74.91-1.11,0,0,.02-.02.03-.03m-.07-1.38c-.66.79-1.69,1.51-1.87,2.4-.13.63.87,1.5,1.83,2.97,1-1.58,1.99-2.46,1.96-3.31-.02-.7-1.24-1.37-1.92-2.05h0Z"/><path class="cls-1" d="m154.47,197.42c.18.53.36,1.06.55,1.58.98,2.84,1.91,5.53,2.69,8.26,1.49,5.2.96,7.91-2.95,11.17,1.24-3.79,1.07-7.94-.48-12.77-.88-2.74-.83-5.41.18-8.24m.12-2.76c-1.99,3.85-2.49,7.46-1.26,11.31,1.7,5.29,1.94,10.5-1.09,15.55,7-4.68,8.37-7.74,6.42-14.53-1.16-4.04-2.63-7.98-4.08-12.33h0Z"/><path class="cls-1" d="m666.66,450.64c.13.16.26.31.38.46.41.48.97,1.15.99,1.37-.04.24-.7.81-1.05,1.11-.07.06-.14.12-.21.18-.07-.06-.14-.11-.21-.17-.37-.29-1.05-.83-1.09-1.06-.02-.22.5-.93.87-1.45.1-.14.21-.29.32-.45m-.06-1.71c-1.07,1.76-2.23,2.81-2.12,3.72.11.9,1.49,1.65,2.32,2.46.8-.86,2.18-1.68,2.24-2.58.06-.91-1.2-1.89-2.43-3.6h0Z"/><path class="cls-1" d="m545.52,489.25c.53.25,1.6,1.44,1.69,1.91-.11.83-1.2,2.11-2.15,2.55-.31-.11-1.03-.62-1.62-1.04-.33-.24-.69-.5-1.07-.76.34-.32.64-.62.93-.9.92-.9,1.61-1.57,2.22-1.76m0-1.02s-.06,0-.08,0c-1.39.29-2.5,1.9-4.72,3.8,2.09,1.27,3.54,2.69,4.36,2.69.08,0,.15-.01.22-.04,1.29-.51,2.76-2.16,2.89-3.46.1-.93-1.87-3-2.68-3h0Z"/><path class="cls-1" d="m665.45,489.1c.07,0,.15,0,.22.01,1.85.2,2.86,1.26,3.16,3.33-.1,2.02-1.81,3.91-3.56,3.91-.08,0-.16,0-.24-.01-2.1-.23-3.11-1.38-3.09-3.53.02-1.8,1.83-3.71,3.52-3.71m0-1c-2.2,0-4.49,2.31-4.52,4.7-.03,2.62,1.35,4.25,3.98,4.53.12.01.23.02.35.02,2.26,0,4.49-2.3,4.56-4.96-.29-2.15-1.37-3.98-4.05-4.28-.11-.01-.22-.02-.33-.02h0Z"/><path class="cls-1" d="m400.88,504.27l.12.02c.06.66.14,1.33.23,1.97.25,1.89.48,3.67,0,5.15-4.51,14.03-6.53,29.52-6.35,48.74.08,8.62.23,17.38.38,25.86.13,7.55.27,15.35.36,23.02.04,3.39,1.3,5.3,4.35,6.58,12.16,5.1,25.17,6.17,37.75,7.21l1.48.12c.6.05,1.2.1,1.8.14,1.55.12,3.13.24,4.72.42-1.92.36-3.87.66-5.78.75-3.94.17-7.38.26-10.53.26-12.26,0-22.13-1.31-31.06-4.11-3.52-1.11-4.66-2.68-4.7-6.47-.11-11.12-.37-22.42-.62-33.35-.25-10.97-.51-22.31-.62-33.47-.13-12.87,1.31-23.88,4.4-33.66.73-2.31,1.83-4.57,2.9-6.77.39-.79.78-1.6,1.16-2.42m-.58-1.14c-1.5,3.33-3.34,6.56-4.44,10.02-3.49,11.04-4.56,22.49-4.45,33.98.22,22.27,1.02,44.54,1.24,66.82.04,4.29,1.56,6.21,5.4,7.42,10.29,3.23,20.79,4.16,31.36,4.16,3.52,0,7.04-.1,10.57-.26,3.84-.17,7.64-1.17,11.46-1.8-4.1-.98-8.13-1.18-12.15-1.51-13.22-1.1-26.45-2.03-38.93-7.26-2.79-1.17-3.71-2.8-3.74-5.67-.18-16.29-.59-32.58-.74-48.87-.15-16.42,1.22-32.64,6.3-48.43.79-2.47-.12-5.49-.24-8.26-.55-.11-1.1-.22-1.65-.33h0Z"/><path class="cls-1" d="m538.44,590.56h.05c1.79.01,3.45.71,4.68,1.96,1.37,1.4,2.11,3.38,2.07,5.55-.07,4.32-3.16,7.71-7.03,7.71h-.09c-3.82-.05-6.78-3.39-6.74-7.6.04-4.49,2.94-7.63,7.05-7.63m0-1c-4.64,0-8.01,3.6-8.05,8.62-.04,4.76,3.36,8.55,7.73,8.6.03,0,.07,0,.1,0,4.39,0,7.96-3.84,8.03-8.69.08-4.82-3.26-8.5-7.75-8.53-.02,0-.04,0-.06,0h0Z"/><path class="cls-1" d="m382.75,377.48c.42,0,.89.1,1.39.3,3,1.16,5.57,2.84,7.24,4.73,3.87,4.38,6.41,10.01,6.63,14.65.05,3.94-.46,8.78-3.19,9.48-.24.06-.49.09-.75.09-1.85,0-4.49-1.74-5.9-5.57-2.65-7.21-4.93-14.5-6.81-20.69-.31-1.03-.27-1.93.12-2.45.27-.36.69-.54,1.26-.54m0-1c-2.05,0-3.1,1.76-2.34,4.28,2.11,6.96,4.31,13.91,6.82,20.74,1.45,3.94,4.3,6.23,6.84,6.23.34,0,.67-.04,1-.13,2.53-.66,4.03-3.85,3.94-10.46-.21-4.6-2.6-10.45-6.88-15.3-1.96-2.21-4.84-3.92-7.63-5-.64-.25-1.23-.36-1.75-.36h0Z"/><path class="cls-1" d="m372.81,397.49v1c1.68,0,3.51,2.07,3.55,4.03.06,2.58-1.26,4.16-3.52,4.23-.06,0-.12,0-.18,0-2.2,0-3.5-1.29-3.56-3.53-.04-1.32.48-2.67,1.39-3.62.68-.71,1.49-1.11,2.29-1.12l.03-1m0,0s-.03,0-.05,0c-2.53.04-4.75,2.79-4.66,5.77.08,2.8,1.82,4.5,4.56,4.5.07,0,.14,0,.21,0,2.82-.09,4.57-2.13,4.49-5.26-.06-2.52-2.33-5.01-4.55-5.01h0Z"/><path class="cls-1" d="m411.36,518.74c1.03,22.41.92,45.14.81,67.14-.04,7.69-.08,15.62-.07,23.45-5.33-1.03-7.54-3.53-7.81-8.67-.12-2.34-.25-4.68-.38-7.02-.59-10.6-1.2-21.55-1.02-32.3.19-10.85.4-23.15,4.15-34.75l.09-.29c.93-2.88,1.82-5.63,4.24-7.57m.92-1.8c-3.97,2.17-5.05,5.8-6.2,9.36-3.69,11.4-3.99,23.29-4.19,35.04-.22,13.12.72,26.27,1.41,39.39.32,6.07,3.34,8.86,9.81,9.79-.06-31.19.7-62.35-.82-93.58h0Z"/><path class="cls-1" d="m532.39,340.97l5.72,38.53c-9.88-5.47-20.47-8.02-33.15-8.02-8.58,0-17.34,1.21-24.93,2.46l4.26-32.88c7.75,2.33,15.39,3.46,23.33,3.46s16.13-1.16,24.77-3.55m.82-1.27c-8.63,2.47-17.1,3.82-25.59,3.82-8,0-16.01-1.2-24.16-3.77-1.56,12.07-3.08,23.8-4.58,35.4,8.87-1.5,17.56-2.67,26.09-2.67,11.74,0,23.19,2.23,34.44,8.92-2.12-14.27-4.14-27.87-6.19-41.69h0Z"/><path class="cls-1" d="m755.5,1.5c6.07,0,11,4.93,11,11v743c0,6.07-4.93,11-11,11H12.5c-6.07,0-11-4.93-11-11V12.5C1.5,6.43,6.43,1.5,12.5,1.5h743m-491.49,121.59c-.42,5.74,1.91,11.81,6.4,16.65,4.98,5.37,12.02,8.58,18.83,8.58h.27c14.69-.18,26.57-11.5,26.48-25.23-.1-15.48-10.66-26.28-25.7-26.28-.43,0-.86,0-1.29.03-12.3.49-25.36,8.91-25,26.25m283.01,14.27c5.52,0,10.29-4.81,10.42-10.5.14-5.95-4.25-10.57-10.21-10.73-.12,0-.23,0-.35,0-6.07,0-10.71,4.39-10.79,10.22-.08,5.8,4.8,10.85,10.65,11.01.09,0,.18,0,.27,0m-177.07,23.35h.03c8.84,0,16.21-7.26,16.43-16.19.1-4.2-1.54-8.28-4.64-11.47-3.27-3.38-7.82-5.35-12.47-5.4h-.17c-9.11,0-16.54,7.27-16.57,16.21-.01,4.57,1.77,8.82,5.03,11.97,3.25,3.14,7.64,4.87,12.36,4.88m117.62,84.23c3.62-5.36,7.16-10.95,8.87-17.52.9-3.46.08-6.06-2.45-7.73-1.1-.72-2.31-1.11-3.5-1.11-1.75,0-3.44.82-4.65,2.26-2.18,2.58-4.11,5.67-5.76,9.18-1.72,3.67-3.36,7.44-4.95,11.09-2.38,5.49-4.85,11.16-7.62,16.54-2.56,4.97-5.55,9.85-8.44,14.56-2.02,3.3-4.11,6.7-6.05,10.13-1.7,3-3.13,6.19-4.51,9.28-.62,1.38-1.26,2.81-1.91,4.19l-.65,1.37,1.52.05h.29s.3.02.3.02l.52.02.31-.42c1.64-2.18,3.24-4.45,4.79-6.64,3.39-4.79,6.89-9.74,10.9-14.04,7.5-8.06,15.38-16.03,23-23.75,5.98-6.06,12.17-12.32,18.14-18.59,12.91-13.56,20.75-27.42,23.95-42.38,4.17-19.49-.03-36.16-12.48-49.54-7.84-8.42-16.49-12.68-25.71-12.68h0c-2.14,0-4.35.23-6.56.68-7.24,1.47-11.94,5.47-13.97,11.88-1.97,6.2-.61,12.04,3.94,16.89,3.58,3.81,8.23,4.3,12.73,4.77.36.04.73.08,1.09.12,6.19.68,11.09,3.83,14.97,9.62,5.23,7.81,6.94,17,5.38,28.92-1.94,14.77-8.77,28.4-21.48,42.84m-39.97-98.3c1.1,0,2.12-.49,2.88-1.37.86-1,1.24-2.39,1.03-3.72-.22-1.37-1.16-2.48-2.07-3.55-.37-.43-.72-.84-1-1.25l-.31-.42h-.51s-1.56-.03-1.56-.03h-.5s-.31.39-.31.39c-.31.4-.74.86-1.16,1.3-1.22,1.28-2.36,2.49-2.05,3.78.49,2.06,2.75,4.33,4.74,4.78.28.06.56.09.84.09m-113.59,4.97c2.92,0,4.76-1.63,5.46-4.85l.02-.09v-.09c.05-1.72-.61-3.42-1.81-4.66-1.05-1.08-2.36-1.67-3.7-1.67h0c-.06,0-.13,0-.2,0-3.14.14-5.16,2.13-5.56,5.46-.16,1.37.28,2.74,1.25,3.85,1.09,1.25,2.73,2.01,4.4,2.04h.14m-26.81,158.11c-.98-.17-1.95-.36-2.9-.53-3.03-.57-5.89-1.11-8.85-1.3-3.58-.23-6.55-.33-9.35-.33-7.65,0-13.92.81-19.76,2.54-1.99.59-4.21,2.72-4.95,4.74-7.43,20.45-11.79,42.31-12.97,64.96-1.12,21.55,1.66,43.81,8.27,66.15,3.01,10.19,6.65,17.24,11.8,22.87,3.96,4.33,8.45,6.53,13.34,6.53,1.41,0,2.88-.18,4.36-.55,7.26-1.77,11.57-7.11,15.03-11.98,11.37-15.95,18.95-34.64,23.16-57.13,1.97-10.5,3.32-20.14,4.13-29.46.46-5.28.35-10.67.23-15.89-.05-2.31-.1-4.7-.1-7.05v-.87l-.86-.12c-.8-.12-1.66-.18-2.56-.18-5.33,0-12.14,2.09-19.17,5.88-8.76,4.72-16.7,8.62-25.27,8.62-2.93,0-5.74-.45-8.58-1.37l-1.14-.37-.16,1.19c-.16,1.16-.29,2.32-.43,3.46-.29,2.47-.57,4.8-1.03,7.11-2.58,12.89-5.11,28.2-4.27,44.02.09,1.71.23,3.44.4,5.15-6.59-19.29-8-40.55-4.43-66.13.25.1.51.2.76.3,1.37.53,2.78,1.09,4.23,1.47,3.2.85,6.51,1.28,9.82,1.28,6.42,0,13.13-1.58,20.52-4.82,8.71-3.82,17.71-7.77,27.41-7.77,1.26,0,2.52.07,3.75.2h.08s.06,0,.06,0c.41,0,.7-.19,1.01-.4.15-.1.35-.23.62-.39l.53-.31-.04-.62c-.11-1.85-.27-3.76-.42-5.6-.34-4.21-.7-8.57-.61-12.86.23-10.7-4.43-16.8-14.24-18.65-.28-.17-.85-1.08-.95-1.74-.29-1.97-.5-4-.71-5.96-.28-2.71-.58-5.52-1.09-8.26l-.95-5.09c-2.87-15.29-5.83-31.11-9.21-46.57-1.35-6.19-3.54-12.81-6.9-20.83-2.06-4.92-6.23-7.75-11.44-7.75-.44,0-.9.02-1.35.06-5.28.47-8.81,3.64-10.8,9.68-2.31,7,.71,12.96,3.18,16.83,1.42,2.23,3.03,4.37,4.63,6.43-8.03-5.07-15.25-12.16-22.93-22.44-7.25-9.7-11.1-18.64-12.12-28.14-.99-9.16,2.34-16.18,9.62-20.32.75-.43,1.54-.78,2.38-1.15.7-.31,1.43-.63,2.13-1,6.88-3.63,10.19-9.73,9.31-17.18-.87-7.33-6.39-13.82-13.43-15.78-2.3-.64-4.59-.96-6.82-.96-5.8,0-11.35,2.16-16.5,6.41-12.51,10.35-17.29,24.57-14.19,42.27,2.7,15.41,10.26,29.33,21.89,40.26,8.9,8.36,18.64,16.1,28.07,23.57,2.65,2.1,5.38,4.27,8.05,6.42,12.15,9.77,20.52,19.42,26.32,30.36,2.86,5.4,5.83,11.84,6.38,19.06m113.45-142c3.5,0,6.94-1.43,9.43-3.93,2.27-2.28,3.51-5.19,3.5-8.19-.03-7.67-4.95-12.67-12.84-13.03-.19,0-.37-.01-.56-.01-3.31,0-6.6,1.4-9.03,3.84-2.35,2.36-3.68,5.48-3.67,8.57.03,6.72,6.11,12.68,13.01,12.76h.16m38.24,33.74c11.7,0,19.18-10.02,19.41-19.3.13-5.18-1.84-10.15-5.54-13.98-3.8-3.93-9.1-6.22-14.56-6.28h-.21c-10.75,0-19.19,8.72-19.2,19.84-.01,11.17,8.37,19.64,19.47,19.7.21,0,.42,0,.64,0m-154.82-12.47c6.73,0,12.09-5.3,12.2-12.07.05-3.16-1.25-6.33-3.58-8.7-2.36-2.41-5.57-3.8-8.85-3.81-6.54,0-12.21,5.53-12.38,12.08-.08,2.96,1.22,6.04,3.56,8.46,2.47,2.55,5.74,4.02,8.96,4.05h.08m86.4-10.14l.64-.16c2.25-.57,3.75-1.49,4.45-2.72.48-.84.57-1.82.27-2.84-.51-1.73-2.49-3.9-4.37-4.21-.25-.04-.51-.06-.76-.06-1.21,0-2.26.5-2.98,1.41-.78,1-1.04,2.36-.71,3.75.3,1.26,1.21,2.25,2.08,3.2.35.39.69.75.97,1.12l.4.52m-47.71,188.43c2.33,0,4.66-.02,6.98-.04,2.31-.02,4.62-.04,6.93-.04,8.67,0,17.9.28,27.13,2.14-6.55,1.97-13.44,3.02-20.94,3.18-2.87.06-5.95.09-9.69.09-2.53,0-5.05-.01-7.57-.03-2.52-.01-5.05-.03-7.57-.03h-.94l-.06.94c-2.39,38.55-14.68,73.95-36.52,105.23l-.87,1.24,1.49.31c2.22.46,4.38.94,6.47,1.4,4.52.99,8.79,1.93,13.13,2.62,7.93,1.26,16.4,1.87,25.9,1.87,5.49,0,11.49-.21,18.35-.63,4.62-.28,9.26-1.01,13.75-1.72.89-.14,1.79-.28,2.68-.42,2.53-.39,5.21-1.36,5.87-5.63.9-5.83,2.53-11.55,4.15-16.87,4.65-15.22,9.51-30.48,13.66-43.4,3.7-11.53,2.99-22.94-2.16-34.88-5.2-12.06-9.82-24.73-13.73-37.66-10.07-33.31-14.92-69.12-14.4-106.45.06-4,.95-6.53,3.1-8.73,3.79-3.88,4.91-8.62,3.07-12.99-3.06-7.28-2.94-14.65-2.81-22.44.04-2.37.08-4.83.02-7.25-.05-1.98-.33-3.96-.62-5.82-1.05-6.8-6.13-11.3-12.95-11.47-4.08-.1-8.18-.15-12.19-.15-3.39,0-6.81.04-10.14.11-7.13.15-12.12,4.19-13.03,10.54-.7,4.87-1.52,12.16-.67,19.16.6,4.96.88,9.45-1.8,14.11-3.33,5.8-1.77,13.99,3.47,18.26.72.59,1.33,2.01,1.58,3.71.19,1.27.13,2.59.07,3.98-.03.75-.07,1.53-.06,2.3.21,23.78-1.69,45.17-5.81,65.39-.56,2.77.73,4.07,2.25,5.62,2.69,2.73,4.27,5.13,4.84,7.34,2.95,11.52,4.23,23.75,3.92,37.41-.05,2.07.11,4.12.25,6.11.07.88.13,1.75.18,2.61l.05.93h.93c1.44.03,2.87.04,4.3.04m261.7-177.95c2.13,0,4.11-.81,5.57-2.28,1.55-1.55,2.39-3.7,2.38-6.05-.02-3.74-3.6-7.58-7.22-7.75-.11,0-.21,0-.32,0-2.13,0-4.34,1-6.05,2.73-1.6,1.62-2.5,3.65-2.48,5.58.05,4.14,3.7,7.7,7.97,7.78h.16m-41.49,24.9h.22c10.56-.1,19.56-9.03,19.64-19.5.04-5.57-1.96-10.68-5.64-14.39-3.67-3.7-8.74-5.74-14.29-5.75-11.42,0-19.73,8.27-19.75,19.66-.01,5.55,2.01,10.63,5.68,14.31,3.65,3.65,8.67,5.66,14.14,5.66m-361.18-26.66l.8-1.13c.53-.75,1.09-1.42,1.58-2.01,1.11-1.32,1.98-2.36,1.83-3.56-.17-1.3-1.27-2.25-2.35-3.17-.4-.34-.78-.67-1.09-.99l-.71-.75-.73.74c-.33.33-.72.66-1.13,1.01-1.09.92-2.22,1.87-2.51,3.2-.25,1.16.63,2.16,1.84,3.55.52.59,1.1,1.26,1.65,2l.82,1.11m-61.55,152.15h1.2c1.05,0,2.08.02,3.1.04,1.01.02,2,.04,2.98.04,1.64,0,2.97-.06,4.2-.19,1.76-.19,4.2-.94,5.75-2.5,3.38-3.4,7.78-5.27,12.39-5.27,4.71,0,9.13,1.95,12.44,5.49.11.12.23.25.35.38.93,1.02,1.97,2.17,3.28,2.27,1.53.11,3.15.17,5.25.17,1.05,0,2.11-.01,3.19-.03,1.12-.01,2.26-.03,3.42-.03h1.12l-.12-1.11c-.06-.53-.1-.94-.13-1.28-.06-.61-.09-1.02-.2-1.44-4.59-18.97-6.39-38.46-7.54-55.03-.6-8.7-.46-17.63-.31-26.26.06-3.5.12-7.12.13-10.68,0-.87.28-1.63.48-1.79,5.63-4.44,6.89-10.46,3.84-18.39-2.41-6.26-2.65-12.58-2.57-17.94.05-3.6-.15-7.25-.34-10.78l-.06-1.12c-.39-7.24-3.69-11.21-9.78-11.81-4.55-.44-9.35-.67-14.27-.67-4.09,0-8.36.16-12.7.46-4.79.34-8.24,4.23-8.81,9.92-.28,2.82-.57,5.73-.54,8.68v.82c.07,8.19.13,15.93-2.58,23.65-2.24,6.38-.6,12.3,4.63,16.66.44.37.8,1.57.78,2.62-.06,3.2-.11,6.39-.16,9.59-.16,10.34-.32,21.04-.94,31.52-.59,10-1.96,20.15-3.28,29.95l-.22,1.6c-.65,4.83-1.55,9.55-2.51,14.54-.42,2.2-.86,4.48-1.27,6.76l-.21,1.18m141.29-142.16c3.7,0,6.54-2.78,6.61-6.48.04-2.15-.67-4.08-2-5.44-1.22-1.24-2.9-1.93-4.76-1.94-3.54,0-6.66,3.11-6.69,6.65-.03,3.82,3.03,7.12,6.68,7.2h.16m145.9,100.26c-1.32.09-2.64.21-3.96.34-3.53.37-6.46,2.31-7.82,5.19-1.26,2.65-.98,5.69.76,8.34,1.89,2.86,1.29,4.48-.42,7.24-4.32,7-3.87,8.67.62,14.92,1.24,1.73,2.02,4.05,1.99,5.89-.04,2.02-.08,4.04-.11,6.06-.17,9.95-.35,20.24-1.37,30.25-1.14,11.14-2.76,24.29-6.09,37.24-2.85,11.07-6.43,22.17-9.9,32.9-1.84,5.71-3.75,11.61-5.52,17.45-1.31,4.3-2.41,8.68-3.58,13.31-.56,2.2-1.13,4.48-1.75,6.84l-.65,2.47,2.15-1.37c.59-.38,1.04-.65,1.41-.88.62-.38,1.03-.63,1.41-.94,18.29-14.85,30.75-33.74,37.03-56.13,5.21-18.57,6.27-37.91,7.29-56.62l.21-3.86c.38-6.89.6-13.89.78-20.73.08,1.26.14,2.54.17,3.83.5,21.24,1,43.99,1.22,66.46.17,17.08-4.59,33.45-14.15,48.64-9.02,14.34-20.86,25.3-35.18,32.55-1.33.67-3.9,2.48-4.16,4.5-.39,3.07-.82,6.19-1.24,9.21-1.41,10.27-2.88,20.88-3.19,31.38-.49,16.71-.47,33.71-.45,50.15.01,8.66.02,17.62-.04,26.43-.03,4.4.35,9.33,4.78,13.38-.38.02-.72.06-1.05.14-1.09.25-2.18.5-3.27.75-4.85,1.11-9.87,2.26-14.76,3.62-1.57.44-3.57,2.27-3.71,3.9-.14,1.6,1.79,3.52,3.17,4.23,3.5,1.8,6.95,3.52,10.65,4.63,19.38,5.83,39.06,7.18,55.76,7.73,3.09.1,6.22.15,9.31.15,15.16,0,30.48-1.24,45.55-3.68,3.18-.51,6.33-1.36,9.38-2.18,1.38-.37,2.82-.76,4.23-1.1l3.73-.92-3.7-1.02c-2.61-.72-5.16-1.07-7.62-1.42-1.74-.24-3.38-.47-5.02-.82-4.84-1.02-10.43-2.29-15.59-4.38-1.59-.64-3.6-3.45-3.47-4.84.16-1.75,2.33-3.95,4.28-5.26,1.71-1.15,3.71-1.88,5.83-2.65.93-.34,1.9-.69,2.84-1.08,6.21-2.59,9.22-7.19,9.2-14.05-.04-12.42-.01-25.04.01-37.26.03-13,.05-26.45,0-39.67-.02-6.93-.55-13.91-1.08-20.47-1.48-18.16-7.36-35.11-14.32-53.8-14.23-38.22-20.72-79.66-19.27-123.15.05-1.54.54-3.54,1.52-4.55,5.32-5.45,5.57-11.11.79-17.3-.54-.7-.85-1.29-.91-1.75-.18-1.39-.18-2.2,0-2.42,2.81-3.14,3.23-6.88,1.24-11.12-1.87-3.99-5.87-4.48-9.48-4.62-2.02-.08-4.04-.18-6.16-.29-.66-.03-1.33-.07-2.02-.1-.12-12.48-.05-26.48,8.12-38.33,1.4-2.02,2.49-3.89,3.34-5.72,2.74-5.85,2.07-11.45-1.93-16.18-2.59-3.06-5.91-4.62-9.88-4.62-1.45,0-2.98.21-4.55.63-6.26,1.67-10.58,8.1-10.76,16-.21,9.19,1.97,18.06,4.08,26.64.54,2.2,1.1,4.47,1.6,6.7.83,3.66,1.88,7.33,2.89,10.88.35,1.24.71,2.48,1.05,3.73-1.26.07-2.5.14-3.72.2-1.55.08-3.06.16-4.55.25v-.04c.09-.5.16-.84.21-1.08.1-.46.17-.79,0-1.18-.39-.87-.79-1.73-1.19-2.58-.31-.66-.62-1.31-.92-1.98-6.3-13.82-12.58-28.65-14.22-44.6-.83-8.05-.79-17.28,5.7-24.67,1.26-1.43,2.77-2.62,4.37-3.89,1.33-1.05,2.71-2.13,3.93-3.37,5.04-5.12,6.32-11.31,3.7-17.91-2.63-6.61-7.67-10.24-14.56-10.47-.31-.01-.62-.02-.92-.02-8.96,0-15.75,4.54-20.18,13.5-5.22,10.54-6.07,22.55-2.6,36.71,4.01,16.34,12.69,30.76,20.66,42.71,2.94,4.41,6.13,8.58,9.51,13,1.48,1.94,3.01,3.94,4.55,6m-161.74-87.74c.22,0,.45-.01.67-.04,2.91-.35,4.9-2.22,5.06-4.76v-.04s0-.04,0-.04c-.04-3.54-2.4-6.22-5.49-6.22-.16,0-.31,0-.47.02-3.04.27-4.86,2.26-4.98,5.47-.06,1.54.47,2.97,1.49,4.03.98,1.01,2.3,1.57,3.73,1.57m365.41,60.12c.17,0,.33,0,.48,0h.33c9.56,0,17.87-3.27,24.03-9.46,5.98-6.01,9.4-14.45,9.36-23.17-.08-19.73-13.48-32.48-34.14-32.48-.51,0-1.03,0-1.55.02-17.96.54-31.3,14.59-31.03,32.69.28,18.47,14.26,32.4,32.51,32.4m-159.54-51.62l.31-.43c.27-.37.6-.75.96-1.16.95-1.08,1.93-2.19,1.93-3.52,0-1.63-2.52-4.06-4.2-4.06h-.04s-.01,0-.01,0c-1.75.05-3.87,2.34-4.17,4.01-.22,1.22.65,2.36,1.48,3.46.31.41.6.79.82,1.15l.28.47h.55s1.57.05,1.57.05h.53m116.93,3.87l.32-.41c.26-.34.59-.7.95-1.07.97-1.02,1.96-2.08,1.88-3.33-.09-1.27-1.17-2.23-2.21-3.16-.39-.34-.76-.67-1.05-.99l-.68-.75-.74.69c-.31.29-.7.58-1.1.89-1.09.82-2.22,1.67-2.45,2.92-.22,1.22.62,2.37,1.43,3.48.3.41.58.8.79,1.16l.28.48.55.02,1.52.06.52.02m-276.35,3.35c1.39,0,2.79-.62,3.85-1.69,1.11-1.13,1.74-2.64,1.72-4.13-.04-2.87-2.55-5.48-5.27-5.48-.16,0-.32,0-.48.03-3.2.35-4.91,2.51-4.8,6.07.1,3.23,1.79,5.07,4.77,5.2.07,0,.14,0,.2,0m143.81,4.12l.68-.75c.31-.34.71-.7,1.14-1.07,1.15-1.01,2.34-2.06,2.23-3.34-.12-1.42-1.14-2.6-2.13-3.73-.38-.44-.74-.85-1.03-1.26l-.32-.44-.54.03-1.5.08h-.07s-.57.03-.57.03l-.27.5c-.22.41-.51.85-.83,1.32-.83,1.23-1.68,2.5-1.43,3.82.26,1.33,1.48,2.26,2.66,3.15.45.34.88.66,1.22.98l.74.69m-240.77,1.57l.35-.37c.32-.35.71-.68,1.11-1.04,1-.89,2.04-1.8,2.43-3.07.4-1.29.2-2.57-.55-3.59-.8-1.08-2.15-1.75-3.54-1.75h0c-.06,0-.13,0-.19,0-1.9.08-4.21,2.3-4.69,3.99-.35,1.24.5,2.51,1.33,3.75.31.46.6.9.81,1.29l.24.47.52.06.84.1.84.1.5.06m338.18,3.62s.1,0,.15,0c1.32-.04,2.46-.86,3.56-1.64.44-.31.85-.61,1.26-.84l.46-.26.04-.52.07-.79.07-.79.04-.5-.37-.33c-.32-.28-.66-.66-1.02-1.05-.97-1.07-1.89-2.08-3.03-2.08-.06,0-.12,0-.18,0-1.82.18-4.09,1.89-4.75,3.58-.48,1.21-.35,2.48.34,3.5.74,1.08,2,1.73,3.38,1.73m-42.19,260.71c3.98,0,7.98-1.95,11.56-5.64,7.68-7.91,11.8-17.96,14.52-25.83,8.92-25.79,12.58-53.68,10.86-82.9-.92-15.62-3.85-30.68-6.88-44.62-1.21-5.57-4.32-8.57-9.78-9.44-5.11-.82-10.22-1.65-15.53-2.51l-4.89-.79c.62-.52,1.22-1,1.85-1.4,9.8-6.22,20.95-9.83,31.73-13.32l2.73-.89.98-.32c10.43-3.39,21.21-6.89,29.64-14.97,10.76-10.3,15.48-21.51,14.44-34.26-.83-10.16-6.56-17.83-14.96-20.01-1.69-.44-3.3-.66-4.8-.66-3.98,0-7.33,1.56-9.94,4.65-3.57,4.22-4.14,9.77-1.47,14.14,1.29,2.1,3.09,3.87,4.83,5.58.42.41.84.83,1.26,1.24,3.11,3.14,3.95,6.81,2.57,11.23-1.93,6.2-5.77,11.24-11.09,14.57-6.52,4.08-13.34,7.93-19.94,11.66-2.7,1.52-5.49,3.1-8.22,4.67-1.17.67-2.35,1.34-3.53,2-7.09,3.99-14.41,8.11-20.16,14.48-.86.95-2.55,1.75-4.51,2.12-3.12.6-6.32,1.1-9.42,1.59-3.39.54-6.89,1.09-10.32,1.77-4.02.8-6.42,3.33-6.95,7.33-.62,4.65-1.35,9.38-2.05,13.95-1.39,8.99-2.83,18.3-3.48,27.52-1.1,15.44-.66,28.87,1.35,41.04,2.83,17.12,8.16,34.04,16.3,51.7,3.65,7.93,7.79,14.79,12.28,20.39,3.12,3.88,6.92,5.93,11,5.93M208.49,252.53h.04s0,0,0,0c1.68-.01,3.27-.71,4.48-1.97,1.28-1.32,1.99-3.14,1.94-4.98-.09-3.32-3.03-6.24-6.35-6.24h0c-1.78.02-3.54.78-4.82,2.09-1.19,1.21-1.83,2.73-1.82,4.29.04,3.76,2.97,6.81,6.53,6.81m-88.99,18.85h.09c4.12-.03,7.93-1.61,10.73-4.45,2.84-2.89,4.38-6.8,4.34-11.03-.09-9.55-6.31-15.97-15.47-15.97h-.21c-8.61.09-15.41,6.98-15.49,15.68-.03,3.81,1.67,7.74,4.69,10.78,3.14,3.17,7.26,4.98,11.32,4.98m408.3,15.24c12.47,0,23.06-10.17,23.13-22.21.08-13.43-9.6-23.24-23.02-23.34h-.16c-11.9,0-21.97,10.18-22,22.22-.03,13.47,9.21,23.28,21.96,23.33h.08m-211.74-23.66h.54s1.72,0,1.72,0h.55s.29-.47.29-.47c.25-.4.55-.8.86-1.22.78-1.04,1.58-2.12,1.79-3.41.2-1.25-.11-2.48-.87-3.37-.7-.82-1.68-1.27-2.76-1.27h0c-.35,0-.71.05-1.06.15-1.84.5-3.57,2.84-3.88,4.6-.22,1.22.72,2.35,1.63,3.43.34.4.65.78.89,1.13l.3.45m-85.42,39.85c12.94,0,23.28-10.12,23.53-23.04.25-12.52-9.75-22.58-22.75-22.9-.21,0-.42,0-.62,0-12.81,0-22.34,10.01-22.65,23.8-.12,5.22,2.16,10.65,6.25,14.91,4.34,4.51,10.12,7.15,15.86,7.24.13,0,.26,0,.39,0m161.05-24.54h.12c3.34-.07,5.78-2.61,5.79-6.03,0-1.63-.55-3.05-1.6-4.1-1.08-1.09-2.64-1.69-4.4-1.7-1.44,0-2.88.62-3.97,1.71-1.11,1.11-1.75,2.61-1.74,4.1,0,3.32,2.61,6.02,5.8,6.02m-116.14,14.76c1.56,0,3.08-.66,4.26-1.86,1.25-1.27,1.96-3,1.94-4.73-.05-3.72-2.93-6.53-6.72-6.53-1.72,0-3.42.73-4.67,2.01-1.13,1.15-1.73,2.59-1.7,4.03.08,3.71,3.27,7.02,6.82,7.07h.08m214.45,18.93h.04s0,0,0,0c8.08-.03,14.2-5.88,14.25-13.6.05-7.9-6.08-13.9-14.25-13.96h-.08c-6.88,0-13.4,6.9-13.42,14.19,0,3.23,1.49,6.58,4.1,9.2,2.65,2.65,6.06,4.17,9.35,4.17m-380.49-10.41h.11c4.51-.06,8.16-4.04,8.13-8.87-.03-4.82-3.54-8.22-8.54-8.27h-.08c-4.58,0-8.24,3.54-8.33,8.07-.05,2.36.89,4.7,2.59,6.43,1.67,1.7,3.84,2.64,6.13,2.64m23.79-6.09l.45-.55c.31-.38.71-.77,1.13-1.18,1.12-1.09,2.28-2.23,2.22-3.58-.1-1.99-2.25-4.33-3.96-4.93-.47-.17-.94-.25-1.39-.25-2.04,0-3.56,1.74-3.87,4.42-.4,3.42,2.05,4.82,4.75,5.82l.67.25m424.99,53.25c1.29,0,2.57-.69,3.81-2.06l.11-.12c.73-.81,1.49-1.65,2.3-2.35,12.46-10.87,24.55-19.15,36.95-25.31,10.13-5.03,23.7-10.81,38.84-10.81.51,0,1.02,0,1.53.02,10.31.26,18.95,4.14,24.35,10.93,5.45,6.85,7.29,16.26,5.19,26.49-2.62,12.79-9.63,23.78-15.81,33.47-4.8,7.53-9.73,15.17-14.49,22.55-5.81,9-11.81,18.3-17.64,27.51-1.26,1.99-2.11,4.25-2.93,6.43-.37,1-.76,2.02-1.18,3.01l-.59,1.39h23.09l.09-.9.34-3.5.13,2.41.1,1.73.06,1.03,1.03-.09,7.27-.66,40.84-3.73c-.02.22-.08.41-.19.59-.36.6-1.25,1.08-2.45,1.31-1.17.23-2.33.46-3.5.69-6.65,1.32-13.52,2.68-20.33,3.56-4.79.62-9.72.85-14.48,1.07-2.1.1-4.27.2-6.39.33l-.68.04-.21.65c-.05.15-.1.27-.14.38-.11.28-.23.59-.19.97l.08.66c.15,1.32.3,2.68.53,4.02,2.06,11.91,7.96,18.72,18.04,20.81,3,.62,6.03,1.11,9.19,1.61-1.45.21-2.87.42-4.28.65-6.38,1.02-12.97,2.55-17.36,8.81-3.91,5.57-5.37,11.73-6.38,19.27-.16,1.22-.32,2.45-.47,3.68-.16-1.18-.31-2.36-.45-3.52-.17-1.34-.33-2.67-.52-4.01-2.17-15.67-8.39-22.04-23.78-24.34-1.17-.18-2.35-.36-3.52-.54.78-.15,1.56-.29,2.34-.43,2.04-.37,4.15-.75,6.2-1.23,12.85-3.01,18.65-11.33,18.25-26.18l-.03-.97h-21.97c-.55-3.24-1.1-6.45-1.64-9.65-1.56-9.1-3.03-17.7-4.36-26.5-.73-4.88-4-6.18-6.77-6.78-5.94-1.28-12.07-1.92-18.2-1.92-6.91,0-14.06.82-21.28,2.44-3.32.75-5.07,2.62-5.67,6.08-.57,3.26-1.24,6.56-1.88,9.76-.63,3.13-1.28,6.36-1.85,9.57-.42,2.38-.85,3.17-2.55,3.17-.07,0-.15,0-.23,0-.09,0-.18,0-.26,0-1.41,0-3.81.55-4.13,4.27-.09,1.03-.16,2.07-.24,3.14l-.11,1.47-.07.96.96.11,4.15.46.35.04-.15,3.05-.03.63-1.68-.21-3.53-.43-.96-.12-.15.96c-2.71,17.44-8.89,33.09-13.96,44.77-1.01,2.31-1.49,5.28-1.33,8.15,1.12,20.08,6.48,39.75,15.91,58.48,4.96,9.86,12.35,22.19,25.47,30.14.5.31,1.01,1.01,1.03,1.25-.11,1.34-.2,2.7-.28,4.02-.28,4.26-.56,8.67-1.6,12.76-1.09,4.29-5.48,6.21-9.35,6.21-.54,0-1.08-.04-1.61-.11-4.16-.55-7.28-3.56-7.42-7.15-.07-1.9,1.02-4.18,2.11-5.56.11-.09.65-.29,1.56-.29s1.42.2,1.52.28c.65.62.99,1.81,1.4,3.19.21.71.44,1.52.75,2.35l.56,1.51,1.11-1.17c.29-.31.65-.63,1.03-.97.96-.86,2.05-1.84,2.65-3.13,1.62-3.47,1.15-7.05-1.29-9.83-1.77-2.01-4.12-3.08-6.8-3.08-1.02,0-2.07.15-3.13.46-.96.28-1.74.46-2.38.46-.84,0-1.55-.3-2.34-1.74-.75-1.37-2.43-2.18-3.95-2.82-2.11-.9-4.33-1.36-6.6-1.36-7.77,0-14.75,5.21-17.36,12.97-4.44,13.2,4.52,28.88,15.51,34.09,1.5.71,3.07,1.28,4.59,1.84,2.09.76,4.06,1.48,5.87,2.52,1.77,1.02,4.1,2.97,4.81,5.09.68,2-1.34,3.29-3.84,4.65-2.37,1.28-5.05,2.26-7.76,2.83-3.38.71-6.77,1.21-10.36,1.74-1.52.22-3.06.45-4.63.7l-4.25.67,4.11,1.27c.53.16,1.02.32,1.49.48.98.32,1.9.62,2.85.85,20.7,5.02,41.94,5.98,58.14,6.25,1.64.03,3.33.04,5.04.04,10.97,0,22.05-.57,31.58-1.11,7.56-.43,15.04-1.4,23.94-2.72.24-.04.49-.07.74-.1,2.78-.38,6.99-.96,6.99-5.11,0-2.36-5.51-4.46-7.61-4.87-7.94-1.52-16.19-2.76-24.51-3.66-7.28-.79-14.68-1.51-21.84-2.2-9.08-.87-18.47-1.78-27.67-2.85-4.62-.54-9.49-1.9-14.08-3.92-1.4-.62-2.22-1.47-2.29-2.39-.08-1.05.76-2.24,2.32-3.25,1.79-1.17,3.99-2.12,6.92-3,9.35-2.83,13.85-8.58,14.15-18.09.07-2.04.05-4.1.03-6.1,0-.97-.02-1.94-.02-2.92v-12.34c.02-16.22.04-33-.03-49.5,0-1.29-.54-4.21-2.16-5.04-3.87-1.97-6.8-5.22-9.25-10.23-6.52-13.36-9.93-28.56-10.71-47.85-.33-8.06.13-16.09.99-24.04l.22.23c1.1,1.16,2.24,1.98,3.51,2.48,3.24,1.3,6.48,1.95,9.65,1.95,4.08,0,8.19-1.09,12.23-3.24,4.03-2.14,8.58-4.14,13.91-6.1.87-.32,1.8-.48,2.77-.48.98,0,1.88.17,2.62.42-.63.26-1.27.52-1.93.79-3.04,1.24-6.18,2.52-9.14,4.2-6.08,3.45-12.13,6.55-19.25,6.65-.19,0-.37,0-.56,0-2.34,0-4.65-.2-7.09-.41-1.17-.1-2.38-.21-3.58-.29l-.86-.06-.19.84c-.02.11-.05.21-.08.31-.09.3-.18.63-.17,1.02l.03.59c.61,13.47,1.23,27.41,4.38,40.89l.35,1.5c1.68,7.26,3.42,14.77,7.88,21.27,3.17,4.61,6.98,7.05,11.03,7.05s7.94-2.54,11.04-7.16c.3-.45.56-.92.8-1.37.1-.19.2-.37.31-.56,5.47-9.63,8.06-20.35,10.56-30.7.19-.79.38-1.58.57-2.36-.1.91-.2,1.81-.29,2.71-.5,4.78-1.02,9.73-2.2,14.38-2.85,11.25-6.08,24-19.86,28.46l-.69.22v67.03l.58.03s0,0,0,0l-.82.15v.83c0,1.56,0,3.14,0,4.71.01,3.47.02,7.06-.02,10.6-.1,7.75-4.49,12.96-12.05,14.29-1.78.31-3.65.44-5.47.56-.86.06-1.72.11-2.58.19l-4.94.44,4.73,1.51c4.85,1.55,9.15,2.46,13.16,2.79,7.15.58,14.42,1.05,21.45,1.5,4.69.3,9.54.62,14.31.96,3.33.24,6.72.56,9.99.87,6.09.58,12.39,1.18,18.62,1.28,4.87.08,9.75.12,14.51.12,11.06,0,21.99-.22,32.49-.64,5.6-.23,11.2-1.58,16.61-2.88.94-.23,1.89-.46,2.83-.68,1.37-.32,2.39-1.46,3.37-2.55.4-.45.78-.88,1.17-1.23l.77-.7-.72-.74c-.36-.37-.71-.82-1.08-1.3-.91-1.17-1.85-2.38-3.21-2.73-7.93-2.04-16.37-4.16-24.78-5.52-3.95-.64-8.02-.71-11.96-.78-1.35-.02-2.73-.05-4.1-.09,1.16-5.62-.01-7.09-6.48-9.53-8.39-3.17-12.53-10.66-11.36-20.56.03-.28.77-.92,1.13-1.23l.23-.2c1.18-1.04,2.41-2.07,3.6-3.06,2.24-1.87,4.57-3.81,6.66-5.93,7.62-7.71,13.7-17.41,19.13-30.52,6.45-15.59,10.06-29.93,11.05-43.84.33-4.64.24-9.3.16-13.79-.03-1.78-.07-3.47-.07-5.15.77-.27,1.49-.5,2.19-.73,1.81-.59,3.38-1.1,4.8-1.95,5.06-3.04,7.49-7.87,7.02-13.98-.5-6.53-3.87-11.13-10.01-13.65-1.35-.56-2.29-1.32-2.39-1.7-.84-3.45.05-5.19,3.51-6.92.27-.14.56-.27.85-.39,1.03-.46,2.09-.94,2.84-1.81.24-.28.5-.57.76-.86,1.52-1.69,3.24-3.61,3.23-5.65,0-2.23-2.71-5.09-4.92-5.88-6.26-2.21-12.4-4.28-18.74-5.18-9.44-1.35-18.73-2.3-28.55-3.31-3.41-.35-6.92-.71-10.42-1.08.21-.33.42-.64.67-.93,8.88-10.6,17.93-21.35,26.68-31.76l2.87-3.42c8.89-10.57,18.76-23.16,23.33-38.82,5.4-18.5,1.35-34.62-11.72-46.62-9.47-8.7-21.55-13.1-35.9-13.1-3.36,0-6.9.24-10.52.72-18.73,2.48-34.66,11.24-47.77,19.48-14.69,9.23-27.63,21.18-38.45,35.5-.9,1.19-3.01,3.99.04,6.35.82.64,1.69.96,2.57.96m-163.66-44.29h.06c1.71-.02,3.42-.79,4.69-2.12,1.33-1.39,2.06-3.25,2-5.08-.11-3.4-3.21-6.28-6.77-6.29-1.83,0-3.65.8-4.99,2.19-1.29,1.33-1.99,3.08-1.93,4.79.12,3.47,3.36,6.52,6.94,6.52m-166.26,36.58c6.37,0,11.25-5.09,11.33-11.83.04-3.23-1.09-6.19-3.18-8.32-2.11-2.15-5.08-3.35-8.36-3.38h-.11c-6.58,0-11.57,4.76-11.61,11.08-.04,7.01,5.01,12.36,11.76,12.45h.16m-122.8-.5h.07c5.87-.03,11.01-5.42,11-11.52-.01-6.26-5.21-11.36-11.58-11.36-.11,0-.23,0-.34,0-5.66.16-10.56,5.59-10.5,11.6.07,6.53,4.84,11.27,11.36,11.27m505.42,7.61h.03s0,0,0,0c4.22-.03,7.53-3.41,7.54-7.68.01-3.96-3.17-7.21-7.09-7.26h-.09c-4.04,0-7.59,3.55-7.61,7.6,0,1.65.87,3.53,2.36,5.02,1.47,1.48,3.24,2.32,4.86,2.32m24.54,15.08c3.32,0,6.65-1.43,9.14-3.93,2.36-2.36,3.71-5.46,3.7-8.5-.02-7.01-5.76-12.84-12.81-13-.09,0-.18,0-.27,0-3.24,0-6.46,1.38-8.85,3.79-2.42,2.44-3.78,5.73-3.75,9.04.06,6.67,6.03,12.56,12.77,12.6h.06m-446.18-6.28h14.06l-.33-1.26c-.28-1.03-.53-2.04-.78-3.01-.63-2.47-1.22-4.81-2.01-7.09-.46-1.33-2.14-2.7-3.46-2.82-1.21-.11-2.54-.16-4.17-.16-.86,0-1.73.01-2.59.03-.85.01-1.71.03-2.56.03h-1.24l.26,1.21,1.28,5.92,1.37,6.36.17.79m-53.69-.07h14.87l.15-.82,1.78-9.68.45-2.46.22-1.18h-1.2c-.84,0-1.68-.02-2.52-.04-.86-.02-1.72-.04-2.58-.04-1.53,0-2.78.06-3.93.19-1.55.18-3.41,1.57-3.97,2.99-.86,2.15-1.46,4.39-2.09,6.77-.26.97-.52,1.96-.81,2.99l-.36,1.27m86.84,6.57c1.22,0,2.32-1.02,3.38-2.01.43-.4.84-.78,1.23-1.06l.53-.39-.15-.64c-.3-1.27-1.21-5.14-4.28-5.14-.33,0-.68.05-1.03.14-1.36.37-2.35,1.51-3.3,2.62-.38.44-.74.86-1.11,1.22l-.75.72.74.72c.35.35.71.77,1.09,1.22.99,1.18,2.01,2.4,3.4,2.59.09.01.18.02.28.02m359.86,16.69c6.61,0,11.6-5.04,11.6-11.73,0-5.98-4.83-11.03-10.78-11.26-.15,0-.3,0-.45,0-6.14,0-11.18,4.83-11.47,10.98-.15,3.14.98,6.24,3.1,8.51,2.03,2.19,4.76,3.43,7.68,3.5.11,0,.21,0,.32,0m-415.81,231.56c10.12,0,21.07-.4,34.45-1.27,9.5-.62,9.81-1.66,9.8-10.99v-.06c0-2.99.09-6.06.19-9.03.22-6.89.45-14.02-.56-20.9-1.48-10.1-4.29-21.15-8.61-33.77-8.99-26.3-13.09-48.46-12.89-69.74.11-12.6,1.6-25.42,3.04-37.82.31-2.66.62-5.33.91-7.99,1.05-9.48,3.11-11.67,12.91-13.78,2.88-.62,5.9-.95,8.82-1.27,1.32-.14,2.69-.29,4.03-.47l.87-.11v-.88c0-.08.01-.17.02-.25.03-.3.06-.72-.09-1.14l-1.48-4.15c-4.26-11.92-8.66-24.24-13.12-36.32-.5-1.36-2.61-2.27-3.84-2.3-.19,0-.38,0-.56,0-1.31,0-2.62.1-3.89.19-1.23.09-2.5.18-3.73.18-.37,0-.73,0-1.1-.03-.19,0-.37-.01-.54-.01-2.81,0-4.58,1.16-6.13,4.01-3.19,5.88-9.09,9.53-15.4,9.53-5,0-9.4-2.28-12.39-6.43-3.7-5.14-7.78-7.24-14.07-7.24-.68,0-1.41.02-2.21.07-.2.01-.4.02-.6.02-.92,0-1.86-.11-2.96-.23-.69-.08-1.4-.15-2.18-.22l-.78-.06-.25.74c-.31.93-.61,1.84-.9,2.74-.63,1.92-1.22,3.73-1.85,5.56-1.92,5.63-3.91,11.35-5.82,16.88-4.21,12.13-8.56,24.68-12.57,37.12-6.23,19.31-9.73,39.5-10.43,60.01-.18,5.47-.09,11.02,0,16.39.05,3.12.1,6.34.1,9.51-.02,30.2-.05,59.75-.18,89.12,0,2.2.4,4.59,3.55,5.56,2.11.66,4.26,1.42,6.34,2.16,4.62,1.65,9.39,3.35,14.27,4.04,10.94,1.54,22.64,2.41,34.77,2.58,1.66.02,3.36.04,5.06.04m442.95-234.47c1.36,0,2.55-1.12,3.69-2.2.45-.43.88-.83,1.29-1.14l.41-.31v-.51s-.05-1.73-.05-1.73v-.51s-.43-.29-.43-.29c-.44-.3-.87-.67-1.33-1.07-1.13-.96-2.3-1.96-3.73-2.16-.22-.03-.44-.05-.65-.05-1.23,0-2.33.52-3.1,1.47-.86,1.06-1.22,2.58-.93,3.97.39,1.88,2.74,4.4,4.7,4.51.05,0,.09,0,.14,0m-383.27,10.71c.17,0,.35,0,.52-.03,3.3-.36,4.98-2.54,5-6.46v-.1s-.02-.09-.02-.09c-.51-2.72-2.46-4.4-5.08-4.4-.09,0-.18,0-.28,0-3.14.13-5.14,2.25-5.36,5.66-.08,1.32.43,2.67,1.4,3.71,1.02,1.09,2.41,1.71,3.82,1.71m393.43,12.7c.23,0,.46-.02.69-.05,1.31-.19,2.33-1.12,3.63-2.31.61-.56,1.31-1.19,2.12-1.83l1.07-.83-1.11-.78c-.84-.59-1.59-1.21-2.25-1.76-1.37-1.14-2.46-2.04-3.65-2.04-.09,0-.19,0-.28.02-1.89.24-4.32,2.58-4.64,4.48-.21,1.26.13,2.54.95,3.5.85,1.01,2.12,1.59,3.47,1.59m-400.48,24.36c4.78,0,9.92-.49,16.54-1.58l1.15,11.61.69,6.95c-2.46-.27-4.86-.41-7.17-.41-13.03,0-24.17,4.28-34.07,13.08l-1.81,1.61,2.41.14c2.49.14,4.54.21,6.46.21,6.25,0,11.32-.77,15.94-2.44,4.67-1.68,9.72-3.38,14.93-4.42.54-.11,1.12-.16,1.77-.16,1.26,0,2.55.19,3.93.4.02,0,.04,0,.06,0-.47.18-.93.35-1.4.53-2.53.96-5.15,1.94-7.76,2.8-1.54.5-3.08,1.02-4.62,1.54-5.22,1.76-10.61,3.57-16.02,4.78-1.3.29-2.75.43-4.54.43-1.3,0-2.65-.07-3.96-.14-1.35-.07-2.74-.15-4.12-.15h-.94l-.06.93c-.03.39-.05.71-.07,1-.04.52-.07.92-.07,1.33,0,18.13,2.25,35.99,6.69,53.06,2.13,8.21,5.04,16.15,8.63,23.6,1.89,3.92,5.06,6.17,8.68,6.17,3.11,0,6.2-1.65,8.71-4.63,1.91-2.28,3.31-4.4,4.28-6.49,8.52-18.31,13.52-38.9,14.87-61.21,1.11-18.36-.35-37.24-4.34-56.13-.45-2.12-1.32-4.42-4.36-5.38-6.24-1.98-12.58-2.98-18.85-2.98s-12.92,1.05-19.31,3.13c-1.96.64-3.68,3.06-4.3,5.01-.4,1.25,1.04,2.4,3.43,4.16l.43.32c.97.73,2.19,1.07,3.28,1.38,4.64,1.31,9.52,1.95,14.9,1.95m403.03,3.16l.3-.78,1.84-4.85.49-1.29.51-1.36h-7.06l.27,1.21,1.32,6,.14.65.65.12.72.13.82.15m-362.49,200.01c-9.7-.16-18.69-2.04-27.45-5.71l-2.4-1.01,1.11,2.36c.17.36.29.62.38.83.17.38.28.63.46.88,5.59,7.82,13.97,12.36,24.91,13.49,7.01.72,14.27,1.08,22.19,1.08,3.48,0,7.13-.07,10.85-.21,5.37-.2,10.75-1.22,15.96-2.21,2.3-.44,4.69-.89,7.02-1.26l.81-.13.04-.82.04-.84.04-.84.03-.66-.6-.28-1.58-.76c-1.15-.55-2.3-1.11-3.46-1.65-1.72-.8-3.5-1.57-5.21-2.31-3.67-1.59-7.47-3.23-10.91-5.27-10.37-6.14-15.67-15.08-15.34-25.84.34-11.02,1.31-22.22,2.24-33.05.22-2.55.44-5.09.65-7.64.6-7.17,1.27-14.45,1.92-21.5.95-10.26,1.93-20.86,2.7-31.31.65-8.91,2.24-18.19,9.34-25.7.34-.36.53-.76.79-1.31.13-.28.29-.62.51-1.04l1.38-2.64-2.69,1.27c-4.14,1.95-7.91,2.9-11.53,2.9-4.82,0-9.37-1.7-13.9-5.21l-3.7-2.86,2.2,4.12c7.21,13.49,6.95,15.79,5.72,26.8-.14,1.26-.29,2.63-.45,4.15-2.25,21.91-4.72,45.21-7.78,73.32-.17,1.55-.32,3.13-.46,4.66-.49,5.25-1,10.67-2.4,15.72-2.94,10.65-9.93,17.62-20.77,20.72l-.66.19-.06.68-.08.86v.07s-.08.77-.08.77l.73.26,17.8,6.3,1.69.6m83.88-23.11c8.7,0,17.52-.59,25.76-1.23,1.73-.13,3.42-.45,5.06-.76.73-.14,1.45-.27,2.16-.39l.81-.13.03-.82c.36-11.07.25-22.27.13-33.1-.25-24.66-.52-50.16,4.95-74.85l.3-1.36-1.39.15c-13.93,1.55-25.17,2.27-35.39,2.27-19.11,0-35.94-2.6-51.45-7.96l-1.33-.46v6.74c0,3.63,0,7.08,0,10.54,0,6.38-.01,12.75-.02,19.13-.02,22.13-.03,45.01-.16,67.51-.02,3.91,1.43,6,4.86,6.98,1.74.5,3.49,1.09,5.19,1.66,1.75.59,3.56,1.2,5.38,1.72,10.46,2.99,21.62,4.38,35.1,4.38m138.97,26.8l4.68-.52c4.74-.52,8.73-2.7,12.2-6.65,5.78-6.57,6.62-14.66,6.67-22.43.07-11.66.07-23.52.07-34.98,0-16.19,0-32.93.2-49.39.1-7.79-2.48-14.68-8.12-21.68l-2.43-3.02.67,3.81c.39,2.23.89,4.52,1.37,6.75,1.07,4.94,2.18,10.04,2.28,15.09.55,29,.6,55.06.16,79.67-.2,11.23-1.44,23.81-13.68,30.96l-4.06,2.38m5.26,5.25c-2.41,0-4.88-.19-7.28-.38-1.43-.11-2.9-.22-4.36-.3l-3.79-.19,3.2,2.03c2.91,1.85,6.09,3.69,9.59,4.57,8.92,2.24,18.44,3.38,28.28,3.38,7.18,0,14.8-.6,22.66-1.8,5.19-.79,10.27-2.78,14.11-4.42,2.17-.93,2.67-2.13,2.7-2.96.04-.89-.41-2.2-2.73-3.43-1.69-.9-3.54-1.45-5.33-1.99l-.22-.07c-8.15-2.45-14.25-6.61-18.64-12.72-4.63-6.46-5.26-14.01-5.29-19.88-.16-30.53-.16-55.88,0-79.77.03-4.29.96-8.69,1.86-12.95l.2-.93c.46-2.17,1.23-4.29,1.98-6.33.33-.91.64-1.76.93-2.61l.71-2.15-2.07.92-3.79,1.68-10.19,4.51-.59.26v.96s0,1.87,0,1.87c.02,10.41.03,20.83.05,31.24.04,26.16.08,53.21.16,79.81.04,13.06-7.29,20.93-20.09,21.58-.66.03-1.33.05-2.05.05m-257.88-19.75l1.09-.18c17.9-2.94,26.94-11.58,28.45-27.21l.11-1.1h-10.16v-80.17l-1.89,3.59c-.19.36-.35.64-.48.88-.24.43-.42.74-.54,1.11-1.04,3.07-2.12,6.19-3.17,9.21-2.54,7.3-5.16,14.85-7.37,22.39l-.64,2.17c-2.35,7.95-4.78,16.17-5.41,24.44-.72,9.47-.55,19.15-.4,28.5.07,3.87.13,7.88.14,11.81,0,.8.07,1.6.13,2.37.03.36.06.71.08,1.07l.07,1.1m-9.56-68.06c-2.1,0-4.28-.62-6.49-1.84l-1.79-.99.32,2.02c.36,2.31.8,4.64,1.22,6.9.92,4.96,1.88,10.1,2.09,15.14.43,10.02.28,20.26.15,30.15-.04,2.51-.07,5.02-.1,7.53-.08,7.36-2.55,13.88-7.35,19.39-.95,1.09-2.08,2.01-3.52,3.17-.73.59-1.55,1.26-2.43,2.02l-1.22,1.05,1.48.63,5.75,2.42,4.74,2c-1.32.03-2.58.05-3.85.05-2.29,0-4.15-.09-5.83-.29-1.68-.19-3.85-1.56-5.16-3.26-1.19-1.53-2.46-2.21-4.12-2.21-.39,0-.81.04-1.31.11-4.16.61-8.4,1.22-12.49,1.8-8.7,1.23-17.71,2.51-26.53,3.99-7.79,1.31-15.64,3.33-22.38,5.12-1.44.38-2.56,1.47-3.64,2.53-.46.45-.89.87-1.34,1.23l-.98.79.98.78c.42.33.84.67,1.26,1.01,1.06.86,2.16,1.74,3.3,2.55.61.43,1.46.69,2.52.78,3.96.33,7.98.73,11.87,1.11,9.33.91,18.97,1.86,28.5,2.06,1.41.03,2.87.04,4.34.04,9.78,0,19.72-.66,29.33-1.3,1.8-.12,3.6-.24,5.4-.35,15.52-.99,30.66-4.13,45.01-9.34,1.05-.38,1.99-.97,2.98-1.59.48-.3.97-.61,1.51-.91l2.3-1.31-2.6-.53c-1.52-.31-2.97-.59-4.38-.85-2.86-.54-5.57-1.05-8.17-1.76-12.7-3.47-20.12-10.49-22.7-21.45-.94-3.99-1.79-7.89-1.87-11.73l-.05-2.18c-.24-11.53-.49-23.44.08-35.11.24-4.93,1.31-9.88,2.34-14.67.45-2.1.92-4.27,1.3-6.37l.5-2.76-2.13,1.82c-2.05,1.75-4.36,2.63-6.87,2.63m457.14,54.3h.15c2.13-.04,4.27-1.03,5.87-2.71,1.62-1.7,2.52-3.91,2.47-6.07-.1-4.33-4.13-8.29-8.47-8.3-2.08,0-4.2.95-5.84,2.6-1.75,1.77-2.73,4.12-2.7,6.44.06,4.21,4.12,8.04,8.51,8.04m-333.93,28.29c3.82,0,7.83-.11,12.25-.34,5.77-.3,11.58-1.17,17.19-2.01l1.02-.15c1.39-.21,3.34-1.89,3.42-3.33.19-3.36.17-6.72.14-10.28,0-1.27-.02-2.57-.02-3.91v-1.16l-1.15.17c-.8.12-1.54.26-2.25.39-1.37.26-2.55.48-3.71.48-4.09,0-8.25.03-12.28.05-4.06.03-8.25.05-12.38.05-9.21,0-16.29-.13-22.93-.43-9.41-.42-18.97-3.06-28.43-7.84-2.64-1.34-3.46-2.61-3.22-5.05.18-1.92.14-3.87.1-5.75-.02-.82-.04-1.65-.04-2.47v-1h-12.98l.15,1.13c.15,1.18.27,2.35.38,3.48.25,2.48.48,4.82,1.06,7.14,3.17,12.67,11.88,21.32,25.88,25.71,11.16,3.5,23.17,5.13,37.8,5.13m-240.62-14.46c-1.28.14-2.59.27-3.96.4-3.95.38-8.03.78-12.06,1.6-5.77,1.17-11.45,3-17.25,4.94-1.51.5-3.07,2.64-3.15,4.32-.08,1.63,2.11,3.32,3.35,3.81,3.46,1.36,6.34,2.21,9.08,2.68,9.22,1.6,18.98,2.41,29.03,2.41,7.02,0,14.41-.39,21.96-1.17,13.1-1.35,26.37-3.06,39.21-4.72,9.64-1.24,19.62-2.53,29.43-3.65,5.71-.65,9.19-3.57,10.97-9.17.29-.92.46-1.85.6-2.6.05-.27.09-.51.14-.71l.29-1.31-1.34.1c-3.11.23-6.27.51-9.32.77-6.84.59-13.92,1.21-20.86,1.38-3.22.08-6.5.12-10.04.12-8.59,0-17.28-.24-25.39-.5-8.92-.29-19.41-1.11-29.53-5.05-2.26-.88-4.5-1.94-6.87-3.07-1.17-.56-2.39-1.13-3.68-1.72l-1.55-.71.13,1.69.79,10.16m221.1,41.32h.08c1.57-.19,3.42-.4,5.48-.64,7.36-.84,17.45-1.99,27.51-3.38,1.65-.23,3.03-1.38,4.37-2.49.57-.48,1.12-.93,1.66-1.3l1.18-.79-1.14-.84c-.57-.42-1.13-.93-1.72-1.47-1.37-1.25-2.79-2.54-4.53-2.87-1.3-.24-2.61-.5-3.92-.75-6.86-1.33-13.95-2.71-20.97-2.71h-.37c-12.5.09-25.19,1.12-37.46,2.11-1.95.16-3.91.32-5.86.47-3.89.31-7.74,1.31-11.46,2.28-.66.17-1.31.34-1.96.51-1.28.33-3.18,2.14-2.95,3.51.23,1.32,1.46,2.36,2.45,3.19l.22.18c.55.46,1.23.6,1.83.71.19.04.38.07.56.12,10.71,2.99,21.59,3.32,35.38,3.74,3.67.11,7.46.22,11.54.4h.08m244.5-245.66c1.78.16,3.52.34,5.22.51,4.49.46,8.73.89,13.02.95.35,0,.7,0,1.05,0,3.94,0,7.82-.29,11.94-.6,1.66-.12,3.37-.25,5.1-.36l1.57,10.73,1.39,9.5c-8.8.28-16.72,3.02-24.39,5.67-6.46,2.24-12.57,4.35-19.16,5.1l-.68.08c.91-8.04,2.21-16,3.49-23.83.35-2.17.79-4.35,1.17-6.28.1-.51.2-1.01.29-1.48m50.4,158.71c.08.31.17.61.25.92,1.43,5.31,2.79,10.33,5.14,14.93,3.3,6.44,9.85,7.75,16.38,8.76-2.57.58-5.02,1.16-7.35,2-9.5,3.43-12.11,11.99-13.25,18.13-.42,2.28-.76,4.54-1.09,6.87-.61-3.74-1.22-7.29-2.16-10.84-2.39-9.03-9.52-15.21-18.6-16.43,5.78-.77,10.38-2.89,13.74-6.33,4.01-4.12,6.3-10.04,6.93-17.99M755.5.5H12.5C5.9.5.5,5.9.5,12.5v743c0,6.6,5.4,12,12,12h743c6.6,0,12-5.4,12-12V12.5c0-6.6-5.4-12-12-12h0Zm-466.26,146.82c-13.13,0-25.16-11.99-24.23-24.2-.35-15.54,10.89-24.76,24.03-25.28.42-.02.84-.02,1.25-.02,14.67,0,24.61,10.38,24.7,25.29.08,13.19-11.48,24.05-25.49,24.22-.09,0-.17,0-.26,0h0Zm257.77-10.96c-.08,0-.16,0-.24,0-5.28-.15-9.75-4.77-9.68-10,.07-5.32,4.25-9.23,9.79-9.23.11,0,.21,0,.32,0,5.39.15,9.36,4.31,9.24,9.7-.12,5.18-4.45,9.53-9.43,9.53h0Zm-177.04,23.35s-.02,0-.03,0c-9.23-.02-16.42-6.97-16.39-15.85.02-8.45,6.97-15.21,15.57-15.21.05,0,.11,0,.16,0,8.88.09,16.32,7.41,16.12,15.85-.2,8.38-7.14,15.22-15.43,15.22h0Zm112.49,92.08c1.82-1.91,3.71-3.77,5.46-5.74,11.24-12.65,19.87-26.7,22.12-43.82,1.36-10.37.55-20.52-5.54-29.61-3.78-5.65-8.77-9.3-15.69-10.06-4.73-.52-9.6-.74-13.2-4.58-4.31-4.59-5.59-10-3.71-15.9,2.02-6.37,6.71-9.88,13.22-11.21,2.2-.45,4.32-.66,6.36-.66,9.97,0,18.16,5.04,24.98,12.37,12.81,13.76,16.13,30.48,12.24,48.65-3.51,16.4-12.33,29.97-23.7,41.9-13.57,14.25-27.74,27.94-41.15,42.35-5.89,6.33-10.54,13.81-15.75,20.77-.2,0-.4-.01-.6-.02,2.11-4.48,3.97-9.11,6.4-13.4,4.7-8.32,10.14-16.25,14.51-24.73,4.64-8.99,8.28-18.49,12.58-27.66,1.49-3.18,3.37-6.28,5.62-8.96,1.01-1.2,2.39-1.9,3.89-1.9.96,0,1.97.29,2.95.94,2.44,1.61,2.73,3.97,2.03,6.65-2.26,8.65-7.72,15.53-12.49,22.79-.31.47-.67.91-.52,1.83h0Zm-34.87-106.15c-.2,0-.41-.02-.62-.07-1.63-.36-3.59-2.4-3.98-4.03-.27-1.1,1.94-2.8,3.04-4.23.53,0,1.06.01,1.58.02,1.02,1.45,2.66,2.81,2.91,4.38.31,1.96-1.03,3.93-2.92,3.93h0Zm-113.59,4.97s-.08,0-.12,0c-2.66-.05-4.97-2.28-4.68-4.78.32-2.65,1.8-4.46,4.61-4.58.05,0,.1,0,.15,0,2.41,0,4.6,2.5,4.52,5.3-.48,2.18-1.58,4.06-4.49,4.06h0Zm-25.74,160.3c-.28-7.43-3.1-14.2-6.57-20.73-6.5-12.25-15.84-22.03-26.58-30.67-12.18-9.79-24.7-19.25-36.06-29.94-11.34-10.66-18.87-24.17-21.59-39.7-2.81-16.09.76-30.52,13.85-41.33,4.73-3.91,10.02-6.19,15.86-6.19,2.11,0,4.3.3,6.55.92,6.55,1.82,11.88,7.9,12.71,14.93.83,7.04-2.24,12.72-8.78,16.18-1.48.78-3.08,1.34-4.53,2.16-7.72,4.39-11.13,11.88-10.12,21.3,1.17,10.84,5.94,20.1,12.31,28.63,7.55,10.1,16.11,19.18,27.56,25.2-2.55-3.43-5.31-6.74-7.61-10.33-3.1-4.85-5.03-10.06-3.08-15.98,1.62-4.91,4.46-8.51,9.94-9,.43-.04.85-.06,1.26-.06,4.93,0,8.66,2.7,10.52,7.13,2.8,6.68,5.31,13.6,6.85,20.66,3.74,17.13,6.92,34.39,10.15,51.63.88,4.68,1.09,9.47,1.79,14.19.14.95.98,2.44,1.71,2.57,9.88,1.85,13.68,7.96,13.47,17.66-.13,6.27.66,12.55,1.02,18.55-.72.42-.95.66-1.13.66,0,0-.01,0-.02,0-1.3-.14-2.59-.2-3.86-.2-9.9,0-18.85,3.92-27.82,7.85-6.53,2.87-13.22,4.73-20.12,4.73-3.14,0-6.33-.39-9.57-1.24-2.04-.54-4-1.43-6.05-2.18-3.71,25.62-3.14,50.71,7.01,74.96-.4-4.22-.94-8.42-1.16-12.65-.78-14.8,1.36-29.32,4.26-43.77.69-3.45.98-6.99,1.47-10.63,3.05.99,6.01,1.42,8.89,1.42,9.09,0,17.44-4.27,25.74-8.74,6.98-3.76,13.58-5.76,18.7-5.76.85,0,1.65.05,2.42.17,0,7.65.53,15.3-.13,22.85-.86,9.83-2.3,19.65-4.12,29.36-3.83,20.42-10.83,39.66-23,56.73-3.7,5.19-7.82,9.96-14.46,11.58-1.43.35-2.81.52-4.13.52-4.93,0-9.08-2.34-12.6-6.2-5.87-6.42-9.16-14.32-11.58-22.48-6.35-21.46-9.39-43.42-8.23-65.81,1.15-22.16,5.33-43.78,12.91-64.67.62-1.71,2.57-3.61,4.29-4.12,6.38-1.9,12.91-2.5,19.48-2.5,3.09,0,6.19.13,9.29.33,4.24.27,8.43,1.3,12.89,2.03h0Zm112.38-144.2s-.1,0-.14,0c-6.33-.08-12-5.62-12.02-11.77-.03-5.96,5.33-11.4,11.7-11.4.17,0,.34,0,.51.01,7.02.32,11.85,4.67,11.88,12.03.02,6.07-5.57,11.12-11.93,11.12h0Zm38.24,33.74c-.2,0-.4,0-.61,0-10.55-.06-18.51-8.11-18.5-18.7.01-10.59,8-18.85,18.2-18.85.07,0,.14,0,.2,0,10.62.11,19.36,8.81,19.1,19.23-.21,8.63-7.04,18.33-18.41,18.33h0Zm-154.82-12.47s-.05,0-.07,0c-6.03-.04-11.68-5.66-11.53-11.48.16-6,5.39-11.11,11.38-11.11.01,0,.03,0,.04,0,6.18.02,11.49,5.38,11.39,11.5-.1,6.21-5.04,11.09-11.2,11.09h0Zm86.8-10.28c-1-1.31-2.52-2.49-2.88-3.95-.51-2.12.73-3.92,2.72-3.92.19,0,.39.02.59.05,1.4.24,3.15,2.06,3.58,3.51.6,2.05-.88,3.51-4.01,4.31h0Zm-48.11,188.56c-1.43,0-2.86,0-4.29-.03-.15-2.77-.5-5.71-.43-8.64.29-12.74-.8-25.35-3.95-37.68-.73-2.87-2.94-5.61-5.09-7.79-1.48-1.5-2.44-2.46-1.98-4.72,4.4-21.64,6.02-43.54,5.83-65.6-.02-2.14.29-4.32-.01-6.42-.23-1.53-.83-3.44-1.94-4.34-5.16-4.2-6.14-11.92-3.23-16.99,2.76-4.82,2.57-9.42,1.92-14.73-.75-6.19-.22-12.67.67-18.9.87-6.07,5.63-9.55,12.06-9.68,3.37-.07,6.74-.11,10.12-.11,4.06,0,8.11.05,12.17.15,6.39.16,11.03,4.4,11.99,10.62.29,1.89.56,3.79.61,5.7.25,10.08-1.25,20.24,2.87,30.05,1.77,4.21.4,8.56-2.86,11.91-2.61,2.68-3.33,5.76-3.39,9.41-.51,36.31,3.92,71.99,14.44,106.76,3.88,12.81,8.47,25.48,13.77,37.77,4.9,11.37,5.88,22.48,2.12,34.18-4.64,14.45-9.23,28.91-13.66,43.42-1.7,5.58-3.29,11.26-4.18,17.01-.53,3.41-2.37,4.38-5.03,4.79-5.43.83-10.87,1.79-16.35,2.13-6.1.38-12.2.63-18.29.63-8.6,0-17.19-.5-25.75-1.86-6.33-1-12.58-2.56-19.55-4.01,22.64-32.42,34.35-67.81,36.7-105.74,5.04,0,10.09.05,15.14.05,3.24,0,6.47-.02,9.71-.09,8.25-.18,16.36-1.4,24.67-4.37-10.34-2.56-20.59-2.96-30.88-2.96-4.63,0-9.26.08-13.91.08h0Zm261.7-177.95s-.09,0-.14,0c-3.72-.07-6.95-3.2-6.99-6.79-.04-3.64,3.78-7.29,7.54-7.29.09,0,.18,0,.27,0,3.09.15,6.25,3.55,6.26,6.76.02,4.17-2.98,7.32-6.94,7.32h0Zm-41.49,24.9c-10.8,0-18.84-8.09-18.82-18.97.02-10.84,7.88-18.66,18.75-18.66h.02c10.9,0,19,8.19,18.91,19.13-.08,9.94-8.61,18.41-18.65,18.5-.07,0-.14,0-.21,0h0Zm-361.2-27.37c-1.67-2.26-3.54-3.73-3.32-4.74.31-1.42,2.18-2.5,3.38-3.72,1.13,1.19,3,2.29,3.17,3.6.15,1.16-1.6,2.56-3.23,4.86h0Zm-54.26,152.94c-1.98,0-3.99-.09-6.08-.09,1.31-7.3,2.83-14.28,3.78-21.34,1.41-10.51,2.88-21.05,3.5-31.63.81-13.69.84-27.43,1.1-41.15.02-1.15-.35-2.75-1.14-3.41-5.08-4.24-6.38-9.73-4.32-15.56,2.87-8.15,2.7-16.44,2.64-24.81-.02-2.86.26-5.72.54-8.57.48-4.86,3.32-8.69,7.88-9.02,4.19-.3,8.41-.46,12.63-.46,4.74,0,9.48.21,14.17.66,6.02.59,8.54,4.67,8.88,10.87.21,3.94.46,7.9.4,11.84-.09,6.26.33,12.33,2.63,18.32,2.41,6.27,2.55,12.46-3.52,17.25-.6.47-.86,1.69-.86,2.57-.03,12.34-.67,24.73.19,37.01,1.29,18.53,3.17,37.05,7.56,55.19.14.57.14,1.17.3,2.6-2.3,0-4.49.05-6.61.05-1.75,0-3.47-.03-5.17-.16-1.05-.08-2.1-1.4-2.97-2.33-3.63-3.88-8.39-5.81-13.17-5.81-4.7,0-9.42,1.86-13.1,5.57-1.24,1.24-3.35,2.02-5.15,2.21-1.35.14-2.72.19-4.1.19h0Zm134.01-142.25s-.09,0-.14,0c-3.07-.07-5.73-2.95-5.7-6.19.03-3.01,2.69-5.66,5.69-5.66,0,0,.01,0,.02,0,3.41.01,5.8,2.67,5.73,6.36-.06,3.17-2.45,5.5-5.61,5.5h0Zm146.9,100.93c-5.05-6.78-9.94-12.8-14.22-19.22-8.78-13.16-16.71-26.84-20.52-42.39-2.99-12.21-3.19-24.47,2.53-36.03,3.9-7.88,10.12-12.94,19.29-12.94.29,0,.59,0,.89.02,6.69.23,11.24,3.75,13.67,9.85,2.5,6.28,1.24,12.05-3.48,16.84-2.59,2.62-5.92,4.55-8.34,7.3-6.45,7.33-6.88,16.37-5.95,25.43,1.63,15.93,7.74,30.51,14.3,44.92.69,1.52,1.42,3.03,2.11,4.55.07.17-.06.42-.27,1.69h0Zm-162.74-88.4c-2.46,0-4.32-2.02-4.22-4.57.1-2.57,1.41-4.27,4.07-4.51.13-.01.26-.02.38-.02,2.45,0,4.45,2.1,4.49,5.23-.13,2.02-1.68,3.53-4.18,3.83-.19.02-.37.03-.55.03h0Zm365.41,60.12c-17.71,0-31.23-13.43-31.51-31.42-.26-16.92,11.76-31.12,30.06-31.67.51-.02,1.02-.02,1.52-.02,20.05,0,33.06,12.22,33.14,31.48.07,16.27-12.04,31.63-32.39,31.63-.11,0-.22,0-.33,0-.16,0-.33,0-.49,0h0Zm-160.04-51.64c-.52-.01-1.04-.03-1.57-.04-.79-1.32-2.38-2.78-2.17-3.92.23-1.3,2.04-3.16,3.21-3.19,0,0,.02,0,.03,0,1.13,0,3.2,1.97,3.2,3.06,0,1.36-1.72,2.73-2.7,4.09h0Zm116.96,3.85c-.51-.02-1.02-.04-1.52-.06-.77-1.33-2.31-2.81-2.1-3.96.23-1.24,2.1-2.19,3.25-3.26,1.07,1.18,2.91,2.3,3,3.55.08,1.18-1.68,2.48-2.63,3.73h0Zm-275.86,3.37c-.05,0-.11,0-.16,0-2.68-.11-3.74-1.8-3.82-4.23-.08-2.71.99-4.73,3.91-5.05.12-.01.24-.02.37-.02,2.22,0,4.24,2.19,4.27,4.49.04,2.5-2.15,4.81-4.57,4.81h0Zm143.75,3.7c-1.27-1.18-3.32-2.21-3.59-3.59-.25-1.3,1.36-2.97,2.16-4.48.52-.03,1.05-.05,1.57-.08,1.07,1.49,2.83,2.92,2.97,4.49.1,1.12-2,2.43-3.11,3.65h0Zm-241.1,1.94c-.56-.07-1.12-.13-1.68-.2-.76-1.45-2.39-3.16-2.06-4.3.4-1.4,2.4-3.21,3.77-3.27.05,0,.1,0,.14,0,1.95,0,3.87,1.69,3.14,4.05-.45,1.44-2.17,2.49-3.32,3.72h0Zm338.57,3.67c-2.05,0-3.6-1.83-2.8-3.86.54-1.36,2.48-2.8,3.92-2.95.03,0,.06,0,.08,0,1.03,0,2.26,1.88,3.39,2.88-.04.53-.09,1.05-.13,1.58-1.45.83-2.88,2.3-4.36,2.35-.04,0-.08,0-.11,0h0Zm-162.12,249.95c1.93-7.34,3.4-13.79,5.32-20.11,5.11-16.81,11.06-33.39,15.43-50.39,3.13-12.19,4.83-24.84,6.12-37.39,1.24-12.06,1.24-24.25,1.49-36.4.04-2.17-.89-4.71-2.17-6.5-4.35-6.05-4.6-7.29-.58-13.81,1.7-2.76,2.67-4.86.4-8.31-3.48-5.27,0-11.32,6.32-11.98,4.98-.52,10-.66,15.4-.99-1.44-5.28-3.06-10.47-4.26-15.75-2.48-10.93-5.91-21.7-5.65-33.1.16-7.38,4.2-13.5,10.02-15.05,1.47-.39,2.91-.6,4.29-.6,3.47,0,6.62,1.3,9.12,4.26,3.8,4.5,4.29,9.75,1.78,15.12-.91,1.94-2.04,3.8-3.26,5.57-8.32,12.06-8.43,25.74-8.29,39.85,3.24.16,6.19.32,9.13.44,3.46.14,6.97.56,8.61,4.05,1.58,3.37,1.75,6.87-1.08,10.03-.58.65-.39,2.15-.25,3.21.1.78.61,1.58,1.11,2.23,4.29,5.55,4.4,10.75-.71,15.99-1.17,1.2-1.74,3.43-1.8,5.21-1.41,42.4,4.49,83.66,19.33,123.53,6.47,17.38,12.74,34.84,14.26,53.53.55,6.78,1.05,13.59,1.08,20.39.09,25.64-.09,51.29-.02,76.93.02,6.44-2.76,10.69-8.58,13.12-2.97,1.24-6.22,2.07-8.84,3.83-2.08,1.4-4.51,3.83-4.72,5.99-.18,1.88,2.14,5.07,4.09,5.86,5.03,2.04,10.42,3.3,15.76,4.43,4.05.86,8.25,1.03,12.58,2.22-4.51,1.11-8.96,2.53-13.53,3.27-15.04,2.44-30.19,3.67-45.39,3.67-3.09,0-6.18-.05-9.27-.15-18.74-.62-37.42-2.24-55.51-7.68-3.63-1.09-7.1-2.82-10.48-4.56-1.2-.62-2.72-2.22-2.63-3.25.1-1.12,1.73-2.68,2.98-3.02,5.94-1.65,11.98-2.97,17.99-4.36.8-.18,1.66-.11,3.61-.22-5.78-3.81-6.6-8.75-6.56-14.27.19-25.52-.26-51.06.49-76.56.4-13.53,2.69-27.02,4.42-40.49.18-1.4,2.12-2.98,3.62-3.74,15-7.6,26.72-18.83,35.57-32.91,9.41-14.95,14.48-31.41,14.31-49.18-.22-22.16-.69-44.32-1.22-66.47-.14-5.92-.86-11.83-1.78-17.73-.38,11.53-.53,23.08-1.18,34.6-1.13,20.25-1.94,40.55-7.47,60.27-6.3,22.47-18.62,40.94-36.69,55.62-.54.43-1.16.75-2.73,1.75h0Zm119.93,10.76c-3.64,0-7.2-1.8-10.22-5.56-4.88-6.08-8.88-13.08-12.16-20.18-7.57-16.42-13.26-33.5-16.22-51.45-2.24-13.57-2.31-27.25-1.34-40.81.99-13.86,3.7-27.6,5.53-41.41.5-3.8,2.81-5.82,6.16-6.48,6.54-1.29,13.18-2.11,19.73-3.36,1.8-.34,3.89-1.14,5.06-2.43,6.57-7.27,15.17-11.52,23.45-16.28,9.42-5.41,18.99-10.59,28.19-16.35,5.57-3.49,9.52-8.71,11.51-15.12,1.42-4.56.68-8.71-2.81-12.23-2.09-2.11-4.42-4.15-5.95-6.64-2.56-4.17-1.8-9.21,1.38-12.97,2.6-3.07,5.74-4.3,9.17-4.3,1.47,0,2.99.23,4.55.63,7.96,2.07,13.42,9.48,14.21,19.12,1.11,13.59-4.6,24.32-14.13,33.46-8.52,8.17-19.44,11.54-30.24,15.06-11.94,3.89-23.97,7.5-34.69,14.31-1.27.8-2.37,1.86-3.64,2.88,7.91,1.28,15.24,2.48,22.58,3.66,5.02.8,7.82,3.44,8.96,8.67,3.19,14.7,5.97,29.41,6.86,44.47,1.66,28.22-1.56,55.76-10.81,82.51-3.22,9.31-7.29,18.25-14.29,25.46-3.4,3.5-7.17,5.34-10.85,5.34h0ZM208.49,251.53c-3.01,0-5.5-2.62-5.53-5.82-.03-2.81,2.63-5.34,5.65-5.37.01,0,.03,0,.04,0,2.72,0,5.23,2.49,5.3,5.27.09,3.18-2.4,5.9-5.42,5.92-.01,0-.02,0-.04,0h0Zm-88.99,18.85c-7.79,0-15.08-7.16-15.01-14.75.07-8.1,6.5-14.61,14.5-14.69.07,0,.13,0,.2,0,8.62,0,14.38,5.95,14.47,14.98.08,8.12-6.05,14.42-14.08,14.47-.03,0-.05,0-.08,0h0Zm408.3,15.24s-.05,0-.08,0c-12.21-.04-20.99-9.4-20.96-22.33.03-11.58,9.59-21.23,21-21.23.05,0,.1,0,.15,0,12.79.09,22.1,9.53,22.02,22.34-.07,11.42-10.3,21.22-22.13,21.22h0Zm-211.2-23.66c-.86-1.29-2.56-2.73-2.37-3.84.26-1.47,1.8-3.44,3.16-3.81.27-.07.54-.11.8-.11,1.7,0,2.96,1.55,2.65,3.48-.25,1.52-1.64,2.85-2.52,4.26-.57,0-1.15,0-1.72,0h0Zm-85.96,39.85c-.12,0-.25,0-.37,0-11.14-.17-21.37-10.4-21.13-21.12.31-13.38,9.32-22.82,21.65-22.82.2,0,.4,0,.6,0,12.41.3,22.01,9.95,21.78,21.88-.25,12.45-10.1,22.06-22.53,22.06h0Zm161.05-24.54c-2.62,0-4.8-2.27-4.8-5.03,0-2.54,2.22-4.81,4.71-4.81h0c2.97,0,5,1.96,4.99,4.8-.01,2.89-2,4.97-4.81,5.03-.03,0-.06,0-.09,0h0Zm-116.14,14.76s-.04,0-.07,0c-2.99-.04-5.76-2.94-5.83-6.09-.06-2.61,2.52-5.03,5.37-5.03h0c3.25,0,5.67,2.36,5.72,5.54.04,2.97-2.4,5.58-5.2,5.58h0Zm214.45,18.93c-6.31,0-12.46-6.1-12.45-12.37.01-6.71,6.12-13.19,12.42-13.19.02,0,.04,0,.07,0,7.68.06,13.3,5.55,13.26,12.96-.04,7.12-5.77,12.57-13.25,12.6-.01,0-.03,0-.04,0h0Zm-380.49-10.41c-4.22,0-7.8-3.73-7.71-8.05.08-3.99,3.29-7.09,7.33-7.09.02,0,.05,0,.07,0,4.45.04,7.52,3,7.55,7.27.02,4.26-3.21,7.81-7.14,7.86-.03,0-.06,0-.09,0h0Zm23.47-6.28c-3.01-1.12-4.39-2.34-4.11-4.77.22-1.92,1.21-3.54,2.88-3.54.33,0,.68.06,1.06.19,1.47.52,3.23,2.59,3.3,4.04.06,1.31-2,2.71-3.12,4.08h0Zm425.31,53.44c-.63,0-1.28-.23-1.96-.75-2.04-1.58-1.14-3.26.14-4.95,10.61-14.05,23.23-25.86,38.19-35.26,14.69-9.23,30.02-17.04,47.37-19.33,3.49-.46,6.96-.71,10.39-.71,12.91,0,25.12,3.57,35.22,12.84,13.46,12.35,16.52,28.18,11.44,45.6-4.33,14.84-13.38,26.86-23.14,38.45-9.86,11.72-19.72,23.44-29.56,35.17-.65.78-1.13,1.71-1.58,2.4,13.77,1.5,27.19,2.65,40.51,4.56,6.31.9,12.51,3,18.55,5.14,1.87.66,4.25,3.23,4.26,4.94,0,1.97-2.21,4.07-3.75,5.86-.8.94-2.21,1.38-3.38,1.97-3.73,1.86-5.01,4.04-4.04,8.05.24.99,1.82,1.92,2.98,2.39,5.78,2.37,8.93,6.7,9.4,12.8.42,5.54-1.7,10.14-6.54,13.05-1.98,1.19-4.38,1.69-7.47,2.83,0,6.23.39,12.93-.08,19.58-1.07,15.13-5.19,29.56-10.97,43.53-4.6,11.13-10.38,21.57-18.92,30.2-3.17,3.21-6.82,5.95-10.22,8.95-.67.59-1.6,1.32-1.69,2.07-1.13,9.57,2.47,18.01,12,21.61,6.35,2.4,7.05,3.4,5.6,9.55,5.72.26,11.52,0,17.13.9,8.31,1.35,16.53,3.4,24.69,5.5,1.5.39,2.56,2.46,3.82,3.76-1.36,1.23-2.54,3.18-4.1,3.55-6.35,1.49-12.79,3.27-19.25,3.54-10.8.44-21.63.64-32.45.64-4.83,0-9.66-.04-14.49-.12-9.53-.15-19.03-1.46-28.55-2.15-11.92-.86-23.85-1.5-35.75-2.46-4.35-.35-8.66-1.38-12.93-2.74,2.71-.24,5.46-.29,8.13-.76,8.02-1.41,12.77-7.09,12.87-15.26.06-5.13.01-10.26.01-15.32,1.62-.3,3.21-.44,4.75-.44,10.05,0,18.37,6.05,20.98,15.91,1.45,5.49,2.13,11.18,3.21,17.11.67-4.55,1.18-8.91,1.98-13.21,1.44-7.76,4.58-14.48,12.61-17.37,3.67-1.33,7.6-1.97,12.22-3.12-8.09-1.48-16.82-1.45-20.7-9.03-3.36-6.55-4.68-14.15-7.12-21.98.46,18.23-5.9,30.24-25.02,30.24-.86,0-1.75-.02-2.67-.07v-65.35c14.03-4.54,17.42-16.95,20.52-29.17,1.74-6.86,2.04-14.08,2.99-21.13-.46-.08-.93-.17-1.39-.25-.24.81-.51,1.6-.71,2.42-2.87,11.7-5.31,23.55-11.36,34.2-.36.62-.68,1.27-1.08,1.87-3,4.48-6.6,6.72-10.21,6.72s-7.18-2.21-10.2-6.62c-4.66-6.79-6.26-14.64-8.08-22.43-3.17-13.59-3.75-27.44-4.38-41.3-.02-.33.14-.68.23-1.07,3.62.24,7.18.7,10.74.7.19,0,.38,0,.57,0,7.27-.11,13.52-3.27,19.72-6.78,4.17-2.36,8.79-3.96,12.86-5.75-.92-.83-2.79-1.53-4.91-1.53-1.01,0-2.07.16-3.12.55-4.79,1.76-9.54,3.77-14.04,6.16-3.9,2.08-7.81,3.12-11.76,3.12-3.06,0-6.14-.62-9.28-1.88-1.13-.45-2.14-1.17-3.15-2.24,15.12-1.73,28.26-10.68,44.59-10.79-1.11-7.63-2.2-15.08-3.25-22.25-6.25.36-12.09,1.01-17.89,1.01-.35,0-.69,0-1.04,0-6.17-.09-12.32-.96-19.06-1.53-.47,2.45-1.13,5.55-1.64,8.67-2.67,16.38-5.33,32.76-4.65,49.45.68,16.73,3.39,33.04,10.81,48.25,2.17,4.43,5.04,8.3,9.69,10.68,1.01.51,1.61,2.72,1.62,4.16.09,20.61.04,41.22.03,61.83,0,2.99.09,5.99-.01,8.98-.3,9.12-4.63,14.5-13.44,17.17-2.49.75-5.01,1.72-7.17,3.12-3.66,2.38-3.78,5.67.11,7.39,4.51,1.99,9.47,3.43,14.37,4,16.48,1.93,33.03,3.25,49.52,5.05,8.18.89,16.35,2.1,24.43,3.65,2.55.49,6.8,2.55,6.8,3.88,0,3.6-4.13,3.81-6.88,4.22-7.91,1.18-15.87,2.26-23.85,2.71-10.49.59-21.02,1.11-31.52,1.11-1.67,0-3.35-.01-5.02-.04-19.46-.33-38.89-1.6-57.92-6.22-1.36-.33-2.68-.82-4.28-1.31,5.23-.82,10.18-1.42,15.04-2.45,2.77-.58,5.54-1.59,8.03-2.93,2.23-1.21,5.31-2.91,4.31-5.84-.76-2.25-3.09-4.38-5.26-5.64-3.27-1.88-7.09-2.77-10.53-4.4-11.02-5.22-19.11-20.62-14.99-32.87,2.5-7.43,9.27-12.28,16.41-12.28,2.07,0,4.17.41,6.21,1.28,1.28.55,2.86,1.28,3.46,2.39.93,1.7,1.96,2.26,3.22,2.26.78,0,1.66-.21,2.66-.5.95-.27,1.91-.42,2.85-.42,2.24,0,4.38.83,6.05,2.74,2.27,2.59,2.53,5.76,1.13,8.75-.74,1.58-2.43,2.71-3.5,3.83-.92-2.5-1.15-4.74-2.39-5.92-.4-.38-1.3-.56-2.21-.56-.99,0-1.98.22-2.31.64-1.33,1.69-2.43,4.15-2.35,6.25.16,4.29,3.88,7.52,8.28,8.1.58.08,1.16.11,1.74.11,4.7,0,9.19-2.49,10.32-6.96,1.38-5.46,1.44-11.27,1.91-16.94.06-.7-.8-1.75-1.5-2.18-11.71-7.1-19.11-17.87-25.09-29.74-9.2-18.27-14.65-37.62-15.8-58.08-.14-2.55.24-5.37,1.25-7.69,6.26-14.41,11.56-29.1,14.04-45.02,2.09.26,3.93.48,6.27.77.09-1.83.17-3.63.27-5.7-1.92-.21-3.54-.39-5.43-.6.12-1.61.22-3.1.35-4.6.17-1.98,1.03-3.35,3.13-3.35.07,0,.14,0,.22,0,.09,0,.18,0,.27,0,2.62,0,3.14-1.73,3.54-4,1.14-6.46,2.6-12.86,3.73-19.32.52-2.97,1.92-4.61,4.91-5.28,7.01-1.58,14.03-2.42,21.06-2.42,5.99,0,11.99.61,17.99,1.9,3.21.69,5.42,2.15,5.99,5.95,1.84,12.23,4.03,24.41,6.14,36.99h21.84c.39,14.72-5.44,22.35-17.48,25.18-4.51,1.06-9.15,1.59-13.77,2.79,2.94.46,5.89.93,8.83,1.37,14.84,2.22,20.83,8.29,22.93,23.49.66,4.73,1.07,9.49,2.12,14.34.43-3.5.83-7,1.3-10.49.89-6.66,2.2-13.11,6.21-18.83,4.14-5.9,10.26-7.36,16.7-8.4,3.4-.55,6.81-1,10.83-1.58-5.65-.94-10.71-1.61-15.69-2.65-10.8-2.24-15.5-9.89-17.25-20-.26-1.53-.42-3.08-.6-4.62-.02-.21.13-.45.28-.93,6.92-.43,13.98-.52,20.93-1.41,8.01-1.03,15.95-2.7,23.89-4.26,2.23-.44,3.98-1.71,3.31-3.97-16.28,1.49-32.47,2.96-49.06,4.48-.28-5.07-.51-9.2-.74-13.32-.19-.02-.38-.04-.58-.06-.4,4.1-.8,8.2-1.25,12.7h-20.67c1.35-3.17,2.27-6.51,4.04-9.3,10.61-16.75,21.48-33.33,32.13-50.05,6.74-10.58,13.35-21.15,15.95-33.81,4.43-21.57-8.37-38.07-30.5-38.62-.52-.01-1.04-.02-1.55-.02-14.06,0-26.89,4.76-39.28,10.92-13.56,6.74-25.77,15.52-37.17,25.45-.89.78-1.69,1.67-2.49,2.56-.92,1.02-1.95,1.74-3.07,1.74h0Zm-163.66-44.29c-3.02,0-5.84-2.64-5.94-5.55-.11-3.1,2.73-5.94,5.93-5.94,0,0,0,0,0,0,2.98,0,5.67,2.49,5.76,5.32.11,3.21-2.6,6.14-5.71,6.17-.02,0-.03,0-.05,0h0Zm-166.26,36.58s-.1,0-.15,0c-6.21-.08-10.81-4.98-10.77-11.45.03-5.77,4.58-10.08,10.61-10.08.03,0,.07,0,.1,0,6.21.05,10.63,4.53,10.55,10.69-.08,6.2-4.52,10.84-10.33,10.84h0Zm-122.8-.5c-5.93,0-10.29-4.33-10.36-10.28-.06-5.45,4.44-10.45,9.53-10.59.11,0,.21,0,.31,0,5.78,0,10.57,4.65,10.58,10.36.01,5.52-4.72,10.49-10.01,10.52-.02,0-.04,0-.07,0h0Zm505.42,7.61c-2.88,0-6.23-3.42-6.22-6.34.02-3.52,3.11-6.6,6.61-6.6.02,0,.05,0,.07,0,3.38.04,6.12,2.85,6.11,6.26-.01,3.7-2.91,6.66-6.55,6.69,0,0-.02,0-.03,0h0Zm24.54,15.08s-.04,0-.06,0c-6.22-.03-11.72-5.45-11.78-11.61-.06-6.36,5.34-11.82,11.6-11.82.08,0,.16,0,.25,0,6.55.15,11.81,5.49,11.83,12,.01,6-5.62,11.43-11.84,11.43h0Zm-445.38-6.28c-.88-4.06-1.72-7.95-2.65-12.28,1.72,0,3.44-.05,5.15-.05,1.36,0,2.73.03,4.08.16.95.09,2.28,1.21,2.61,2.15,1.08,3.12,1.79,6.38,2.76,10.03h-11.95Zm-53.18-.07c1.01-3.55,1.69-6.71,2.87-9.66.43-1.07,2-2.23,3.16-2.37,1.26-.14,2.54-.18,3.82-.18,1.7,0,3.41.07,5.1.07-.75,4.08-1.47,7.97-2.23,12.14h-12.71Zm85.52,6.57s-.1,0-.15,0c-1.44-.19-2.62-2.27-3.91-3.53,1.31-1.25,2.45-3.18,3.99-3.6.27-.07.53-.11.77-.11,1.67,0,2.68,1.68,3.31,4.37-1.34,1-2.8,2.87-4.01,2.87h0Zm359.86,16.69c-.1,0-.2,0-.3,0-5.63-.14-10.07-5.12-9.8-10.97.26-5.61,4.92-10.03,10.47-10.03.14,0,.27,0,.41,0,5.46.22,9.83,4.78,9.82,10.26,0,6.1-4.61,10.73-10.6,10.73h0Zm-415.81,231.56c-1.68,0-3.36-.01-5.04-.04-11.57-.16-23.2-.96-34.65-2.57-6.97-.98-13.64-4.05-20.45-6.16-2.31-.72-2.86-2.23-2.85-4.6.13-29.71.16-59.41.18-89.12,0-8.62-.39-17.26-.1-25.87.69-20.37,4.13-40.35,10.38-59.74,5.83-18.09,12.24-35.99,18.39-53.98.92-2.7,1.79-5.42,2.75-8.31,2.03.16,3.66.45,5.22.45.22,0,.44,0,.65-.02.74-.04,1.46-.07,2.15-.07,5.25,0,9.34,1.38,13.26,6.82,3.36,4.66,8.24,6.85,13.2,6.85,6.32,0,12.76-3.56,16.28-10.05,1.28-2.35,2.67-3.49,5.25-3.49.16,0,.32,0,.49.01.38.02.76.03,1.15.03,2.53,0,5.08-.37,7.62-.37.18,0,.36,0,.54,0,1.02.02,2.62.82,2.93,1.64,4.97,13.45,9.77,26.96,14.6,40.46.11.31.01.7.01,1.05-4.31.56-8.69.83-12.93,1.75-10.05,2.17-12.58,4.58-13.7,14.65-1.7,15.27-3.82,30.6-3.96,45.91-.22,24.06,5.16,47.3,12.95,70.07,3.73,10.91,6.9,22.21,8.56,33.59,1.42,9.74.35,19.84.36,29.78,0,9,.03,9.47-8.87,10.04-11.44.74-22.92,1.27-34.38,1.27h0Zm442.95-234.47s-.05,0-.08,0c-1.39-.08-3.45-2.2-3.77-3.72-.41-1.94.76-4.23,3.05-4.23.17,0,.34.01.51.04,1.65.23,3.1,1.98,4.63,3.05.01.58.03,1.15.04,1.73-1.46,1.11-2.98,3.13-4.38,3.13h0Zm-383.27,10.71c-2.28,0-4.36-2.06-4.22-4.35.17-2.66,1.61-4.6,4.4-4.72.08,0,.16,0,.24,0,2.51,0,3.75,1.74,4.1,3.59-.02,3.39-1.31,5.16-4.11,5.47-.14.02-.27.02-.41.02h0Zm393.43,12.7c-2.12,0-3.79-1.8-3.43-3.93.25-1.47,2.32-3.47,3.77-3.65.05,0,.1,0,.16,0,1.29,0,2.86,1.89,5.33,3.62-2.45,1.91-3.75,3.71-5.28,3.93-.19.03-.37.04-.55.04h0Zm-400.48,24.36c-4.91,0-9.77-.54-14.62-1.91-1.03-.29-2.13-.6-2.96-1.22-1.35-1.01-3.73-2.68-3.5-3.38.54-1.71,2.06-3.84,3.66-4.36,6.31-2.05,12.65-3.08,19-3.08s12.36.97,18.54,2.93c2.29.72,3.18,2.24,3.69,4.64,3.9,18.44,5.46,37.11,4.32,55.86-1.28,21.09-5.81,41.56-14.78,60.85-1.05,2.25-2.54,4.36-4.14,6.27-2.37,2.83-5.23,4.28-7.94,4.28-3.07,0-5.96-1.84-7.78-5.6-3.6-7.45-6.48-15.39-8.57-23.41-4.49-17.27-6.66-34.93-6.66-52.81,0-.58.07-1.17.14-2.27,2.69,0,5.42.29,8.08.29,1.62,0,3.22-.11,4.76-.45,7.03-1.57,13.86-4.1,20.73-6.35,3.81-1.25,7.54-2.74,11.3-4.12.13-.27.27-.53.4-.8-2.27-.18-4.61-.76-6.84-.76-.67,0-1.32.05-1.97.18-5.12,1.02-10.14,2.69-15.07,4.46-5.05,1.82-10.18,2.38-15.6,2.38-2.09,0-4.21-.08-6.4-.21,9.96-8.86,20.96-12.83,33.4-12.83,2.7,0,5.46.19,8.29.55-.71-7.19-1.39-14.07-2.06-20.86-5.94,1.01-11.72,1.74-17.43,1.74h0Zm402.39,3.03c-.24-.04-.48-.09-.72-.13-.41-1.89-.83-3.77-1.32-6h4.37c-.87,2.28-1.6,4.21-2.33,6.13h0Zm-360.44,202.16c1.38,0,2.77-.03,4.17-.1-8.63-3.05-16.69-5.9-24.74-8.75.03-.31.06-.62.08-.93,11.16-3.2,18.46-10.56,21.46-21.42,1.83-6.61,2.14-13.65,2.89-20.53,2.66-24.43,5.27-48.87,7.78-73.32,1.51-14.69,2.81-16.18-5.39-31.52,4.8,3.71,9.58,5.42,14.51,5.42,3.87,0,7.83-1.05,11.96-3-.61,1.17-.77,1.74-1.13,2.13-7,7.4-8.89,16.53-9.61,26.32-1.29,17.62-3.15,35.19-4.62,52.79-1.13,13.57-2.48,27.14-2.9,40.73-.37,11.9,5.81,20.79,15.83,26.73,5.11,3.03,10.79,5.1,16.21,7.62,1.69.78,3.36,1.6,5.04,2.4-.02.56-.05,1.12-.07,1.68-7.62,1.21-15.21,3.16-22.87,3.45-3.6.14-7.2.21-10.81.21-7.38,0-14.77-.32-22.09-1.07-9.53-.99-18.27-4.78-24.2-13.08-.2-.27-.3-.61-.74-1.56,9.54,4,19.06,5.79,29.25,5.79h0Zm82.47-25.12c-11.69,0-23.32-1.05-34.83-4.34-3.56-1.02-7.02-2.35-10.57-3.38-3.13-.9-4.15-2.72-4.13-6.02.16-28.88.14-57.76.17-86.64,0-5.11,0-10.22,0-15.87,17.24,5.95,34.45,8.01,51.77,8.01,11.77,0,23.58-.95,35.5-2.27-7.88,35.6-3.91,71.73-5.1,108.14-2.29.38-4.7.95-7.14,1.14-8.57.67-17.14,1.23-25.68,1.23h0Zm144.23,34.05c.7,0,1.4-.02,2.1-.05,13.54-.69,21.08-9.04,21.04-22.58-.11-37.02-.14-74.04-.2-111.05,0-.94,0-1.88,0-2.18,5.13-2.27,9.55-4.23,13.99-6.2-.92,2.78-2.26,5.85-2.94,9.05-.98,4.64-2.05,9.38-2.08,14.08-.18,26.59-.14,53.19,0,79.79.04,7.22,1.09,14.33,5.48,20.45,4.8,6.69,11.38,10.76,19.16,13.1,1.83.55,3.7,1.09,5.37,1.98,2.83,1.5,3.02,3.35.1,4.59-4.44,1.9-9.12,3.64-13.87,4.35-7.51,1.14-15.02,1.79-22.51,1.79-9.39,0-18.75-1.01-28.04-3.35-3.32-.84-6.41-2.61-9.3-4.44,3.89.2,7.8.68,11.69.68h0Zm-.69-7.76c12.4-7.25,13.96-19.61,14.17-31.81.47-26.56.34-53.14-.16-79.71-.14-7.47-2.42-14.9-3.66-21.99,4.72,5.86,8.01,12.5,7.9,21.04-.36,28.12-.09,56.25-.27,84.38-.05,7.78-.93,15.53-6.42,21.77-3.04,3.45-6.76,5.78-11.56,6.31h0Zm-256.27-14.16c-.07-1.15-.21-2.27-.21-3.38-.01-13.42-.76-26.89.26-40.23.68-8.91,3.47-17.75,6.01-26.41,3.13-10.63,6.98-21.05,10.53-31.56.15-.44.43-.84.95-1.84v77.11h10.06c-1.45,15.1-10.03,23.43-27.61,26.32h0Zm-10.49-65.9c2.66,0,5.22-.91,7.52-2.87-1.23,6.79-3.3,13.93-3.65,21.16-.61,12.43-.29,24.91-.03,37.36.08,3.99.97,8.02,1.89,11.94,2.93,12.46,11.68,18.99,23.41,22.19,3.91,1.07,7.94,1.67,12.61,2.63-1.66.95-2.92,1.92-4.34,2.44-14.46,5.24-29.41,8.3-44.73,9.28-11.54.74-23.12,1.65-34.66,1.65-1.44,0-2.88-.01-4.32-.04-13.45-.28-26.88-2.03-40.31-3.17-.7-.06-1.48-.22-2.03-.6-1.56-1.1-3.02-2.34-4.52-3.52,1.53-1.23,2.88-3.11,4.61-3.57,7.36-1.95,14.78-3.84,22.29-5.1,12.96-2.18,26-3.87,39-5.79.41-.06.8-.1,1.16-.1,1.27,0,2.26.45,3.33,1.83,1.35,1.73,3.74,3.39,5.84,3.63,1.95.23,3.93.29,5.94.29,2.78,0,5.63-.12,8.62-.12-5.04-2.13-9.65-4.07-14.87-6.28,2.57-2.21,4.54-3.55,6.06-5.29,4.98-5.71,7.51-12.48,7.59-20.03.13-12.58.48-25.18-.05-37.73-.32-7.41-2.16-14.76-3.32-22.15,2.31,1.28,4.68,1.96,6.97,1.96h0Zm457.14,52.3c-3.8,0-7.46-3.42-7.51-7.05-.06-4.15,3.58-8.03,7.53-8.03,0,0,.01,0,.02,0,3.76.01,7.36,3.55,7.45,7.32.1,3.96-3.43,7.68-7.36,7.76-.04,0-.09,0-.13,0h0Zm-333.93,28.29c-12.67,0-25.24-1.24-37.5-5.08-12.59-3.94-21.86-11.64-25.2-24.99-.83-3.3-.94-6.78-1.42-10.5h10.84c0,2.71.21,5.44-.05,8.12-.3,3.13,1.08,4.67,3.77,6.03,9.1,4.61,18.81,7.5,28.83,7.95,7.65.34,15.31.43,22.98.43,8.22,0,16.44-.1,24.65-.1,1.87,0,3.74-.52,6.11-.88,0,5.08.14,9.62-.12,14.13-.05.88-1.57,2.25-2.57,2.4-6.01.9-12.05,1.84-18.12,2.15-4.07.21-8.14.34-12.2.34h0Zm-235.56,5.71c-9.64,0-19.28-.73-28.86-2.39-3.03-.52-6.02-1.5-8.88-2.63-1.17-.46-2.77-1.91-2.72-2.83.06-1.21,1.32-3.04,2.46-3.42,5.63-1.88,11.32-3.74,17.13-4.91,5.69-1.15,11.54-1.46,16.89-2.09-.29-3.69-.56-7.16-.87-11.12,3.96,1.81,7.22,3.49,10.61,4.81,9.59,3.73,19.71,4.79,29.87,5.12,8.47.27,16.95.5,25.42.5,3.36,0,6.71-.04,10.06-.12,10.06-.25,20.11-1.4,30.23-2.16-.16.75-.34,2.02-.72,3.22-1.57,4.96-4.48,7.83-10.13,8.48-22.9,2.62-45.71,6.01-68.63,8.37-7.27.75-14.56,1.17-21.85,1.17h0Zm216.01,21.16c-19.51-.82-33.29-.35-46.69-4.1-.69-.19-1.52-.21-2.02-.63-.94-.79-2.15-1.74-2.33-2.78-.12-.67,1.27-2.13,2.21-2.37,4.37-1.12,8.79-2.41,13.26-2.76,14.4-1.14,28.82-2.48,43.24-2.58.12,0,.24,0,.36,0,8.24,0,16.53,1.92,24.71,3.45,2.13.4,3.9,2.72,5.84,4.15-1.86,1.25-3.61,3.34-5.61,3.62-12.86,1.78-25.77,3.16-32.97,4h0Z"/><path class="cls-1" d="m149.78,377.14c2.35,5.05,2.72,9.97,1.18,15.37-.92,3.2-1.94,6.43-2.92,9.56-1.78,5.65-3.63,11.49-4.93,17.37-3.24,14.62-5.84,29.28-8.16,42.94-2.81,16.51-2.48,33.37-2.17,49.67.15,7.74.3,15.75.11,23.61-.33,13.96-.25,28.15-.18,41.88.03,6.08.07,12.36.07,18.54v2.74s0,.23,0,.23c-.64-.2-1.26-.39-1.88-.59-2.78-.86-5.41-1.67-7.92-2.69-.25-.23-.65-1.38-.66-2.32-.1-15.87-.1-31.74-.1-47.08,0-5.99-.05-12.08-.1-17.96-.12-14.14-.25-28.76.34-43.1.59-14.2,2.66-28.59,4.92-43.3,3.27-21.34,9.57-41.03,18.72-58.54.86-1.65,1.82-3.22,2.93-5.04.25-.41.51-.83.77-1.26m.07-2.07c-1.78,3.02-3.34,5.4-4.65,7.91-9.68,18.52-15.67,38.29-18.82,58.85-2.21,14.39-4.33,28.89-4.93,43.41-.84,20.34-.24,40.73-.24,61.1,0,15.7,0,31.39.1,47.09,0,1.12.5,2.92,1.24,3.23,3.51,1.42,7.18,2.43,11.22,3.73,0-1.73,0-3.03,0-4.33,0-20.13-.36-40.27.11-60.39.58-24.38-2.08-48.87,2.05-73.13,2.44-14.35,5-28.69,8.15-42.89,2.02-9.09,5.27-17.9,7.84-26.87,1.69-5.9,1.25-11.63-2.07-17.71h0Z"/><path class="cls-1" d="m268.2,321.85c9.88,4.86,20.31,7.13,32.7,7.13,5.53,0,11.54-.45,18.82-1.42v17.06c-2.39.33-4.77.66-7.14.99-5.87.81-11.94,1.64-17.88,2.53-3.85.57-7.6.86-11.16.86-6.15,0-11.85-.82-17.41-2.52-2.15-.66-2.62-1.4-2.18-3.44,1.12-5.19,2.13-10.35,3.19-15.81.34-1.77.69-3.56,1.05-5.37m-.73-1.48c-1.56,7.85-2.92,15.17-4.5,22.45-.58,2.69.37,3.85,2.87,4.61,5.86,1.78,11.76,2.56,17.7,2.56,3.75,0,7.52-.31,11.31-.87,8.57-1.27,17.16-2.41,25.87-3.63v-19.08c-6.7.92-13.29,1.56-19.82,1.56-11.27,0-22.35-1.91-33.42-7.61h0Z"/><path class="cls-1" d="m479.66,380.17l10.22,1.54,5.21.78c-.16.26-.32.52-.49.79-1.01,1.6-2.05,3.26-2.28,5.13-3.17,25.01-1.36,45.14,5.7,63.34.22.58.46,1.15.7,1.72.26.63.53,1.26.78,1.91-1.14-1.22-2.27-2.48-3.24-3.81-7.66-10.46-12.48-23.24-14.32-38-.95-7.66-1.34-15.34-1.74-23.46-.16-3.24-.33-6.57-.53-9.96m-1.08-1.17c.78,12.17.96,23.52,2.36,34.71,1.73,13.87,6.11,27.01,14.5,38.47,1.81,2.47,4.05,4.61,6.09,6.9-.44-2.93-1.65-5.26-2.59-7.68-7.91-20.4-8.34-41.52-5.64-62.85.3-2.4,2.23-4.6,3.37-6.81-5.07-.76-10.92-1.65-18.09-2.73h0Z"/><path class="cls-1" d="m623.84,493.76c.87,0,1.71.4,2.37,1.13.68.75,1.06,1.74,1.07,2.79-.28,2.82-1.95,3.19-3.2,3.23h-.09c-.84,0-1.6-.33-2.2-.95-.73-.75-1.13-1.85-1.1-3.02.06-2.03,1-3.04,2.98-3.17.06,0,.12,0,.18,0m0-1c-.08,0-.16,0-.25,0-2.52.16-3.84,1.61-3.91,4.14-.07,2.76,1.83,5,4.31,5,.04,0,.08,0,.12,0,2.78-.08,3.95-1.81,4.17-4.18,0-2.72-2.06-4.96-4.43-4.96h0Z"/><path class="cls-1" d="m337.73,181.94c-.84,4.21.93,8.11,2.55,11.65.25.55.51,1.11.75,1.66,4,9.13,3.91,17.64-.3,26.02-1.07,2.13-1.37,4.56-1.67,6.92-.04.29-.07.57-.11.86-2.08-3.04-2.33-6.5-.74-10.31,3.5-8.39,3.35-16.46-.48-24.66-2.4-5.15-2.46-8.92,0-12.14m2.76-3.91c-5.83,4.12-7.12,9.03-3.65,16.47,3.74,8.03,3.8,15.86.46,23.86-2.18,5.23-.98,9.63,2.3,13.06.63-3.21.59-6.82,2.03-9.69,4.53-9.03,4.29-17.83.32-26.87-2.35-5.36-5.6-10.71-1.46-16.82h0Z"/></svg>