<?xml version="1.0" encoding="UTF-8"?><svg id="Layer_2" xmlns="http://www.w3.org/2000/svg" viewBox="0 0 771 774.25"><defs><style>.cls-1{fill:none;stroke:red;stroke-miterlimit:10;}</style></defs><path class="cls-1" d="m528.45,323.13c.08-.69-1.74-2.27-2.6-2.2-.96.08-2.36,1.5-2.51,2.5-.13.88,1.19,1.98,2.39,3.74,1.31-1.81,2.6-2.86,2.73-4.03Z"/><path class="cls-1" d="m369.11,283.44c1.17-8.29,2.64-18.9,4.19-29.49,5.07-34.69,7.33-69.59,7.84-104.63.06-3.84-1.82-6.35-3.91-8.65-2.75,48.38-5.5,96.75-8.11,142.77Z"/><path class="cls-1" d="m372.93,101.54c3.02-4.28,3.02-8.02,1.92-13.13-1.52-7.09-.96-14.65-1.07-22.01-.1-6.9-.95-14.18,7.7-18.13-8.56-2.16-14.2,1.92-14.4,9.53-.19,7.1-.3,14.2-.16,21.3.17,9.32.75,18.64-3.91,27.26-.25.46-.19,1.08-.33,1.96,2.3,1.07,4.3,2,6.34,2.95,1.31-3.4,1.98-7,3.91-9.73Z"/><path class="cls-1" d="m471.96,691.66l.32,1.11c5.2,1.42,10.39,2.86,15.6,4.24.6.16,1.45.22,1.92-.08,10.26-6.57,20.47-13.2,30.7-19.82-.27-.48-.54-.95-.81-1.43l-47.73,15.99Z"/><path class="cls-1" d="m533.07,311.88c.84.04,1.75-1.22,3.27-2.41-1.62-1-2.64-2.14-3.48-2.02-.86.13-1.54,1.49-2.3,2.31.84.76,1.64,2.07,2.52,2.12Z"/><path class="cls-1" d="m548.22,340.36c.04-1.03-1.82-2.13-2.83-3.21-1.25,1.2-2.98,2.22-3.54,3.69-.28.72,1.58,2.28,3.19,4.4,1.58-2.26,3.14-3.54,3.19-4.89Z"/><path class="cls-1" d="m262.53,336.55c3.05.07,4.5-1.74,4.72-4.32-.06-3.15-2.71-5.89-5.4-5.66-3.04.26-4.32,2.45-4.39,5.17-.08,3.25,2.04,4.74,5.07,4.81Z"/><path class="cls-1" d="m203.34,697.36c7.18,3.25,12.85.99,18.54-3.7,5.56-4.59,11.68-8.5,17.56-12.7-.14-.2-.28-.4-.43-.6-14.25,4.83-28.51,9.66-42.76,14.49.08.36.16.72.25,1.09,2.29.45,4.78.48,6.85,1.42Z"/><path class="cls-1" d="m238.89,327.08c.14,1.25,2.06,2.31,3.19,3.45,1.09-1.22,2.99-2.39,3.06-3.66.07-1.28-1.68-2.66-3.35-4.99-1.45,2.43-3.04,3.91-2.9,5.2Z"/><path class="cls-1" d="m758.5.5H12.5C5.9.5.5,5.9.5,12.5v746c0,6.6,5.4,12,12,12h746c6.6,0,12-5.4,12-12V12.5c0-6.6-5.4-12-12-12Zm-247.96,207.72c22.43-1.71,44.35-1.56,66,3.71,2.33.57,4.3,1.32,4.75,4.37,2.66,18.05,5.52,36.06,8.29,54.09.14.89.02,1.82.02,2.51-27.53-12.59-56.17-11.68-85.87-8.54,2.26-18.62,4.5-37.06,6.81-56.14Zm-8.09,63.98c16.53-2.33,32.68-2.37,48.81-1.45,11.39.65,22.75,2.01,34.1,3.26,1.56.17,3.76,1.16,4.32,2.38,1.19,2.63.71,5.12-3.03,5.64-10.6,1.48-21.16,3.96-31.8,4.39-16.53.68-33.12,0-49.69-.12-.95,0-1.9-.26-3.6-.5.31-4.74.6-9.12.89-13.61Zm-23.77-24.23c1.42-9.78,3.39-19.48,4.67-29.27.53-4.08,2.11-6.31,6.14-6.99,2.31-.39,4.57-1.12,7.81-1.94-1.13,6.01-2.23,11.14-3.05,16.32-1.99,12.65-3.9,25.32-5.68,38.01-.31,2.19-.83,3.45-3.2,4.09-3.06.82-5.95,2.23-9.52,3.63.96-8.21,1.7-16.05,2.83-23.83Zm8.65,25.75c-.18,3.26-.37,6.53-.59,10.47-4.08-1.12-7.65-2.1-11.17-3.06-.36-5.64,3.08-7.83,11.76-7.41Zm-12.52,14.42c0-.96.16-1.91.26-3.1.76.09,1.05.07,1.3.16,10.2,3.58,10.36,3.59,9.8,14.36-2.06,39.96,5.43,78.03,22.26,114.29.68,1.47,1.41,2.91,2.42,4.28-11.27-41.51-11.62-83.8-9.81-126.32,30.31,1.45,60.53,3.99,89.65-9.12.46,8.72,1.14,17.72,1.37,26.72,1.08,42.06-4.8,82.94-21.43,121.89-3.01,7.04-5.91,14.34-10.23,20.56-9,12.95-12.33,27.65-14.99,42.64-5.63,31.77-6.2,63.86-5.06,95.98.63,17.55,1.97,35.09,3.5,52.6.44,5.04,2.35,10.03,4.07,14.87,4.1,11.56,12.17,18.64,24.3,21.28,8.71,1.9,17.36,4.2,25.92,6.68,3.98,1.15,7.78,3.01,11.5,4.87,1.59.79,2.77,2.41,4.95,4.4-3.91,1.62-6.7,3.41-9.72,3.92-12.77,2.14-25.54,4.62-38.42,5.64-27.2,2.16-54.41,1.51-81.39-3.05-6.7-1.13-13.26-3.2-19.84-4.97-1.55-.42-2.94-1.38-5.69-2.72,2.9-1.81,4.75-3.47,6.91-4.21,9.1-3.12,18.16-6.53,27.49-8.8,21.62-5.28,31.2-19.75,33.08-40.88,3.67-41.38,4.73-82.8.58-124.17-1.43-14.24-4.49-28.35-7.51-42.38-1.17-5.45-3.62-10.9-6.6-15.65-23.33-37.26-35.56-78.01-38.22-121.65-.97-15.99-.36-32.08-.45-48.13Zm-14.05,53.54c-7.26,3.77-14.48,7.53-21.28,11.06-1.85-8.49-3.64-16.64-5.54-25.37,5.03-2.74,10.95-5.96,17.29-9.4,3.18,7.92,6.27,15.59,9.53,23.71Zm-118.05-36.01c9.22-28.54,14.93-57.85,17.42-87.66,2.17-25.99,3.13-52.08,4.44-78.14.09-1.77-.8-4.26-2.12-5.34-11.49-9.46-11.61-18.68-4.86-32.48,1.85-3.79,2.54-6.81,1.51-11.18-2.87-12.12-1.91-24.48,1.17-36.46,2.39-9.28,9.64-14.25,18.72-14.97,10.37-.83,20.94-1,31.29,0,13.28,1.29,20.38,9.91,21.33,23.25.78,10.88,1.58,21.72-1.91,32.37-.33,1.02.58,2.52,1.09,3.72,1.7,4.09,3.85,8.03,5.14,12.24,2.72,8.84.03,16.3-7.13,21.95-2.86,2.26-3.64,4.78-3.57,8.25.96,51.63,5.17,102.86,18.85,152.92,1.68,6.15,3.72,12.21,5.63,18.45-6.62,3.47-13.13,6.88-19.58,10.26-13.14-15.75-29.41-20.85-48.88-15.59-7.76,2.09-14.18,6.51-19.62,12.3-1.95,2.07-3.38,2.56-5.97.95-4.72-2.94-9.73-5.42-15.1-8.36.7-2.1,1.44-4.28,2.15-6.48Zm89.34,43.91c-.41,19.76-16.67,35.11-36.9,34.85-20.27-.26-36.45-16.45-36.12-36.12.35-20.47,16.44-35.5,37.75-35.26,19.71.22,35.69,16.77,35.27,36.53Zm-93.3-31.19c6.54,3.19,12.74,6.21,18.06,8.81-2.13,8.45-4.14,16.47-6.3,25.01-6.53-3.34-13.85-7.1-21.37-10.95,3.25-7.75,6.32-15.04,9.61-22.87Zm-29.84,185.97c.89,51.51.98,103.03,1.23,154.54.02,4.06,1.41,5.76,5.01,7.32,15.24,6.59,31.29,9.27,47.65,10.25,13.64.82,27.31,1,40.97,1.46.03-.38.05-.75.08-1.13-4.81-.57-9.61-1.16-14.42-1.71-23.17-2.69-45.46-8.7-66.81-18.06-1.11-.49-2.28-2.38-2.28-3.62.15-52.5-.22-105.01.92-157.48.81-37.34,7.03-74.1,17.38-110.06,1.22-4.24,2.94-8.34,4.61-13.02,3.82,1.86,6.83,3.31,9.83,4.78,2.82,1.39,5.63,2.8,8.44,4.19.2-.33.4-.66.6-.99-6.26-4.6-12.36-9.44-18.81-13.74-6.47-4.32-13.3-8.12-20.32-12.35,1.08-2.39,2.14-4.76,3.44-7.64,6.7,3.55,13.07,7.23,19.71,10.33,4.23,1.97,6.73,4.59,8.74,9.03,7.55,16.68,21.48,24.57,39.32,25.15,18.5.6,31.88-8.51,39.89-24.72,2.66-5.37,6.2-8.46,11.1-10.94,5.46-2.76,10.82-5.71,16.73-8.85,1.21,2.8,2.51,5.37,3.46,8.06,10.45,29.31,20,58.88,26.04,89.49,4.91,24.85,4.47,49.97,4.43,75.11-.09,49.43-.06,98.85.04,148.28,0,3.14-.98,4.21-4.02,4.95-9.47,2.31-18.88,4.92-28.2,7.76-3.28,1-6.43,2.76-9.31,4.66-2.03,1.33-4.69,3.3-5.01,5.31-.83,5.19-4.17,5.11-8,5.49-35,3.44-69.96,3.4-104.88-1.02-1.61-.2-3.12-1.67-4.54-2.74-2.76-2.08-5.11-5.12-8.18-6.28-8.58-3.23-17.36-6.05-26.24-8.29-3.44-.87-4.41-1.82-4.4-5.29.11-62.27.07-124.54.11-186.81,0-4.6-.18-9.3.68-13.78,2.34-12.16,4.94-24.29,7.89-36.31,4.22-17.19,8.62-34.34,13.39-51.38,2.08-7.45,5.26-14.6,8.13-22.41,4.48,2.73,8.14,4.95,11.27,6.86-4.29,11.93-8.88,23.42-12.56,35.19-10.22,32.68-13.68,66.21-13.1,100.41Zm-76.93-267.66c6.55-.39,13.02-1.05,19.5-1.1,13.96-.12,27.81,1.04,41.4,4.58,2.52.66,3.62,1.8,4.04,4.4,1.15,7.08,2.63,14.11,4.03,21.48-23.9-6.9-47.46-8.24-71.83-5.25.96-8.14,1.87-15.81,2.85-24.11Zm-28.09,19.29c.22-1.66.53-3.3.79-4.95,1.8-11.3,2.11-11.59,14.51-12.86-1.41,7.98-2.69,15.5-4.16,22.98-.15.75-1.37,1.54-2.26,1.85-3.12,1.12-6.31,2.04-10.15,3.26.44-3.61.84-6.95,1.28-10.28Zm-15.81,437.27c8.92-2.73,17.83-5.57,26.88-7.82,20.34-5.07,28.28-12.69,30.33-33.54,4.42-45.13,4.88-90.29-2.04-135.29-1.67-10.84-4.85-21.01-11.03-30.39-14.8-22.47-22.67-47.72-28.53-73.74-9.7-43.07-9.3-86.4-3.73-129.89.53-4.12,1.13-8.23,1.74-12.63,12.03,2.01,12,2,10.02,13.96-5.15,31.18-6.22,62.46-2.22,93.85,3.16,24.79,9.61,48.67,20.08,71.41.58,1.25,1.25,2.47,2.04,3.65-15.16-59-11.02-118.41-4.78-178.06,25.18,1.76,49.63,1.6,74.25-5.15.97,6.2,2.02,12.33,2.88,18.48,3.53,25.36,5.41,50.8,3.58,76.4-2.85,39.79-11.93,77.95-30.16,113.66-.44.87-.81,1.8-1.38,2.58-12.82,17.33-15.05,37.79-17,58.25-3.19,33.58-2.46,67.22-.57,100.82.49,8.67,2.52,17.39,4.97,25.76,2.64,9.02,9.26,14.71,18.57,16.99,7.72,1.9,15.47,3.72,23.12,5.87,4.28,1.2,8.47,2.81,12.53,4.61,1.47.65,2.45,2.4,3.65,3.64-1.3,1.13-2.44,2.86-3.93,3.27-6.57,1.8-13.17,3.75-19.89,4.68-33.02,4.57-65.97,3.63-98.78-2.07-3.28-.57-6.52-1.52-9.68-2.61-1.87-.64-3.52-1.9-6.3-3.45,2.46-1.51,3.8-2.75,5.38-3.23Zm440.62,18.87c-1.84.76-3.62,1.89-5.53,2.21-14.02,2.34-28,5.18-42.12,6.62-64.53,6.59-129.28,7.36-194.06,6.49-42.14-.57-84.29-1-126.41-2.45-29.13-1.01-58.25-3.32-86.82-9.8-3.02-.69-5.94-1.83-8.91-2.76,0-.67,0-1.34-.01-2.01,5.74-1.65,11.48-3.3,16.55-4.76,47.51,10.54,94.58,10.65,141.78-.46.7.4,1.85,1.39,3.17,1.74,4.1,1.11,8.26,1.97,12.41,3.77-12.29,5.34-25.26,7.26-38.04,10.22,61.29,3.11,122.58,4.16,183.86.03-14.4-2.28-28.85-4.07-42.49-9.34-.04-.61-.07-1.22-.11-1.83,5.54-1.18,11.08-2.37,16.89-3.61-.33-.89-.72-1.93-1.19-3.19,39.14,12.15,127.45,12.37,153.01,1.02,2.16,1.3,3.52,2.51,5.09,2.98,4.27,1.26,8.63,2.19,12.96,3.26-.01.63-.02,1.25-.03,1.88Z"/><path class="cls-1" d="m242.18,303.12c-.13-3.1-1.85-5.1-4.98-4.97-3.29.14-4.74,2.48-5.08,5.46.32,3.23,1.95,5.22,5.1,5.03,3.2-.19,5.1-2.16,4.96-5.53Z"/></svg>