<?xml version="1.0" encoding="UTF-8"?><svg id="year_balloons" xmlns="http://www.w3.org/2000/svg" viewBox="0 0 779.92 802.22"><defs><style>.cls-1{fill:none;stroke:red;stroke-miterlimit:10;}</style></defs><path class="cls-1" d="m131.51,432.25c-3.83-.59-9.31-.81-12.8-1.42-.96-.17-2.03-.44-2.77-1.03-1.17-.93-2.88-2.14-2.91-3.28-.03-1.13,1.51-2.66,2.73-3.4,5.3-3.21,8.41-6.65,10.52-12.1-3.61-1.58-7.19-3.18-10.8-4.72-.51-.22-1.16-.14-1.74-.14-19.29,0-38.59.17-57.88-.02-30.51-.3-54.99-24.88-55.35-55.43-.25-21.93,4.43-43,11.56-63.6,9.85-28.45,25.72-52.9,48.18-73.1,15.29-13.75,32.14-25.29,49.34-36.44,11.84-7.67,23.72-15.36,33.71-25.48,6.6-6.68,11.89-14.22,13.02-23.9,1.79-15.34-6.83-28.26-20.8-31.36-15.07-3.34-29.76,4.84-34.55,19.42-1.14,3.47-1.86,7.11-2.54,10.71-3.66,19.2-19.13,34.47-38.14,37.55-20.32,3.29-39.56-5.83-49.54-22.93-7.26-12.44-8.87-25.78-7.53-39.71,2.52-26.19,15.4-47.02,34.06-64.71C57.72,17.8,82.01,5.72,109.86,2.12c53.37-6.91,97.31,10.67,129.53,54.07,17.41,23.46,23.62,50.6,20.34,79.87-3.93,35.06-19.69,63.73-45.69,87.17-18.03,16.26-38.26,29.42-58.76,42.21-5.31,3.31-10.69,6.54-15.77,10.18-2.69,1.93-5.34,4.32-7.08,7.08-5.44,8.61-.63,18.69,9.42,20.27,2.05.32,4.16.46,6.24.47,21.78.08,43.57-.21,65.33.28,17.52.4,32.06,7.45,41.9,22.42,11.53,17.53,9.7,41.78-3.87,58.48-11.79,14.52-27.34,21.13-45.62,21.51-17.6.36-35.2.12-52.81.1-3.28,0-6.42.03-9.45,1.79-2.1,1.22-4.62,1.72-7.27,2.66,1.85,5.05,5.09,8.71,9.28,11.75,1.64,1.19,2.88,2.95,4.3,4.45-1.88,1.3-3.6,3.17-5.68,3.77-3.67,1.05-7.57,1.32-12,2.01l-.69-.4Zm55.48-308.28c-.17,0-.34-.02-.51-.05-.41,0-.81.01-1.22.02-.31.18-.62.37-.94.55.01.41.02.82.04,1.22-.02.19-.04.38-.06.57-.41.88-.74,1.81-1.24,2.63-2.52,4.22-5.64,8.17-7.52,12.65-5.15,12.28-12.55,22.88-22.08,32.06-9.65,9.3-20.87,16.44-32.37,23.14-11.84,6.89-23.95,13.33-35.68,20.4-17.02,10.24-31.13,23.53-40.38,41.36-3.81,7.36-7.46,15-2.71,23.41.45.8,1.94,1.67,2.73,1.5,2.24-.49,4.79-1,6.45-2.4,4.36-3.67,8.69-7.52,12.36-11.86,8.02-9.47,15.3-19.57,23.46-28.91,12.39-14.2,27.79-24.81,43.39-35.18,15.79-10.5,31.59-21.05,44.72-35,7.91-8.4,14.56-17.56,18.66-28.45,2.17-5.75,1.74-11.13-1.55-16.31-1.1-1.73-3.63-2.34-4.5-.98-.35-.12-.7-.25-1.05-.37ZM126.61,28.96c-1.14-.77-1.7-1.38-2.39-1.57-4.09-1.09-8.16-2.65-12.33-3.01-12.11-1.05-23.65,1.97-34.9,6.13-9.98,3.69-19.56,8.24-28.02,14.78-4.05,3.13-7.62,6.89-11.58,10.15-2.24,1.84-3.01,4.56-4.77,6.64-.78.91-2.02,1.57-2.47,2.59-1.55,3.53-3.09,7.1-4.15,10.79-1.1,3.83-1.95,7.8-2.3,11.76-.2,2.2.24,4.92,1.45,6.68,2.31,3.35,7.91,3.99,11.47,1.72,1.82-1.16,3.71-2.49,4.98-4.19,4.35-5.79,8.54-11.7,12.61-17.69,10.57-15.55,23.92-27.81,41.26-35.49,9.8-4.34,19.77-8.09,31.15-9.3Zm-20.92,312.97c10.78-6.73,22-9.13,33.53-10.9-6.15-.6-12.28-.97-18.39-.72-7.23.29-11.43,5.08-15.14,11.62Z"/><path class="cls-1" d="m186.73,125.8c-.08-.63-.17-1.26-.25-1.88.17.03.34.05.51.05.35.1.7.2,1.05.3-.44.51-.88,1.02-1.31,1.53Z"/><path class="cls-1" d="m185.27,123.94c.02.33.04.66.06.99-.33-.15-.66-.29-.99-.44.31-.18.62-.37.94-.55Z"/><path class="cls-1" d="m184.37,125.71c.35.21.69.42,1.04.62-.36-.02-.73-.04-1.09-.06.02-.19.04-.38.06-.57Z"/><path class="cls-1" d="m649.34,194.64c-.25,22.41-1.53,44.7-5.16,66.88-4.06,24.81-11.17,48.48-24.05,70.18-20.43,34.41-50.39,55.77-89.42,64.27-7.23,1.57-14.7,2.04-22.09,2.84-2.08.22-3.7.65-4.9,2.52-.62.97-1.68,1.74-2.68,2.39-3.62,2.4-4.92,5.07-3.97,9.34.76,3.44,1.9,6.8,2.84,10.2.42,1.52.87,3.05,1.13,4.6.48,2.83-.58,4.36-3.44,4.55-8.51.59-16.13-2.16-23.06-6.85-2.5-1.69-2.36-3.09-.21-5.2,2.32-2.28,4.43-4.83,6.98-6.81,3.04-2.37,6.37-4.42,9.74-6.31,1.99-1.11,2.71-1.93,1.55-4.26-1.4-2.84-3.27-3.89-6.43-4.23-44.45-4.78-79.19-25.74-103.44-63.35-14.4-22.33-22.54-47.14-27.15-73.21-4.72-26.71-5.46-53.65-4.2-80.63.57-12.2,2.2-24.4,4.18-36.47,1.7-10.36,4.03-20.71,7.11-30.74,3.04-9.89,7.09-19.51,11.25-29.01,2.74-6.26,5.92-12.46,9.84-18.02,5.74-8.14,12.19-15.8,18.59-23.45,6.94-8.3,15.4-15.07,24.51-20.7,8.28-5.12,17.1-9.59,26.14-13.19,8.04-3.2,16.63-5.2,25.13-7,12.93-2.75,26.09-3.2,39.2-1.51,12.02,1.54,23.76,4.37,34.89,9.34,6.6,2.95,13.41,5.53,19.66,9.11,5.91,3.39,11.52,7.49,16.68,11.95,6.63,5.73,12.99,11.85,18.86,18.35,4.19,4.64,7.36,10.19,11.04,15.3,5.6,7.79,9.44,16.52,13.24,25.22,6.56,15.04,10.86,30.77,12.81,47.09,1.44,12.06,2.79,24.14,3.89,36.24.62,6.82.63,13.7.92,20.55Zm-194.5,7.49c.55,14.4.88,29.19,1.75,43.95.69,11.71,2.22,23.35,7.29,34.16,8.17,17.41,24.09,26.11,43.37,22.84,14.26-2.42,23.32-11.55,28.59-24.68,5.46-13.61,6.7-28.06,7.21-42.43.77-21.65.67-43.33.65-65,0-13.6-1.42-27.1-4.47-40.39-2.02-8.79-5.03-17.16-10.88-24.17-10.85-13.03-27.67-15.06-42.33-10.25-12.29,4.04-19.06,13.74-23.34,25.35-4.16,11.29-5.31,23.2-6.06,35.06-.95,15.03-1.21,30.1-1.78,45.56Zm30.05-179.7c-1.51-.72-2.28-1.38-3.08-1.41-3.59-.15-7.23-.52-10.76-.08-25.36,3.19-46.9,14.27-64.9,32.22-14.95,14.91-24.14,33.28-30.56,53.11-4.54,14.03-6.99,28.58-7.52,43.23-.66,17.99-.13,36.02-.03,54.03,0,1.38.68,2.76,1.11,4.41.87-.52,1.63-.71,1.73-1.07.71-2.67,1.54-5.34,1.86-8.06.42-3.52.12-7.14.63-10.64,1.37-9.41,2.75-18.83,4.62-28.14,1.55-7.74,3.58-15.41,5.81-22.99,1.97-6.69,4.32-13.29,6.84-19.79,3.08-7.93,5.84-16.09,9.94-23.49,9.65-17.43,22.1-32.74,38.28-44.57,7.42-5.42,15.45-10.02,23.33-14.78,3.85-2.32,7.99-4.15,11.98-6.24,3.33-1.75,6.64-3.55,10.73-5.74Zm76.49,131.58c-.09,1.08-.25,2.16-.24,3.23.1,11.24.35,22.48.32,33.72-.05,19.5.34,39.02-2.48,58.42-1.98,13.6-5.11,26.82-11.01,39.3-7.88,16.67-19.84,29.03-37.42,35.44-2.53.92-5.13,1.66-7.64,2.64-.64.25-1.05,1.06-1.56,1.62.59.45,1.13,1.14,1.79,1.29,1.96.44,3.97.71,5.97.96,13.19,1.66,24.46-3.04,34.41-11.11,8.26-6.7,14.16-15.29,18.43-25.08,3.08-7.08,3.29-14.35,2.69-21.8-.51-6.31-1.4-12.62-1.38-18.93.03-8.18.83-16.35,1.23-24.52.18-3.74.14-7.5.29-11.24.38-9.5,1.1-19,1.15-28.51.05-8.69-.56-17.39-.97-26.08-.16-3.38-.83-6.66-3.58-9.36Z"/><path class="cls-1" d="m654.02,762.29c-15.9,5.78-23.85-15.18-22.75-16.08,6.8-.86,10.19-2.67,16.25-3.43-2.49-2.85-2.52-4.34-4.77-6.94-7.27-8.36-11.08-18.06-11.15-29.17-.06-9.25-.02-18.5-.09-27.75-.05-7.34-2.93-11.06-10.24-11.43-11.81-.6-23.65-.59-35.48-.67-16.13-.1-32.26.1-48.39-.08-14.92-.17-28.93-3.87-40.77-13.24-12.18-9.64-19.94-22.17-22.08-37.82-2.9-21.22,2.61-40.47,14.04-58.18,12.33-19.09,24.91-38.02,37.4-57.01.53-.8,5.01-6.77,1.56-2,3.28-5.17,6.71-10.48,10.13-15.55,8.23-12.2,16.43-24.42,24.93-36.43,17.95-25.37,36.15-50.57,54.1-75.94,6.03-8.52,12.27-16.82,19.95-23.95,9.17-8.51,19.75-13.54,32.35-15,28.18-3.25,49.25,18.18,53.83,42.09,1.09,5.69,1.4,11.61,1.42,17.42.08,26.16-.05,52.33-.15,78.49-.05,13.12-.26,26.25-.26,39.37,0,14.03.19,28.07.21,42.1,0,3.23-.33,6.46-1.05,9.67,0,0-.82,8.7.15,11.06.26-.56,10.42,4.82,16.24,5.58,20.67,2.7,36.64,17.85,39.56,38.28,3.78,26.52-15.62,47.53-38.27,50.53-4.38.58-8.75,1.62-12.94,3.02-3.38,1.13-4.76,4.06-4.81,7.71-.13,10.26.03,20.54-.73,30.75-1.63,21.71-18.51,40.64-40.12,43.17-9.21,1.08-30.23-5.2-30.23-5.2l2.17,16.62Z"/><path class="cls-1" d="m631.15,500.66c-1.04,1.28-1.49,1.77-1.86,2.31-10.87,16.05-21.78,32.07-32.55,48.18-3.92,5.87-7.69,11.85-11.22,17.96-2.12,3.68-1.12,5.67,2.92,7.04,1.13.39,2.39.58,3.59.59,9.24.05,18.48.04,27.72.01,8.18-.03,12.52-4.09,12.56-12.3.09-17.56,0-35.12-.13-52.68-.03-3.43-.62-6.86-1.03-11.12Z"/><path class="cls-1" d="m676.2,356.95c1.06-.83,3.27.56,5.24.3,3.44-.46,6.93,1.41,10.31-.51,1.1-.62,2.69-.32,3.97-.71,1.25-.38,3.05-.84,3.41-1.74.47-1.17.23-3.18-.54-4.2-5.6-7.47-14.03-9.26-22.49-9.68-11.59-.57-21.82,3.66-30.6,11.32-8.13,7.09-14.07,15.95-20.12,24.72-8.44,12.25-16.99,24.43-25.3,36.78-7.54,11.2-14.81,22.57-22.2,33.87.36.29.72.58,1.09.87,1.8-1.95,3.63-3.86,5.37-5.85,1.14-1.3,2.16-2.7,3.2-4.07,1.27-1.67,2.23-3.72,3.82-4.96,1.93-1.5,3.97-2.61,3.95-5.43,0-.25.28-.51.5-.87.12.66.22,1.21.23,1.25,2.77-3.55,5.54-7.21,8.45-10.76,1.42-1.74,3.14-3.22,4.61-4.92,1.08-1.25,1.97-2.68,3.38-4.63.26-.41.8-1.56,1.6-2.47,2.06-2.36,5.64-4.39,6.07-6.98.81-4.82,6.09-5.57,7.33-9.9.35-1.21,2.77-3.23,4.38-4.62,1.97-1.7,1.01-6.28,5.38-5.18-.56-3.55,1.7-3.85,3.77-4.35,2.51-2.86,4.92-6.27,8.19-7.75,3.46-1.57,5.39-6.27,10.36-5.48.27-.48.74-1.33,1.22-2.18l.47.95c2.2-.96,4.39-1.92,6.97-3.04-.56.78-.88,1.23-1.48,2.06,3.12-.6,5.69-1.09,9.45-1.81Z"/><path class="cls-1" d="m628.55,591.32c-.76.03-1.53-.17-2.29-.17-11.32.1-22.65.24-33.97.33-9.07.07-18.15.06-27.22.14-5.01.05-7.48,1.58-10.02,5.84,3.19,1.51,7.35-2.18,9.65,1.15,1.4-.27,2.43-.64,3.46-.63,1.73.01,3.46.37,5.19.39,1.93.02,3.87-.37,5.78-.24,4.34.3,8.66.8,12.98,1.22.22.02.44-.06.67-.09,2.14-.29,4.3-.9,6.42-.8,4.04.18,8.06.77,12.09,1.15.29.03.6-.31.92-.34,1.19-.09,2.39-.15,3.58-.17,3.34-.06,6.59,1.9,10.01.36.87-.39,2.06-.85,2.83-.56,2.96,1.12,7.22-.66,7.22.52,2.63-.24,5.18-.47,7.73-.7.17-.34.33-.69.5-1.03-2.8-2.44-5.61-4.88-8.41-7.33-.2.21-.4.41-.6.62.29,1.35-3.39.19-6.51.33Z"/><path class="cls-1" d="m719.09,597.43c1.55.3,3.16.48,4.68.93,2.21.65,3.94.07,5.98-1,2.34-1.23,5.2-1.49,7.84-2.13.17-.04.4.3.62.35,1.35.31,2.99,1.19,4.01.74,1.88-.84,3.62-1.35,5.69-1.63,1.82-.25,3.42-2.16,5.12-3.34-1.16-1.38-2.23-2.85-3.53-4.09-.57-.55-1.58-.73-2.43-.89-4.4-.83-8.79-.43-13.05.69-4.18,1.11-8.93,1.32-11.38,5.87-.05.1-.4.04-.76.06.06-.79.12-1.56.22-2.84-4.76,1.46-5.25,5.98-7.67,9.11,1.56-.33,3.13-.66,4.76-1-.05-.45-.12-1.03-.09-.83Z"/><path class="cls-1" d="m338.76,801.29c-3.83-.59-9.31-.81-12.8-1.42-.96-.17-2.03-.44-2.77-1.03-1.17-.93-2.88-2.14-2.91-3.28-.03-1.13,1.51-2.66,2.73-3.4,5.3-3.21,8.41-6.65,10.52-12.1-3.61-1.58-7.19-3.18-10.8-4.72-.51-.22-1.16-.14-1.74-.14-19.29,0-38.59.17-57.88-.02-30.51-.3-54.99-24.88-55.35-55.43-.25-21.93,4.43-43,11.56-63.6,9.85-28.45,25.72-52.9,48.18-73.1,15.29-13.75,32.14-25.29,49.34-36.44,11.84-7.67,23.72-15.36,33.71-25.48,6.6-6.68,11.89-14.22,13.02-23.9,1.79-15.34-6.83-28.26-20.8-31.36-15.07-3.34-29.76,4.84-34.55,19.42-1.14,3.47-1.86,7.11-2.54,10.71-3.66,19.2-19.13,34.47-38.14,37.55-20.32,3.29-39.56-5.83-49.54-22.93-7.26-12.44-8.87-25.78-7.53-39.71,2.52-26.19,15.4-47.02,34.06-64.71,20.45-19.39,44.74-31.46,72.59-35.07,53.37-6.91,97.31,10.67,129.53,54.07,17.41,23.46,23.62,50.6,20.34,79.87-3.93,35.06-19.69,63.73-45.69,87.17-18.03,16.26-38.26,29.42-58.76,42.21-5.31,3.31-10.69,6.54-15.77,10.18-2.69,1.93-5.34,4.32-7.08,7.08-5.44,8.61-.63,18.69,9.42,20.27,2.05.32,4.16.46,6.24.47,21.78.08,43.57-.21,65.33.28,17.52.4,32.06,7.45,41.9,22.42,11.53,17.53,9.7,41.78-3.87,58.48-11.79,14.52-27.34,21.13-45.62,21.51-17.6.36-35.2.12-52.81.1-3.28,0-6.42.03-9.45,1.79-2.1,1.22-4.62,1.72-7.27,2.66,1.85,5.05,5.09,8.71,9.28,11.75,1.64,1.19,2.88,2.95,4.3,4.45-1.88,1.3-3.6,3.17-5.68,3.77-3.67,1.05-7.57,1.32-12,2.01l-.69-.4Zm55.48-308.28c-.17,0-.34-.02-.51-.05-.41,0-.81.01-1.22.02-.31.18-.62.37-.94.55.01.41.02.82.04,1.22-.02.19-.04.38-.06.57-.41.88-.74,1.81-1.24,2.63-2.52,4.22-5.64,8.17-7.52,12.65-5.15,12.28-12.55,22.88-22.08,32.06-9.65,9.3-20.87,16.44-32.37,23.14-11.84,6.89-23.95,13.33-35.68,20.4-17.02,10.24-31.13,23.53-40.38,41.36-3.81,7.36-7.46,15-2.71,23.41.45.8,1.94,1.67,2.73,1.5,2.24-.49,4.79-1,6.45-2.4,4.36-3.67,8.69-7.52,12.36-11.86,8.02-9.47,15.3-19.57,23.46-28.91,12.39-14.2,27.79-24.81,43.39-35.18,15.79-10.5,31.59-21.05,44.72-35,7.91-8.4,14.56-17.56,18.66-28.45,2.17-5.75,1.74-11.13-1.55-16.31-1.1-1.73-3.63-2.34-4.5-.98-.35-.12-.7-.25-1.05-.37Zm-60.38-95.01c-1.14-.77-1.7-1.38-2.39-1.57-4.09-1.09-8.16-2.65-12.33-3.01-12.11-1.05-23.65,1.97-34.9,6.13-9.98,3.69-19.56,8.24-28.02,14.78-4.05,3.13-7.62,6.89-11.58,10.15-2.24,1.84-3.01,4.56-4.77,6.64-.78.91-2.02,1.57-2.47,2.59-1.55,3.53-3.09,7.1-4.15,10.79-1.1,3.83-1.95,7.8-2.3,11.76-.2,2.2.24,4.92,1.45,6.68,2.31,3.35,7.91,3.99,11.47,1.72,1.82-1.16,3.71-2.49,4.98-4.19,4.35-5.79,8.54-11.7,12.61-17.69,10.57-15.55,23.92-27.81,41.26-35.49,9.8-4.34,19.77-8.09,31.15-9.3Zm-20.92,312.97c10.78-6.73,22-9.13,33.53-10.9-6.15-.6-12.28-.97-18.39-.72-7.23.29-11.43,5.08-15.14,11.62Z"/><path class="cls-1" d="m393.99,494.84c-.08-.63-.17-1.26-.25-1.88.17.03.34.05.51.05.35.1.7.2,1.05.3-.44.51-.88,1.02-1.31,1.53Z"/><path class="cls-1" d="m392.52,492.98c.02.33.04.66.06.99-.33-.15-.66-.29-.99-.44.31-.18.62-.37.94-.55Z"/><path class="cls-1" d="m391.62,494.75c.35.21.69.42,1.04.62-.36-.02-.73-.04-1.09-.06.02-.19.04-.38.06-.57Z"/></svg>