<?xml version="1.0" encoding="UTF-8"?><svg xmlns="http://www.w3.org/2000/svg" viewBox="0 0 828.8 829.13"><defs><style>.cls-1{fill:red;stroke-width:0px;}.cls-2{fill:none;stroke:blue;stroke-miterlimit:10;}</style></defs><g id="Profile"><path class="cls-1" d="M827,1v825.99H1V1h826M828,0H0v827.99h828V0h0Z"/></g><g id="Layer_4"><path class="cls-2" d="M510.54,577.1c1.03-1.06,2.11-3.06,3.07-3,2.46.15,5.55-2.09,7.42,1.43.28.54,1.13.77,1.72,1.15.43-.83,1.22-1.66,1.23-2.49.1-7.54.05-15.08.05-22.62,0-4.69,0-9.37,0-14.39,6.02-.33,11.73-.64,18.11-.98,0,2.65-.01,4.88,0,7.11.06,9.96.1,19.92.24,29.88.02,1.24.62,2.46.94,3.7.89-.72,1.75-1.49,2.68-2.15.61-.43,1.31-.79,2.02-1.02.49-.16,1.07-.04,1.61-.05,21.93-.28,43.85-.58,65.78-.83,6.97-.08,13.94-.01,20.15-.01.93,1.06,1.24,1.25,1.25,1.46.72,10.55,8.46,12.75,16.84,14.49,2.04.42,4.5,1.6,5.63,3.22,7.59,10.91,18.54,17.18,30.16,22.64,3.03,1.43,6.05,2.91,8.96,4.56,1.09.62,2.04,1.68,2.73,2.75,3.13,4.83,6.1,9.77,9.25,14.58.52.8,1.64,1.3,2.58,1.71,7.88,3.38,15.84,6.6,23.65,10.13,1.46.66,2.91,2.29,3.48,3.8,2.13,5.63,4.02,11.36,5.74,17.12.8,2.69,2.43,3.82,5,4.47,13.52,3.41,25.06,10.02,33.55,21.34,1.09,1.45,1.84,3.15,3.12,5.39-22.53,2.06-44.34,4.05-66.14,6.04-.01.29-.03.57-.04.86h37.84c0,.63.01,1.27.02,1.9-41.97,2.25-83.94,4.5-125.91,6.75,0,.25-.02.5-.03.75,26.8.65,53.61,1.29,80.41,1.94-77.44,6.73-155.04,8.31-232.62,11.16h185.15l.05,1.97c-74.12,3.21-148.24,6.41-222.36,9.62,0,.02,0,.04-.01.06h153.86c-6.24.61-11.54,1.24-16.86,1.62-15.39,1.1-30.77,2.23-46.17,3.1-14.19.8-28.39,1.56-42.6,1.87-29.31.64-58.64,1.13-87.96,1.35-16.81.12-33.62-.29-50.42-.7-13.67-.33-27.35-.74-40.99-1.57-22.9-1.39-45.78-3.16-68.67-4.75-2.35-.16-4.7-.26-7.02-.79h152.15c0-.08,0-.17,0-.25-74.89-3.2-149.79-6.39-224.68-9.59l.05-1.86h191.95c0-.37,0-.73.01-1.1-80.92-2.12-161.88-3.28-242.64-10.05,27.44-.68,54.89-1.35,82.33-2.03,0-.23,0-.47.01-.7-42.1-2.28-84.2-4.55-126.29-6.83,0-.32,0-.64,0-.96,12.36-.5,24.72-1.01,37.08-1.51l.02-.51c-21.87-1.95-43.73-3.91-65.98-5.9,2.41-6.14,6.26-10.58,10.94-14.22,7.47-5.8,15.76-10.22,24.93-12.64,2.79-.73,3.89-2.2,4.87-4.55,4.08-9.8,8.21-19.57,12.53-29.26.62-1.39,2.14-2.77,3.56-3.33,8.11-3.19,16.3-6.2,24.51-9.13,3.65-1.3,6.4-2.94,7.85-7.07,2.21-6.31,5.09-12.44,8.23-18.36,1.2-2.26,3.57-4.4,5.92-5.46,9.03-4.09,18.19-7.93,27.46-11.44,3.81-1.44,7.98-2.18,12.05-2.57,2.43-.24,3.6-1.01,4.41-3.17,1.87-5.03,4.13-9.94,5.78-15.04.85-2.62,1.93-3.48,4.73-3.46,30.96.15,61.93.13,92.89.17,4.28,0,8.56,0,13.25,0v15.76c1.51.14,2.65.24,4.23.39v-15.36h19.94v15.07h6.04v-15.2h35.91v15.08c1.64.11,2.79.19,4.64.31v-18.42c.38-.14.76-.27,1.14-.41.77.95,1.54,1.9,2.3,2.84,2.03,2.51,4.49,4.78,6.01,7.57,4.28,7.86,10.68,9.92,19.25,9.08,8.01-.78,16.14-.25,24.21-.33,1.71-.02,3.41-.15,6.25-.29-1.83-1.95-2.96-3.07-4.01-4.27-4.33-4.94-8.72-9.82-12.88-14.9-.89-1.09-1.17-2.92-1.19-4.42-.23-13.59-.34-27.18-.49-40.77-.01-.93-.13-1.86-.22-3.08h-4.18v25.93c-5.66,0-10.97.12-16.26-.14-.73-.04-1.91-2-1.95-3.1-.2-5.78-.1-11.57-.12-17.36,0-1.32-.11-2.63-.18-4.11h-4.63v24.27h-13.02v-28.57c-1.79-.09-3.05-.16-4.75-.25v28.32h-35.93v-31.42h-5.78v31.28h-19.72v-28.65c-3.35-1.42-4.37-.48-4.36,2.73.04,14.54-.08,29.08-.14,43.62,0,1.59,0,3.19,0,5.19h-108.01c-.08-1.16-.23-2.44-.24-3.73-.12-16.83-.46-33.66-.18-50.48.08-4.75-1.3-7.9-5.09-10.33-1-.64-1.9-1.45-3.62-2.77,3.57-.42,6.36-.86,9.16-1.07,26.4-2,52.8-3.94,79.19-5.95,9.38-.71,18.76-1.49,28.12-2.43,1.26-.13,2.82-1.08,3.56-2.13,9.31-13.28,18.43-26.68,27.72-39.97,5.44-7.78,11.09-15.41,17.18-23.84,12.26,21.98,24.28,43.55,36.31,65.11.37-.17.73-.35,1.1-.52-.65-1.46-1.22-2.97-1.98-4.38-10.57-19.78-21.19-39.54-31.74-59.34-.85-1.6-1.27-3.42-1.1-5.5,15.78,23.5,27.38,49.29,42.58,73.83-3.69.32-6.58.47-9.42.9-.76.11-1.39,1.09-2.09,1.67.74.54,1.48,1.56,2.21,1.55,4.52-.07,9.03-.38,14.7-.66-15.66-28.57-30.86-56.3-46.43-84.69-3.96,5.45-7.44,10.1-10.78,14.85-13.34,18.94-26.55,37.97-40.09,56.76-1.27,1.77-4.45,2.83-6.84,3.02-24.77,2.02-49.56,3.66-74.33,5.68-13.48,1.1-26.92,2.7-40.37,4.06-.65.07-1.31,0-2.73,0,.95-1.72,1.53-3.09,2.38-4.28,12.15-17.01,24.33-33.99,36.51-50.97,1.17-1.63,2.64-3.08,3.62-4.81,2.84-5.02,6.83-7.84,12.76-8.39,1.8-.17,4.18-2.1,4.91-3.82,1.12-2.62,2.57-2.63,4.7-2.19,5.51,1.15,11.03,2.29,16.55,3.38.88.17,1.81.1,2.83.15v-22.94h14.04v19.24c2.22-.33,4.13-.56,6.03-.9,5.93-1.04,11.85-2.18,17.8-3.14,2.24-.36,3.29-1.24,3.09-3.67-.51-6.07,1.61-12.31-1.29-18.28-.22-.45,1.04-2.11,1.93-2.53,5.38-2.54,10.67-1.47,15.51.48v20.61c10.54-2.13,20.89-4.11,31.18-6.37,3.37-.74,5.47-.57,7.31,2.96,5.96,11.43,12.33,22.64,18.55,33.92.89,1.61,1.87,3.17,3.59,4.58.61-8.66,1.16-17.31,1.83-25.97,1.73-22.6,3.58-45.19,5.26-67.79,1.75-23.51,3.32-47.04,5.05-70.55.19-2.55-.64-4.17-2.59-5.83-4.55-3.86-5.24-9.41-.89-12.47,4.55-3.21,4.23-7.27,4.18-11.61-.06-4.89-1.51-9.26-5.28-12.63-2.31-2.06-4.71-4.02-6.93-6.18-4.2-4.07-4.24-8.01-1.16-12.83,1.06-1.65,1.06-4.33.75-6.42-.5-3.4.15-5.81,3.53-7.14,1.99-.79,3.86-2.14,5.91-2.46,4.61-.72,5.79-3.25,5.37-7.55-.23-2.42-.76-3.79-3.23-4.79-6.27-2.54-6.96-5.26-4.76-11.72.84-2.48.55-5.55.07-8.22-1.09-6.14,1.8-9.84,7.01-11.94,3.31-1.34,4-3.1,3.73-6.63-.52-6.96-.03-13.98-.26-20.97-.06-1.8-.91-3.83-2.02-5.29-2.89-3.79-2.81-5.97,1.11-8.66,7.05-4.85,14.22-9.53,21.23-14.44,2.45-1.72,4.57-3.92,6.77-5.83-4.51-6.78-3.88-9.76,2.2-14.39.96-.73,1.73-2.28,1.82-3.5.25-3.39.09-6.82.09-10.23.64-.05,1.28-.1,1.92-.15.26,2.31.66,4.6.76,6.92.15,3.29-.1,6.09,3.79,8.24,4.76,2.64,4.66,7.66.16,12.63,4.28,3.37,8.41,6.88,12.8,10.02,4.9,3.52,10.05,6.7,15.07,10.05,3.87,2.58,4.02,4.74,1.46,8.64-1.3,1.97-2.35,4.49-2.45,6.8-.3,7.25-.27,14.53.05,21.77.07,1.56,1.54,3.68,2.96,4.46,7.45,4.12,8.75,6.84,7.23,15.36-.32,1.78.01,4.02.88,5.59,2.67,4.85,1.82,8.34-3.27,10.81-2.67,1.3-5.07,2.17-4.77,6.24.28,3.88.98,6.26,5.26,6.87,2.05.29,3.96,1.6,5.92,2.47,3.11,1.39,4.35,3.64,3.73,7.13-.49,2.78-.3,5.37,1.98,7.79,2.45,2.6,2.12,7.03-.51,9.98-2.75,3.09-5.89,5.85-8.93,8.67-5.81,5.41-3.89,12.38-3.76,18.93.02.88,1.49,1.79,2.37,2.6,5.19,4.78,5.15,9.51.18,14.42-1.02,1.01-1.63,3-1.53,4.47,1.31,18.73,2.82,37.44,4.22,56.16,1.45,19.39,2.78,38.8,4.24,58.19,1.76,23.3,3.66,46.58,5.39,69.88,1.74,23.57,3.3,47.15,5.03,70.71.38,5.17,1.13,10.31,1.66,14.99-19.37.58-38.39,1.16-57.41,1.73,0,.37,0,.73,0,1.1,10.75,0,21.51-.18,32.26.06,8.59.19,17.17.96,25.76,1.27,2.27.08,3.18.81,3.86,2.98,2.51,7.93,5.22,15.8,8.07,23.62.47,1.28,2.03,2.15,3.09,3.21.14-.46.28-.93.42-1.39ZM507.14,640.5c5.19,12.38,10.29,24.52,15.38,36.66.38-.13.76-.26,1.15-.39-4.03-14.41-7.77-28.9-12.17-43.19-3.86-12.56-8.48-24.88-12.73-37.33-1.14-3.34-3.21-5.11-6.83-5.83-22.45-4.43-44.92-7.72-67.89-4.22-15.08,2.3-28.93,8.13-43.46,13.98,10.51,3.04,20.36,6.04,30.29,8.72,6.47,1.75,12.06,4.53,16.79,9.53,15.09,15.93,30.45,31.59,45.73,47.33,1.58,1.63,3.26,3.15,4.9,4.72.24-.19.48-.39.71-.58-8.67-22.56-17.34-45.11-26-67.67.2-.16.41-.33.61-.49,8.69,10.58,17.38,21.15,26.31,32.04-2.88-10.65-5.65-20.93-8.43-31.2,14.55,19.59,23.89,41.93,35.62,64.15v-26.24ZM280.95,645.38c.04.29.07.58.11.87,10.53,3.92,21.03,7.91,31.6,11.74,8.34,3.02,16.55,5.49,25.82,2.94,10.24-2.82,10.47-2.27,15.16,7.42,1.48,3.07,3.23,5.5,6.86,6.01,11.52,1.62,18.94,8.04,22.86,18.97,1.28,3.58,3.54,6.81,5.35,10.21.19-.1.39-.2.58-.3l-2.01-20.82c.2-.13.4-.25.6-.38,5.52,7.34,11.05,14.68,16.91,22.46-.16-1.32-.13-2.21-.38-3.01-3.81-12.02-7.54-24.06-11.54-36.01-1.52-4.54-2.78-9.61-5.72-13.15-5.03-6.06-11.47-10.31-19.59-12.48-10.59-2.82-21.04-5.72-32.03-3.93-18.22,2.97-36.39,6.28-54.57,9.45ZM669.63,646.11c.3-.12.59-.23.89-.35,6.32,12.14,12.64,24.29,18.96,36.43-3.42-18.2-7.12-36.27-10.99-54.3-.38-1.79-1.5-3.72-2.85-4.95-6.23-5.69-12.62-11.22-19.07-16.66-1.26-1.06-3.01-1.72-4.64-2.11-3.52-.83-7.1-1.4-10.66-2-5.57-.93-11.15-1.79-17.72-2.84,4.32,8.02,8.57,14.89,11.81,22.21,3.7,8.38,9.42,12.8,18.67,12.89,1.37.01,3.39,1.59,3.99,2.94,4.49,10.17,8.7,20.47,13,30.73.59,1.4,1.19,2.79,1.79,4.18.3-.1.59-.19.89-.29-1.36-8.63-2.71-17.26-4.07-25.89ZM220.41,675.62c.01.36.02.73.03,1.09,10.05,1.34,19.62,6.05,30.24,3.52,3.12-.74,6.35-1.04,9.52-1.58,2.47-.42,4.23.11,5.6,2.57,5.44,9.73,11.22,19.27,16.62,29.01,1.61,2.9,3.43,3.81,6.53,2.64-2.67-10.33-5.33-20.59-7.99-30.85.2-.06.41-.12.61-.18,8.49,10.64,16.98,21.29,25.47,31.93,1.05-1.09,1.23-1.51,1.11-1.81-3.93-10.26-7.71-20.59-11.9-30.75-6.14-14.9-17.11-19.43-34.31-16.06-8.55,1.68-16.92,4.29-25.38,6.45-5.38,1.37-10.77,2.68-16.16,4.01ZM629.67,630.94c.27-.31.55-.61.82-.92-6.85-10.21-13.67-20.44-20.62-30.58-.55-.81-1.98-1.19-3.08-1.43-18.33-4.1-36.93-4.91-55.63-4.28-2.12.07-4.25,0-6.37,0-.05.38-.11.76-.16,1.14,10.86,3.78,21.54,8.26,32.63,11.12,7.85,2.02,12.65,6.21,15.42,13.32,1.63,4.2,4.39,5.96,8.93,6.58,9.41,1.29,18.71,3.32,28.05,5.05ZM582.99,644.43c10.57,4.21,19.31,11.07,27.85,18.27,2.33,1.97,4.86,4.08,7.67,5.03,4.92,1.66,10.09,2.68,15.22,3.56,4.3.74,7.25,2.68,9.22,6.69,3.43,6.99,7.21,13.81,10.95,20.64.57,1.03,1.68,2.29,2.69,2.44,2.45.35,4.99.12,7.94.12-.53-1.44-.73-2.35-1.18-3.12-7.32-12.51-14.7-24.98-22.02-37.49-4.53-7.73-10.88-11.58-20.04-13.34-12.74-2.46-25.29-4.19-38.3-2.79ZM510.85,713.27c-.35-.91-.4-1.36-.64-1.61-7.16-7.09-14.33-14.16-21.52-21.21-.45-.45-1.06-.95-1.65-1.01-6.4-.72-12.96-2.57-19.17-1.76-10.84,1.42-21.46,4.48-32.17,6.86,8.22,3.25,16.27,6.23,24.59,7.96,5.62,1.17,9.5,3.47,12.03,8.55.61,1.23,2.16,2.62,3.42,2.76,2.59.29,5.27-.21,8.51-.43-3.12-3.69-5.84-6.9-8.56-10.11,11.88,2.84,22.44,9.13,35.16,10.02ZM169.35,675.9c.38.2.77.4,1.15.6l-4.83,20.79c.26.12.52.25.79.37,5.29-6.61,10.58-13.21,16.13-20.14-3.4-4.39-6.78-9.05-10.54-13.4-.95-1.1-3.14-1.78-4.63-1.6-3.44.41-6.91,1.16-10.17,2.32-8.78,3.13-17.47,6.55-26.91,10.13,8.54,4.19,15.99,7.53,23.1,11.49,3.48,1.94,5.5,1.18,7.76-1.51,2.6-3.11,5.42-6.04,8.14-9.04ZM605.77,712.58c.33-.18.66-.36.99-.54-.17-.6-.24-1.25-.51-1.8-7.07-13.85-14.21-27.67-21.21-41.56-1.4-2.78-3.38-4.2-6.41-4.71-7.4-1.25-14.73-3.21-22.18-3.91-7.17-.68-14.45-.15-21.69-.15-.05.41-.09.82-.14,1.24,4.91,1.54,9.78,3.29,14.75,4.59,8.95,2.33,16.77,6.09,21.09,14.91.18.36.52.64.66,1.01,1.15,2.82,3.4,4.2,6.27,4.2,9.7-.02,15.27,5.68,19.37,13.58.74,1.42,1.69,2.74,2.61,4.06,2.11,3.04,4.25,6.06,6.38,9.08ZM743.18,692.97c.54-.17,1.08-.33,1.62-.5-3.62-12.43-7.18-24.88-10.95-37.27-.35-1.14-1.87-2.25-3.11-2.73-5.12-2-10.29-3.89-15.52-5.56-7.85-2.51-15.77-4.8-23.66-7.19,7,8.61,14.13,16.81,24.99,20.25,4.36,1.38,7.52,3.79,10,7.88,5.21,8.58,11.05,16.76,16.64,25.11ZM522.98,692.79c11.93,4.22,22.88,10.75,35.86,7.07.82-.23,2.03.45,2.9.97,4.26,2.52,8.41,5.24,12.72,7.68,3.29,1.86,6.76,3.41,10.15,5.09-13.64-23.66-37.77-29.57-61.63-20.82ZM213.51,603.4c3.42,1.06,6.21,1.59,8.71,2.75,10.29,4.78,20.46,4.08,30.77.02,5.33-2.1,10.84-3.71,16.78-5.72-19.39-7.44-37.5-4.34-56.26,2.95ZM305.46,500.49c7.3-.69,14.33-1.88,21.36-1.89,9.63-.02,19.26.76,28.88,1.38,19.12,1.24,38.24,2.61,57.36,3.92,5.53.38,11.06.76,16.6,1.15.15-.55.31-1.1.46-1.65-1.31-.53-2.59-1.39-3.94-1.53-8.91-.91-17.82-1.74-26.75-2.44-13.46-1.05-26.93-1.9-40.38-2.97-8.94-.71-17.88-2.38-26.8-2.29-8.89.09-17.77,1.85-26.78,2.89v3.44ZM329.93,626.95c.06-.38.11-.76.17-1.13-6.21-2.49-12.53-4.72-18.59-7.53-5.15-2.39-10.27-3.51-15.93-2.71-6.05.85-12.14,1.35-19.21,2.11,4.52,2.08,7.78,4.07,11.32,5.07,3.66,1.04,7.59,1.21,11.41,1.59,6.01.61,12.04,1.09,18.07,1.6,4.25.36,8.51.67,12.76,1.01ZM482.07,219.01c-1.78-1.46-3.19-3.42-5.03-4-5.21-1.63-10.56-3.54-15.94-3.84-14.44-.81-28.95-1.46-43.39-.93-8.58.31-17.11,2.77-25.57,4.68-2.04.46-3.71,2.53-5.96,4.16,32.38-8.39,63.61-8.61,95.88-.07ZM288.14,445.64c.04-.43.09-.85.13-1.28-.42-.28-.8-.73-1.25-.8-7.01-1.16-13.99-2.55-21.04-3.31-6.1-.65-11.03-1.78-12.97-8.89-1.32-4.85-4.28-9.26-6.84-14.55-3.01,7.47-5.85,13.97-8.23,20.65-1.02,2.85-2.71,3.94-5.44,4.46-5,.95-9.97,2.07-14.92,3.24-1.24.29-2.36,1.08-4.11,1.91,1.2.58,1.56.93,1.87.88,7.02-1.1,14.05-2.16,21.02-3.49,1.11-.21,2.38-1.51,2.88-2.62,2.39-5.34,4.53-10.78,6.76-16.19.4-.04.79-.09,1.19-.13,1.9,4.19,3.94,8.33,5.63,12.61.96,2.43,2.04,4.17,4.93,4.49,8.54.92,17.06,2.03,25.59,3,1.58.18,3.21.03,4.81.03ZM393.22,262.59c.34.39.69.78,1.03,1.16,18.53-8.82,67.06-8.86,80.94.71-.87-2.05-1.02-3.52-1.79-4.01-2.22-1.41-4.57-2.88-7.08-3.53-16.64-4.28-33.54-3.59-50.41-1.98-5.82.56-11.61,1.96-17.27,3.51-2.04.56-3.63,2.72-5.43,4.14ZM516.98,621.39c3.92,5.88,7.21,11.03,10.77,15.99.74,1.04,2.49,1.34,3.75,2.02,2.26,1.21,4.73,2.16,6.7,3.73,2.81,2.24,5.25,4.95,7.85,7.46-2.34-7.26-5.22-14.27-8.25-21.21-.43-.98-1.46-2.06-2.45-2.39-5.67-1.86-11.42-3.51-18.38-5.6ZM471.9,178.98c.22-.36.45-.71.67-1.07-2.26-1.13-4.43-2.53-6.81-3.34-12.74-4.31-25.93-4.06-39.13-3.58-9.18.33-18.24,1.31-26.73,5.09-1.67.75-2.98,2.33-4.45,3.52,25.83-7.22,51.08-7.38,76.44-.62ZM448.33,134.85c0-4.6.1-8.9-.08-13.19-.04-.92-.99-2.48-1.7-2.59-3.79-.58-7.63-.79-11.68-1.15v15.77c4.47.38,8.71.75,13.46,1.16ZM432.02,117.85c-3.71.32-6.93.4-10.06.96-1.01.18-2.52,1.55-2.58,2.46-.27,4.35-.12,8.72-.12,13.61,4.58-.39,8.61-.73,12.76-1.08v-15.96ZM434.7,136.23c0,3.52-.12,6.32.08,9.09.06.8,1.02,2.17,1.63,2.2,3.93.2,7.87.1,11.56.1v-10.3c-4.45-.37-8.56-.7-13.27-1.09ZM419.42,137.42c.23,3.94.44,7.42.64,10.89q12.46-1.06,11.91-10.77c-.01-.23-.23-.45-.6-1.15-3.73.32-7.66.66-11.95,1.03ZM203.25,609.25c-7.9,2.77-14.88,5.22-21.86,7.67,4.81,1.9,9.45,3.03,14.1,4.1,2.33.54,4.11.19,4.8-2.65.68-2.82,1.78-5.54,2.97-9.12ZM458.27,136.89c0-3.1,0-6.16,0-9.22-.02-5.65-.71-6.36-7.35-7.11,0,2.81,0,5.58,0,8.35q0,6.9,7.35,7.98ZM231.06,449.14v22.63c1.64-.18,2.75-.3,3.81-.42v-22.89c-1.45.26-2.61.47-3.81.68ZM416.67,118.92c-2.93,2.22-6.35,3.47-6.88,5.49-.99,3.73-.28,7.9-.28,12.55,2.84-.77,5.06-1.37,7.17-1.94v-16.1ZM255.95,469.72c3.83-.05,3.94-.05,3.97-2.85.07-6.55.02-13.11.02-19.85-1.46-.35-2.64-.63-3.99-.96v23.65ZM461.98,222.92c-3.52-1.43-4.74.47-5.01,2.68-.87,7.12-1.49,14.27-2.04,21.42-.07.87.9,1.83,1.39,2.75.45-.95,1.31-1.92,1.28-2.86-.27-8.22.41-16.26,4.39-23.98ZM436.15,248.35c.49.28.99.55,1.48.83.53-.95,1.49-1.89,1.51-2.85.12-8.27.07-16.53.07-24.8-.3-.23-.61-.46-.91-.7-.72.88-2.04,1.75-2.06,2.64-.16,8.29-.09,16.58-.09,24.87ZM434.93,152.33v11.3h6.67v-11.3h-6.67ZM424.6,152.3v11.7c1.81,0,3.34.24,4.72-.09.89-.21,2.19-1.22,2.25-1.96.25-3.15.11-6.34.11-9.97-2.69.12-4.88.22-7.08.31ZM414.14,221.71c.91,7.35,1.72,14.32,2.67,21.27.27,2,.98,3.94,1.49,5.91.39-1.94,1.21-3.91,1.09-5.82-.39-6.24-1.01-12.48-1.8-18.69-.27-2.17-1.52-3.78-3.45-2.67ZM409.91,149.77c2.27-.52,4.51-1.03,6.86-1.57,0-1.8,0-3.26,0-4.73,0-1.54,0-3.09,0-4.61-7.04-.19-7.92,1.29-6.86,10.9ZM261.8,534.64c1.68-.12,2.96-.21,4.33-.3v-13.93h-4.33v14.23ZM205.03,688.77c-5.83,1.92-11.39,3.74-16.94,5.56,2.78,1.18,5.35,1.6,7.93,1.87,6.4.65,7.41-.15,9.01-7.43ZM451.88,138.58c-1.88,9.13-.89,10.72,6.37,10.25,1.01-8.47.46-9.35-6.37-10.25ZM399.75,226.42c-.33.36-.65.71-.98,1.07,4.47,6.06,5.57,12.91,5.19,20.18-.06,1.17.79,2.39,1.22,3.59.36-.11.71-.22,1.07-.33.32-7.51,1.29-15.13-3.23-21.98-.72-1.09-2.17-1.7-3.28-2.53ZM82.85,688.55c5.48,4.79,12.69,2.97,23.78-2.9-8.25,1.01-15.83,1.93-23.78,2.9ZM225.97,534.39c0-3.51.14-6.98-.09-10.42-.06-.92-1.26-1.76-1.93-2.63-.78.82-2.12,1.57-2.22,2.47-.31,2.64-.03,5.34-.15,8.02-.14,2.92,1.29,3.45,4.4,2.57ZM266.04,517.67v-13.12c-1.54.13-2.82.24-4.22.35v12.77h4.22ZM225.93,519.35c0-3.47-.11-6.53.03-9.57.15-3.22-1.2-4.02-4.18-3v12.57h4.15ZM268.65,520.46v14.23c1.44-.09,2.56-.16,3.76-.24v-13.99h-3.76ZM274.11,497.78c-4.25,0-8.5-.08-12.73.09-.67.03-1.3,1.19-1.94,1.84.79.65,1.55,1.81,2.36,1.85,3.2.14,6.41-.18,9.61-.13,2.62.04,3.28-1.15,2.7-3.64ZM449.61,152.89c-1.88-.09-3.3-.15-4.66-.21v11.4c1.77.15,3.18.26,4.66.38v-11.57ZM343.57,446.36c4.71.47,9.15.9,13.62,1.35.17-4.19-1.44-4.76-10.98-4.96-2.64-.06-3.43.88-2.64,3.62ZM231.83,534.59v-13.28c-1.43.08-2.55.14-3.82.21v13.07h3.82ZM272.58,517.62c0-3.64-.13-6.86.04-10.06.17-3.28-1.18-4-4.12-2.94v13h4.08ZM421.47,153.35c-1.7.08-2.96.14-4.36.21v10.9c.31.29.61.59.92.88,1.15-.99,3.09-1.83,3.28-2.98.48-2.82.16-5.77.16-9.01ZM474.46,228.17c-7.4,1.66-8.9,12-6.67,22.85.69-8.05.5-16.36,6.67-22.85ZM232.07,519.26c0-3.78.12-7.37-.1-10.94-.05-.75-1.33-1.43-2.04-2.14-.71.75-1.99,1.46-2.04,2.25-.22,3.56-.1,7.15-.1,10.83h4.27ZM219.71,503.82c.96.04,1.62.12,2.28.09,2.95-.13,5.89-.4,8.84-.42,3.45-.01,3.36-1.63,2.21-3.99q-13.04.69-13.33,4.31ZM344.87,464.74c-.06,1.3-.16,2.48-.17,3.66-.02,2.14-.25,4.32.12,6.4.17.97,1.52,1.73,2.33,2.58.61-.83,1.64-1.6,1.74-2.49.25-2.25-.05-4.55.12-6.81.21-2.79-.73-4.1-4.14-3.34ZM351.4,465.49c-.43,12.25-.83,13.15,3.85,12.19,0-3.12-.12-6.32.04-9.49.14-2.93-1.19-3.48-3.89-2.7ZM355.19,462.67v-11.87h-3.91c-.59,13.57-.49,12.43,3.91,11.87ZM345.08,450.02c-.58,12.39-.79,12.85,3.59,11.78v-11.78h-3.59ZM456.3,165.31c.17-11.64.67-12.12-3.49-11.27-1.08,9.14-.81,10.04,3.49,11.27ZM413.81,154.57c-3.86.52-4.3,2.16-3.1,10.71,3.92.28,4.18-.6,3.1-10.71ZM462.61,405.93c.78-10.49.53-11.15-3.48-10.98-1.07,9.22-.77,10.24,3.48,10.98ZM460.18,491.92h3.92c1.28-7.46.22-10.15-3.92-9.95v9.95ZM464.3,505.07h-3.71c-1.39,8.91-.83,10.34,3.71,9.47v-9.47ZM457.18,404.5c0-2.75.11-5.28-.06-7.79-.06-.84-.84-1.64-1.28-2.46-.87.81-2.24,1.49-2.48,2.45-.41,1.63,0,3.45-.13,5.18-.22,2.84,1,3.6,3.96,2.62ZM456.79,418.27c1.63-8.18.86-10.46-3.29-9.97-1.07,8.51-.87,9.2,3.29,9.97ZM457.22,332.31c0,2.58-.17,4.98.09,7.33.09.87,1.17,1.64,1.79,2.45.65-.8,1.7-1.51,1.88-2.41.31-1.53-.03-3.18.09-4.76.2-2.65-1.07-3.3-3.85-2.61ZM457.94,481.85c-4.45,1.16-4.72,1.97-3.62,9.8h3.62v-9.8ZM459.16,408.78c-.68,9.94-.42,10.74,3.53,9.54v-9.54h-3.53ZM454.37,504.96c-.86,10.58-.33,10.72,3.6,9.38v-9.38h-3.6ZM457.19,329.06l1.31,1.08c.79-.97,2.3-1.98,2.24-2.9-.15-2.75,1.73-6.77-3.55-7.66v9.48ZM407.38,156.18c-2.77.58-3.48,4.95-1.98,10.9,2.64-.93,2.78-1.67,1.98-10.9ZM460.24,494.49v7.73h3.96v-7.73h-3.96ZM453.67,329.75c.38-.2.76-.41,1.14-.61v-10.73c-4.94,1.7-2.56,5.61-2.94,8.39-.12.88,1.16,1.96,1.8,2.95ZM454.32,494.5v8c1.44-.15,2.56-.27,3.63-.38v-7.62h-3.63ZM453.41,330.95c-.43.2-.85.39-1.28.59,0,2.64-.12,5.3.08,7.93.06.75,1.03,1.43,1.58,2.14.48-.65,1.3-1.26,1.37-1.95.18-1.98.25-4.02-.02-5.98-.14-.97-1.12-1.83-1.72-2.74ZM461.42,166.19c1.75-7.3,1.15-9.77-2.62-10.94,1.02,3.83-.43,7.89,2.62,10.94ZM247.17,461.01c.51.22,1.01.45,1.52.67.49-1,1.41-2,1.39-2.98-.03-2-.57-3.99-.9-5.99-.67.54-1.85,1.02-1.91,1.62-.23,2.21-.09,4.45-.09,6.69ZM469.76,201.23c-.89,6.5-.78,6.73,3.49,7-.49-2.7,1.85-6.63-3.49-7ZM467.24,167.32c-.34-3.36,2.21-7.28-1.76-9.87.07,3.41-1.85,7.14,1.76,9.87ZM394.57,208.54c5.92-.61,2.49-4.77,3.76-7.16-5.88.01-3.37,3.85-3.76,7.16ZM404.92,138.74c2.01-2.11,2.28-11.44,0-15.79v15.79ZM400.59,168.73c2.29-3.28,1.41-6.94.9-10.58-2.82,3.19-1,6.98-.9,10.58ZM250.2,467.59c.18-.07.35-.15.53-.22-.61-1.27-1.22-2.54-1.83-3.81-.54,1.36-1.21,2.7-1.58,4.1-.23.87-.18,1.91.07,2.78.17.58.91,1,1.4,1.49.48-.51,1.2-.95,1.36-1.55.23-.87.06-1.85.06-2.79ZM243.97,453.43c-2.95,2.12-1.72,5.37-1.11,8.5,3.29-1.98,1.63-5.38,1.11-8.5ZM461.51,138.8c.3,0,.6-.01.9-.02v-13.82c-.3,0-.6.01-.9.02v13.83ZM471.77,159.4c-.56.07-1.13.14-1.69.22.41,3.38-.78,7.08,1.59,10.05.44-.08.88-.16,1.32-.25l-1.22-10.02ZM391.02,203.76c-.45-.17-.9-.34-1.35-.51-.73,2.17-1.45,4.33-2.36,7.05,4.54-1.02,4.74-1.51,3.71-6.54ZM477.96,203.53c-.47.22-.93.45-1.4.67-.88,4.98-.77,5.2,4.29,6.19-1.13-2.68-2.01-4.77-2.89-6.86ZM405.78,284.62c.51.05,1.01.11,1.52.16.19-2.58.38-5.17.56-7.75-4.06,2.13-2.81,4.89-2.08,7.59ZM448.49,280.61c.15,3.02.12,4.85.42,6.64.06.38,1.3.57,2,.84.14-1.7.46-3.41.31-5.08-.06-.61-1.23-1.13-2.73-2.39ZM411.31,275.25c-.86.07-1.77.07-1.78.15-.19,2.61-.3,5.23-.42,7.84.73-.36,2.06-.67,2.1-1.1.21-2.21.1-4.44.1-6.89ZM410.84,294.29v-8.71c-2.63,2.44-2.64,5.91,0,8.71ZM242.16,472.15c.47.17.93.33,1.4.5.51-.97,1.45-1.95,1.45-2.92,0-1.75-.55-3.5-.87-5.24-.66.45-1.83.84-1.89,1.35-.22,2.08-.09,4.2-.09,6.31ZM454.54,273.99c-.51.12-1.02.25-1.54.37-.55,2.27-1.36,4.62,1.15,5.95.48-.13.96-.26,1.44-.39-.35-1.98-.7-3.96-1.05-5.93ZM450.3,279.79c.32-.18.63-.35.95-.53-.16-1.96-.32-3.93-.48-5.89-.5-.04-1-.08-1.51-.12-.26,1.53-.73,3.06-.67,4.57.02.68,1.1,1.32,1.7,1.97Z"/><path class="cls-2" d="M504.22,519.28c2.63-3.47,5.11-7,7.86-10.3,4.12-4.94,8.67-9.54,12.61-14.61,2.56-3.29,5.69-4.34,9.54-4.67,19.85-1.73,39.69-3.58,59.54-5.35,5.47-.49,10.97-.71,16.43-1.32,3.29-.37,5.62.13,7.72,3.16,8.02,11.53,16.36,22.85,24.4,34.01-.16.58-.15.78-.24.83-7.94,4.79-9.14,12.02-8.5,20.64.7,9.36.16,18.81.16,28.24-5.24,2.01-76.55,2.14-87.76,0v-37.68c-8.87.54-17.02,1.03-25.52,1.54v36.33h-5.91c0-3.15,0-6.32,0-9.5,0-9.42-.08-18.84.01-28.27.03-2.56.02-4.59-3.09-5.52-1.48-.44-2.59-2.13-4.62-3.91,6.12-.4,11.26-.85,16.41-1.04,22.17-.84,44.34-1.56,66.51-2.48,1.43-.06,3.18-1.22,4.12-2.4,6.35-7.97,12.53-16.07,19.21-24.71,2.61,3.37,5.2,6.51,7.56,9.8,3.84,5.35,7.48,10.85,11.33,16.2.77,1.07,2.04,1.78,3.09,2.65.44-.41.88-.82,1.31-1.23-7.45-10.56-14.9-21.12-22.91-32.46-4.34,5.3-8.34,10.07-12.21,14.94-2.99,3.77-5.73,7.72-8.76,11.45-.75.92-2.15,1.74-3.3,1.82-8.57.62-17.15,1.04-25.72,1.52-19.29,1.06-38.59,2.12-57.88,3.15-.21.01-.44-.25-1.38-.82ZM618.32,528.58c-.28-.39-.57-.77-.85-1.16-2.94,0-5.88-.07-8.82.06-.59.02-1.15.76-1.72,1.16.58.54,1.11,1.47,1.74,1.54,2.39.26,4.83.42,7.22.24.85-.06,1.62-1.2,2.43-1.84ZM612.13,548.44c-.2-.08-.4-.16-.6-.24,0-.8.18-1.65-.05-2.37-.24-.72-.9-1.3-1.37-1.95-.52.7-1.24,1.34-1.52,2.13-.25.7-.17,1.61.04,2.36.42,1.54,1.02,3.04,1.54,4.55.65-1.49,1.31-2.99,1.96-4.48ZM612.61,496.08c-.45.35-.91.69-1.36,1.04,4.12,5.67,8.25,11.33,12.37,17,.23-.16.46-.32.69-.48-3.9-5.85-7.8-11.7-11.7-17.55ZM609.54,532.95c-.39.27-.77.54-1.16.81,0,1.98-.24,4,.12,5.91.14.75,1.64,1.25,2.52,1.86.2-2.07.61-4.15.48-6.19-.05-.84-1.28-1.6-1.97-2.4ZM616.21,548.84c0-.66.19-1.4-.04-1.96-.39-.92-1.06-1.73-1.61-2.59-.48.9-1.2,1.75-1.38,2.7-.24,1.28-.2,2.66.02,3.94.12.7.86,1.29,1.33,1.93.57-.68,1.28-1.29,1.65-2.07.26-.54.05-1.3.04-1.96ZM616.95,537.62c-.86-1.54-1.52-2.74-2.19-3.93-.6,1.22-1.71,2.46-1.67,3.66.05,1.51,1.05,2.99,1.63,4.49.7-1.33,1.4-2.65,2.23-4.21Z"/><path class="cls-2" d="M475.9,139.07c43.73-4.54,87.54-6.61,131.2-3.89-21.54,1.8-43.37,4.34-65.27,5.25-21.96.91-43.99.2-65.99.2l.06-1.56Z"/><path class="cls-2" d="M476.82,145.9c43.92-2.78,88.31,1.8,132.75,6.28-10.97.17-21.94.53-32.9.47-11.3-.06-22.6-.32-33.88-.86-11.13-.53-22.26-1.37-33.36-2.37-11.08-1-22.14-2.38-32.61-3.52Z"/><path class="cls-2" d="M388.65,138.81c-40.4,5.21-80.48-.11-121.81-3.65,41.49-2.13,81.69-1.04,121.81,3.65Z"/><path class="cls-2" d="M261.68,151.69c43.53-3.32,86.04-8.82,127.74-6.03-41.3,6.31-83.95,8.82-127.74,6.03Z"/><path class="cls-2" d="M479.95,152.57c43,4.07,86.26,6.55,128,19.09-43.02-3.91-85.69-10.22-128-19.09Z"/><path class="cls-2" d="M608.11,115.64c-42.01,10.53-84.83,14.82-127.99,16.36,42.52-6.57,85.05-13.11,127.99-16.36Z"/><path class="cls-2" d="M382.98,153.4c-39.24,7.81-78.55,15.2-118.56,18.01,38.81-10.59,78.56-15.08,118.56-18.01Z"/><path class="cls-2" d="M387.89,131.86c-52.22-2.32-95.74-7.99-124.61-16.16,41.79,3.58,83.28,9.5,124.61,16.16Z"/><path class="cls-2" d="M488.42,124.3c26.76-9.73,54.11-17.23,82.19-21.99-26.49,10.76-54.3,16.53-82.19,21.99Z"/><path class="cls-2" d="M487.51,160.4c28.18,6.01,56.25,12.42,82.94,23.67-28.54-4.73-55.82-13.93-82.94-23.67Z"/><path class="cls-2" d="M302.56,183.87c24.15-10.97,49.69-17.36,75.53-22.74-24.55,9.64-49.52,17.9-75.53,22.74Z"/><path class="cls-2" d="M302.12,102.35c26.53,5.01,52.33,12.61,77.69,21.79-26.47-5.22-52.84-10.77-77.69-21.79Z"/><path class="cls-2" d="M411.82,553.62v3.74c-9.79,0-19.41.12-29.02-.13-1.47-.04-2.9-1.8-3.96-3.61h32.98Z"/><path class="cls-2" d="M425.96,575.24c-9.79,0-19.57.09-29.35-.11-1.28-.03-2.53-1.6-3.79-2.46.14-.42.28-.84.42-1.26,3.15,0,6.31,0,9.46,0,6.32,0,12.64-.12,18.95.12,1.65.06,3.25,1.28,4.88,1.96-.19.59-.37,1.17-.56,1.76Z"/><path class="cls-2" d="M421.5,569.34c-9.67,0-19.35.1-29.02-.11-1.41-.03-2.78-1.52-4.17-2.34.17-.44.34-.89.51-1.33,9.87,0,19.74-.09,29.61.12,1.21.03,2.38,1.7,3.57,2.62l-.5,1.04Z"/><path class="cls-2" d="M334.84,555.26c1.03-.73,2.05-2.07,3.09-2.08,10.21-.15,20.41-.11,30.62.02.79.01,1.58,1.15,2.36,1.76-.83.61-1.65,1.73-2.49,1.74-10.86.12-21.73.08-32.59.08-.33-.51-.66-1.01-1-1.52Z"/><path class="cls-2" d="M415.47,563.09c-9.52,0-19.05.07-28.57-.09-1.11-.02-2.19-1.33-3.28-2.04.13-.4.26-.79.39-1.19,7.43,0,14.86,0,22.29,0,2.15,0,4.34-.22,6.44.09,1.16.17,2.19,1.24,3.27,1.91-.18.44-.36.88-.54,1.32Z"/><path class="cls-2" d="M393.39,541.69c-.29,2.42-.58,4.85-.87,7.27-.35.02-.7.05-1.05.07-.19-3.21-.39-6.41-.6-9.9h8.25c-.23,3.41-.44,6.66-.66,9.91-.36.06-.71.12-1.07.17-.32-1.07-.65-2.15-1.01-3.35-.24,1.14-.47,2.19-.69,3.25-.29,0-.59,0-.88-.01v-7.21c-.47-.07-.94-.13-1.41-.2Z"/><path class="cls-2" d="M328.29,556.83c-5.35,0-10.7.1-16.05-.09-.89-.03-1.74-1.31-2.6-2.01.86-.55,1.71-1.55,2.59-1.58,4.69-.16,9.39-.21,14.07.02,1.04.05,2.01,1.38,3.01,2.13-.34.51-.68,1.03-1.02,1.54Z"/><path class="cls-2" d="M379.16,538.91h5.48c-.27,3.5-.53,6.82-.79,10.13-.5.02-1,.04-1.5.06-.32-1.64-.65-3.29-.97-4.93-.17-.03-.35-.05-.52-.08-.23,1.62-.46,3.23-.69,4.85-.34,0-.67,0-1.01,0v-10.02Z"/><path class="cls-2" d="M353.65,539.75l-.62,8.94c-.42,0-.85-.02-1.27-.03v-10.44h4.43v10.29l-1.24.12c-.17-2.97-.35-5.94-.52-8.91-.25,0-.51.02-.76.02Z"/><path class="cls-2" d="M325.62,548.67q-.76-10.04,2.77-10.31v10.01c-.78.09-1.66.18-2.77.3Z"/><path class="cls-2" d="M366.68,548.37c-.12-2.61-.23-5.21-.35-7.82l-.71-.07c-.16,2.68-.32,5.37-.48,8.05l-1.13-.06v-9.91c1.08.06,2.36.14,3.59.21v9.74c-.31-.04-.62-.09-.93-.13Z"/><path class="cls-2" d="M409.62,550c-.36-4.11-.64-7.32-1-11.47,1.44.79,3.05,1.58,3.02,1.67-1.21,2.84,1.9,6.52-2.02,9.8Z"/><path class="cls-2" d="M336.72,538.13v10.56c-.34.01-.68.02-1.02.03v-10.5c.34-.03.68-.06,1.02-.1Z"/><path class="cls-2" d="M345.86,538.05v10.55c-.34,0-.68.01-1.01.02v-10.54c.34,0,.68-.02,1.01-.03Z"/><path class="cls-2" d="M322.84,537.65c2.5,3.05,2.47,8.78,0,11.71v-11.71Z"/><path class="cls-2" d="M347.99,548.75c-.18-1.96-.55-3.92-.47-5.86.07-1.63.67-3.23,1.04-4.85.48,1.66,1.16,3.3,1.39,5,.24,1.79.05,3.64.05,5.46-.67.08-1.34.17-2.01.25Z"/><path class="cls-2" d="M310.15,549.11c-.2-1.66-.64-3.34-.53-4.98.12-1.79.76-3.54,1.17-5.31.42,1.75.99,3.47,1.23,5.24.21,1.53.04,3.12.04,4.68-.64.12-1.27.24-1.91.36Z"/><path class="cls-2" d="M404.36,538.97v10.95c-2.17-3.31-1.93-9.64,0-10.95Z"/><path class="cls-2" d="M406.36,548.86c-.32-2.8-.7-5.6-.87-8.41-.03-.44.94-.94,1.44-1.41.38.45,1.1.91,1.08,1.34-.11,2.85-.38,5.69-.59,8.53-.35-.02-.71-.03-1.06-.05Z"/><path class="cls-2" d="M321,538.67v10.09c-.32,0-.64-.01-.96-.02v-10.14c.32.02.64.05.96.07Z"/><path class="cls-2" d="M389.86,539v10.82c-2.18-4.18-1.94-9.81,0-10.82Z"/><path class="cls-2" d="M359.24,538.25v10.26h-1v-10.26c.33,0,.67,0,1,0Z"/><path class="cls-2" d="M341.92,548.49v-10.33c.31-.01.61-.02.92-.03v10.34c-.31,0-.61.01-.92.02Z"/><path class="cls-2" d="M338.76,548.53v-10.36c.33,0,.66-.02.99-.03v10.36c-.33,0-.66.02-.99.03Z"/><path class="cls-2" d="M401.26,538.99v10.02c-.33,0-.65.02-.98.03v-10.01l.98-.04Z"/><path class="cls-2" d="M314.9,538.91v10.01c-.31,0-.61.02-.92.03v-10.01c.31,0,.61-.02.92-.03Z"/><path class="cls-2" d="M362.33,538.5v9.97c-.29,0-.58,0-.88,0v-10c.29,0,.58,0,.88.01Z"/><path class="cls-2" d="M385.48,548.91v-9.97c.34,0,.69-.01,1.03-.02v9.96c-.34.01-.69.02-1.03.03Z"/><path class="cls-2" d="M317.95,538.8v10.04l-.84.05v-10.05c.28-.01.56-.03.84-.04Z"/><path class="cls-2" d="M370.38,539.06v9.56c-.25.02-.5.03-.75.05v-9.62c.25,0,.5,0,.75.01Z"/></g></svg>