<?xml version="1.0" encoding="UTF-8"?><svg id="sleigh" xmlns="http://www.w3.org/2000/svg" viewBox="0 0 775.63 807.33"><defs><style>.cls-1{fill:none;stroke:red;stroke-miterlimit:10;}</style></defs><path class="cls-1" d="m411.99,455.82c-.36-1.05-4.33,4.83-5.98,4.73"/><path class="cls-1" d="m406.01,460.55c-.09-.2-2.27.31-3.28.85-5.4,2.89-10.56,6.31-16.16,8.71-3.9,1.68-5.22-.03-4.06-4.27.69-2.51,1.32-5.07,2.29-7.48,2.83-7.02,4.59-7.96,11.86-6.71.15-.21.46-.45.43-.65-.88-6.7-.83-6.59,5.36-9.76,5.78-2.96,8.18-8.32,9.23-14.36.47-2.7.63-5.48.73-8.22.11-3.02,1.49-4.92,4.53-4.57,8.94,1.01,14.77-7.01,12.72-16.64-1-4.72-.59-9.74-.82-14.85-6.23-1.82-8.64-4.82-8.68-12.27-.02-2.86-.71-4.23-3.74-4.58-34.87-4.02-66.98-16.62-97.78-32.63-15.97-8.3-31.11-18.18-46.64-27.32-1.84-1.09-3.79-2-6.14-2.38,1.05,1.17,2.12,2.32,3.14,3.52,6.4,7.54,5.32,19.4-2.22,24.61-4.18,2.88-9.19,2.52-12.42-.9-3.43-3.62-2.63-7.79,1.89-10.01.8-.4,1.55-.92,2.38-1.42-3-3-7.77-2.96-12.08-.13-3.52,2.32-4.82,6.12-2.84,10.1,1.32,2.67,3.3,5.05,5.22,7.37,3.41,4.14,7.18,7.99,10.46,12.23,14.43,18.62,2.68,46.1-20.73,50.44-1.74.32-3.48.64-5.91,1.08,1.84,5.58,3.87,10.84,8.01,14.31,1.83,1.54,6.05,1.15,8.83.38,2.87-.8,3.64-3.59,2.85-6.81-.83-3.36,1.77-5.73,5.34-5.35,5.33.57,8.45,5.34,6.96,10.92-.55,2.07-1.65,3.99-2.74,6.54,14.06.4,27.93,1.46,39.67-7.82,6.75-5.34,11.34-12.14,9.96-21.38-1.12-7.47-7.83-10.08-13.91-5.33.87,1.02,1.76,2.01,2.61,3.04,2.49,2.99,2.03,6.23.35,9.26-1.74,3.13-4.83,2.78-7.71,2.04-8.09-2.07-12.72-11.93-9.68-20.76,2.9-8.4,9.06-13.08,17.75-13.93,10.09-.99,18.16,2.92,23.22,11.82,4.98,8.75,4.48,18.07,1.06,27.16-6.44,17.16-19.85,25.52-37.29,27.91-6.65.91-13.47.72-20.21.74-73.68.18-147.35.33-221.03.37-4.34,0-8.82-.55-12.96-1.78-2.7-.8-5.28-2.96-7.21-5.13-3.17-3.58-2.83-8.36.13-11.22,2.89-2.79,9.45-2.75,12.63.08q6.39,5.69,15.27,5.14c-.82-1.36-1.64-2.51-2.25-3.76-1.64-3.35-1.67-6.68.7-9.71,2.09-2.68,4.99-3.4,8.16-2.54,2.68.73,4.95,2.2,4.57,5.45-.34,2.93.17,5.31,3.16,6.37,3.4,1.2,7.03,1.65,9.53-1.51,3.48-4.37,6.51-9.09,9.96-13.99-23.81-6.07-32.21-23.9-37.11-44.71-3.75-15.93-7.58-31.85-11.81-47.66-1.15-4.28-3.61-8.31-5.99-12.12-1.35-2.16-3.77-3.65-5.9-5.62-.68,1.1-1.08,1.45-1.05,1.75.79,8.15-7.67,11.33-14.66,6.77-10.57-6.9-10.3-20.86.73-28.6,2.11-1.48,4.56-2.49,7.24-3.93-3.87-2.69-3.41-5.59.08-8.3-2.33-1.2-4.47-2.06-6.29-3.37-.63-.46-1-2.33-.59-3.02,2.76-4.65,2.2-8.03-1.32-11.95-1.34-1.49-1.77-4.14-1.84-6.28-.03-.93,2.08-2.86,2.92-2.7,2.27.42,4.46,1.57,6.5,2.76.44.26.06,1.89.06,3.33,1.25-.29,2.49-.58,3.88-.91-1.65-2.32-3.32-4.54.09-6.26,2.06-1.04,5.19,1.07,4.48,3.17-1.18,3.48,1.04,3.88,3.16,4.88,3.96,1.87,8.23,3.42,7.69,9.28-.12,1.35,1.44,2.85,2.33,4.47,2.16-1.09,4.17-2.1,6.88-3.47-1.65-.82-2.57-1.29-3.5-1.73-3.41-1.59-3.58-2.56-1.02-5.47.41-.47.95-1.27.81-1.7-1.43-4.14.46-9.43-4.77-12.38-1.35-.76-1.92-3.8-1.87-5.77.03-1.07,2.26-3.05,3.27-2.91,2.14.29,4.27,1.5,6.12,2.75.53.36.08,2.16.08,3.84,1.9-.7,3.63-1.34,4.49-1.66-.41-2.22-.76-4.19-1.12-6.15,1.58-.26,3.65-1.26,4.65-.61,2.33,1.5,3.04,3.89.1,6.09,2.58.77,4.65,1.45,6.76,2.01,6.2,1.62,9.35,5.62,9.54,12.01.02.52.15,1.08.35,1.56q2.19,5.17-2.41,9.05c.71.75,1.55,1.38,2.06,2.22.77,1.27,1.6,2.63,1.88,4.05.66,3.33,1,6.73,1.47,10.1.74.06,1.47.13,2.21.19.57-2.09,1.33-4.16,1.66-6.29.3-1.88.37-3.87.09-5.75-.21-1.43-1.16-2.75-1.7-4.14-.68-1.75-1.97-3.65-1.68-5.25.22-1.25,2.5-3.07,3.76-3,1.96.11,3.93,1.48,5.66,2.67.34.23-.42,2.06-.82,3.77,8.75-2.81,16.42-1.21,22.57,5.76-1.27,5.55,5.84,12.7-3.96,16.89,1.57,1.12,3,1.74,3.78,2.82.85,1.17,1.84,3.04,1.46,4.15-1.34,3.93.79,6.33,3.01,9.59,1.93-6.57,3.23-12.59,5.49-18.23,2.22-5.54,5.41-10.68,8.34-16.32-4.52-5.7-4.1-6.96,4.73-12.74-.76-2.99-1.5-5.86-2.4-9.37.02,0-.87-.31-1.72-.21-6.41.76-12.27-.38-17.58-4.32-1.13-.84-3.09-.99-4.59-.82-5.48.63-10.89-3.47-11.37-8.89-.38-4.23,2.15-7.67,5.94-8.07,4.32-.46,9,3.01,8.88,7.28-.11,4.12,1.98,4.81,5.26,5.02,4.67.3,8.18-1.79,11.39-4.85,9.68-9.21,19-9.56,29.68-1.27.98.76,2.32,1.57,3.45,1.51,4.78-.23,10.81,6.29,9.94,11.13-.13.71-.76,1.43-1.35,1.93-3.08,2.6-3.04,3.45.42,5.43-.91,4.6-.73,4.79,7.25,6.85-1.99,1.65-3.55,2.94-5.15,4.27,1.92,4.06,2.69,4.49,8.19,3.88-2.71,4.79-4.09,9.44,1.14,13.26-2.55,3.16-4.77,5.92-6.77,8.4,3.49,1.96,5.23,1.22,9.44-1.92,2.28-1.69,5.9-1.6,8.93-2.26,4.22-.92,5.39,2.21,6.42,4.94,4.63-1.41,8.98-3.14,13.48-3.99,4.69-.88,9.07.01,11.56,4.98.4.8,1.61,1.47,2.56,1.67,30.17,6.33,56.78,21.46,84.37,34.14,37.83,17.38,76,33.74,117.3,41.1,22.29,3.97,44.73,5.98,67.41,4,4.2-.37,5.62-2.27,5.17-6.06-.29-2.44-.32-5.13-1.41-7.21-4.42-8.42-6.95-17.08-4.43-26.86-2.14-.42-3.9-.58-5.55-1.12-5-1.61-8.61-4.6-9.98-10-.67-2.67.32-3.84,2.71-3.7,4.75.28,9.48.88,15.2,1.44-1.94-1.11-3.09-2.15-4.42-2.46-6.83-1.58-13.68-3.02-20.55-4.39-2.62-.52-3.98,1.01-5.63,3.05-2.69,3.31-6,6.28-9.56,8.63-1.22.81-4.37-.11-5.84-1.26-1.13-.89-1.62-3.48-1.32-5.12.6-3.34,3.41-4.1,6.6-2.18,2.68,1.61,5.17.7,6.02-2.24.53-1.84.32-3.22-2.07-3.49-8.29-.94-14.94-5.26-20.63-10.94-1.27-1.27-1.29-4.31-.98-6.39.15-.98,3.05-2.62,3.66-2.25,1.6.98,2.69,2.86,3.86,4.47.68.94.88,2.67,1.71,2.99,4.25,1.67,8.64,3,12.98,4.44.28-.47.56-.93.84-1.4-1.26-1.7-2.3-3.64-3.83-5.06-4.03-3.75-8.55-6.99-12.34-10.96-3.84-4.03-7.21-8.55-10.42-13.12-1.57-2.24-2.29-4.94.05-7.62.6-.68-.05-2.51-.22-3.8-.18-1.34-.75-2.67-.69-3.99.12-2.77,1.74-4.49,4.55-4.09,2.68.38,3.43,2.54,3.07,4.99-.15,1.06-.98,2.06-1,3.1-.07,3.19-.06,6.41.31,9.57.09.81,1.66,1.44,2.54,2.15.7-.89,1.74-1.68,2.05-2.68,1.07-3.54,1.64-7.26,2.95-10.69.47-1.22,2.51-1.84,3.84-2.74.64,1.88,1.72,3.75,1.75,5.64.02,1.27-1.42,2.58-2.24,3.85-2.63,4.07-2.56,9.33.2,13.19,1.92,2.68,3.78,2.79,5.28-.19,1.91-3.79,3.28-7.86,4.88-11.8.31-.76.43-1.72.96-2.26,1.35-1.37,2.8-2.71,4.44-3.7.36-.22,2.36,1.09,2.35,1.67-.05,1.9-.06,4.32-1.17,5.59-10.73,12.3-4.54,29.85,4.39,34.92,2.2,1.25,4.64,2.07,7.44,3.28-1.35-4.91-3.43-9.04-3.43-13.16,0-8.48,1.08-16.96,1.79-25.43.29-3.39.53-6.82,1.26-10.13.43-1.95,1.5-3.97,2.87-5.41.53-.55,3.63.08,3.88.78.67,1.85,1.32,4.71.38,5.97-4.2,5.58-5.79,11.76-5.79,18.53,0,1.44.19,2.88.3,4.32.35.14.7.28,1.05.42,1.11-1.42,2.21-2.85,3.34-4.27,1.51-1.89,3.29-4,5.78-2.08,2.53,1.96,1.03,4.24-.69,6.01-1.23,1.27-2.63,2.46-4.13,3.39-3.67,2.27-4.93,5.31-3.72,9.48,2.31,7.96,7.96,12.37,16.22,15.65-.86-3.08-1.7-5.23-2.03-7.46-.82-5.56-1.7-11.15-1.89-16.75-.06-1.58,2.16-3.25,3.33-4.88.87,1.55,2.01,3.01,2.52,4.66.42,1.33.08,2.9.08,4.36.34.14.68.28,1.02.43,1.05-1.3,2.23-2.52,3.1-3.93.86-1.39,1.04-3.41,2.18-4.37,1.52-1.29,3.63-2.2,5.6-2.49.73-.11,2.7,2.22,2.5,3.04-.43,1.75-1.55,3.86-3.03,4.73-7.15,4.2-9.77,9.45-8.14,17.54.6,2.97,1.32,5.91,1.88,8.88.64,3.4,2.51,3.41,4.57,1.47,1.35-1.27,2.48-2.99,3.13-4.73.71-1.89.51-4.1,1.14-6.04.57-1.73,1.73-3.27,2.62-4.9.8,1.68,1.72,3.31,2.34,5.05.3.84.05,1.87.05,2.83,5.59-.23,7.23-2.32,6.39-7.29-.28-1.65-.46-4.07.47-5,1.26-1.26,3.61-1.43,5.5-2.07.53,1.79,1.87,3.78,1.47,5.32-2.19,8.42-6.34,15.4-14.97,18.93-2.57,1.06-2.57,4.19-.01,6.04,4.41,3.18,9.01,6.01,14.85,3.25,4.5-2.13,7.34-.32,8.61,5.16,1.07-1.88,1.63-2.87,2.17-3.84,2.62,3.53,4.9,7.06,7.64,10.17,3.12,3.55,8.31,3.6,11.68.33.59-.57.6-1.94.55-2.93-.21-4.46,1.44-6.97,5.97-7.21,3.93-.21,7.98.27,11.85,1.05,5.41,1.08,10.67,1.19,15.84-.81,7.01-2.71,11.08-10.89,7.47-17.2-4.77-8.34-7.57-16.69-5.12-25.89-3.51-.59-6.52-.8-9.35-1.63-4.74-1.39-7.66-4.43-8.13-9.7-.24-2.71.59-4.03,3.17-4.1,4.22-.11,8.45-.03,12.87-.03-1.01-.5-2.07-1.3-3.24-1.54-7-1.43-14-2.88-21.07-3.91-1.15-.17-3.03,1.44-3.83,2.7-2.85,4.53-5.9,8.87-11.41,10.09-1.77.39-5.24-.45-5.59-1.5-.64-1.95.01-4.68,1-6.66.42-.84,3.02-.72,4.63-.78,1.61-.07,3.41.63,4.8.11.85-.32,1.86-2.83,1.46-3.39-.88-1.23-2.53-2.33-4.03-2.61-7.35-1.39-13.9-4.18-19.37-9.44-2.72-2.61-3.69-6.23-1.48-8.74,1.02-1.16,3.03-2.18,4.45-2.01,1.06.12,1.93,2.21,2.83,3.45,1.04,1.43,1.7,3.56,3.08,4.23,3.73,1.8,7.76,2.98,11.68,4.4.34-.49.67-.98,1.01-1.47-1.7-2.13-3.15-4.55-5.17-6.32-4.02-3.54-8.64-6.42-12.46-10.13-4.08-3.96-7.89-8.34-11.08-13.03-1.16-1.71-.22-4.86-.24-7.35,0-1.1-.04-2.19-.02-3.29.05-2.22-.61-4.93.43-6.53.95-1.45,3.75-1.69,5.74-2.47.48,1.92,1.91,4.28,1.27,5.67-1.84,3.95-2.26,7.66-.2,11.44.56,1.04,1.9,2,3.04,2.22.52.1,1.66-1.56,2.07-2.6.55-1.38.64-2.95.99-4.42.57-2.41.86-4.96,1.9-7.15.66-1.39,2.39-2.4,3.86-3.17.37-.19,2.15,1.11,2.26,1.87.25,1.7.55,4.16-.39,5.15-4.33,4.56-4.3,9.66-2.51,15,.5,1.49,2.06,3.39,3.37,3.59,1.08.16,2.97-1.66,3.67-3.03,1.48-2.92,2.45-6.11,3.55-9.22.46-1.29.41-2.84,1.11-3.95,1.09-1.74,2.47-3.39,4.06-4.67.44-.36,2.97.75,2.97,1.18,0,2.07.03,4.49-1,6.14-3.35,5.39-6.21,10.94-5.35,17.4,1.13,8.56,4.86,15.72,12.94,19.86,1.26.65,2.74.88,4.91,1.55-7.34-14.19-5.55-27.9-1.81-41.7.42-1.54.04-3.28.21-4.91.15-1.47.26-3.06.89-4.35,1.54-3.19,4.98-4.61,7.08-2.94,2.88,2.29,1.98,5.22-.07,7.22-5.17,5.05-5.31,11.54-5.82,17.97-.1,1.28.31,2.6.64,5,1.66-1.88,2.61-2.94,3.55-4.02.89-1.03,1.58-2.63,2.69-3,1.68-.56,3.65-.28,5.49-.35-.37,1.86-.23,4.1-1.25,5.49-1.24,1.68-3.4,2.73-5.26,3.91-3.7,2.36-4.62,5.63-3.32,9.65,2.48,7.68,7.81,12.59,15.83,16.38-.41-1.97-.64-2.95-.82-3.94-1.26-6.74-2.57-13.48-3.72-20.25-.17-.99.11-2.43.77-3.09,1.07-1.07,2.57-2.12,3.97-2.24.61-.05,1.81,2.15,2.05,3.45.35,1.91.09,3.94.09,5.92.46.17.93.33,1.39.5,1.6-2.56,3.49-4.99,4.73-7.71,2.37-5.21,5.18-6.09,10.02-2.49.65-1.54,1.16-3.09,1.94-4.49,1.55-2.8,4.7-3.76,6.98-2.16,2.91,2.03,1.8,4.54.07,6.36-1.48,1.56-3.71,2.46-5.68,3.5-3.88,2.05-8.48,3.29-11.57,6.17-4.48,4.19-5.35,10.03-3.45,16.08.78,2.49,1.24,5.08,2.06,7.56.36,1.08,1.2,2.74,1.9,2.78,1.15.06,2.93-.69,3.41-1.63,1.16-2.26,1.86-4.79,2.49-7.27.33-1.3.09-2.74.18-4.11.14-2.29,1.01-4.42,3.59-3.92.99.19,1.72,2.46,2.27,3.89.41,1.07.35,2.32.5,3.54,5.57-1.45,6.69-3.43,5.12-8.38-.96-3.01,1.24-7.33,4.31-7.76,1.41-.2,3.38.38,4.37,1.35.78.76.94,2.85.51,4.03-2.98,8.25-6.86,15.84-15.14,20.25-2.6,1.38-2.74,3.52-.33,5.64,4.31,3.79,8.93,5.32,14.36,2.49.37-.19.77-.49,1.14-.46,2.46.18,5.48-.33,7.19.92,1.32.96,1.01,4.17,1.49,6.74,6.36-2.66,13.79-1.32,21.3-.6,6.51.62,12.58-1.64,17.71-5.63,5.84-4.54,7.69-14.53,3.19-21.07-6.02-8.75-7.98-17.97-5.69-28.57-6.47.63-11.76-1.42-15.81-5.87-1.2-1.31-1.67-4.01-1.28-5.81.31-1.41,2.37-3.26,3.82-3.42,4.11-.46,8.31-.16,12.68-.54-4.73-1.11-9.47-2.22-14.2-3.32-.27-.06-.56,0-.82-.08-7.83-2.2-14.58-2-18.78,6.7-1.06,2.19-4,4.02-6.46,4.8-1.96.62-5.15.09-6.58-1.23-.94-.88-.23-4.31.66-6.17,1.17-2.46,3.54-2.31,6.11-1.55,1.46.44,3.85.16,4.86-.81,2.15-2.05,1.33-3.84-1.67-4.5-3.09-.67-6.47-.71-9.22-2.06-4.85-2.37-9.5-5.3-13.82-8.53-1.04-.78-1.22-4.07-.48-5.53.92-1.82,3.06-3.28,5.01-4.16.65-.3,2.95,1.43,3.43,2.65,2.25,5.64,8.05,8.78,15.9,7.27-5.28-4.59-9.66-9.1-14.72-12.63-5.49-3.83-10.49-7.77-13.84-13.76-2.78-4.96-3.05-6.28.02-10.12-.45-2.94-1.56-5.62-.99-7.87.47-1.83,2.75-3.51,4.61-4.55.84-.47,3.66.57,3.79,1.27.37,1.97.51,4.59-.51,6.1-2.28,3.38-1.89,6.52-.34,9.72.56,1.16,2,1.89,3.04,2.82.59-1.13,1.36-2.2,1.75-3.4,1.14-3.5,1.73-7.24,3.26-10.55,2.06-4.47,4.54-4.47,7.62-.22.5-1.21.79-2.35,1.38-3.3,1.59-2.57,3.93-4.16,6.9-3.03,1.02.39,2.14,2.64,1.91,3.79-.56,2.8-1.69,5.68-5.31,5.93-9.89.69-13.65,8.2-8.37,16.77,1.84,2.99,4.34,3.08,5.84-.14,1.79-3.85,3.07-7.93,4.52-11.94.42-1.16.48-2.45.95-3.59,1.01-2.44,5.05-4.35,6.83-3.13,2.65,1.82,1.59,4.29.3,6.19-3.63,5.34-6.59,10.82-6.09,17.57.64,8.58,3.61,15.81,11.66,20.03,1.36.71,2.98.91,3.81,1.15-1.09-6.59-2.71-12.94-3.04-19.36-.29-5.43.97-10.92,1.42-16.4.28-3.48.19-7,.54-10.47.17-1.71.58-3.64,1.55-4.98,1.76-2.43,4.46-3.63,7.22-1.82,2.99,1.95,1.93,4.77.12,6.79-5.2,5.81-4.52,13.01-5.16,19.91-.06.7.51,1.46,1.05,2.87,1.12-1.24,1.94-2.04,2.64-2.95.67-.87,1-2.17,1.85-2.68,1.53-.92,3.3-1.71,5.04-1.91.69-.08,2.35,1.71,2.22,2.37-.38,1.87-1.14,3.87-2.36,5.3-1.1,1.28-3.37,1.55-4.47,2.83-1.61,1.88-3.47,4.16-3.73,6.44-.76,6.52,7.37,15.56,14.15,16.37-1.05-6.49-2.04-12.97-3.18-19.42-.54-3.05.18-5.48,2.84-7.13,2.24-1.38,4.46-.33,4.82,2.27.3,2.13.41,4.28,1.59,6.79,1.2-2.04,2.53-4.02,3.58-6.14,2.73-5.46,3.98-6.12,9.77-4.95,1.35-1.98,2.26-4.46,4.03-5.52,1.47-.88,4.4-.77,5.81.19.92.63,1.03,4.05.17,5.32-1.18,1.75-3.5,3.44-5.54,3.74-4.83.71-8.3,3.53-11.35,6.66-4.55,4.66-5.88,10.45-3.63,16.8.92,2.59,1.79,5.2,2.76,7.77,1.25,3.32,3.25,3.74,5.22.84.93-1.36,1.16-3.3,1.36-5.01.3-2.59-.04-5.29.58-7.78.29-1.17,2.16-1.95,3.31-2.91.86,1.14,2.11,2.17,2.5,3.45.49,1.63.27,3.47.36,5.3,5.76-1.55,6.2-3.18,4.86-8.07-.55-1.99,1.11-5.21,2.75-6.94.99-1.04,4.95-1.09,5.65-.15,1.05,1.42.99,4.26.4,6.2-2.36,7.72-6.95,13.87-13.9,18.21-2.3,1.44-2.1,3.45-.15,5.13,4.41,3.81,9.34,5.76,15.23,3.85,3.15-1.03,6.76-2.64,9.26.36,2.73,3.27-.35,6.23-2.11,8.85-4.53,6.73-10.17,11.96-18.88,12.43-.55.03-1.1.08-1.64.17-4.66.78-5.44,2.69-2.5,6.3,1.74,2.13,3.63,4.14,5.48,6.18,14,15.54,17.12,25.05,14.75,46.32,4.87-1.38,9.43-2.6,13.94-3.98,2.49-.76,4.86-1.95,7.36-2.68,6.75-1.97,10.13.97,9.05,8.02.97-.06,1.89-.11,2.81-.17,6.78-.42,9.86,4.09,6.99,10.41-2.78,6.14-6.11,12.06-8.4,18.36-1.51,4.15-1.9,8.8-2.24,13.27-.3,3.89-.94,6.99-5.33,8.18-1.28.35-2.22,1.89-3.37,2.82-4.77,3.86-9.48,7.81-14.39,11.49-2.12,1.59-3.95,1.11-4.11-2.02-.12-2.34-.36-4.67-.3-7.01.21-8.68,2.73-11.54,11.1-12.85-1.91-4.07-1.33-6.16,3.16-8.92,7.68-4.74,9.61-12.23,10.22-20.42.06-.75-.29-1.53-.69-3.4-2.94,2.63-5.58,4.52-7.62,6.91-5.35,6.25-11,12.3-12.84,20.83-.78,3.61-3.4,5.76-7.43,6.09-1.66.13-3.3,1.12-4.83,1.94-5.46,2.9-10.8,6.03-16.32,8.8-2.94,1.48-4.24.48-3.69-2.79.64-3.78,1.46-7.59,2.75-11.19,1.83-5.08,4.22-6.29,9.81-6.26,1.03,0,2.24-.59,3.05-1.28,2.2-1.85,3.95-4.43,6.39-5.78,6.33-3.49,9.79-9.28,13.7-14.77-.22-.38-.45-.76-.67-1.15-4.89,1.99-10.15,3.37-14.57,6.11-7.66,4.74-15.07,7.31-23.58,2.38-1.03-.6-2.77-.59-3.95-.18-8.04,2.74-16.24,2.79-24.5,1.62-2.81-.4-4.44.59-6.26,2.74-3.27,3.85-7.02,7.32-10.78,10.73-1.94,1.76-2.88,3.39-2.12,6.08,1.24,4.35,2.16,8.79,3.32,13.67,2.77-.91,5.55-1.91,8.38-2.73,1.97-.58,4-1.23,6.02-1.32,5.32-.22,7.33,3.19,5.71,9.68.91.12,1.79.33,2.68.34,3.13.05,5.62,1.1,7.09,4.06,1.55,3.12.61,5.78-1.16,8.49-2.56,3.91-5.48,7.72-7.2,11.99-2.39,5.91-4.08,12.15-5.57,18.37-1.02,4.25-2.49,7.36-6.82,9.49-4.49,2.2-8.25,5.86-12.42,8.74-2.37,1.64-4.91,3.03-7.4,4.5-2.2,1.3-3.79.49-3.47-1.9.74-5.53,1.32-11.23,3.18-16.43,1.58-4.44,6.2-4.31,11.29-3.28-4.16-5.78-.17-7.61,3.54-9.83,7.9-4.73,10.16-12.98,12.55-21.03.71-2.4-1.09-2.93-2.96-2.27-1.26.44-2.51,1.26-3.43,2.22-5.71,5.94-12.75,11.19-16.59,18.18-4.05,7.38-8.76,12-16.61,14.52-5.31,1.7-10.13,4.9-15.27,7.2-3.62,1.62-5.23.55-4.46-3.26.9-4.4,2.39-8.72,4.08-12.9,1.35-3.35,4.21-4.56,7.82-3.56,2.77.77,4.91.9,5.78-2.88.32-1.4,2.59-2.67,4.24-3.38,8.11-3.51,13.72-9.77,19.24-16.18l-.61-1.17c-4.38,1.73-8.79,3.38-13.12,5.23-2.27.97-4.43,2.23-6.56,3.49-5.36,3.17-10.62,2.72-16.2.37-2.6-1.09-5.95-1.92-8.53-1.24-7.46,1.95-14.89,2.77-22.49,1.61-3.61-.55-6.02.29-8.4,3.43-2.69,3.55-6.32,6.47-9.84,9.29-5.27,4.22-6.56,8.79-3.3,14.75,2.71,4.95,5.92,9.62,8.56,14.61,1.24,2.35,2.04,5.1,2.35,7.75.36,3.09-.34,6.59-3.63,7.58-2.22.67-4.99-.46-7.73-1.42-5.24,5.02-8.51,11.62-10.04,19.14-.44,2.15-.64,4.41-1.48,6.4-.58,1.38-1.93,3.25-3.15,3.42-3.97.55-5.89,3.66-8.73,5.68-4.55,3.24-9.62,5.78-14.59,8.4-2.3,1.21-4.1.15-3.52-2.48,1.12-5.06,2.31-10.18,4.25-14.96,1.97-4.83,6.31-5.09,10.95-3.26q-1.69-7.89,5.48-11.06c6.19-2.73,13.06-14.23,12.92-22.62-2.05.78-4.19,1.01-5.5,2.18-7.91,7.05-15.78,14.24-20,24.3-1.49,3.56-3.81,4.96-7.53,5.98-5.76,1.58-11.16,4.45-16.72,6.75-1.91.79-3.8,1.61-5.76,2.27-2.59.87-4.04-.34-3.26-2.82,1.45-4.55,3.11-9.08,5.24-13.35,1.48-2.97,4.41-4.16,7.75-2.84,2.64,1.04,3.92.1,5.05-2.35.6-1.3,2.2-2.2,3.46-3.14,4.5-3.33,9.11-6.51,13.5-9.96.84-.66.89-2.34,1.31-3.54-1.29-.12-2.75-.69-3.83-.27-3.18,1.24-6.4,2.58-9.25,4.43-5.88,3.82-11.4,3.99-17.29-.02-1.74-1.19-4.53-2.07-6.45-1.57-9.18,2.37-18.27,2.34-27.38.03-2.82-.71-4.82,0-6.38,2.36-5.37,8.13-13.4,11.46-22.66,12.65-2.72.35-5.43.89-8.12,1.46-5.34,1.13-9.44,4.16-11.57,9.11-2.48,5.76-4.42,11.76-6.41,17.72-.34,1.03-.22,3.03.43,3.45"/><path class="cls-1" d="m215.71,368.82c.04.36.09.72.13,1.09,3.47-.39,7.02-.42,10.39-1.24,9.22-2.25,13.83-10.12,11.24-19.23-.93-3.27-2.81-6.25-4.08-9.43-1.77-4.45-4.01-8.84-4.91-13.47-2.79-14.24,5.73-25.87,20.12-27.6,3.96-.48,8.09.35,13.44.65-12.61-6.18-24.23-12.09-36.05-17.55-5.34-2.47-13.06,1.19-15.29,6.62-1.16,2.82-3.56,3.72-6.05,3.04-3.03-.83-5.84-2.49-8.56-3.71-.61,2.69-.34,7.11-2.31,8.62-2.24,1.72-6.47.98-9.84,1.09-2.83.09-4.85-1.42-5.27-4.23-.49-3.28-2.13-3.31-4.6-2.3.79,1.77,2.23,3.44,2.07,4.94-.54,5.06,2.37,4.8,5.86,4.65,10.9-.49,16.93,4.3,19.23,15.02.28,1.32.54,2.65.78,3.84,1.8.3,4.3.07,4.75.92,1.83,3.48,3.78,7.22,4.12,11.01.16,1.78-2.92,4.54-5.13,5.66-3.6,1.83-3.94,3.64-2.84,7.41,2.33,8.01,5.44,10.06,12.08,3.61,4.11-4,8.08-3.38,12.19.99,2.81,3,2.33,7.26-1.54,10.94-3.18,3.03-6.61,5.81-9.93,8.7Z"/><path class="cls-1" d="m204.85,420.13c-3.52-6.54-6.68-12.55-10.04-18.45-.41-.71-1.87-1.17-2.84-1.16-18.86.07-37.71.19-56.57.41-1.25.01-2.97.54-3.66,1.44-4.25,5.53-8.26,11.25-12.97,17.76h86.08Z"/><path class="cls-1" d="m476.56,361.13c0-.44.01-.88.02-1.32-1.92-.1-3.84-.23-5.76-.31-31.81-1.23-62.86-6.68-93.1-16.7-34.56-11.45-67.39-26.96-100.09-42.75-1.06-.51-2.13-1-3.2-1.49.4,1.03,1.05,1.63,1.79,2.08,10.64,6.58,21.11,13.47,31.99,19.63,33.76,19.11,69.37,33.28,107.91,39.42,2.9.46,5.44.89,6.59-3.76,3.19,5.81,8.1,5.06,12.73,5.23,3.71.14,7.42.54,11.13.51,10-.09,20-.35,30-.54Z"/><path class="cls-1" d="m535.67,316.56c-5.93,7.21-12.83,9.99-21.17,9.9-3.55-.04-4.7,2.23-2.64,5.31,3.18,4.77,6.26,10.23,10.82,13.22,2.53,1.66,7.96-1.11,12.08-1.88.4-.08.81-.17,1.2-.27,7.59-1.91,8.11-2.59,8.03-10.66-7.12-2.19-8.1-8.05-8.32-15.62Z"/><path class="cls-1" d="m231.98,420.33c-3.96-6.8-7.35-12.69-10.84-18.51-.37-.61-1.31-1.22-2-1.24-4.02-.12-8.05-.06-13.05-.06,3.45,6.81,6.35,12.65,9.4,18.41.36.68,1.5,1.32,2.29,1.34,4.34.13,8.68.06,14.2.06Z"/><path class="cls-1" d="m117.91,400.99c-4.13,0-7.02-.19-9.87.06-1.96.17-4.63.33-5.68,1.58-4.51,5.41-8.53,11.21-12.73,16.88.23.35.45.71.68,1.06,4.47,0,8.94.07,13.41-.06.81-.02,1.89-.68,2.35-1.38,3.86-5.77,7.6-11.62,11.83-18.15Z"/><path class="cls-1" d="m547.96,384.05c-.97-4.51-1.7-7.91-2.43-11.29-9.88,1.37-15.34,7.36-14.38,16.44,5.81-1.78,11.5-3.52,16.81-5.15Z"/><path class="cls-1" d="m628.85,276.33c-2.5.36-5.03.41-7.31,1.2-.91.32-2.09,2.89-1.75,3.33,2.19,2.77,4.78,5.23,7.82,8.42.49-5.15.85-8.95,1.23-12.95Z"/><path class="cls-1" d="m540.07,356.66c-5.87,0-9.67,1.62-9.97,4.24,6.28.64,8.18-.16,9.97-4.24Z"/><path class="cls-1" d="m432.23,367.18c3.37,4.22,6.28,4.39,9.57.82-3.12-.27-6.06-.52-9.57-.82Z"/><path class="cls-1" d="m465.74,367.68c4.33,2.46,8.47,1.02,12.6,0h-12.6Z"/><path class="cls-1" d="m202.97,200.43c.59-5.23,2.24-5.97,7.01-3.16,10.99,6.48,21.37,6.21,30.02-.79,3.22-2.6,5.52-5.71,5.45-10.09-.3-.14-.64-.41-.74-.34-11.07,7.49-22.85,5.19-34.69,2.66-2.92-.62-5.98-.63-8.85-1.41-1.9-.51-3.92-1.56-5.17-2.99-.55-.63.47-3.94,1.16-4.08,1.86-.37,4.33-.3,5.84.69,6.05,3.99,12.65,4.88,19.55,4.77.23-.35.47-.69.7-1.04-1.19-1.01-2.58-1.86-3.52-3.06-1.03-1.32-1.86-2.91-2.28-4.51-.13-.48,1.57-2.11,2.16-1.98,1.57.35,3.45,1.01,4.4,2.19,6.46,8.04,11.3,8.61,19.26,1.7,2.32-2.02,4.22-4.53,6.31-6.81-.18-.36-.36-.73-.53-1.09-1.39.08-2.79.1-4.18.24-5.62.56-11.23,1.19-16.84,1.74-2.55.25-4.83-.11-5.02-3.36-.19-3.17,2.22-2.9,4.26-3.07,1.54-.13,3.08-.32,4.62-.48.08-.4.17-.8.25-1.2-2.26-1.14-4.76-1.99-6.71-3.53-1.52-1.21-2.74-3.17-3.29-5.03-.23-.79,1.39-2.66,2.54-3.14.79-.33,2.8.55,3.3,1.43,6.22,10.91,15.71,10.56,25.96,7.81,2.7-.73,3.38-2.75,1.05-4.34-2.4-1.64-5.41-2.46-8.24-3.38-2-.65-4.15-.88-6.38-1.32,1.23-5.35,5.64-2.4,7.93-4.04-.27-5.22-1.9-6.36-6.57-5.36-1.59.34-4.03,0-4.99-1.03-.84-.91-.83-3.93.03-4.76,1.04-1,3.54-1.28,5.08-.81,6.26,1.91,11.29,5.36,14.16,11.68,2.08,4.58,5.58,4.89,9.14,1.25,2.82-2.88,3.12-6.45,3.15-10.32.02-2.32.77-5.91,2.28-6.6,1.66-.77,4.97.55,6.82,1.94,4.33,3.25,6.91,7.76,6.93,13.42,0,1.24.08,2.48.16,3.71.34,5.13,1.69,5.97,6.13,3.63,3.41-1.8,6.68-3.84,10.1-5.62,10.18-5.3,20.74-8.15,32.95-4.33-.19-2.91-.29-5.42-.52-7.9-.38-3.97-1.22-7.93-1.2-11.89.03-6.24,5.17-8.92,10.21-5.26,3.65,2.65,6.84,5.95,10.08,9.12,5.54,5.42,11.17,10.59,18.76,13.14,1.48.5,3.08,2.1,3.64,3.56,1.87,4.85,3.42,9.83,4.83,14.83.89,3.17,1.47,6.44,1.92,9.71.38,2.81-.99,3.92-3.71,2.78-2.79-1.17-5.59-2.34-8.29-3.7-5.16-2.61-6.14-5.21-4.98-9.94-2.18-3.83-3.71-6.62-5.35-9.34-3.29-5.5-6.8-10.8-12.89-13.47-.43.25-.86.49-1.29.74,1.92,4.76,3.25,9.87,5.88,14.19,4.26,6.97,5.21,13.38.14,20.28-.9,1.23-.94,3.46-.67,5.11,1.33,8.12,1.15,16.14-.47,24.23-.35,1.72.74,4.11,1.87,5.68,2.73,3.78,5.93,7.21,8.83,10.87,3.67,4.62,6.9,5.91,12.21,3.41,5.32-2.51,10.33-5.73,15.34-8.85,9.61-5.98,20.16-8.55,31.34-8.87,1.3-.04,2.61.33,4.53.6-2.76,6.19-5.49,11.79-10.41,15.6-1.59,1.23-4.86.57-7.3.29-1.39-.16-2.67-1.3-4.59-2.31-.65,5.37-4.01,4.94-8.05,4.43-2.52-.32-5.49.65-7.85,1.83-4.17,2.09-7.99,4.86-12.02,7.23-3.04,1.79-6.18,3.4-9.57,5.26-.1,5.88,1.91,8.69,8.2,9.22,4.61.39,9.36.18,13.95-.43,7.24-.96,14.96,2.78,17.79,9.43,1.12,2.64,1.81,5.48,2.68,8.23.9,2.83-.18,4.1-3.02,3.36-4.12-1.08-8.23-2.26-12.23-3.71-1.46-.53-3.53-1.81-3.7-2.98-.6-4.19-3.65-4.39-6.6-4.73-6.82-.78-13.65-1.61-20.49-1.96-3.61-.18-5.44-1.26-6.18-5-1.78-8.9-7.09-12.35-16.03-11.54-4.73.43-9.52.08-14.47.08-4.96,9.69-17.16,11.85-22.5,4.23,3.43-2.92,7.07-5.54,10.03-8.78,1.18-1.29,1.66-4.2,1.1-5.93-2.32-7.11-2.02-13.91.08-21.07,1.4-4.76,2.18-10.04,1.72-14.94-1.12-11.85-12.32-18.97-23.73-15.6-6.98,2.06-13.91,3.45-19.92.72-2.68,4.19-4.82,8.06-7.52,11.5-.98,1.25-3.3,1.45-5.01,2.14-.45-1.64-1.29-3.28-1.27-4.92.03-3.26.54-6.52.17-10.15-.56,1.06-1.39,2.07-1.64,3.2-1.36,6.04-2.7,12.08-3.71,18.18-.17,1.02,1.11,2.48,2.03,3.45,2.43,2.57,5.36,4.72,7.44,7.52,1.75,2.35,1.81,5.55-1.15,7.19-1.34.74-4.07.56-5.18-.37-.97-.82-.69-3.28-.67-5.02,0-.69.79-1.36,1.64-2.7-1.82-.71-3.63-2.11-4.84-1.71-1.27.42-2.59,2.47-2.82,3.97-1.11,7.07-5.07,12.34-10.26,16.77-.99.85-3.18,1.07-4.44.6-1.09-.41-2.2-2.17-2.3-3.42-.08-.97,1.3-2.88,2.18-2.97,5.18-.55,5.47-4.77,6.63-8.31.58-1.78.74-3.69,1.09-5.54-.37-.29-.74-.57-1.11-.86-4.42,4.32-8.81,8.68-13.29,12.95-3.56,3.4-7.07,6.87-10.88,9.96-2.5,2.02-5.45,2.92-8.89,1.49-1.29-.54-3.18.59-4.76.46-1.89-.15-4.05-.4-5.47-1.46-.71-.53-.57-3.87.16-4.29,1.48-.87,3.62-.83,5.48-.82,2.94.03,5.9.58,8.82.42,1.18-.07,2.29-1.44,4.34-2.83-2.56-.9-4.02-1.51-5.52-1.93-3.04-.86-6.19-1.44-9.13-2.54-1.21-.45-2.72-1.92-2.81-3.02-.08-1.06,1.28-2.77,2.41-3.24,1.04-.43,2.93,0,3.88.77,3.95,3.15,8.31,4.39,13.12,3.03,1.68-.47,3.05-2.02,4.56-3.08-1.2-1.31-2.16-3.13-3.65-3.84-3.21-1.52-6.73-2.38-10.06-3.68-1.89-.74-3.65-1.81-5.47-2.73l.11.13Z"/></svg>