<?xml version="1.0" encoding="UTF-8"?><svg id="Layer_4" xmlns="http://www.w3.org/2000/svg" viewBox="0 0 764.88 807.33"><defs><style>.cls-1{fill:none;stroke:red;stroke-miterlimit:10;}</style></defs><path class="cls-1" d="m743.46,382.93c-4.09,1.29-7.93,2.51-11.77,3.73-.2-.37-.4-.73-.61-1.1.96-1.81,2.02-3.57,2.87-5.42,3.3-7.22.59-12.56-6.87-13.53-3.68-.48-6.39,1.1-8.58,4.06-3.88,5.24-8.17,10.05-15.33,12.34,1.74-2.52,3.38-4.32,4.38-6.43,2.36-4.99,5.11-9.95,6.41-15.24,1.34-5.45-2.84-9.98-8.21-10.4-5.37-.42-8.32,2.42-8.59,8.7-.34,7.85-3.63,14.16-9.33,19.42-6.6,6.1-14.57,9.23-23.21,10.75-3.06.54-6.29.09-9.44.09,2.54-1.49,5.18-2.33,7.69-3.44,10.06-4.46,19.75-9.51,24.76-20.09,3.87-8.17,3.89-16.35-2.08-23.59-5.79-7.03-13.43-9.17-22.22-6.84-3.13.83-6.19,1.91-9.79,3.04.6-.97.82-1.49,1.18-1.88,3.46-3.82,6.97-7.61,10.43-11.44,4.89-5.43,3.86-10.31-2.83-13.08-2.31-.96-4.78-1.51-7.14-2.36-3.93-1.41-7.82-2.91-12.48-4.66,5.74-3.83,10.71-3.88,15.91-2.45,3.07.85,6.23,2.16,9.29,2.03,2.65-.12,5.65-1.53,7.57-3.34.66-.62-1.48-4.2-2.33-6.43-.1-.25-.13-.52-.19-.76,2.13-3.9,4.24-7.78,6.34-11.61-2.42-1.82-5.06-3.14-6.74-5.23-2.5-3.11-5.24-3.4-8.41-1.89-2.86,1.36-5.58,3.03-8.3,4.65-.95.57-1.73,1.43-3.11,2.59.76-5.83,1.63-10.76,2-15.73.35-4.76-1.93-7.52-6.47-8.99-5.35-1.74-9.83-.38-13.8,3.43-3.98,3.81-8.6,5.54-13.66,2.46-4.19-2.55-8.02-5.7-11.74-8.39,6.31-.41,12.63.29,18.16-1.48,6.8-2.17,6.96-9.44,7.61-15.89,7.78,7,13.4,7.98,17.88,3.44,3.74-3.79,4.01-11.08.13-14.84-1.57-1.52-3.99-2.49-6.19-2.96-4.37-.94-7.61,1.49-9.81,4.22-5.93-4.3-11.56-8.39-16.82-12.2,4.5,0,9.38.25,14.22-.06,6.19-.4,9.23-5.52,7.09-11.36-1.65-4.49-5.51-6.71-11.74-5.51-8.67,1.68-17.21,4.05-24.93,5.91,9.94-10.68,27.92-14.47,42.14-8.27,1.4.61,2.84,1.19,4.3,1.63,3.19.96,5.72-.07,7.74-2.66,4.6-5.88,2.41-13.07-4.74-15.31-2.24-.7-4.55-1.21-6.83-1.81,3.73-2.83,7.53-4.46,11.21-6.34,7.18-3.67,7.31-4.04,1.99-9.57,1.1-7.68,2.08-14.54,3.04-21.31-5.76-.42-11.04-.61-16.26-1.29-2.04-.27-3.05-.08-4.48,1.57-3.37,3.91-7.2,7.42-10.84,11.09-.34-.27-.67-.53-1.01-.8,0-1.38.08-2.77-.01-4.15-.39-5.89-3.75-8.88-9.56-8.58-5.8.3-9.11,4.55-9.06,10.8.05,6.24.11,12.57-.83,18.7-.8,5.17-3.13,10.06-7.42,13.59.02-1.34.52-2.49.71-3.69.96-5.89,2.34-11.78,2.6-17.71.25-5.89-4.6-9.71-10.16-8.99-5.58.72-9.11,6-7.78,11.67.25,1.08.64,2.14.91,3.22,2.68,10.72,1.75,21.06-3.64,30.78-1.5,2.7-3.68,5.02-5.54,7.52,6.9-21.44,5.1-31-9.37-46.38,5.65-6.6,6.64-11.94,3.06-16.62-2.76-3.61-9.04-5.11-13.35-2.77-1.73.94-3.93,2.72-4.16,4.36-.59,4.22-.2,8.57-.2,13.1-6.94-.63-13.86,1.4-16.64,8.47-2.36,6.01-2.36,12.96-3.43,19.61-3.29-3.71-7.27-7.62-10.57-12.04-4.02-5.39-2.71-9.31,3.38-12.15,4.28-1.99,5.4-4.66,4.9-11.24-.31-4.07-2.96-5.69-6.46-6.61-6.45-1.71-12.73-.63-18.99,1.02-1.21.32-2.44.52-3.67.78.81-1.9,1.91-2.9,3.04-3.88,2.63-2.27,5.37-4.41,7.85-6.83.75-.73,1.38-2.47,1.02-3.28-2.35-5.26-5-10.4-7.56-15.6-2.63,1.03-5.28,2.32-8.07,3.1-3.88,1.08-6.5,2.81-5.88,7.42.11.78-.58,1.68-1.29,3.58-1.27-3.38-2.24-5.77-3.07-8.21-1.25-3.64-4.41-5.87-7.53-5.56-2.03.2-4.5,3.49-5.43,5.92-3.8,9.88-2.98,11.78,5.94,17.59.23.15.48.29.7.45,4.77,3.31,6.31,9.11,3.84,14.42-2.19,4.71-6.19,5.95-9.57,2.1-3.02-3.44-5.45-7.78-6.89-12.14-1.45-4.41-1.39-9.33-1.95-14.02-.88-7.4-7.4-10.98-14.07-7.62-2.49,1.25-4.83,2.79-7.23,4.2-4.13,2.43-8.25,4.87-12.37,7.31,1.72-3.92,4.14-7.1,6.06-10.57,5.15-9.34,5.7-18.94.17-28.26-5.52-9.31-14.31-12.43-24.68-11.58-9.26.77-16.01,5.96-21.62,12.94-1.63,2.03-3.24,4.07-4.86,6.11-.55-1.12-.53-1.82-.36-2.47,3.53-13.01,11.2-22.58,23.6-28.17,4.32-1.94,7.01-5.08,6.93-9.99-.06-3.82-1.98-6.66-5.46-8.24-4.56-2.08-8.07.14-11.32,3.07-1.79,1.61-3.52,3.28-5.28,4.92-.5-2.27-.2-4.02.28-5.71,1.36-4.83,2.91-9.61,4.16-14.47.81-3.17-2.76-7.17-5.25-5.8-3.65,2-4.7.19-6.15-2.62-2.7-5.21-5.76-10.24-9.18-16.24-4.35,7.5-8.07,13.93-11.8,20.37-.62-.24-.99-.41-1.38-.53-1.98-.64-3.69-2.41-6.06-.22-2.28,2.12-2.22,4.11-1.28,6.72,1.55,4.32,2.92,8.72,4.19,13.14.47,1.64.42,3.42.67,5.72-4.03-3.19-6.99-5.97-10.37-8.09-3.95-2.48-7.86-1.32-10.54,2.49-3.49,4.96-1.65,11.52,4.09,15.02,4.16,2.53,8.58,4.79,12.28,7.89,7.24,6.07,11.42,14.03,12.57,23.52-3.13-3.17-5.67-6.78-8.67-9.97-10.35-11.03-26.38-12.9-37.14-4.66-8.52,6.53-14.84,20.76-4.45,35.92,2.3,3.36,4.61,6.7,7.56,10.99-2.12-1.08-3.22-1.58-4.27-2.18-6.42-3.65-12.65-7.69-19.29-10.89-6.03-2.9-11.56.44-12.66,7.05-.48,2.88-.51,5.83-.8,8.75-.63,6.35-2.02,12.55-6.67,17.19-1.66,1.66-5.03,3.34-6.8,2.71-2.1-.75-4.07-3.76-4.75-6.18-1.67-5.91.51-9.69,6.85-13.76,6.36-4.09,6.87-5.34,5.06-12.69-.37-1.48-.84-2.96-1.42-4.37-2.59-6.32-6.27-6.98-10.85-1.86-.8.89-1.11,2.21-1.68,3.31-1.02,1.97-2.07,3.93-3.11,5.9l-1.04-.34c-.11-2.32-.22-4.65-.33-7.14-2.42-.78-4.96-1.55-7.45-2.41-2.45-.85-4.86-1.8-7-2.59-1.97,4.47-3.4,8.91-5.8,12.75-2.15,3.44-1.37,5.67,1.26,7.93,3.13,2.69,6.32,5.32,9.49,7.97-1.62.32-3-.2-4.42-.33-5.23-.5-10.52-1.55-15.69-1.13-7.87.63-10.02,4.14-9,11.89.48,3.68,2.7,5.49,5.82,6.94,4.47,2.07,5.63,4.44,3.91,8.7-2.64,6.55-8.12,10.84-13.01,15.62.62-7.21,1.47-14.17-2.23-20.64-3.9-6.8-10.24-8.82-17.78-8.16,3.31-9.73,2.63-14.05-2.37-16.97-4.64-2.71-10.64-1.93-13.81,1.79-4.13,4.85-3.51,9.28,2.53,17.16-16.89,12.94-14.06,29.47-8.39,46.84-3.01-3.26-5.92-6.52-7.61-10.33-4.43-9.98-5.59-20.31-1.81-30.92,2.05-5.76-.99-11.04-6.64-12.22-5.29-1.1-10.19,2.59-10.79,8.39-.24,2.32-.08,4.75.32,7.06.8,4.64,1.89,9.23,3.09,14.91-5.16-4.89-7.73-10.16-8.43-15.94-.7-5.74-.29-11.63-.17-17.45.11-5.14-4.03-9.78-9.18-9.99-5.71-.23-9.16,3-9.4,8.79-.05,1.17-.16,2.34-.34,4.76-3.58-3.08-6.83-5.14-9.07-8-2.92-3.72-5.63-5.37-10.65-4.02-3.87,1.04-8.23.21-13.07.21,1.07,7.61,2.04,14.56,3.05,21.74-1.25,1.38-2.87,3.18-5.11,5.67,6.82,3.54,12.92,6.72,19.73,10.26-3.34.87-6.05,1.37-8.61,2.28-5.54,1.96-7.56,6.36-5.58,11.66,2.11,5.62,6.4,7.42,12.08,5.04,1.16-.48,2.29-1.03,3.44-1.53,12.56-5.4,31.94-.72,41.16,10.18-5.27-1.8-10.14-3.88-15.21-5.09-4.83-1.15-9.9-1.96-14.84-1.85-5.04.11-8.06,4.54-7.72,9.66.28,4.2,3.78,7.27,8.67,7.3,3.2.02,6.4-.35,9.61-.5,1.54-.07,3.08-.01,4.94-.01-6.43,4.27-12.38,8.23-18.39,12.23-4.7-4.63-11.72-5.52-15.82-1.77-3.73,3.41-4.55,10.24-1.17,14.11,1.62,1.86,4.14,3.46,6.53,4.02,5.26,1.23,9.15-1.82,12.53-6.08,2.67,17.27,5.68,19.12,26.64,16.33-2.82,2.4-4.93,4.38-7.23,6.11-9.31,6.99-12.02,7.13-20.85-.32-4.69-3.95-9.34-3.08-14.01-1.06-4.68,2.02-4.85,6.4-4.25,10.76.58,4.21,1.27,8.4,1.77,11.68-4.75-2.15-9.62-4.48-14.63-6.49-.97-.39-2.71.14-3.66.84-2.99,2.21-5.78,4.71-8.75,7.19,1.77,2.98,3.75,6.01,5.39,9.22.48.93.46,2.62-.09,3.49-3.56,5.59-2.14,8.92,4.58,9.08,3.51.08,7.13-.97,10.57-1.96,5.35-1.54,10.29-1.42,16.01,2.56-5.48,1.91-9.97,3.61-14.55,5.04-13.01,4.07-14.12,8.5-4.53,17.92,3.23,3.16,6.18,6.6,9.26,9.91-.2.26-.4.51-.6.77-.83-.39-1.63-.85-2.48-1.16-6.07-2.22-12.21-4.17-18.78-2.45-14.77,3.88-20.07,21.92-10.25,34.91,6.66,8.81,15.88,13.83,26.07,17.37,1.2.42,2.37.88,3.56,1.32-.11.48-.22.96-.33,1.44-4.57-.68-9.19-1.11-13.69-2.1-15.83-3.5-25.7-14.69-27.34-30.66-.6-5.8-5.3-8.77-10.81-6.81-4.5,1.6-7.42,6.09-6.31,10.95.82,3.6,2.39,7.11,4.1,10.42,1.65,3.21,3.9,6.11,6.35,9.85-7.03-2.55-11.34-6.88-15.15-12-3.56-4.78-8.08-5.53-12.74-2.61-3.86,2.42-4.9,7.31-2.51,12.27.88,1.83,1.94,3.57,3.57,6.54-5.19-1.47-9.25-2.61-13.09-3.7-6.35,5.06-12.63,10.07-19.3,15.39,6.29,5,12.21,9.81,18.29,14.41.8.6,2.44.31,3.64.12,3.11-.5,6.2-1.18,9.59-1.84-1.45,3.46-2.8,5.91-3.51,8.53-1.77,6.6,1.51,10.53,8.36,10.63,4.04.06,6.38-2.25,8.38-5.31,3.51-5.38,8.38-8.92,15.34-11.37-2.9,4.25-5.72,7.33-7.3,10.96-1.96,4.48-3.78,9.36-4.02,14.15-.24,4.74,4.88,7.94,9.8,7.52,4.73-.41,6.99-3.09,7.31-8.46.12-1.94.32-3.91.81-5.77,4.28-16.18,19.11-25.36,39.92-26.34.12,0,.25.37.58.88-1.59.6-3.11,1.16-4.62,1.76-10.41,4.11-19.95,9.45-26.28,19.14-5.23,8.01-5.04,18.95.33,26.01,5.98,7.86,13.89,10.16,24.28,6.9,2.7-.85,5.29-2.07,8.97-3.54-1.97,2.47-3.15,4.17-4.56,5.66-2.78,2.94-5.82,5.64-8.51,8.65-4.71,5.26-3.46,10.66,3.15,13.16,3.77,1.42,7.79,2.15,11.66,3.31,2.42.72,4.78,1.66,7.86,2.75-6.22,3.99-11.81,4.32-17.73,2.5-2.38-.73-4.97-1.73-7.3-1.4-2.7.38-5.55,1.69-7.57,3.47-.56.5,1.57,4.06,2.47,6.22.05.13.07.27.15.59-2.15,3.7-4.38,7.53-6.48,11.13,3.02,2.33,5.81,4.59,8.73,6.67.91.65,2.42,1.42,3.21,1.09,4.05-1.7,7.99-3.66,11.88-5.71,1.19-.63,2.07-1.83,3.93-3.54-1.1,5.69-2.09,10.02-2.77,14.41-1.24,8.01,2.61,12.65,10.67,11.91,3.49-.32,6.89-2.57,10.13-4.32,3.09-1.66,6.09-4.25,9.67-2.45,5.22,2.62,10.14,5.84,15.03,8.71-6.55.77-12.9.41-18.34,2.46-6.41,2.41-6.49,9.46-6.83,15.87-8.02-7.67-13.56-8.87-18.25-4.29-3.94,3.85-4.29,10.81-.28,14.74,1.65,1.62,4.37,3.29,6.45,3.11,3.7-.32,7.28-2.02,10.69-3.08,5.03,3.61,10.58,7.58,16.04,11.5-4.53-.21-9.26-.68-13.98-.6-5.09.09-7.87,3.2-8.05,8.3-.17,4.77,2.38,8.11,7.29,8.5,3.56.28,7.3.1,10.76-.71,6.85-1.6,13.56-3.77,20.33-5.7-4.13,3.31-8.53,6.24-13.25,8.52-9.21,4.45-18.64,5.48-28.25.88-1.98-.95-4.23-1.5-6.41-1.79-4.72-.63-8.6,2.04-9.5,6.22-1.12,5.2,1.05,9.43,5.82,10.99,2.56.83,5.22,1.37,8.44,2.2-6.65,3.98-12.73,7.63-19.36,11.6,2.57,2.27,4.2,3.71,4.91,4.34-.96,7.84-1.82,14.9-2.66,21.79,6.5.68,12.4,1.4,18.32,1.79,1.01.07,2.27-1.16,3.14-2.06,3.5-3.59,6.9-7.29,10.33-10.94.95,1.27.95,1.8.95,2.32.04,7.4,3.52,11.27,9.65,10.73,5.78-.51,10.23-5.92,8.71-12.26-.73-3.05-.56-6.4-.29-9.58.67-7.75,2.98-14.9,8.94-20.45-.16,1.94-.88,3.72-1.18,5.58-.8,4.93-1.86,9.88-1.99,14.84-.13,5.07,3.22,8.61,7.47,9.23,7.14,1.03,12.19-4.74,10.07-11.72-4.31-14.17-2.48-27.28,6.44-39.23.86-1.15,1.93-2.13,2.91-3.18-6.21,17.74-7.95,34.32,8.43,47.66-5.68,7.64-6.29,12.36-2.38,16.95,2.92,3.42,8.53,4.59,12.59,2.25,1.73-1,4.02-2.64,4.26-4.26.61-4.05.2-8.26.2-12.58,6.47.13,12.93-1.83,16.93-8.61,3.77-6.39,2.3-13.36,1.89-20.39,3.99,3.95,7.84,7.81,10.86,12.23,3.63,5.31,2.42,9.15-3.04,12.47-4.34,2.64-5.85,6.57-4.63,12.33.95,4.5,4.37,6.11,8.38,6.11,6.9,0,13.81-.48,20.97-.76-3.04,2.34-6.44,4.51-9.22,7.29-1.43,1.43-2.92,4.38-2.37,5.92,1.89,5.28,4.67,10.24,7.15,15.41,1.03-.36,2.08-.7,3.13-1.09,5.48-2.03,12.18-2.79,11.69-11.11,0-.09.45-.2,1.1-.46.57,1.37.92,2.9,1.77,4.07,1.75,2.42,3.66,4.75,5.71,6.93,2,2.13,4.48,1.78,5.43-.71,1.8-4.73,3.72-9.7,3.93-14.64.09-2.08-4.03-4.35-6.29-6.49-.7-.67-1.59-1.14-2.34-1.76-4.24-3.51-5.28-8.04-3.05-13.12,2.22-5.07,5.19-5.88,9.39-2.31,5.32,4.52,7.36,10.69,8.14,17.38.39,3.32.3,6.72.97,9.97,1.16,5.57,6.21,8.17,11.49,6.02,2.43-.99,4.66-2.51,6.94-3.85,5.37-3.16,10.72-6.37,16.08-9.55-2.69,5.15-6,9.5-8.55,14.25-8.96,16.66,4.14,37.81,23.01,37.4,10.15-.22,17.68-5.29,23.89-12.82,1.72-2.08,3.34-4.25,5-6.37.23,8.25-2.64,15.26-8.21,20.5-4.9,4.61-10.78,8.23-16.44,11.97-5.33,3.52-6.81,8.8-3.41,13.94,3.11,4.71,8.27,5.39,13.48,1.64,2.33-1.68,4.5-3.58,6.74-5.38.33.13.65.25.98.38-.25,1.64-.28,3.35-.79,4.91-1.45,4.51-3.22,8.92-4.62,13.45-1.08,3.49.97,7.39,3.96,7.45,1.68.03,3.38-.96,5.18-1.52,3.76,6.87,7.46,13.64,11.66,21.3,4.08-7.79,7.67-14.63,10.62-20.27,3.51-.46,6.5-.05,8.4-1.3,3.13-2.06,1.7-5.48.71-8.41-1.15-3.43-2.45-6.83-3.47-10.3-.51-1.76-.54-3.66-.89-6.21,3.48,2.78,5.83,4.98,8.49,6.72,4.41,2.88,9.35,1.95,12.28-2,3.12-4.21,2.54-9.83-1.59-13.12-1.72-1.37-3.75-2.42-5.76-3.37-8.75-4.13-14.75-10.9-18.62-19.57-1.33-2.99-1.91-6.31-2.83-9.49,4.65,3.93,8.15,8.3,12.34,11.86,12.55,10.65,32.15,6.99,39.93-7.43,5.22-9.68,4.5-19.33-1.53-28.52-1.93-2.94-4.05-5.75-6.16-8.72.46-.1.62-.19.7-.14,6.67,3.78,13.3,7.62,19.99,11.36,8.18,4.58,13.73,1.56,14.23-7.7.08-1.53.03-3.07.12-4.6.35-6.26,2.07-12.09,5.71-17.25,2.1-2.98,5.06-5.71,8.68-4.27,3.54,1.41,5.23,5.31,4.55,9.1-.48,2.68-2.01,5.45-3.83,7.53-1.87,2.14-4.76,3.37-6.99,5.24-1.07.9-2.27,2.34-2.34,3.59-.32,5.29,1,10.31,4.38,14.46.76.93,3.34,1.62,4.13,1.06,2.49-1.75,4.68-4.02,6.68-6.35,1.08-1.25,1.52-3.05,2.26-4.6,1.18,1.25,1.74,2.42,1.63,3.51-.32,3.28,1.24,4.71,4.23,5.56,3.43.97,6.71,2.44,9.9,3.63,2.13-4.83,3.91-9.68,6.38-14.15,1.7-3.07,1.46-5.05-1.24-7.13-3.33-2.58-6.52-5.35-9.43-7.76,6.44.34,12.92,1.22,19.34.87,8.08-.44,10.12-3.44,9.59-11.41-.23-3.48-2.06-5.5-5.01-7.1-5.82-3.17-6.84-5.9-3.19-11.41,3.26-4.91,7.54-9.14,11.37-13.67-.12,7.45-1.26,14.36,2.5,20.91,3.94,6.88,10.38,8.58,17.69,8.55-2.95,9.43-2.26,13.74,2.43,16.52,4.26,2.52,10.84,1.65,13.89-1.84,3.77-4.32,2.99-8.65-3.07-16.92,17.07-13.1,15.14-29.88,9.11-47.57,7.13,6.66,10.74,14.99,10.91,24.46.1,5.6-1.06,11.29-2.17,16.84-1.15,5.71,1.63,11.46,6.72,12.62,5.37,1.22,10.11-1.94,10.99-8.11.5-3.49-.02-7.22-.57-10.76-.55-3.57-1.71-7.04-2.61-10.55,5.46,4.94,8.04,11.18,8.71,18.07.46,4.68.03,9.44-.04,14.16-.09,5.54,3.99,9.55,9.83,9.61,5.36.06,8.57-3.33,8.62-9.08.01-1.12.14-2.24.21-3.36.59-.39,1.18-.78,1.77-1.17,1.65,2.23,3.38,4.42,4.95,6.71,3.51,5.13,7.51,8.17,14.4,6.04,3.36-1.04,7.3-.18,11.22-.18-.59-5.75-.42-10.93-1.8-15.66-1.31-4.49-1.28-7.81,2.65-10.61.13-.09.02-.52.02-1.52-5.43-3.21-11.2-6.62-16.97-10.04,2.44-1.37,4.75-1.68,6.98-2.26,5.18-1.34,7.74-6.51,6.02-11.92-1.71-5.38-5.69-7.31-11.11-5.33-1.96.71-3.85,1.62-5.79,2.37-11.73,4.52-31.86-.79-39.89-11.04,1.37.68,2.04,1.06,2.74,1.35,8.98,3.69,18.23,6.28,28.04,5.73,4.93-.27,7.46-3.12,7.73-7.71.32-5.58-3.53-9.12-10.05-9.04-3.93.05-7.86.36-12.41.59,6.2-4.51,11.7-8.52,17.23-12.55,4.2,4.7,10.74,5.8,15,2.32,4.18-3.41,5.23-10.68,1.58-14.71-1.73-1.91-4.51-3.33-7.05-3.92-5.11-1.19-8.3,2.48-11.4,6.39-2.5-16.81-3.73-17.67-24.34-17.91,3.09-2.67,6.31-5.21,9.79-7.32,4.3-2.6,8.67-2.79,12.82.65,1.5,1.24,3.14,2.34,4.83,3.31,4.37,2.51,8.85,2.42,13.1-.18,3.91-2.39,4.29-6.19,3.59-10.33-.74-4.38-1.36-8.78-1.87-12.13,4.67,2.3,9.37,4.73,14.19,6.9.88.4,2.5.11,3.31-.49,3.05-2.29,5.91-4.83,8.94-7.36-2.16-3.59-4.43-7.38-5.96-9.93.92-3.64,2.81-7.15,1.87-8.24-1.59-1.85-4.9-2.44-7.6-3.01-1.5-.31-3.25.48-4.87.82-2.86.6-5.68,1.51-8.57,1.8-3.96.4-7.35-1.21-10.44-3.95,6.01-2.23,12.03-3.81,18-5.58,7.03-2.09,8.78-7.89,4.08-13.56-1.68-2.03-3.79-3.7-5.61-5.63-2.27-2.4-4.45-4.89-6.67-7.34,1.96-.04,3.16.64,4.42,1.17,6.52,2.72,13.15,3.85,19.89.88,13.45-5.93,16.61-24.07,6.33-36.28-6.7-7.95-15.54-12.54-25.18-15.84-1.2-.41-2.39-.87-4.69-1.71,21.19-2.93,40.97,12.64,42.87,32.49.45,4.7,2.59,7.04,6.87,7.51,6.35.69,11.43-4.81,9.68-11.79-1.32-5.26-4.4-10.1-6.89-15.03-.87-1.73-2.32-3.16-4.08-5.47,1.59.38,2.13.44,2.61.64,5.93,2.44,9.88,7.07,13.53,12.11,2.69,3.71,7.99,4.54,12.39,2.23,3.63-1.9,4.75-5.25,3.05-10.12-.89-2.55-2.27-4.93-3.89-8.37,3.91.91,7.05,1.72,10.23,2.33,1.25.24,3.01.56,3.83-.07,5.94-4.58,11.7-9.39,18.03-14.55-6.6-5.28-12.96-10.36-19.04-15.23Zm-114.19-215.72c3.53-.07,6.46,2.95,6.53,6.72.06,3.38-2.6,5.98-6.09,5.95-3.51-.03-6.26-2.79-6.33-6.38-.06-3.35,2.62-6.23,5.89-6.29Zm-490.03,12.6c-3.43.15-6.17-2.35-6.33-5.8-.15-3.22,2.7-6.47,5.73-6.56,3.44-.1,6.48,2.77,6.57,6.21.09,3.41-2.42,5.98-5.97,6.14Zm-78.67,219.28c-.25,3.75-3.2,6.28-7.05,6.04-3.78-.24-5.95-2.79-5.72-6.74.22-3.91,2.79-6.61,6.21-6.54,3.72.08,6.81,3.49,6.56,7.24Zm78.12,229.03c-3.36-.04-5.82-2.46-5.86-5.76-.04-3.73,2.98-6.88,6.46-6.76,3.42.12,6.17,3.13,6.1,6.66-.07,3.6-2.7,5.9-6.7,5.85Zm490.48-12.46c3.49-.18,6.4,2.55,6.55,6.15.15,3.5-2.35,6.29-5.74,6.39-3.65.11-6.4-2.23-6.54-5.57-.16-3.61,2.46-6.8,5.73-6.98Zm-3.22-327.71c.09-10.15,3.54-13.72,12.83-12.92,1.18.1,2.93,1.34,3.23,2.39,1.6,5.51.8,10.83-2.72,15.45-2.24,2.95-7.75,4.59-10.61,2.52-1.92-1.39-2.56-4.56-3.77-6.93.34-.17.69-.34,1.03-.51Zm4.39,24.89c5.84-2.33,12.66,2.49,13.35,8.89.85,7.92-.21,15.53-5.03,23.31-.34-3.75-.73-6.6-.82-9.45-.18-6.34-3.61-10.2-9.08-12.83-1.63-.78-2.88-2.34-4.31-3.54,1.93-2.19,3.46-5.4,5.89-6.37Zm-1.83,92.84c-8.36.69-14.77-5.1-22.38-6.89.02-.37.03-.74.05-1.11,7.17-2.48,14.34-4.95,20.44-7.06,2.64,3.11,4.6,5.42,6.54,7.72-1.53,1.79-3.37,3.95-5.21,6.1.19.41.37.82.56,1.24Zm-29.7-182.44c8.06.47,15.21,3.05,19.07,10.65,1.13,2.23,1.16,5.78.21,8.12-1.29,3.18-4.93,3.29-8.05,2.79-.99-.16-2.25-1.17-2.65-2.1-3.64-8.47-8.15-10.67-17.03-8.04-2.23.66-4.43,1.44-7.08,2.31,1.44-11.02,5.3-14.32,15.53-13.72Zm-44.56-50.36c3.9-1.6,8.15-.38,11.24,3.23,4.78,5.58,5.59,16.94,1.03,24.5-2.9,4.81-6.86,8.98-10.35,13.44-.5-.26-1.01-.52-1.51-.78.38-5.91-.91-11.9,3.21-17.44,3.48-4.69,1.36-8.56-4.59-9.07-2.86-.25-3.9-1.54-4.07-4.18-.29-4.49,1.64-8.3,5.05-9.7Zm10.77,53.5c-1.39,4.84-.02,7.68,6.22,6.09.08.38.17.76.25,1.15-1,1.5-1.68,3.83-3.05,4.36-6.53,2.52-13.25,4.55-20.5,6.96,3.76-8.38,4.38-18.59,17.08-18.55Zm-63.54-68.84c3.75-3.75,10.96-4.39,17.4-1.13-5.26,5.42-4.78,11.53-2.52,18.42-6.1-.74-12.54,2.11-16.61-4.48-2.27-3.67-1.34-9.75,1.73-12.82Zm-36.03-6.73c3.87,6.74,2.25,16.42-4.13,21.68-.31-14.41-7.49-23.09-21.37-26.38,10.9-4.44,21.49-2.28,25.5,4.7Zm-46.73-49.25c2.7-.51,5.89.59,8.6,1.63.92.35,1.64,2.91,1.35,4.2-.21.92-2.26,1.93-3.53,1.98-2.37.1-4.99-.77-5.47,2.72-.49,3.56,1.99,4.52,4.8,5.02,3.57.64,4.96,3.05,3.5,6.05-2.28,4.68-4.55,9.71-8.1,13.34-5.3,5.42-11.71,9.75-18.56,15.29,1.14-4.76,1.89-8.5,2.96-12.14,1.1-3.75,3.87-5.75,7.5-7.18,1.86-.74,4.7-3.4,4.4-4.35-.73-2.31-2.63-4.89-4.77-5.99-4.24-2.19-9.87.09-13.16,4.49-.94,1.25-1.82,2.55-3.16,4.45.99-12.37,13.17-27.54,23.65-29.5Zm-10.07,64.16c5.45-5.96,12.01-9.46,20.01-10.18,11.52-1.03,20.04,5.31,24.66,18.95-3.36-.57-6.35-.79-9.15-1.62-5.65-1.67-8.89-.27-10.35,4.9-1.6,5.66.99,11.55,5.84,12.55,3.21.66,6.55.64,9.43.89-.85,3.4-2.06,6.43-2.28,9.53-.39,5.55,3.82,8.77,9.16,7.3,3.35-.92,6.74-1.86,9.91-3.25,4.23-1.85,5.24-4.93,3.63-9.26-1.31-3.52-2.92-6.98-3.72-10.62-1.24-5.64.19-7.68,5.55-9.38,1.06-.34,2.11-.76,3.2-.95,3.3-.57,8.58-2.59,9.59-1.3,3.77,4.8,7.47,10.31,6.17,17.14-.71,3.72-2.6,6-6.95,6.42-9.77.93-11.93,5.16-7.72,14.15,1.12,2.39,2.47,4.67,3.77,6.98,1.93,3.44,4.33,4.19,7.91,1.95,1.82-1.13,4.33-1.79,6.47-1.66,6.13.39,8.5-1.73,8.05-7.99-.05-.67-.15-1.34-.36-3.12,2.23.6,4.07.73,5.51,1.56,2.58,1.49,5.03,3.62,7.85.88,2.7-2.62,2.88-5.92,1.51-9.29-1.51-3.71-4.61-5.52-8.29-6.36-3.09-.71-6.25-1.1-10.91-1.89,2.33-2.08,3.6-3.84,5.32-4.64,7.15-3.35,14.16-2.89,20.51,1.97,11.05,8.47,14.7,20.21,14.49,33.6-.17,10.61-4.26,19.76-10.29,28.24-2.34,3.29-4.59,6.66-6.7,10.1-.72,1.17-.88,2.68-1.57,4.89,4.71-1.61,8.47-2.89,13.1-4.47-1.64,4.2-3.01,7.71-4.5,11.53,5.02.47,8.06-2.41,11.31-4.63,4.71-3.22,9-7.17,13.98-9.86,17.93-9.7,41.81-4.48,54.48,11.52,3.54,4.47,5.07,9.55,4.51,15.24-.5,5.08-3.41,7.69-8.3,7.2.17-.92.57-1.85.47-2.72-.32-2.85-.29-5.9-1.37-8.46-1.46-3.48-4.67-5.16-8.55-4.64-3.2.43-4.71,3.24-5.04,9.61-1.57-2.04-2.4-3.91-3.83-4.78-2.23-1.34-4.94-2.82-7.31-2.62-1.54.13-3.41,2.95-4.08,4.92-.79,2.32.17,4.45,3.02,5.56,1.36.53,2.19,2.42,3.26,3.7-1.12.83-2.12,1.98-3.37,2.42-8.43,2.97-10.01,9.14-3.9,15.61,9.35,9.91,14.91,8.74,19.59-4.12,2.21-6.08,2.24-6.37,8.72-5.75,4.5.43,8.97,1.61,13.32,2.9.86.25,1.79,2.66,1.53,3.82-.7,3.25-1.93,6.39-3.08,9.53-2.4,6.54-9.27,9-15.44,5.59-9.42-5.21-13.09-3.37-14.69,7.41-.2,1.37-.23,2.78-.24,4.18-.05,7.52,4.77,10.7,11.58,7.65,1.01-.45,1.99-.98,3.51-1.73.61,1.65,1.11,3.15,1.71,4.61.74,1.79,1.09,4.3,2.45,5.13,2.02,1.23,5.12,2.2,7.1,1.48,1.65-.61,2.72-3.71,3.32-5.91.38-1.4-.59-3.16-.95-4.77,8.42-2.89,8.61-3.44,4.62-13.1,6.25.18,11.02,5.07,11.89,12.17,2.89,23.74-16.17,46.2-40.09,46.77-3.62.09-6.46,1.33-9.15,3.05h-9.99c2.83-2.16,5.62-4.37,8.19-6.8,3.62-3.43,5.12-8.28,4.82-13.39-.32-5.42-4.09-9.51-9-9.99-5.42-.53-8.68,1.72-10.36,7.57-2.29,7.93-7.13,13.94-14.86,16.37-11.53,3.63-23.38,6.24-35.1,9.25-1.21.31-2.48.42-3.72.51-1.24.08-2.49.02-3.53.02,7.99-3.81,16.35-6.98,23.83-11.6,7.87-4.86,12.13-12.81,13.55-21.97,2.98.51,5.61,1.47,8.13,1.24,2.55-.23,5.76-1,7.25-2.75,1.29-1.52.57-4.74.75-7.41.25-.02.95,0,1.62-.11,4.35-.74,8.55-4.29,8.65-8.02.11-4.03-3.57-5.2-6.39-6.83-.95-.55-2.03-.95-3.1-1.22-3.71-.95-7.43-1.8-10.37-2.51,2.41-3.14,5.46-6.18,7.37-9.83,2.49-4.77.98-8.27-3.28-9.99-4.5-1.83-7.81-.29-9.88,4.62-1.66,3.93-3.61,7.7-8.01,9.07-1.09.34-3.2-.03-3.71-.81-7.36-11.15-18.28-14.45-30.62-13.01-8.56.99-16.92,3.64-24.82,5.42,1.31-.89,3.18-2.3,5.18-3.51,12.83-7.71,25.85-14.97,40.93-17.39,3.44-.55,6.35-.28,7.95,3.5,1.47,3.45,4.16,5.04,8.03,4.63,4.04-.43,7.24-1.98,8.92-5.89,3.28-7.61-1.2-16.96-9.34-18.17-4.38-.65-9.03.32-13.53.8-1.68.18-3.29,1.06-5.8,1.92,1.21-3.63,2.14-6.4,3.28-9.82-3.76.33-6.76.6-9.98.89.89-3.01,1.94-5.72,2.48-8.54,1.42-7.43,1.76-14.8-3.69-21.01-3.85-4.38-8.87-5.75-14.43-4.58-4.41.93-6.84,4.12-7.75,8.43-.92,4.39,1.31,8.73,5.08,9.03,4.28.34,4.94,3.13,4.26,6.09-1.12,4.84-2.09,10.09-4.71,14.14-6.5,10.03-13.88,19.49-20.96,29.14-.72.98-1.85,1.66-2.79,2.48,1.48-3.85,3.52-7.14,5.51-10.46,9.48-15.82,6.52-32.43-7.71-42.9,2.72-.85,5.43-1.52,7.99-2.56,4.3-1.75,6.77-6.26,6.27-10.76-.35-3.14-2.23-4.76-5.15-5.14-3.06-.4-6.63-.09-7.18,3.39-.95,6.04-4.93,6.47-10.67,6.75,7.63-8.96,5.85-17.9,1.94-26.71-11.99,1.65-12.72,11.88-15.81,20.78-2.13-2.49-3.74-4.85-4.73-7.46-.33-.85.67-3.05,1.54-3.37,3.46-1.3,3.83-3.9,3.23-6.78-.67-3.22-2.83-5.05-6.27-5-4.52.07-8.38,3.1-8.79,7.95-.33,3.89.52,7.88.89,12.25-25.14-.02-33.42,18.71-40.43,38.9.66-13.72,3.67-26.8,9.67-38.99,2.35-4.77,5.83-9.21,9.62-12.97,2.21-2.19,5.97-3.35,9.2-3.86,4.51-.71,6.81-2.07,7.89-6.55,1.86-7.8-4.37-14.75-12.68-13.95-7.98.77-13.54,5.58-18.09,11.65-1.25,1.67-2.38,3.42-3.49,5.22v-9.13c1.92-2.88,3.14-6.03,3.3-9.68.59-13.24,4.48-25.13,13.6-35.11Zm107.17,287.09c-.97-1.49-2.3-2.76-3.94-4.68,1.82-.31,3.24-.53,4.64-.79,4.94-.9,6.97-3.29,6-8.17-1.15-5.78-2.91-11.44-4.46-17.37,6.76,3.31,12.53,7.81,13.64,15.98,1.12,8.25-5.37,11.11-11.28,14,4.76,8.48,2.15,15.5-6.78,19.11-4.68,1.89-10.35,2.23-14.79.98,1.66-2.68,3.27-5.49,5.14-8.13.61-.87,1.83-1.57,2.89-1.8,1.47-.32,3.06-.02,4.58-.16,5.04-.47,7.14-4.73,4.37-8.98Zm-15.16-15.13c-2.02.89-4.18,1.46-7.04,2.43,1.52,1.18,2.72,2.12,3.93,3.05,1.17.9,2.35,1.78,3.53,2.67-.15.27-.3.53-.45.8-2.29-.25-4.58-.49-6.96-.75-.04.86-.21,1.32-.06,1.63,5.05,10.8-5.24,20.15-17,16.97-7.26-1.96-14.15-5.83-20.72-9.67-5.34-3.13-10.03-7.41-14.85-11.39-1.28-1.06-1.94-2.86-3.56-5.34,14.65,2.05,28.13,2.09,42.24-.98-7.31-11.37-16.65-19.3-29.57-25.24,3.25-1.64,5.13-3.07,7.24-3.57,12.54-2.97,24.95-2.38,36.97,2.4,7.12,2.83,11.56,8.2,12.64,15.89.89,6.28-.49,8.52-6.36,11.1Zm-113.19,21.1c-1.51,1.27-3.1,3.11-5.42,1.19-2.29-1.9-4.03-4.11-2.65-7.2,1.05-2.34,2.57-4.48,4.22-7.3,1.91,2.58,3.5,4.48,4.81,6.55,1.53,2.43,1.26,4.88-.96,6.75Zm1.12-48.99c-1.44,3.52-2.82,6.92-4.21,10.32-.37.04-.75.08-1.12.13-1.2-3.37-2.4-6.75-3.73-10.47-3.23,1.26-6.4,2.51-10.61,4.15,1.15-4.2,2.07-7.59,3.07-11.24-3.7-1.21-7.22-2.36-10.73-3.5l-.07-1.25c3.63-1.09,7.26-2.18,11.23-3.38-1.26-3.47-2.48-6.81-4.13-11.36,4.23,1.48,7.4,2.59,11.05,3.87,1.26-3.41,2.53-6.85,4.28-11.59,1.97,4.57,3.46,8.04,5.04,11.71,3.04-1.17,6.18-2.38,9.32-3.58.32.29.64.57.97.86-1.16,3.29-2.31,6.58-3.53,10.05,3.56,1.19,7.03,2.35,10.5,3.51-.03.31-.05.63-.08.94-3.33,1.31-6.65,2.63-10.21,4.04,1,3.39,1.96,6.66,3.31,11.24-4.09-1.75-7.14-3.06-10.35-4.44Zm-120.91,36.22c3.03-2.26,5.16-3.84,7.87-5.85-3.01-.97-5.39-1.63-7.68-2.5-5.7-2.17-7.39-4.95-6.63-10.93.94-7.33,4.54-13.08,11.39-15.9,12.68-5.23,25.77-5.6,38.94-1.84,1.65.47,3.11,1.6,5.64,2.95-12.54,5.31-20.93,13.98-28.42,24.9,13.64,4.03,27.07,3.28,41.3,1.23-.79,1.54-1.08,2.57-1.72,3.29-10.1,11.52-22.54,19.54-37.38,23.23-8.57,2.13-15.44-2.06-16.91-9.48-.54-2.75.18-5.75.35-9.1h-6.76Zm-31.09-8.98c1.17-7.41,6.18-11.83,13.84-15.18-.71,2.2-1.22,3.52-1.56,4.87-1.12,4.44-2.45,8.86-3.18,13.37-.78,4.78.61,6.15,5.55,6.7,1.48.17,2.95.45,5.21.81-1.66,2-3.23,3.27-3.96,4.92-.85,1.92-1.85,4.57-1.12,6.14.69,1.49,3.59,2.92,5.38,2.77,4.87-.42,7.4,1.74,9.19,5.87.72,1.67,2.19,3.03,3.31,4.51-7,2.47-15.85.11-20.99-5.36-4.35-4.63-4.04-9.41-.55-14.85-6.73-2.69-12.43-6.37-11.13-14.57Zm15.43-94.69c1.13,1.86,2.42,3.61,3.94,5.88-10.09,1.71-11.14,2.97-9.52,12.62.77,4.59,2.44,9.03,3.66,13.37-6.08-1.05-12.22-7.47-13.4-14.64-1.4-8.55,4.06-12.31,10.78-14.7.07-.63.21-.95.11-1.13-4.57-8.47-2.48-15.31,6.61-18.55,4.92-1.75,10.47-1.75,16.66-2.68-2.99,4.29-4.97,7.38-7.25,10.23-.72.91-2.19,1.42-3.41,1.68-1.61.33-3.37.02-4.98.36-4,.85-5.34,4.08-3.22,7.57Zm18.77,14.91c1.19-.3,2.39-.6,4.05-1.02-2.5-2.02-4.65-3.76-6.79-5.5.14-.34.28-.68.42-1.01,2.09.13,4.19.26,6.78.42-.37-1.62-.64-2.89-.94-4.16-1.85-7.77,2.51-14.25,10.49-14.7,3.8-.21,7.93.22,11.46,1.56,11.06,4.2,20.81,10.67,29.3,18.94,1.71,1.66,2.91,3.84,4.35,5.78-.19.34-.38.68-.57,1.02-13.59-2.08-27.09-2.45-40.92,1.03,7.51,10.75,16.01,19.5,28.91,25.15-2.8,1.4-4.56,2.78-6.53,3.18-12.22,2.47-24.4,2.37-36.37-1.45-6.42-2.05-10.66-6.47-12.73-12.86-2.72-8.41.57-14.24,9.1-16.37Zm100.51-25.11c-7.63-11.39-17.09-20.14-27.91-28.72-1.98,14-4.63,26.88.31,39.94-2.83-.13-5.31-.13-7.75-.42-.98-.12-2.26-.63-2.78-1.39-6.48-9.54-13.33-18.9-19-28.91-2.05-3.62-2.19-9-1.54-13.32,1.3-8.62,11.17-11.96,19.06-6.93,2.52,1.61,4.81,3.56,7.71,5.74,0-2.85-.09-5.02.02-7.18.29-5.58,1.83-10.56,7.54-12.9,6.28-2.58,12.43-1.73,16.99,3.15,3.22,3.45,6.16,7.85,7.39,12.33,2.4,8.68,4.17,17.67,4.85,26.64.29,3.88-2.78,8.02-4.89,11.98Zm1.43,36.96c-1.16.79-4.1-.22-5.74-1.22-1.53-.94-2.7-2.8-3.5-4.51-3.46-7.38-4.61-15.24-4.57-23.28.57-.31,1.14-.62,1.71-.92,5.07,7.38,10.37,14.61,15.12,22.19,1.96,3.13-.61,6.12-3.02,7.74Zm-9.06,63.73c.85-1.79,2.39-3.64,4.1-4.54,1.52-.8,4.21-1.06,5.49-.22,2.26,1.49,4.42,4.09,2.46,7.11-4.97,7.67-10.2,15.17-15.33,22.74-.52-.28-1.05-.56-1.57-.84,0-8.39,1.19-16.6,4.84-24.26Zm-27.99-9.56c-2.96.39-6.01.07-9.01.07-.24-.49-.48-.98-.72-1.47,6.82-4.96,13.53-10.07,20.5-14.81,2.75-1.87,7.97-.11,9.36,3.49.61,1.56-.93,4.75-2.44,6.2-4.85,4.65-11.33,5.69-17.68,6.53Zm16.1,11.69c.1,3.44-3.05,7.26-6.28,6.9-1.68-.19-3.19-1.91-4.06-2.48-.13-5.36,2.42-8.27,6.12-8.37,2.65-.08,4.15,1.25,4.23,3.95Zm-33.89-36.52c4.91-7.2,10.1-7.2,18.21.16-9.08,7.2-12.58,7.13-18.21-.16Zm33.29-8.43c-.79.38-1.98.66-2.7.34-8.61-3.75-15.94-9.23-23.03-17.1,10.21-.07,19.23-.02,26.9,5.7,5.72,4.27,5.18,8.04-1.16,11.05Zm-9.84-30.89c-.03-2.6.5-4.81,3.76-4.76,3.42.05,6.75,3.57,6.99,7.07.19,2.75-1.14,3.78-3.66,3.8-4.88.04-7.03-1.81-7.09-6.11Zm8.74-96.53c-13.06-3.86-20.25,3.34-18.83,15.05.08.66.01,1.33.01,2.46-5.59-3.94-11.04-8.32-18.02-4.82-6.47,3.25-7.78,10.13-10.15,16.2-4.53-4.44-4.25-15.97.48-22.31,4.9-6.57,10.77-6.43,23.3.78.61-3.95,1.02-7.54,1.73-11.07.81-4.02,3.45-6.09,7.52-6.69,9.83-1.46,19.8,3.86,24.11,13.36-3.59-1.05-6.88-1.99-10.17-2.97Zm-48.57,243.18c3.56,4.98,6.44,11.51,11.41,15.29,6.09,4.64,12.34.13,18.37-4.48-.11,1.98-.2,3.37-.27,4.77-.42,8.36,5.03,14.1,13.33,13.32,5.07-.48,10.05-1.96,15.47-3.08-4.48,8.74-13.28,13.93-22.15,13.21-5.19-.42-7.91-2.6-9.05-7.65-.73-3.21-1.11-6.5-1.73-10.22-1.51.87-2.59,1.43-3.61,2.09-10.48,6.84-20.36,2.77-22.98-9.48-1.04-4.87-.16-11.78,1.19-13.78Zm51.64,14.11c-7.74-.11-12.85-4.79-13.43-12.57-.19-2.58-.03-5.19-.03-8.75-2.05,1.62-3.32,2.84-4.79,3.72-2.46,1.48-4.92,3.47-7.62,3.97-9.55,1.78-15.27-3.31-15.34-13.09-.07-8.42,3.96-15.23,8.68-21.73,2.63-3.61,5.84-6.86,8-10.72,3.33-5.95,8.33-7.53,14.73-7.06-4.02,12.89-2.34,25.67.29,39.27,10.46-8.64,20.42-16.57,26.7-28.58,4.01,4.27,6.92,8.26,6.02,14.24-1.58,10.48-2.8,21.03-7.56,30.71-3.18,6.47-7.97,10.67-15.65,10.57Zm32.54-184.08c2.07,1.62,4.87,3.44,3.31,6.75-1.14,2.41-2.92,4.52-4.63,7.08-5.66-5.1-6.47-8.11-3.68-11.88,1.24-1.68,2.68-3.76,5-1.95Zm39.95-74c-5.88.39-11.69,1.89-17.49,2.89,3.73-9.07,16.06-14.88,25.25-11.9,3.93,1.27,5.71,4.31,6.59,7.96.64,2.65.89,5.4,1.42,8.76,7.97-4.95,15.76-8.78,23.3-.12,4.05,4.66,5.27,16.27.83,22.15-2.68-6.12-3.8-13.38-10.59-16.37-6.9-3.04-12.53.75-18.35,5.28.15-2.82.33-4.97.37-7.12.12-7.01-4.36-11.97-11.33-11.52Zm-13.88,15.42c9.22-1.47,15.45,3.39,16.58,12.71.3,2.42.3,4.87.47,7.97,1.31-1.11,2.05-1.67,2.7-2.31,5.78-5.73,12.9-7.11,18.96-3.62,4.96,2.85,7.16,9.73,5.04,17.18-.94,3.31-2.32,6.63-4.19,9.51-4.62,7.13-9.67,13.98-14.46,21-3.05,4.48-7.46,3.24-12.04,3.31,3.69-13.06,2.57-25.78-.22-39.46-10.42,9.04-20.51,17.22-27.31,29.1-3.71-5.14-6.29-9.55-5.16-15.82,1.86-10.41,2.66-21.01,7.74-30.6,2.58-4.88,6.46-8.1,11.88-8.97Zm7.32,142.75c-1.65-.65-3.26-1.69-4.53-2.93-1.81-1.76-4.43-3.67-2.59-6.64,2.44-3.95,6.26-5.3,9.44-3.18,6.99,4.67,13.75,9.68,20.6,14.56-.3.52-.61,1.04-.91,1.56-7.56.47-14.93-.56-22-3.36Zm7.79,17.03c.01,3.36-.93,5.05-3.86,4.92-3.6-.17-6.49-3.5-6.41-7.3.06-2.5,1.05-3.91,3.74-3.79,4.09.18,6.58,2.8,6.52,6.17Zm5.12-38.49c7.01-7.25,12.46-7.17,18.05.26-9.57,7.4-8.15,7.26-18.05-.26Zm-11.88-8.14c-3.75,1.51-5.61-1.42-7.69-3.51-2.21-2.21-.66-4.5.99-5.76,3.02-2.32,6.28-4.91,9.84-5.82,5.87-1.49,12.06-1.73,18.11-2.5.18.47.37.93.55,1.4-6.62,6.24-13.08,12.69-21.8,16.19Zm-3.55-29.15c.15-3.48,3.25-6.49,6.81-6.51,2.9-.01,3.36,1.91,3.4,4.17.08,4.24-1.72,6.05-6.03,6.07-2.6.11-4.31-.68-4.18-3.74Zm-23.91-.46c4.89-7.47,10.17-14.68,15.29-21.99.45.3.9.59,1.35.89.37,7.84-.48,15.51-3.77,22.72-.9,1.96-2.24,3.83-3.75,5.38-1.94,1.99-4.56,3.26-7.04,1.14-2.43-2.07-4.05-5.13-2.08-8.13Zm2.62,66.9c.6-.66,3.34.02,4.69.8,1.62.94,3.09,2.46,4.1,4.06,4.72,7.49,5.32,15.9,5.51,24.37-.53.32-1.07.64-1.6.96-5.18-7.7-10.48-15.34-15.5-23.15-2.04-3.18,1.11-5.19,2.81-7.05Zm1.38,35.41c7.79,12.38,16.76,21.73,28.07,29.77,2.07-13.43,4.48-26.23-.02-39.41,5.93.15,10.88.78,14.16,6.09,5.04,8.14,10.66,15.93,15.49,24.19,1.51,2.58,1.6,6.18,1.71,9.33.18,5.32-1.39,10.05-6.78,12.36-5.43,2.33-10.63,1.87-15.29-2.01-1.66-1.38-3.24-2.86-5.05-4.46-.21,3.62-.03,6.81-.63,9.85-2.08,10.51-13.42,14.76-22.11,8.39-5.07-3.72-8.12-8.98-9.49-14.89-2.04-8.82-3.98-17.74-4.71-26.73-.3-3.63,2.7-7.53,4.65-12.47Zm18.8,70.43c2.99.59,6.02,1.17,9.05,1.34,8.07.46,13.44-5.31,12.68-13.39-.14-1.48-.36-2.96-.57-4.73,15.55,10.25,18.94,8.81,29.26-12.23,4.14,6.9,3.46,16.87-1.79,23.06-7.38,8.7-15.02,4.59-22.58-.67-.81,3.95-1.27,7.36-2.23,10.63-1.45,4.95-4.38,6.97-9.48,7.23-9.91.51-16.49-4.56-21.97-13.33,3.07.85,5.32,1.63,7.64,2.09Zm75.58-146.41c-10.34,2.81-20.92,3.47-31.51,1.66-2.99-.51-5.8-2.08-8.69-3.16-.02-.6-.04-1.2-.06-1.79,11.39-4.39,20.12-12,27.15-21.65.46-.64.76-1.4,1.44-2.68-13.63-3.57-27.04-2.31-41.44-1.18,1.6-2.32,2.47-4.02,3.73-5.35,8.41-8.78,18.2-15.63,29.59-19.91,3.31-1.25,7.08-1.86,10.62-1.79,9.17.16,13.89,6.38,12.16,15.35-.2,1.05-.25,2.13-.42,3.6,2.42-.26,4.5-.48,6.58-.7.19.37.37.73.56,1.1-2.24,1.61-4.49,3.23-7.4,5.32,2.1.56,3.72,1.03,5.36,1.41,6.8,1.61,9.86,6.14,8.52,12.98-1.77,9.03-7.58,14.47-16.18,16.8Zm40.26-26.94c-1.44,7.23-6.49,11.67-12.97,14.57,1.35-5.9,3.09-11.35,3.75-16.93.85-7.2-.59-8.43-7.91-8.97-.54-.04-1.08-.16-2.41-.37,1.03-1.47,2.05-2.49,2.55-3.72.99-2.48,2.53-5.2,2.17-7.57-.19-1.22-3.9-2.44-6.13-2.68-3.51-.38-6.32-.79-7.51-4.88-.62-2.1-2.54-3.83-3.85-5.68,8.02-2.4,18.64,1.27,23.08,8.21,2.75,4.29,1.36,8.24-1.93,12.53,7.93,2.3,12.85,6.99,11.16,15.51Zm11.56-11.85c2.13-3.72,5.5-4.1,9.01-3.52,2.61.43,4.51,1.97,4.69,5.75-4.84-.48-9.53,1.61-13.7-2.23ZM384.18,60.55c3.12.16,5.88,3.27,5.8,6.55-.08,3.32-2.96,5.93-6.37,5.8-2.99-.12-5.61-3.02-5.57-6.17.04-3.27,3.09-6.33,6.14-6.17Zm-3.6,93.13c.79-1.55,1.65-3.23,2.92-5.7,1.67,2.1,2.96,3.71,4.6,5.78.81.04,2.27.12,4.7.24-2.82,7.93-5.47,15.39-8.54,24-3.13-8.54-5.81-15.87-8.67-23.69,2.19-.27,3.51-.44,4.98-.62Zm-38.02-51.4c3.24-.61,7.01-.9,10.01.2,8.94,3.27,13.88,10.82,17.99,18.89,1.24,2.43,1.98,5.11,2.95,7.67-.31.2-.62.4-.92.6-2.66-4.7-6.64-7.51-11.9-8.18-3.69-.47-6.61.9-7.97,4.58-.95,2.57-.43,4.91,2.42,5.74,9.65,2.79,9.73,10.87,10.47,18.75-7.82-7.58-18.41-12.26-23.22-22.86-.63-1.38-1.08-2.85-1.5-4.32-.96-3.38-.05-5.58,3.68-6.53,1.43-.36,3.1-1.55,3.74-2.83,1.34-2.66-.76-4.63-4.13-4.87-1.59-.11-3.1-1.34-4.65-2.06.99-1.68,1.75-4.56,3.01-4.8Zm-40.53,51.59c2.19-6.69,5.89-9.64,12.89-9.71,4.26-.04,8.53.48,12.79.75-14.16,7.63-15.49,5.62-21.35,26.56-5.14-4.07-6.69-10.39-4.33-17.6Zm-32.53,8.95c1.38,7.05-2.34,11.74-9.52,11.95-2.34.07-4.69.01-7.45.01,1.51-9.32,1.37-10.31-2.52-18.54,8.23-4.49,17.97-1.21,19.49,6.58Zm-69.05,18.57c.73-2.16,2.05-4.33,3.65-5.96,2.74-2.79,6.16-4.42,10.2-2.75,3.38,1.39,5.11,5.25,4.83,9.8-.16,2.64-1.19,3.85-3.98,4.25-6.52.95-8.22,4.69-4.17,9.8,4.15,5.23,2.6,11.09,3.28,17.35-11.63-6.28-17.72-20.99-13.82-32.5Zm.33,51.44c1.06-.21,2.09-.52,3.29-.83v-5.27c12.12-.02,12.86,10.01,16.69,18.39-4.78-1.82-9.05-3.15-13.05-5.05-3.63-1.72-9.01-.72-10.96-6.63,1.88-.28,2.96-.4,4.03-.61Zm-47.37,11.99c-3.33-.95-5.96-5.07-4.22-8.26,1.97-3.63,4.77-7.23,8.1-9.59,5.11-3.64,11.39-4.33,17.63-3.57,7.01.86,10.43,5.3,10.07,12.99-4.09-.88-7.84-2-11.67-2.45-5.93-.69-10.03,1.91-11.92,6.97-1.43,3.86-3.93,5.08-7.99,3.92Zm-.79,83.32c-5.22,9.55-2.01,12.72,3.43,13.26.32,3.02.36,5.98,1.07,8.78.25.99,2.06,2.12,3.27,2.26,8.25.95,7.84-6.09,9.8-11.34,2.05.79,3.92,1.61,5.85,2.24,4.81,1.57,9.26-.87,9.19-5.89-.07-4.73-1.25-9.61-2.83-14.11-1.23-3.49-4.77-3.68-9-2.04-3.44,1.34-7.11,2.6-10.73,2.78-1.99.1-4.97-1.58-5.98-3.34-2.21-3.82-3.66-8.14-4.94-12.39-.35-1.18.78-4,1.6-4.16,6.22-1.21,12.53-2.04,18.84-2.71.71-.08,1.92,1.44,2.36,2.46,1.28,2.93,2.17,6.04,3.42,8.98,1.92,4.52,6.11,6.46,10.19,3.88,3.78-2.39,7.29-5.62,9.98-9.18,2.73-3.61-.25-8.93-5.37-11.34-1.53-.72-2.73-2.12-4.08-3.22,1.21-1.45,2.21-3.19,3.69-4.27,2.34-1.71,2.82-3.72,1.86-6.2-1.16-3.01-3.57-4.54-6.61-3.68-1.85.52-3.44,2.15-4.99,3.47-1.18,1-2.13,2.29-3.49,3.79-.26-1.08-.45-1.47-.43-1.84.15-3.49-.5-6.6-4.5-7.4-3.98-.79-7.12,1.19-8.45,4.64-1.29,3.35-1.41,7.14-2.08,10.93-3.69.48-5.97-1.11-6.84-5.62-1.82-9.52,2.93-16.59,9.39-22.47,14.91-13.57,40.06-14,56.11-1.56,4.7,3.64,9.85,6.71,14.84,9.98.63.41,1.5.44,3.25.91-1.4-4.3-2.57-7.9-3.93-12.06,4.3,1.47,8.28,2.83,13.69,4.67-1.39-3.22-2.05-5.55-3.31-7.5-3.63-5.61-7.98-10.81-11.18-16.64-9.72-17.72-4.85-41.93,10.37-53.54,5.56-4.24,15.31-4.5,20.89-.44,1.16.84,2.02,2.1,3.66,3.85-3.38.41-5.83.62-8.24,1.01-7.08,1.13-11.75,5.24-11.26,10.69.21,2.28,1.79,5.14,3.64,6.31,1.25.79,4.1-.88,6.2-1.55,1.59-.51,3.12-1.17,5.61-2.13,0,2.75-.07,4.5.01,6.25.2,4.37,2.53,6.47,6.85,5.5,3.01-.68,5.4-.17,7.79,1.55,2.64,1.91,5.23,1.49,6.85-1.18,2.28-3.78,4.7-7.65,5.98-11.82,1.74-5.67-.97-9.04-6.86-9.93-9.11-1.37-11.95-6.53-7.86-15.02,5.51-11.43,1.9-10.67,15.29-6.63,8.31,2.51,9.81,5.83,6.85,13.98-.29.78-.66,1.54-.99,2.3-4.05,9.44-2.56,12.67,7.22,15.55,1.47.43,2.96.81,4.47,1.08,6.39,1.15,9.92-2.23,8.79-8.68-.45-2.55-1.62-4.97-2.69-8.12,2.73-.24,5.4-.61,8.08-.68,3.81-.09,6.62-1.81,7.67-5.34,1.17-3.92,1.49-8.1-1.49-11.53-2.14-2.46-4.91-1.91-7.76-1.15-3.12.83-6.34,1.24-9.96,1.92,6.05-18.48,23.24-24.48,38.34-14.18,11.78,8.03,17.36,19.64,19.14,33.41.74,5.73.77,11.67,4.2,16.56v8.95c-3.3-5.51-7.28-10.46-13.21-13.4-3.79-1.88-8.51-2.76-12.75-2.61-5.5.19-8.86,5.65-8.52,11.95.3,5.5,2.79,7.56,8.94,8.26,2.36.27,5.07,1.17,6.77,2.71,3.36,3.07,6.51,6.53,9.05,10.29,5.97,8.82,8.44,19.05,10.69,29.28,1.03,4.68,1.64,9.46,2.43,14.19-3.15-5.53-5.25-11.29-7.85-16.81-5.3-11.29-13.33-19.56-26.1-22.05-2.8-.55-5.69-.62-8.14-.88.54-3.65,1.49-7.04,1.45-10.41-.07-5.41-3.46-9.24-8.01-9.8-3.77-.47-6.31,1.4-7.32,4.84-.86,2.93-.87,5.9,3.18,6.9.72.18,1.62,1.17,1.76,1.92.51,2.61-2.99,7.42-5.9,8.43-3.76-16.21-5.13-18.12-14.8-20.43-4.21,8.88-5.85,17.62,2.5,26.63-4.81-.76-8.95.88-10.3-4.43-1.16-4.56-4.77-6.55-9-5.23-3.73,1.16-5.7,4.99-3.73,9.17,1.26,2.69,3.75,5.06,6.23,6.84,1.97,1.41,4.75,1.7,7.69,2.66-11.25,6.27-14.92,15.96-12.89,27.49,1.04,5.88,4,11.47,6.48,17.01,1.39,3.12,3.58,5.88,5.41,8.81-11.66-10.57-21.34-22.51-27.22-37.11-1.28-3.18-1.87-6.67-2.49-10.07-.47-2.55.52-4.16,3.47-4.55,4.36-.57,5.97-3.69,6.08-7.75.14-5.13-2.95-9.09-7.98-10.37-6.41-1.63-13.6,1.11-16.14,7.37-1.76,4.34-2.4,9.42-2.31,14.14.08,4.25,1.82,8.48,2.88,12.92h-9.67c.94,2.93,1.74,5.45,2.54,7.96-4.83-.91-9.27-2.11-13.79-2.54-9.99-.95-16.74,6.3-15.31,16.04.59,3.98,3.76,7.48,7.82,8.35,3.65.78,6.93.2,9.29-3.11,4.09-5.75,4.67-6.11,11.7-4.27,13.35,3.48,25.45,9.8,37.26,16.76,1.08.64,2.16,1.28,3.17,2.02,1,.74,1.9,1.61,2.85,2.42-9.8-3.57-19.39-6.71-29.81-6.53-10.39.18-19.27,3.21-24.85,12.63-1.8,3.03-4.27,2.99-6.2,1.09-2.4-2.37-4.39-5.33-5.94-8.35-2.77-5.4-6.26-7.15-10.95-4.86-4.15,2.03-5.23,5.95-2.3,11.05,1.87,3.26,4.68,5.98,7.11,9-1.46.23-3.18.26-4.74.79-4.44,1.5-8.95,2.92-13.16,4.92-3.59,1.71-3.23,4.64-1.21,7.68,2.48,3.73,6.36,4.7,10.31,5.62-3.16,5.15-1.4,9.23,4.42,9.44,3.35.12,6.74-.69,10.4-1.12,1.09,9.15,5.58,16.98,13.34,21.97,7.38,4.74,15.71,8.01,23.05,11.65.36-.03-.17.13-.63.03-12.88-2.94-25.85-5.51-38.58-9.01-8.77-2.41-14.28-8.74-16.83-17.67-1.53-5.34-5.11-7.4-10.45-6.77-4.57.53-8,4.01-8.66,8.87-.7,5.14.44,10.14,4.07,13.58,3.35,3.18,7.02,6.02,10.72,8.82h-9.99c-3.48-2.79-7.36-4.63-12.59-4.88-28.26-1.38-40.72-27.74-38-47.68.93-6.83,5.92-11.29,11.38-10.91Zm73.69,20.28c-3.26.92-5.67,1.73-8.14,2.27-2.37.52-4.79.77-7.19,1.14,1.27-2.22,2.02-5.4,3.92-6.43,3.46-1.86,7.25-.81,11.4,3.02Zm-63.58,49.74c-6.84,2.61-12.47,4.87-18.18,6.89-2.49.88-5.19,1.91-5.5-2.74-.08-1.25-2.65-2.34-3.81-3.28,1.55-2.67,2.84-5.15,4.42-7.43.4-.57,1.86-.91,2.6-.66,6.52,2.19,12.98,4.55,20.48,7.21Zm-36.57-120.9c.13-.51.54-1.36.83-1.37,3.5-.04,7.11-.42,10.48.28,1.71.36,3.58,2.47,4.34,4.24.9,2.07.69,4.63.96,6.97-.06,0-.13.01-.19.02,0,.42.03.84,0,1.25-.22,2.7.54,6.2-2.93,7.08-3.65.92-7.7.94-10.47-2.34-3.99-4.73-4.54-10.29-3.03-16.13Zm-1.14,42.47c.94-4.47,4.32-7.15,8.49-7.41,4.12-.25,7.5,1.19,9.21,5.06.45,1.01-.18,3.59-.91,3.86-9.77,3.61-11.63,11.49-11.51,20.54,0,.68,0,1.37,0,2.05-4.89-7.44-7.11-15.43-5.28-24.1Zm-25.99,44.49c-1.47-1.19-2.72-3.31-3-5.16-.27-1.8.85-3.8,1.36-5.72,1.63.67,3.27,1.34,5.22,2.14,7.44-5.75,12.69-5.45,19.27,2.8,5.26,6.59,9.57,13.93,14.56,21.32-12.46,1.24-16.13-8.75-21.37-16.68-5.46,4.16-10.75,5.59-16.05,1.31Zm12.59,80.05c-3.02.32-6.26-1.38-9.4-2.19,0-.28.02-.56.02-.83-1.7.43-3.39.85-5.09,1.28-.34-2.35-1.47-4.93-.88-7.01,1.63-5.77,9.84-8.25,15.41-5.05,1.07.61,2.04,1.39,3.61,2.47,1.23-1.77,2.77-3.27,3.44-5.09,3.16-8.5,9.36-12.06,18.75-11.76-5.98,8.19-11.52,16.28-17.67,23.88-1.82,2.25-5.3,4-8.19,4.3Zm30.86,65.22c-.39,8.75-3.18,11.23-11.96,11.03-2.74-.06-4.68-1.23-4.49-3.77.33-4.48.81-9.11,2.28-13.31,1.27-3.64,7.97-5.62,11.67-4.11.94.38,1.88,1.64,2.14,2.66.44,1.73.34,3.59.47,5.4-.04,0-.07,0-.11,0,0,.7.03,1.4,0,2.09Zm.74-33.57c-.91,2.26-2.29,5.04-4.29,6.03-6.85,3.41-13.73-1.14-14.49-9.07-.72-7.58,1.36-14.46,5.35-21.55.49,3.83.86,6.99,1.3,10.14.73,5.26,3.6,8.8,8.46,11,1.52.69,3.91,2.86,3.67,3.45Zm31.44,95.43c-9.05,1.28-17.24-.6-23.32-8.08-2.26-2.79-3.07-6.01-1.12-9.31,1.65-2.81,4.32-4.04,7.48-3.25,1.27.32,2.87,1.4,3.33,2.54,2.94,7.35,6.89,9.6,14.67,7.8,3.1-.72,6.15-1.69,9.58-2.66-.35,7.52-3.94,12.01-10.62,12.96Zm44.18,45.19c-1.32,5.13-5.43,7.79-9.94,6.35-6.13-1.96-8.53-6.89-9.36-12.67-1.59-11,3.85-21.53,14.15-27.49.64,6.71.64,12.72-3.61,18.23-2.89,3.75-1.29,6.67,3.48,7.9,5.04,1.29,6.41,3.29,5.27,7.69Zm-15.12-46.62c2.58-7-2.18-6.58-6.43-6.4.04-3.91,1.33-5.98,4.94-6.99,6-1.68,11.85-3.89,17.74-5.87-3.85,14.63-6.19,18.69-16.25,19.27Zm60.48,70.87c-3.86,1.03-8.17.56-12.27.39-.59-.03-1.85-2.44-1.53-3.21,3.28-7.67,3.36-7.64,2.52-15.18,3.06,0,5.82-.06,8.57.01,4.01.1,7.03,1.51,7.78,5.98.94,5.67-.71,10.84-5.08,12Zm39.16,5.24c-4-7.05-3.02-16.74,2.49-21.37,2.11,5.34,3.22,11.62,6.71,16.01,3.36,4.22,9.19,6.49,13.44,9.29-9.46,3.58-19.58,1.46-22.64-3.93Zm69.17,24.1c-3.08,7.65-7.89,14.1-14.08,19.49-3.5,3.05-7.7,4.57-12.37,4.07-1.72-.18-3.64-.82-4.94-1.89-.97-.8-1.58-2.71-1.38-3.98.12-.76,2.03-1.47,3.25-1.77,2.01-.49,4.72.61,5.24-2.74.51-3.28-1.23-5.09-4.09-5.83-3.6-.93-4.15-3.67-2.91-6.12,2.35-4.64,4.86-9.47,8.41-13.16,4.58-4.76,10.24-8.48,15.43-12.64.31.17.63.34.94.51-.96,3.75-1.41,7.74-3.04,11.17-1.13,2.37-3.68,4.32-6.02,5.79-2.09,1.31-5.19,1.59-4.55,4.94.67,3.5,3.09,5.56,6.77,5.74,4.85.24,8.62-1.85,11.52-5.64.82-1.07,1.61-2.15,3.21-2.88-.46,1.65-.77,3.36-1.41,4.93Zm.68-73.92c-.98,5.89-1.88,11.88-3.73,17.52-3.18,9.73-9.32,17.43-18.26,22.62-15.28,8.88-30.62,2.97-36.68-14.87,3.32.6,6.3.81,9.06,1.72,5.74,1.88,8.62,1.06,10.23-3.45,2.09-5.84.01-11.77-5.05-13.24-3.14-.91-6.54-.94-9.93-1.38.76-2.45,1.91-4.85,2.19-7.34.72-6.22-3.43-9.82-9.49-8.35-2.7.65-5.37,1.56-7.91,2.68-5.35,2.36-6.67,6.06-4.32,11.46,5.62,12.93,4.9,14.52-8.63,18.98-6.4,2.11-6.45,2.14-9.28-3.85-1.3-2.77-2.72-5.56-3.42-8.51-1.32-5.56,2.13-9.58,7.69-9.48,6.77.12,10.4-3.95,8.46-10.41-1.22-4.05-3.61-7.79-5.75-11.51-1.59-2.76-3.96-2.78-6.89-1.67-2.42.92-5.25,1.45-7.8,1.18-4.85-.52-6.95,1.07-7.17,6.15-.06,1.34-.54,3.59-1.24,3.76-1.37.34-3.02-.55-4.57-.83-2.29-.41-5.18-1.74-6.74-.83-1.7.99-2.9,4.06-3,6.28-.18,4.07,2.21,7.28,6,8.76,2.8,1.1,5.93,1.36,8.9,2.03,1.27.29,2.53.65,3.79.98-.73,1.41-1.12,3.2-2.23,4.15-4.85,4.1-14.36,3.98-20.45-.17-7.92-5.39-12.31-13.29-14.57-22.28-3.43-13.65-1.54-26.6,6.48-38.4,2.2-3.23,4.7-6.24,6.86-9.49,1.32-1.98,2.26-4.21,3.95-7.45-3.24.72-5.1,1.09-6.93,1.54-1.87.47-3.72,1.02-6.02,1.66,1.24-3.82,2.34-7.2,3.62-11.15-5.89.4-9.65,2.9-13.12,5.96-13.47,11.87-29.05,14.99-46.1,10.5-11.26-2.97-19.71-9.85-23.59-21.16-1.04-3.02-1.1-6.64-.63-9.84.54-3.66,2.98-6.1,7.1-5.93,0,2.51-.5,4.85.12,6.84.83,2.68,2,5.7,4.01,7.43,1.68,1.45,5.04,2.16,7.16,1.52,1.56-.47,2.41-3.58,3.37-5.61.37-.78.16-1.84.28-3.88,1.8,2.34,2.71,4.43,4.3,5.36,2.24,1.32,5.1,2.64,7.47,2.3,1.49-.21,3.23-3.32,3.57-5.35.25-1.47-1.46-3.41-2.57-4.94-.92-1.27-2.63-2.07-3.23-3.41-.32-.72.7-2.52,1.6-3.17,1.18-.85,2.94-.85,4.26-1.57,5.39-2.95,6.29-7.71,2.45-12.48-3.05-3.79-6.68-6.72-11.69-7.44-3.47-.5-6.04.52-7.19,4.11-.55,1.72-1.29,3.39-1.85,5.11-2.28,6.9-2.67,7.62-9.78,6.49-5.04-.8-9.83-3.2-14.73-4.88,1.95-4.87,3.63-9.88,5.96-14.57,1.38-2.77,7.29-3.53,11.59-2.13.92.3,1.8.76,2.66,1.22,7.38,3.94,9.92,2.92,12.42-5.03.21-.66.4-1.34.53-2.02,2.13-10.57-.56-17.3-12.93-12.41-.49.19-1.06.18-1.98.33-1.03-5.41-.92-12.06-8.98-11.47-4.16.3-5.23,3.24-4.68,10.77-7.34,2.31-8.33,6.06-3.52,13.38-5.9.23-10.72-4.77-11.66-12.11-2.98-23.13,16.22-44.99,39.52-45,4.5,0,7.49-.76,10.45-3.12h7.59c-1.68,1.23-3.32,2.52-4.85,3.91-5.72,5.22-8.47,11.85-5.79,19.64,2.19,6.35,10.16,8.24,15.04,3.58,1.53-1.46,2.78-3.57,3.36-5.61,2.31-8.23,7.42-13.76,15.53-16.1,9.5-2.75,19.11-5.14,28.73-7.44,4-.96,8.14-1.28,12.22-1.9.14.32.28.64.41.96-17.54,5.03-33.49,11.94-37.94,32.02-12.38-3.34-15.74-1.57-16.2,8.28-1.14.45-2.33.86-3.47,1.38-3.6,1.67-5.87,4.67-5.99,8.45-.12,3.89,3.61,4.9,6.53,6.12,1.66.69,3.45,1.09,5.22,1.48,2.91.65,5.84,1.18,7.85,1.58-2.47,3.74-5.57,7.2-7.24,11.26-2.4,5.85.6,9.46,6.91,9.48,3.64.02,5.24-2.17,6.82-5.12,1.71-3.19,3.95-6.22,6.5-8.79,1.73-1.75,3.76-1.38,5.41,1.24,4.18,6.6,10.42,10.25,18.11,11.62,8.92,1.59,17.5.12,25.99-2.49,3.46-1.06,6.89-2.22,10.33-3.34-.16.97-.54,1.36-.99,1.66-12.28,8.44-25.78,14.37-39.77,19.27-2.07.72-4.48,1.3-6.55.93-2.21-.39-4.91-1.48-6.14-3.17-2.44-3.38-5.27-4.83-9.25-4.22-4.42.68-7.4,3.11-8.6,7.48-2.57,9.36,3.89,17.73,13.62,17.32,3.43-.15,6.83-1.14,10.22-1.87,1.68-.36,3.29-1.01,5.5-1.72-1.2,3.64-2.12,6.45-3.2,9.71h9.8c-1.1,3.99-2.43,7.66-3.1,11.44-1.56,8.77,1.98,16.61,8.73,20.08,6.51,3.35,14.38.86,17.05-5.4,2.27-5.33.51-9.64-4.8-11.01-2.92-.75-4.17-2.61-3.61-5.16,1.09-5,1.65-10.54,4.26-14.7,6.65-10.59,14.29-20.55,21.59-30.72.45-.63,1.35-.92,2.05-1.38-.71,2.43-2.03,4.26-2.89,6.28-2.47,5.73-5.68,11.35-6.91,17.36-2.26,11.05-.59,21.48,9.1,29.08.79.62,1.56,1.27,2.52,2.04-2.62.87-4.95,1.41-7.07,2.39-4.67,2.15-6.98,6.33-6.45,11.13.37,3.36,2.05,5.52,5.58,5.59,3.3.07,6.36-.27,7.4-4.43,1.47-5.88,3.14-6.78,10.03-5.69-7.25,8.68-6.39,17.59-1.76,26.48,12.43-2.06,12.56-12.24,15.23-21.26,2.09,2.16,3.75,4.41,5.13,6.82,1.11,1.94.52,3.57-1.74,4.22-3.08.88-4.25,3.34-3.16,5.78.93,2.1,3.11,4.47,5.2,5.04,3.81,1.05,6.97-.92,8.91-4.57,2.77-5.24,1.34-10.2-1.34-15.33,10.98.24,19.76-3.58,27.07-11.08,7.26-7.44,10.64-16.89,14.09-26.34.36-.97.82-1.91,1.23-2.86.53.17,1.06.35,1.59.52-3.03,11.12-5.4,22.48-9.32,33.28-2.36,6.51-6.86,12.32-10.88,18.11-2.47,3.55-6.46,4.86-10.9,5.34-2.14.23-4.79,1.85-5.99,3.65-4.63,6.98.87,16.84,9.25,17.02,5.98.13,10.99-2.48,14.89-6.6,3.25-3.43,6.16-7.19,9.11-10.98v9.81c-2.21,2.95-2.99,6.28-3.58,9.8Zm-148.34-147.76c-1.3,1.02-2.46,2.57-3.93,2.98-4.64,1.29-7.74-.6-9.78-5.86,3.29,0,6.24-.33,9.06.13,1.65.27,3.1,1.8,4.64,2.76Zm159.28,288.13c-3.3,0-5.96-2.78-5.95-6.25,0-3.26,2.85-6.44,5.8-6.5,3.24-.07,6.13,2.74,6.23,6.05.11,3.48-2.81,6.69-6.09,6.69Zm.09-88.97c-2.84-1.94-2.02-8.08-7.81-5.28-.26-.28-.51-.56-.77-.85,2.62-7.15,5.24-14.29,7.86-21.44.33-.03.67-.06,1-.09,2.69,7.07,5.39,14.14,8.61,22.58-6.13-2.42-6.91,2.13-8.89,5.07Zm41.03,45.1c-3.18.82-7.3,1.27-10.07-.1-10.67-5.26-17.19-14.27-20.44-25.66-.09-.32.18-.74.19-.8,2.71,2.19,5.19,4.89,8.24,6.5,5.11,2.71,10.43,1.25,12.46-2.82,1.18-2.35,1.57-5.15-1.58-5.79-8.18-1.68-10.27-7.64-11.29-14.63-.16-1.06-.48-2.1-.36-3.41,7.7,6.54,17.05,11.06,22.57,19.93,1.09,1.76,2.01,3.68,2.65,5.65.87,2.65.72,4.98-2.86,5.59-1.19.2-2.79.73-3.28,1.62-.86,1.56-1.34,3.52-1.27,5.29.02.56,2.29,1.08,3.57,1.53,1.67.59,3.36,1.08,5.05,1.62-1.17,1.91-2.03,5.08-3.59,5.48Zm40.08-48.14c-3.85,7.25-13.14,9.3-24.9,4.9,13.98-2.62,20.1-11.65,20.68-25.26,6.66,4.96,8.14,12.99,4.22,20.36Zm40.28-2.78c-4.73-1.09-7.51-5.66-7.12-11.28.35-4.99,2.97-7.55,8.38-7.91,2.74-.18,5.49-.03,9.07-.03-2.37,6.37-1.12,11.86,2.45,17-4.3,2.58-8.45,3.22-12.79,2.23Zm61.85-26.36c-.98,2.2-2.64,4.31-4.47,5.89-2.83,2.43-6.33,3.1-9.71,1.04-3.33-2.03-4.21-5.36-3.87-9.07.25-2.66,1.32-4.19,4.42-4.36,5.59-.3,7.41-3.72,4.11-8.52-3.72-5.4-3.53-11.17-3.5-17.64,12.08,6.32,17.99,21.45,13.02,32.66Zm-.47-51.65c-1.95.19-3.14.77-2.54,3.16.78,3.12-.98,3.69-3.54,3.03-4.09-1.06-7.38-3.02-8.84-7.35-1.3-3.87-2.85-7.65-4.4-11.77,7.27,2.34,14.02,4.3,20.56,6.78,1.45.55,2.21,2.95,3.97,5.48-2.83.37-4.02.57-5.22.68Zm47.12-13.07c3.66,1.04,6.36,5.28,4.7,8.47-1.72,3.31-4.25,6.57-7.24,8.76-5.4,3.95-11.93,4.43-18.41,3.4-5.9-.93-8.61-4.82-9.51-13.15,3.26,1.01,6.34,2.13,9.51,2.9,6.41,1.55,11.53-.73,13.59-6.51,1.4-3.93,3.8-4.89,7.35-3.87Zm8.53-86.39c-1.94,1.49-4.38,2.35-6.77,3.1,4.4-8.78,3.25-12.69-3.6-13.44-.45-3.01-.57-5.99-1.47-8.72-.35-1.07-2.36-1.96-3.75-2.25-4.1-.84-6.41,2.07-9.22,11.52-1.91-.56-3.82-1.16-5.76-1.68-6.19-1.64-10.03,1.25-9.61,7.61.22,3.3.91,6.66,1.97,9.8,1.8,5.35,4.93,6.42,10.16,4.03,1.87-.86,3.75-2.05,5.72-2.27,8.07-.91,10.3.74,13.79,9.5,3.13,7.84,2.45,9.24-5.72,11.64-1.06.31-2.17.53-3.27.66q-10.46,1.24-13.93-8.77c-2.63-7.58-7.98-9.35-14.54-4.49-3.92,2.9-8.3,6.11-7.42,11.74.83,5.32,5.78,6.63,11.3,8.35-1.51,2.1-2.41,4.31-4.06,5.44-2.94,2.03-3.97,4.36-2.35,7.62,1.49,3,4.76,4.4,7.74,2.56,2.49-1.53,4.4-4,6.74-6.21.26,1.26.21,2.76.87,3.8,1.18,1.87,2.75,4.85,4.22,4.89,2.54.08,5.81-1.1,7.57-2.91,3.28-3.37,3.73-7.96,2.24-12.47,4.3-1.41,7.42.73,8.12,5.62.84,5.91-.52,11.38-4.08,16.23-5.22,7.13-12.13,12.02-20.67,14.12-15.62,3.83-30.44,2.84-43.49-8-3.3-2.74-7.11-4.88-10.78-7.13-1.2-.74-2.73-.94-5.15-1.73,1.51,4.55,2.7,8.1,4.01,12.05-3.27-.91-6.01-1.77-8.81-2.4-1.11-.25-2.34.03-3.52.06.31,1.27.3,2.77,1,3.77,2.64,3.76,5.53,7.35,8.31,11.02,12.61,16.64,11.88,40.79-1.71,56.54-6.77,7.85-14.41,10.4-22.67,7.15-2.39-.94-4.39-2.9-6.56-4.39.13-.46.27-.93.4-1.39,1.35-.4,2.69-.87,4.06-1.2,2.97-.71,6.06-1.06,8.93-2.07,4.27-1.51,6.92-5.94,5.99-10.33-.41-1.94-1.87-4.3-3.53-5.14-1.32-.67-3.67.65-5.54,1.15-1.51.41-3.25,1.6-4.39,1.16-.92-.35-1.41-2.61-1.53-4.07-.38-5.01-2.53-6.56-7.41-5.86-2.28.33-4.98.06-7.03-.9-3.22-1.52-5.89-1.34-7.65,1.56-2.35,3.87-4.8,7.9-6,12.2-1.52,5.45,1.88,9.07,7.63,9.38,7.7.41,10.32,4.26,7.82,11.71-.88,2.64-2.32,5.1-3.12,7.76-1.19,3.92-3.52,4.45-6.95,3.04-2.58-1.06-5.25-1.89-7.83-2.94-5.71-2.33-7.19-5.89-4.9-11.79.91-2.34,2.06-4.58,2.98-6.91,1.48-3.78.38-7.03-3.29-8.7-3.28-1.5-6.71-2.81-10.2-3.7-6.19-1.58-10.68,3.14-9.13,9.43.5,2.02,1.36,3.95,2.28,6.52-2.38.23-4.65.47-6.91.67-7.02.63-10.78,6.61-8.29,13.22,1.5,3.99,4.43,5.47,8.59,4.5,3.45-.81,6.95-1.45,10.75-2.23-2.76,13.8-15.66,21.78-28.74,18.35-14.49-3.8-22.06-14.47-26.39-27.82-1.75-5.38-1.95-11.25-3.37-16.76-.67-2.57-1.68-5.05-2.72-7.53v-10.33c4.03,4.63,7.91,9.47,12.57,13.37,2.64,2.21,6.85,3.23,10.44,3.48,6.08.41,10.71-4.63,10.97-10.82.28-6.8-2.26-8.89-9.7-10.26-3.23-.6-6.66-2.91-8.94-5.4-12.75-13.92-15.19-31.76-18.1-49.49,8.12,19.03,15.63,38.55,41.54,38.69-.69,1.84-1.36,3.36-1.82,4.93-2.15,7.3,1.58,14.04,8.11,14.71,4.09.42,6.16-1.92,7.29-5.47,1.06-3.33-.6-4.84-3.56-5.87-.78-.27-1.82-2.16-1.55-2.72,1.4-2.89,3.19-5.6,4.85-8.37.45.21.9.42,1.36.62.2,1.34.31,2.71.63,4.02,1.62,6.71,2.22,14,10.53,16.6,2.35.74,3.6.67,4.38-1.87,2.24-7.26,3.55-14.41-1.07-21.32-.55-.82-.74-1.88-1.16-2.99,7.52.28,7.67.44,9.67,6.72,1,3.15,3.54,4.06,6.57,4.02,3.18-.03,5.35-1.39,5.97-4.69.9-4.73-1.17-9.19-5.63-11.59-2.58-1.39-5.34-2.45-8.34-3.8,8.21-4.53,11.78-11.47,12.63-20.27.95-9.76-1.55-18.5-6.77-26.63-1.48-2.31-2.93-4.64-4.39-6.96.31-.19.61-.39.92-.58,10.18,10.91,19.71,22.32,25.64,36.25,1.34,3.14,1.84,6.71,2.27,10.14.41,3.23-.75,5.48-4.54,6.26-1.61.33-3.51,2.35-4.08,4.01-2.15,6.19,2.04,12.32,8.55,13.09,8.9,1.05,16.73-4.67,17.13-13.72.28-6.32-1.24-12.72-1.97-19.13,2.3.18,5.44.43,9.35.73-1.4-3.69-2.55-6.72-3.96-10.44,2.46.81,4.35,1.65,6.33,2.04,3.8.76,7.66,1.83,11.48,1.76,9.46-.17,15.19-10.75,11.04-19.24-2.81-5.75-13.98-7.72-17.16-1.36-.79,1.58-3.63,2.67-5.67,2.96-2.24.32-4.74-.23-6.97-.93-13.52-4.22-26.2-10.31-38.18-17.85-1.02-.64-1.87-1.54-2.26-1.87,7.64,1.69,15.55,4.07,23.63,5.09,12.32,1.56,23.31-1.28,30.93-12.3.6-.86,3.48-1.36,4.09-.77,2.83,2.71,5.65,5.6,7.68,8.92,2.79,4.55,6.4,6.28,10.71,4.13,3.93-1.95,5.11-6.2,2.42-10.75-1.86-3.14-4.46-5.84-6.86-8.89,1.29-.22,2.7-.29,3.99-.72,3.94-1.32,8.04-2.4,11.7-4.3,4.47-2.31,5.08-5.34,1.76-9.15-2.04-2.35-5.16-3.76-8.12-5.83.77-8.94-1.72-10.39-15.36-8.02-4.84-20.02-21.2-26.28-38.38-31.61,1.39-.28,2.65-.49,3.81-.25,11.58,2.47,23.22,4.74,34.7,7.61,9.73,2.43,16.42,8.48,19.37,18.41.55,1.86,1.94,3.76,3.46,4.98,3.35,2.69,7.2,2.14,10.59.08,4.15-2.51,5.36-6.7,4.78-11.28-.96-7.51-5.75-12.51-11.6-16.66-.59-.42-1.2-.83-1.79-1.25h8.09c2.87,2.64,6.02,4.51,10.59,4.61,22.83.49,40.57,17.43,41.26,39.07.18,5.68-.18,11.35-5.19,15.19Zm-79.58-15.51c3.53-5.41,8.8-2,13.04-3.26.31.47.62.94.93,1.41-1.79,1.54-3.34,3.74-5.41,4.46-3.02,1.06-6.27.65-8.56-2.61Zm99.33,68.65c-.18.85-.86,1.82-1.6,2.3-4.97,3.27-14.46-1.53-14.84-7.45-.1-1.52-.14-3.05-.16-3.63,0-1.23-.04-1.52,0-1.79.47-2.66-1.4-6.33,2.53-7.54,3.97-1.22,7.88-.34,10.68,2.84,3.87,4.38,4.56,9.69,3.37,15.27Zm1.07-42.58c-.56,4.29-4.57,7.57-9.05,7.98-4.58.42-8.48-1.63-9.65-5.57-.32-1.08.54-3.54,1.33-3.77,9.49-2.8,12.02-9.96,12.25-18.72.02-.68.14-1.35.31-3.02,4.68,7.85,5.82,15.31,4.81,23.09Zm20.81-45.69c4.37.02,8.18,4.34,8.08,8.63-.04,1.69-1.38,3.35-2.13,5.03-1.36-.66-2.71-1.31-4.53-2.19-5.75,5.59-10.86,5.72-16.92-.36-2.72-2.73-4.84-6.09-7.05-9.29-3.31-4.79-6.46-9.68-9.63-14.47,6.38-1.16,12.85,2.21,16.21,8.38,1.48,2.72,3.28,5.27,4.16,6.66,4.85-1.04,8.34-2.39,11.83-2.38Zm-12.64-63.67c-.98,1.84-1.96,3.69-2.89,5.55-3.41,6.85-9.42,8.86-16.75,9.09,4.46-6.89,8.44-13.42,12.83-19.65,1.89-2.67,4.35-5.15,7.05-7,5.25-3.59,9.18-2.8,14.03,2.08.25.03.57.17.75.06,1.39-.8,2.76-1.64,4.14-2.47.49,2.01,1.77,4.22,1.33,6.01-1.73,6.97-10.21,9.85-15.96,5.47-2.25-1.71-3.38-1.32-4.53.84Zm63.05,39.43c-3.76,0-6.53-2.65-6.45-6.18.08-3.42,3.01-6.48,6.3-6.58,3.55-.1,6.65,2.73,6.65,6.07,0,3.81-2.8,6.69-6.51,6.69Z"/></svg>