<?xml version="1.0" encoding="UTF-8"?><svg id="Layer_5" xmlns="http://www.w3.org/2000/svg" viewBox="0 0 775.63 807.33"><defs><style>.cls-1{fill:none;stroke:red;stroke-miterlimit:10;}</style></defs><path class="cls-1" d="m146.95,756.53c.62-2.46.88-3.77,1.28-5.03,28.04-88.12,56.07-176.24,84.25-264.31,1.22-3.81.58-5.86-2.53-8.26-35.03-26.88-69.88-54.01-104.94-80.86-39.72-30.41-79.61-60.6-119.42-90.9-1.08-.82-2.09-1.72-4.21-3.47,2.66,0,4.09,0,5.52,0,94.1,0,188.19-.05,282.29.08,4.28,0,5.85-1.44,7.22-5.32,17.4-49.24,35.01-98.41,52.57-147.6,12.31-34.5,24.62-69.01,36.93-103.51.5-1.41,1.03-2.8,1.83-4.97.74,1.45,1.21,2.2,1.51,3.01,22.23,61.11,44.48,122.22,66.65,183.35,8.55,23.56,16.95,47.18,25.36,70.79.88,2.47,1.52,4.27,4.99,4.26,94.24-.14,188.47-.13,282.71-.15,1.36,0,2.71,0,5.23,0-4.39,3.48-7.97,6.4-11.64,9.2-62.97,48.17-125.96,96.31-188.93,144.48-9.19,7.03-18.22,14.26-27.48,21.19-3.12,2.34-3.68,4.33-2.39,8.3,9.94,30.46,19.45,61.05,29.14,91.58,18.15,57.22,36.33,114.42,54.48,171.63.58,1.83,1.03,3.69,1.87,6.71-3.21-2.01-5.5-3.36-7.71-4.84-75.41-50.62-150.82-101.25-226.22-151.89-6.77-4.55-6.76-4.6-14.53.58-71.44,47.56-142.88,95.13-214.31,142.71-6.21,4.14-12.37,8.37-19.51,13.21ZM399.6,233.85c-.3-.04-.59-.07-.89-.11,0-1.88-.03-3.76,0-5.65.1-5.85,2.65-10.26,8.08-12.56,5.65-2.39,11.2-2.07,16.13,1.92,6.35,5.13,6.9,14.36,1.02,20.79-3.09,3.38-6.82,6.16-10.1,9.38-6.85,6.73-11.1,14.6-10.24,24.57.89,10.3,11.69,17.62,20.72,14.04,4.95-1.96,8.03-6.86,7.01-11.95-.38-1.88-1.51-4.2-3.03-5.12-1.79-1.08-4.38-1.17-6.59-1.03-.81.05-2.35,2.45-2.06,3.02.82,1.6,2.41,2.81,4.33,4.85-.8.86-1.86,2.99-3.23,3.22-1.77.29-4.22-.42-5.63-1.61-7.04-5.94-5.04-17.81,3.44-21.54,10.28-4.52,22.18,2.07,23.56,13.24.42,3.42.07,6.94.07,10.29,5.52-4.11,7.7-10.54,5.52-17.61-3.76-12.17-13.23-14.81-24.88-13.95,14.04-11.72,16.5-17.66,12.03-28.43-4.28-10.3-11.69-13.44-28.37-11.73,1.06-1.15,1.93-1.98,2.68-2.92,3.79-4.78,8.11-9.26,11.18-14.48,3.48-5.91,1.85-13.02-2.92-18.15-4.29-4.62-11.06-6.29-16.87-4.16-5.89,2.15-8.32,7.68-5.81,13.59.88-1.18,1.61-2.35,2.51-3.35,3.51-3.89,9.55-4.41,13.64-1.24,3.76,2.91,4.28,7.65,1.18,12.28-1.15,1.72-2.57,3.3-4.05,4.76-8.68,8.56-15.39,18.32-18.8,30.16-.19.66-.68,1.23-1.44,2.56-3.96-14.7-12.27-25.7-22.41-35.54-.97-.94-1.68-2.24-2.26-3.48-3.08-6.6,1.27-13.46,8.49-12.51,3.49.46,6.68,3.18,9.93,4.84,1.33-3.81.21-7.66-3.61-10.42-5.64-4.06-14.41-2.96-18.99,2.39-5.61,6.55-6.32,14.84-1.28,21.93,3.43,4.82,7.58,9.14,11.38,13.66-14.76-2.28-22.22.39-26.93,10.29-6.45,13.55-.14,22.8,11.71,30.37-12.75-1.39-20.92,2.8-24.82,12.16-2.94,7.06-1.06,14.21,5.28,19.15-.19-1.32-.34-2.38-.5-3.43-2-13.19,8.57-23.69,21.39-21.28,4.87.91,8.09,3.9,9.48,8.44,1.5,4.88,1.04,9.71-2.63,13.7-2.06,2.24-4.65,3.19-7.54,1.8-.85-.41-1.68-1.59-1.82-2.52-.08-.57,1.25-1.28,1.83-2.01.87-1.1,2.49-2.51,2.26-3.36-.36-1.3-1.87-2.82-3.18-3.17-1.41-.37-3.36.14-4.7.92-6.17,3.62-5.35,12.58,1.39,16.43,7.1,4.05,17.2.24,20.37-8.01,3.05-7.95,2.13-15.87-2.79-22.69-3.46-4.8-8.13-8.73-12.18-13.11-1.78-1.92-3.69-3.83-5-6.07-3.66-6.27-2.92-12.91,1.61-17.28,4.47-4.32,12.97-5.33,18.33-2.16,5.47,3.23,7.8,9.7,5.89,16.99-1.29-1.68-2.34-3.26-3.6-4.65-2.74-3.03-6.3-4.65-10.09-2.99-1.61.7-2.27,3.56-3.36,5.44,1.53.88,3.38,2.8,4.53,2.45,4.24-1.29,6.18,1.02,7.46,4.12,2.87,6.97,5.42,14.08,8.09,21.09,2.52-8.21,5.14-16.74,7.77-25.27.46,0,.91,0,1.37-.01,2.59,8.56,5.19,17.13,7.97,26.33.49-1.73.72-2.92,1.16-4.03,2.55-6.44,5.01-12.93,7.82-19.25,1.03-2.32,3.01-4.05,6.07-3.1,2.54.78,4.96.68,5.42-2.54.42-2.97-.94-5.72-4.11-5.59-2.96.13-6.2,1.13-8.69,2.73-2.04,1.31-3.16,4.05-4.69,6.15Zm26.2,301.47c-7.98.49-14.99-3.33-17.75-10.03-3.72-9.04.3-15.43,7.98-20.45-3.93-2.87-7.53-5.5-11.33-8.28-.5,14.4-11.06,23.26-16.64,35.51-5.82-12.62-16.86-21.58-16.05-36.51-4.3,3.5-7.86,6.4-11.53,9.39,8.41,5.3,11.16,12.86,7.76,20.48-2.74,6.14-11.41,10.94-17.15,9.55.68-2.79,1.37-5.59,2.06-8.43-6.38,4.32-12.2,8.3-18.06,12.22-5.74,3.84-11.53,7.61-17.11,11.29,10.37-2.1,20.5-4.34,30.71-6.17,9.16-1.64,17.63-4.32,23.32-12.35,1.41-1.99,2.62-4.14,4.12-6.53.9,1.22,1.59,2.05,2.16,2.96,10.53,16.66,5.49,35.05-7.32,46.94-2.95,2.74-7.01,4.39-10.71,6.22-1.89.93-3.78.41-3.56-2.29.4-4.9-2.16-8.16-5.71-10.95-1.03-.81-1.98-1.71-3.66-3.17,6.96-.82,12.6-.93,16.2,5.24,3.12-4.77,2.51-8.73-2-11.21-12.8-7.04-26.06-5.88-39.53-1.65,9.43,2.02,18.01,5.49,23.6,13.68,5.55,8.13,6.35,17.22,3.91,26.36,19.71-9.51,34.61-23.12,38.7-46.1,3.77,22.94,19.07,35.82,37.81,46.21-3.89-22.47,6.45-35.1,28-40.14-8.61-3.37-17.07-3.99-25.48-2.65-4.84.77-9.68,2.54-14.1,4.73-4.02,1.99-4.43,6.49-1.54,10.51,3.68-5.48,8.95-5.47,15.51-4.39-6.12,4.26-10.03,9.04-9.41,16.19-25.08-5.72-34.94-36.7-18.35-56.75,5.12,13.44,16.04,17.99,29.09,19.51,9.62,1.12,19.4,1.77,28.06,7.05.21-.4.41-.8.62-1.2-11.59-7.53-23.18-15.05-35.88-23.3,1.28,3.36,2.21,5.8,3.25,8.54Zm-132.76,41.33l-1.44-1.13c-4.05,3.39-8.01,6.89-12.17,10.15-4.2,3.29-8.6,6.33-12.91,9.48-.24-.21-.47-.42-.71-.63,3.29-10.13,6.57-20.26,9.86-30.39-.43-.23-.85-.45-1.28-.68-6.28,9.13-12.55,18.26-19.24,27.99-2.21-8.81-4.11-10.8-9.39-10.66-3.79.1-6.5,2.45-5.9,5.45.74,3.67,3.32,3.95,6.44,3.01.82-.25,2.41-.22,2.61.18.42.86.44,2.15.12,3.09-1.62,4.78-7.85,6.86-13.04,4.47-5.28-2.43-8.25-7.99-7.55-14.13.65-5.63,4.57-9.78,10.65-10.68,3.84-.57,7.77-.57,11.66-.79,5.07-.29,9.59-1.94,14.15-5.32-6.92-.46-13.1-.9-19.29-1.26-2.92-.17-5.86-.42-8.76-.19-9.04.71-15.39,6.3-17.29,14.96-1.85,8.4,1.55,15.9,9.58,20.29,2.78,1.52,5.97,2.28,9.82,3.71-2.87.87-5.05,1.68-7.3,2.18-4.48,1.01-9.09,1.55-13.49,2.82-8.51,2.46-13.52,9.67-13.32,18.52.16,7.1,4.57,12.73,11.23,14.34,5.8,1.4,11.37-1.59,12.67-6.93-1.4.3-2.73.66-4.07.86-5.5.8-10.7-2.18-12-6.84-1.36-4.86.96-9.07,6.69-11.31,2.82-1.1,5.88-1.75,8.89-2.2,11.77-1.78,22.11-6.49,30.95-14.48.54-.48,1.26-.76,2.77-1.63-1.16,4.34-2.25,7.76-2.99,11.26-2.19,10.34-.66,20.48,1.72,30.61,1.23,5.25-.92,9.49-4.98,11.19-4.27,1.78-8.91.2-11.92-4.3-1.15-1.72-1.88-3.72-2.9-5.8-2.75,6.93-2.32,11.01,1.59,14.52,4.43,3.99,9.67,4.81,15.24,3.18,5.67-1.65,9.59-5.39,10.46-11.31.49-3.35-.08-6.9-.45-10.32-.33-3.04-1.06-6.03-1.61-9.05,1.58.71,2.32,1.7,3.18,2.56,5.48,5.54,11.92,8.21,19.7,5.99,7.54-2.15,11.9-7.33,13.53-14.96,1.29-6.04-.3-11.58-2.57-17.06-2.26-5.48-4.49-10.97-6.79-16.6-.26.65-.83,1.38-.79,2.09.31,5.37.86,10.73,1.1,16.1.2,4.53.84,9.23-.08,13.56-1.25,5.9-7.46,9.27-13.25,8.33-6.73-1.09-11.43-6.15-11.49-12.37-.04-4.09,2.49-6.98,6.48-7.36,2.09-.2,3.64.35,2.23,2.74-1.68,2.86-.69,4.68,2.05,5.41,2.86.76,4.88-.73,5.53-3.65,1.11-5.01-2.37-9.35-7.74-9.7-1.54-.1-3.09-.02-4.43-.02,6.92-9.34,13.57-18.32,20.22-27.3Zm97.59-137.88c25.37,1.99,44.67-12.06,65.27-22.44-23.77-.57-46.69,1.8-65.76,18.98,9.18-23.85,2.78-46.66-1.81-70.69-6,24.18-10.95,47.23-2.27,70.97-9.9-6.82-19.38-13.64-31.09-16.31-11.5-2.62-23.08-3.85-34.9-3.05,20.53,11.03,40.34,23.93,65.72,22.81-22.95,12.09-31.67,33.49-40.14,56.38,18.65-15.65,36.19-30.8,42.48-55.19,6.83,23.95,24.18,39.06,41.67,54.15-3.7-10.93-7.59-21.71-13.6-31.65-6.21-10.27-15.91-16.7-25.57-23.98Zm93.05,137.07c5.61,10.74,12.94,19.37,21.65,28.13-2.99,0-4.64-.03-6.3,0-4.41.11-7.4,2.36-7.59,6.66-.09,2.15,1.16,4.6,2.49,6.43.46.63,3.93.28,4.35-.51.9-1.71.71-3.99,1.11-7.1,1.7-1.21,4.29-.4,6.37,1.72,2.67,2.72,2.36,6.13,1.15,9.41-2,5.46-8.27,9.07-14.09,8.29-6.38-.86-11.12-5.81-11.22-12.59-.06-3.98,1.09-7.97,1.43-11.98.44-5.31.62-10.64.92-15.96-.64-.1-1.27-.19-1.91-.29-2.98,9.05-6.67,17.94-8.74,27.19-1.94,8.66,3.31,17.64,10.5,20.93,7.94,3.63,16.86,1.7,23.23-5.13.73-.78,1.07-1.92,1.59-2.89.31.31.63.61.94.92-.57,5.37-1.61,10.74-1.63,16.12-.05,12.16,12.72,19.3,23.33,13.29,5.92-3.35,7.68-10.53,4.05-16.16-1.18,2.13-2.16,4.46-3.63,6.44-2.84,3.82-6.83,4.92-10.7,3.34-3.72-1.52-5.81-5.32-5.29-9.93.26-2.35.73-4.68,1.21-7,2.28-10.89,1.69-21.6-1.76-32.18-.4-1.21-.61-2.48-1.16-4.72,1.41.91,1.87,1.14,2.25,1.47,8.68,7.57,18.43,12.86,29.95,14.74,4.23.69,8.47,1.78,12.49,3.29,4.78,1.79,6.51,5.57,5.53,10.38-.89,4.36-4.11,6.88-9.08,7.01-2.69.07-5.38.01-8.52.01,3.18,5.33,7.28,7.36,12.64,6.65,5.96-.8,9.94-4.22,11.83-9.87,3.48-10.38-2.97-20.91-14.5-23.71-4.87-1.18-9.81-2.12-14.69-3.25-1.34-.31-2.61-.9-3.91-1.36.77-.87,1.29-1.03,1.82-1.12,10.92-1.8,17.53-9.65,17.03-20.23-.45-9.54-8.44-17.45-18.85-17.61-8.67-.13-17.36.77-26.22,1.23,3.25,3.45,8.22,5.29,14.06,5.64,4.43.26,8.95.31,13.23,1.32,5.23,1.23,8.45,5.62,8.71,10.55.31,5.79-1.86,10.39-7.01,13.25-4.35,2.41-9.58,1.39-12.4-2.45-.9-1.23-1.1-2.97-1.61-4.48,1.39,0,2.87.29,4.14-.1,1.8-.55,4.67-1.39,4.87-2.51.3-1.66-.83-4.47-2.25-5.37-4.02-2.55-9.19-.35-10.97,4.16-.53,1.34-.83,2.78-1.31,4.41-6.83-9.24-13.46-18.21-20.1-27.17-.35.26-.71.51-1.06.77,3.58,10.21,7.15,20.41,10.73,30.62-.41.29-.83.58-1.24.87-8.4-6.36-16.79-12.71-25.86-19.58Zm-329.21-229.45c-.89-2.14-1.91-3.99-2.44-5.97-1.62-6.02,1.27-10.87,6.96-12,5.49-1.09,10.21,2.14,10.95,8.15,1.57,12.65,8.54,21.45,19.01,27.97.94.59,1.81,1.29,3.4,2.43-1.68.13-2.35.24-3.01.23-11.04-.1-21.21,2.64-30.34,9.02-1.58,1.11-3.39,1.96-5.19,2.66-5.2,2.03-9.99.58-12.42-3.6-2.54-4.38-1.18-10.08,3.22-13.37,1.15-.86,2.39-1.61,4.01-2.7-11.57.02-17.88,6.8-15.84,16.36,1.69,7.92,9.36,13.8,17.35,12.28,4.5-.86,8.7-3.39,13-5.26,2.13-.93,4.15-2.09,6.23-3.15-.17,1.91-.83,2.97-1.37,4.09-4.17,8.62-2.97,18,2.65,24.22,5.86,6.49,18.68,5.12,22.2-2.41-1.6,0-3.1.02-4.6,0-7.33-.1-12.69-4.53-13.83-11.41-1.22-7.37,2.4-14.23,9.48-16,3.99-1,8.59-.89,12.65-.03,5.41,1.14,10.53,3.58,15.83,5.28,2.68.86,5.49,1.33,8.24,1.98.07-.23.13-.45.2-.68-6.45-4.8-12.9-9.6-19.35-14.4.18-.63.37-1.26.55-1.89,8.96.43,17.91.86,26.87,1.29.11-.35.22-.7.33-1.06-6.3-2.41-12.68-4.63-18.87-7.28-3.91-1.67-7.72-3.72-11.25-6.1-2.05-1.38-3.32-3.57.17-5.47.91-.49,1.7-2.49,1.44-3.5-.32-1.22-1.64-2.64-2.85-3.09-4.61-1.73-8.58,2.34-7.49,7.72.43,2.14,1.58,4.14,2.41,6.2-.35.25-.7.5-1.06.75-2.54-3.18-5.62-6.08-7.51-9.61-3.44-6.44-.67-13.95,5.63-17.03,6.51-3.18,14.11-.61,17.26,6.08,1.36,2.88,2.21,6,3.24,9.03,2.4,7.03,7.61,11.18,14.25,14.11-8.68-12.98-10.39-26.16-1.68-39.91h-14.44c5.17,2.99,5.53,7.15,3.94,12.54-4.43-8.01-10.98-12.1-19.67-11.19-9.35.97-12.61,8.18-14.39,17.46-1.46-3.95-2.32-6.73-3.49-9.38-3.43-7.73-10.66-11.22-18.86-9.26-6.38,1.53-10.75,7.2-10.87,14.12-.1,5.63,3.41,10.08,9.38,11.74Zm396.79,13.74c6.37-2.07,11.91-7.62,14.43-14.17,1.15-2.99,1.61-6.41,3.38-8.94,1.87-2.67,4.59-5.4,7.54-6.52,6.79-2.58,13.91,1.46,15.9,8.19,2.16,7.29-2.51,16.11-9.92,18.53.86-1.54,2.23-2.95,2.35-4.46.21-2.73.37-5.89-.82-8.15-.69-1.32-4.14-1.9-6.14-1.58-1.2.19-3.02,2.94-2.78,4.22.31,1.69,2.36,3.06,4.32,5.33-8.13,10.04-23.06,8.92-32.8,17.64,9.48-.7,18.63-3.31,29.01-1.14-6.87,5.48-12.84,10.25-18.81,15.02,6.79-1.11,13.08-3.27,19.48-5,3.99-1.08,8.17-2.22,12.23-2.14,8.93.19,14.64,6.85,14.26,15.69-.33,7.72-6.33,12.83-15.1,12.82-1.53,0-3.06-.13-4.84-.22,6.87,10.24,21.41,7.79,26.34-2.42,3.23-6.69,2.28-13.26-.82-19.71-.53-1.11-1.06-2.23-2.07-4.35,3.04,1.77,4.87,3.12,6.91,3.97,4.45,1.85,8.89,4.33,13.55,4.98,9.08,1.25,16.93-6.28,17.12-15.39.16-7.88-5.87-12.99-15.7-12.75,1.47.89,2.51,1.47,3.5,2.14,4.28,2.89,6,8.93,3.82,13.32-2.16,4.34-7.46,6.05-12.66,3.94-1.8-.73-3.59-1.61-5.15-2.75-8.95-6.49-19.13-8.7-29.94-8.91-1.12-.02-2.23-.28-4.13-.53,1.12-1,1.46-1.45,1.92-1.68,11.93-6.06,18.57-15.94,21.15-28.89,1.18-5.94,6.28-9.21,11.68-7.81,5.3,1.38,8.01,6.88,6.18,12.68-.47,1.49-1.11,2.92-1.79,4.71,10.24-4.75,11.42-16.5,2.74-22.7-9.53-6.8-21.92-2.29-25.31,9.26-.66,2.24-1.15,4.54-1.71,6.81-1.95-8.76-5.39-15.9-14.85-17.55-9.03-1.57-15.23,3.35-20.05,10.8-2.12-5.24-.61-8.86,4.48-12.15h-14.9c8.72,13.81,7.24,26.9-1.98,39.85Zm-253.24,93.67c-15.55,16.06-42.27,15-58.93-1.31,2.95-.94,6.1-1.57,8.88-2.94,2.81-1.38,5.25-3.49,7.98-5.37,4.08,2.96,3.1,6.78,1.44,10.66,9.84.07,16.76-8.32,15.3-18.36-2.26-15.55-12.31-25.62-24.46-34.23,5.06,11.13,10.2,22.2,15.83,33.01,2.2,4.22,1.2,7.24-1.66,10.76-2.17-4.29-4.18-8.27-6.38-12.64-7.35,14.15-20.36,14.13-34.08,14.82,4.38,3.4,7.88,6.27,11.53,8.92,10.14,7.36,21.27,12.28,33.98,12.41,6.66.06,13.33-.88,20-1.16,4.6-.19,9.21-.04,13.81-.04-11.86,6.52-16.38,16.95-16.07,29.71-3.35-2.15-6.06-4.37-9.15-5.64-1.2-.5-3.86.68-4.76,1.91-.7.96-.3,3.7.63,4.72,6.14,6.74,12.56,13.24,19.35,20.29,0-2.91.07-5.63-.01-8.34-.16-5.29-.62-10.58-.58-15.86.06-9.5,6.5-18.5,14.5-20.98-.77,4.61-1.56,9.36-2.35,14.1.5.2.99.4,1.49.6,1.88-6.83,5.4-12.22,12.63-13.46,6.63-1.14,12.92-.12,18.07,5.15,1.28-4.3,2.49-8.37,3.87-13-14.35,2.61-27.04-3.15-40.75-5.29,8.78-8.47,17.12-16.51,25.53-24.61-3.77-3.17-7.63-6.43-11.7-9.85-2.29,19.58-15.52,26.84-30.85,17.41-1.6,2.7-3.21,5.39-5.14,8.64h22.07Zm176.76,15.79c.12-.37.24-.73.35-1.1,1.88-.16,3.77-.54,5.64-.45,9.03.43,18.06,1.41,27.09,1.41,17.96,0,31.86-9.14,44.8-20.47-6.46-1.14-12.73-1.76-18.69-3.43-6.29-1.76-10.86-6.27-13.81-12.42-2.51,4.56-4.6,8.35-6.85,12.43-3.55-3.76-3.38-6.8-1.42-10.51,5.56-10.52,10.76-21.23,16.62-32.9-1.63.87-2.32,1.05-2.72,1.48-6.19,6.73-12.83,13.12-18.33,20.38-3.57,4.71-5,10.76-4.42,17.03.74,8.04,8.09,14.74,15.29,13.66-2.64-6.24-2.41-7.39,1.31-10.18,5.81,3.03,11.22,5.85,16.5,8.61-12.86,15.34-48.39,16.22-57.22,1.45,6.74-.3,13.75-.62,20.83-.94-1.99-3.26-3.69-6.03-5.38-8.78-5.45,4.91-13.41,5.7-20.88,1.76-7.65-4.03-9.92-10.9-8.82-19.64-4.56,3.93-8.43,7.26-12.25,10.54,8.51,8.18,16.85,16.19,25.62,24.61-13.85,2.29-26.5,8.33-40.57,5.61,1.41,4.64,2.67,8.77,4.04,13.29,5.06-5.71,11.13-6.45,17.61-5.53,7.24,1.02,10.3,6.77,13.33,12.52.35-.13.71-.26,1.06-.39-.74-4.44-1.47-8.87-2.25-13.58,7.5,2.93,12.28,8.2,13.42,15.87.84,5.71.42,11.63.35,17.46-.05,4.4-.42,8.8-.7,14.01,3.6-4.54,6.21-8.31,9.33-11.61,3.24-3.43,7.12-6.25,10.4-9.64,1.05-1.08,1.78-3.41,1.34-4.73-.47-1.39-2.49-3.12-3.86-3.14-1.98-.03-4.19,1.03-5.92,2.2-1.35.91-2.1,2.7-3.11,4.1-.48-.23-.96-.46-1.45-.69,1.06-13.2-4.82-22.35-16.27-28.26Zm-23.21-173.66c10.99,16.43.16,54.96-16.91,60.95,1.69-8.83.91-17.05-5.73-24.87,1.53,9.62,1.67,18.15-3.01,26.06-4.98,8.42-13.28,10.76-22.23,11.6,2.92,8.36,5.68,16.24,8.72,24.96,1.74-3.79,4.48-6.99,4.12-9.77-.36-2.79-3.83-5.18-5.34-7,10.19-5.55,20.56-11.2,31.19-16.99-2.41,11.3-4.82,22.56-7.43,34.78-2.57-1.65-5.12-3.29-8.13-5.22-2.74,3.66-5.68,7.58-8.35,11.16,9.53-1.06,19.11-2.13,28.79-3.21-.6-1.31-1.28-2.66-1.83-4.05-3.78-9.56,2.09-19.11,12.31-20.14,6.16-.62,11.5,1.44,16.51,4.75,10.72,7.07,21.56,4.53,32.36.89-10.2-3.6-20.29-7.08-30.33-10.73-6.86-2.49-13.79-3.38-20.9-1.41-2.48.69-4.86,1.75-7.29,2.64-.36-.3-.72-.59-1.09-.89,2.28-3.47,4.05-7.46,6.95-10.31,4.88-4.81,11.2-4.74,17.76-2.7-1.64-3.79-3.06-7.06-4.57-10.55-6.81,3.17-13.63,6.33-20.45,9.5l-1.42-.6c16.77-22.65,23.42-46.5,9.73-72.96-3.98,8.21-11.27,11.91-20.45,14.29,6.45,3.63,11.68,1.54,17.02-.17Zm-122.49,102.46c9.32,1.09,18.83,2.2,28.09,3.28-2.55-3.5-5.35-7.35-7.96-10.94-3.12,1.87-5.65,3.39-8.09,4.86-2.49-12.19-4.78-23.38-7.3-35.73,10.44,7.55,20.05,14.27,32.14,16.56-7.63,8.3-7.83,10.34-2.24,17.74,2.92-8.02,5.87-16.14,8.91-24.49-9.16-.85-17.44-3.24-22.47-11.64-4.86-8.11-4.56-16.87-2.9-25.8-6.45,7.16-7.42,15.54-5.43,25.32-1.77-1.12-3.18-1.59-3.96-2.57-3.95-4.99-8.27-9.79-11.47-15.24-6.9-11.77-9.16-24.41-5-37.78,1.75-5.64,2.53-5.93,8.19-4.41,3.6.97,7.37,1.51,11.66-1.63-9.07-2.23-15.7-6.43-20.56-14.09-5.39,13.45-9.5,26.39-5.74,39.83,2.55,9.12,7.31,17.64,11.23,26.36,1.21,2.69,2.9,5.16,4.67,8.26-7.5-3.68-14.2-6.96-21.11-10.34-1.96,3.49-3.83,6.84-5.74,10.25,15.21-1.42,25.57,4.89,23.75,14.43-1.76-.8-3.47-1.76-5.28-2.38-8.54-2.9-16.73-1-24.89,1.84-8.41,2.92-16.89,5.61-25.34,8.41-.81.27-1.62.54-2.43.81,10.13,3.91,20.14,6.04,30.3.71,3.69-1.93,7.33-4.18,11.28-5.35,12.31-3.65,21.72,4.08,20.17,16.43-.33,2.64-1.71,5.14-2.47,7.31Zm-77.22-48.47c-.96-2.34-1.39-4.38-2.58-5.75-.46-.53-3.47,0-3.9.8-1.02,1.91-2.15,4.64-1.48,6.35.84,2.13,3.16,4.3,5.34,5.16,6.59,2.6,14.38-1.25,17.21-7.96,2.8-6.65.81-15.34-4.64-20.31-5.33-4.85-13.69-5.8-20.32-2.32-12.8,6.73-15.41,23.37-5.24,34.64,9.68,10.73,22.09,12.75,35.61,10.27,11.53-2.11,20.34-8.15,25.51-18.88.93-1.94,1.65-4.32,1.41-6.37-.19-1.59-1.9-3.15-3.28-4.31-.26-.21-2.33,1.38-3.27,2.41-1.49,1.65-2.62,3.61-4.08,5.29-9.13,10.45-20.3,16.93-34.52,16.81-8.18-.07-14.01-4.8-16.35-12.53-2.22-7.36.04-15.08,5.68-19.17,3.88-2.81,8.05-2.96,12.23-.85,4.05,2.04,6.02,7.07,4.72,11.44-1.22,4.08-3.71,5.62-8.06,5.29Zm272.71-.04c-4.81.42-7.97-2.15-8.37-7.36-.41-5.32,3.26-9.67,8.74-10.35,6.2-.77,12.1,3.1,14.19,9.32,3.92,11.65-4.51,23.94-16.85,24.21-16.7.37-28.13-8.84-37.73-21.26-.97-1.25-2.4-2.14-3.62-3.2-.89,1.89-2.86,4.04-2.47,5.61.93,3.82,2.31,7.86,4.65,10.94,11.98,15.83,37.89,18.64,53.31,6.09,11.08-9.02,12.58-24.8,3.27-34.37-6.06-6.23-16.45-7.5-23.43-2.86-7,4.65-9.83,14.06-6.26,21.8,2.21,4.78,5.91,8.11,11.37,8.81,4.31.55,8.34-.63,10.55-4.42,1.05-1.79.85-4.74.23-6.88-.3-1.04-3.7-2.37-4.27-1.89-1.43,1.21-2.04,3.38-3.31,5.8Zm53.26,65.73c.07-12.39-9.93-23.03-21.69-23.09-12.36-.06-20.44,7.95-20.55,20.38-.11,12.97,9.07,22.54,21.72,22.63,12.12.08,20.46-8.01,20.52-19.92Zm-337.08-1.96c.01-12.37-7.76-21.2-18.68-21.22-12.68-.03-23.36,10.73-23.36,23.53,0,11.56,8.77,19.93,20.74,19.8,12.02-.13,21.28-9.75,21.3-22.1Zm147.44-114.84c-2.76,15.06-3.56,30.58-10.8,43.1-4.03-.85-7.08-1.73-10.19-1.99-.87-.07-2.18,1.56-2.71,2.69-.23.49.8,1.91,1.57,2.49,4.89,3.73,4.99,5.41.43,9.74-.43.41-.72.97-1.13,1.54,5.79,1.87,10.33.7,13.82-4.26,2.54-3.61,4.28-7.78,6.38-11.69.73-1.35,1.47-2.7,2.67-4.91,1.05,2.57,1.64,4.1,2.31,5.6,2.39,5.36,4.73,10.76,9.89,14.19,3.45,2.29,7,2.99,11.73.44-.92-.35-1.37-.43-1.71-.67-5.37-3.73-5.32-6.88.06-10.23.73-.45,1.78-1.6,1.62-2.02-.41-1.04-1.25-2.25-2.22-2.67-3.83-1.62-6.96-.2-9.7,3.48-8.38-14.17-9.57-29.64-12.02-44.84Zm-80.37,303.72c9.19,12.61,22.87,8.79,27.82-.04,6.61-11.79,2.07-27.58-9.88-34.01-6.41-3.45-15.33-2.17-20.1,2.89-3.52,3.72-4.24,10.29-1.58,14.35,2.34,3.57,7.14,5.38,10.98,3.41,1.54-.79,3-3.26,3.06-5.01.07-2.22-2.03-3-4.35-2.29-2.89.89-3.39-1.11-2.62-2.94.68-1.62,2.15-3.33,3.71-4.09,4.23-2.08,9.62-.35,12.68,3.55,3.97,5.06,4.28,10.48,1.4,16.05-3.17,6.11-8.73,8.28-15.24,8.48-1.87.06-3.75-.21-5.87-.34Zm157.15-21.33c-2.59.34-4.9.02-6.19,1.01-1.02.78-1.62,3.83-.92,4.73,1.15,1.49,3.45,2.79,5.33,2.89,6.6.34,10.81-4.86,9.79-11.5-1.12-7.29-7.52-12.11-15.46-11.66-8.81.51-15.99,6.87-19.03,16.88-2.7,8.9.28,19.41,6.6,24.41,5.75,4.54,18.01,3.38,22.52-5.5-1.88.15-3.67.4-5.47.42-6.64.08-12.09-2.2-15.08-8.47-2.45-5.13-2.24-10.25,1-15.09,2.77-4.12,6.69-5.71,11.54-5.13,4.46.54,6.53,3.7,5.36,7.01Zm-227.91-42.84c.71,4.39,2.15,8.97,5.9,12.43,9.46,8.72,30.54,6.84,38.36-3.35,7.6-9.91,3.47-24.04-7.78-26.62-6.41-1.47-12.5,2.23-13.31,8.09-.48,3.48,1.4,6.44,4.63,6.66,1.48.1,3.03-.75,4.55-1.17-.51-1.28-1.02-2.57-1.54-3.85-.24-.6-.52-1.18-.8-1.82,2.69-2.3,4.92-1.9,7.08.37,4.6,4.83,2.75,13.97-3.7,17.5-5.26,2.88-11.08,3.73-16.51,1.33-5.84-2.59-11.19-6.29-16.87-9.57Zm301.43.22c-.76.12-.93.09-1.01.17-.5.48-.96,1-1.48,1.46-7.84,6.95-16.7,10.65-27.26,7.76-7.78-2.12-11.81-9.99-8.85-16.57,1.75-3.9,5.4-4.89,8.58-2.2-.41.67-.97,1.32-1.23,2.07-.37,1.09-1.07,2.62-.62,3.3.53.8,2.26,1.41,3.24,1.17,1.62-.4,3.47-1.2,4.49-2.43,3.03-3.69.97-9.48-3.89-11.63-5.97-2.65-13.73-.14-17.18,5.54-5.18,8.54-1.74,20.5,7.68,25.47,9.19,4.84,18.74,4.97,28.21.75,6.23-2.78,8.85-8.02,9.32-14.85Zm-171.51-246.02c-12.98,7.86-25.08,14.99-39.95,13.94,0,6.65,3.85,9.22,9.4,7.28,2.84-1,6.16-.64,9.26-.9-3.67,3.76-7.61,6.16-10.79,9.32-3.12,3.11-3.38,8.62-1.35,12.91,2.65-7.14,8.42-11.11,13.75-15.6,8.48-7.14,15.12-15.75,19.67-26.95Zm42.16,1.21c1.91,3.29,3.33,7.01,5.81,9.81,9.38,10.58,19.1,20.85,28.66,31.21,2.99-11.15-4.82-15.85-14.08-20.57,5.01-1.33,8.39-2.37,11.8.11,2.24,1.63,4.36,1,5.7-1.23,1.16-1.93,1.88-4.14,3.11-6.95-16.14,2.26-28.06-5.78-40.99-12.37Zm-97.61,244.59c.17.21.34.43.52.64,5.04-4.75,10.48-9.14,14.98-14.35,3.67-4.25,6.79-9.21,9.08-14.34,2.65-5.93-.33-10.26-6.72-11.41-.88-.16-1.73-.44-2.61-.67,2.65-7.94,1.05-10.91-5.3-10.04.13,5.37-4.76,4.24-9.24,6.16,2.71,2.08,4.4,3.97,6.52,4.88,5.15,2.23,6.76,3.94,6.14,9.43-.4,3.53-1.33,7.17-2.88,10.36-3.19,6.59-6.95,12.9-10.47,19.33Zm153.06-.64c-2.5-4.27-5.37-8.37-7.39-12.86-2.32-5.14-4.26-10.51-5.66-15.97-1.08-4.2.86-7.55,5.12-9.31,1.52-.63,3.06-1.46,4.25-2.57,1.48-1.39,1.62-2.55-.85-3.63-2.28-1-4.14-2.99-6.18-4.54.23-.34.47-.68.7-1.01-6.53-.62-6.91,3.7-5.37,10.66-.95.14-1.89.29-2.83.43-5.66.81-8.34,4.56-6.69,10.01.92,3.01,2.38,5.93,4.01,8.65,5.09,8.53,12.73,14.58,20.89,20.15Zm-185.9-60.46c-13.08,2.13-23.52,7.85-29.44,20.37-5.43,11.51-6.53,26.25-2.82,31.5,1.59-4.32,2.77-9.67,5.41-14.16,3.08-5.24,9.07-5.67,14.82-5.69.09-.48.18-.97.27-1.45-3.76-1.56-7.52-3.13-11.39-4.73,2.39-13.09,12.73-19.48,23.15-25.84Zm-11.98-83.69c-.2.47-.41.93-.61,1.4,9.66,3.79,19.17,8.02,29.02,11.2,5.8,1.87,11.92.51,17.41-2.41,5.81-3.08,6.9-12.36,1.62-16.26-1.58-1.17-5.21-1.54-6.62-.52-2.51,1.83-1.02,4.58,1.04,6.34.89.76,2.33.87,3.51,1.28-.54.67-1.08,1.35-1.62,2.02-14.74,1.75-29.29.15-43.74-3.06Zm229.06,83.26c19.06,12.36,25.33,19.25,25.22,27.62-4.63-.29-9,.3-12.46,4.18,16.93,3.4,17.03,3.51,20.24,21,4.65-5.71,4.19-18.52-1.16-30.48-6.01-13.45-17.15-19.61-31.85-22.31Zm11.95-82.35c-14.16,2.68-28.22,4.03-43.37,1.67,1.46-1.17,2.17-1.74,2.88-2.31,2.13-1.71,4.58-3.74,2.3-6.51-2.22-2.7-5.16-1.39-7.43.46-4.74,3.84-4.23,12.93,1.12,15.8,2.97,1.6,6.45,2.7,9.81,3.08,13.45,1.55,23.48-7.05,34.7-12.2Zm-87.69-52.88c3.16-6.39,2.71-12.79-.76-18.58-5.73-9.55-12.06-18.74-18.14-28.09.22,4.83.96,9.69,1.82,14.53,2.2,12.46,9.83,22.08,17.09,32.14Zm-147.33-20.7c7.48,8.88,7.53,18.71,4.92,29.68,7.93-5.46,8.75-12.41,6.8-20.25,9.72-.78,18.01,1.85,26.73,6.36-6.63-10.71-25.18-18.12-38.45-15.79Zm102.49-26.03c-4.98,7.63-9.91,15.16-14.8,22.73-1.28,1.98-2.66,3.96-3.58,6.12-2.5,5.89-2.57,11.84-.61,17.74,12.18-13.56,19.15-28.78,18.99-46.59Zm122.48,55c-2.77-10.87-1.72-20.74,6.44-29.29-15.59-1.24-32.02,4.76-38.26,15.11,4.15-1.42,8.22-3.16,12.46-4.16,4.39-1.03,8.95-1.33,14.26-2.06-2.95,8.65-1.47,15.3,5.1,20.39Zm-188.93,145.36c-8.28,8.33-14.92,29.96-13.04,41.77,11.19-9.03,17.07-27.53,13.04-41.77Zm172.34,41.41c-1.37-20.59-6.71-36.57-13.66-40.87-3.83,13.03,3.04,33.59,13.66,40.87Zm-1.95-100.83c5.21.83,9.24-.72,12.32-4.19,4.15-4.68,7.96-9.67,11.91-14.53,1.94-2.38,3.88-4.77,5.81-7.15-.28-.27-.55-.55-.83-.82-7.52,5.34-15.05,10.69-22.42,15.92-1.56-2.01-2.7-3.96-4.32-5.38-.95-.83-3.63-1.43-3.85-1.08-1.24,2-2.18,4.25-2.69,6.54-.1.46,1.96,1.87,3.17,2.09,3.97.72,4.76,2.04,2.86,5.55-.51.94-1.15,1.8-1.97,3.05Zm-211.66-27.24c-.15.3-.31.59-.46.89,5.42,6.86,10.78,13.76,16.29,20.55,3.17,3.9,6.95,6.81,12.41,5.99-.77-2.54-1.5-4.96-2.34-7.76,2.02-.51,3.57-.65,4.88-1.31,1.17-.59,2.93-1.76,2.91-2.63-.06-1.9-.75-4.02-1.89-5.52-.42-.55-3.2-.06-4.25.78-1.91,1.53-3.33,3.68-4.87,5.47-8-5.8-15.34-11.13-22.68-16.46Zm120.7,76.86c-7.14,8.15-7.04,13.46.41,21.35,6.63-9.09,6.58-11.67-.41-21.35Zm189.9,218.45c3.69-4.39,7.23-4.6,11.57-.71-3.84-5.39-.05-8.37,2.85-11.84-5.33,1.37-8.17-.92-10.01-5.86.09,5.84-3.8,6.87-8.13,7.91,4.59,2.4,6.15,5.54,3.72,10.5Zm-394.92-11.94c5.09,2.91,5.88,6.59,3.38,11.66,3.94-3.57,7.53-4.89,11.57.07-2.91-5.06.06-7.66,3.73-10.88-6.85,1.83-7.1-3.09-8.89-7.14-1.1,5.41-4.46,6.88-9.79,6.3Zm248.59-239.9c8.95,6.14,15.18,6.58,20.4,1.48-1.86-2.16-3.63-4.46-5.69-6.45-.69-.67-2.37-1.08-3.2-.71-3.78,1.66-7.43,3.63-11.51,5.69Zm-86.92-.14c-2.8-1.37-5.33-2.7-7.93-3.87-6.1-2.74-10.16-.62-11.93,6.14,6.84,4.88,13.05,2.39,19.86-2.26Zm37.8-326.67c3.79-3.89,7.2-2.62,11.06.06-2.7-4.9-.26-7.63,3.58-10.25-5.3.69-8.05-1.51-9.28-6.52-.98,5.54-4.42,7-9.44,6.62,2.63,3.01,6.65,4.91,4.08,10.08Zm-27.7,386.51c-.14-.38-.14-.56-.24-.63-3.01-2.31-6.81-1.89-9.62,1.05-2.26,2.37-3.64,9.63-2.11,11.37.25.29.71.55,1.07.55,2.8.05,5.6.03,8.63.03q-2.57-8.65,2.27-12.37Zm351.24-175.59c-4.58-5.12-.73-7.89,2.19-11.23-5.28,1.11-7.58-1.52-8.9-6.07-.55,5.22-3.41,7.12-8.97,6.51,2.34,2.21,4.34,3.28,4.87,4.85.51,1.49-.52,3.5-.88,5.28,3.93-3.32,7.41-2.97,11.68.66Zm-635.24.05c3.68-2.57,6.95-4.5,10.91-.54-1.78-4.44-.72-7.47,1.97-8.88-2.61-2.32-5.03-4.46-7.32-6.49-.54.85-1.25,3.13-2.78,4.05-1.49.9-3.82.4-5.78.52,4.06,3.04,5.76,6.3,3.01,11.35Zm350.42,175.82c6.43,2.96,4.37,7.67,1.9,12.93,4.17-1.42,8.52,1.37,10.49-3.18,1.55-3.6-.7-8.99-4.24-10.8-2.55-1.3-5.33-2.45-8.14,1.05Zm124.5,164.04c6.94,6.75,16.81,4.06,23.58,9.5-3.78-9.24-11.57-12.36-23.58-9.5Zm-339.44,9.02c7.56-2.62,14.85-5.16,22.15-7.69-10.07-4.47-19.7-.6-22.15,7.69Zm-8.46-5.81c5.23-5.71,6.4-12.1,3.75-17.6-1.46-3.03-3.83-4.68-7.96-5.02,5.27,7,3.36,14.65,4.22,22.63Zm382.06-22.2c-3.59.67-5.25,3.8-6.11,7.65-1.18,5.25-.01,9.85,3.81,14.83.83-8.13,1.56-15.17,2.31-22.48ZM392.27,134.04c.57,2.22.6,5.13,2,7.09,1.98,2.77,4.81,5.02,7.6,7.07.66.48,3.28-.4,3.71-1.28.45-.94-.42-2.73-1.1-3.94-.42-.74-1.58-1.05-2.36-1.62-3.16-2.33-6.3-4.69-9.84-7.32Zm-8.91.78c-3.19,2.17-6.83,4.2-9.88,6.9-1.43,1.26-1.73,3.8-2.55,5.77,2.01.03,4.44.8,5.97-.05,5.15-2.85,6-8.09,6.46-12.61ZM97.7,352.18c2.86-1.83,4.47-4.73,3.86-8.45-.89-5.46-5.39-7.34-9.89-9.93,2.12,6.47,4.02,12.25,6.03,18.38Zm91.44,43.13c3.91-.6,6.87-3.01,6.71-5.61-.18-2.87-1.87-4.59-4.78-4.82-2.8-.22-6.11,2.42-5.55,4.93.45,2,2.36,3.68,3.62,5.5Zm224.03,155.61c-4.22-1.89-8.4-3.77-13.43-6.02,1.45,4.72,2.72,8.85,4.09,13.32,3.49-2.73,6.4-5,9.34-7.3Zm265.2-198.53c2-6.23,3.93-12.25,5.9-18.36-4.02,2.01-8.04,4.19-9.1,9.22-.81,3.85.62,7.02,3.2,9.14Zm-91.86,42.05c3.01-.32,4.99-1.87,4.92-5.05-.07-3.12-2.24-4.33-5.08-4.32-3.04.02-5.26,1.41-5.24,4.68.03,3.29,2.43,4.41,5.39,4.69Zm-223.09,156c2.84,2.49,5.56,4.88,8.94,7.85,1.22-4.28,2.33-8.2,3.61-12.71-4.93,1.91-8.85,3.43-12.55,4.86Zm24.45-383c5.44-11.59,5.42-13.21.11-16.72-6.18,5.29-.57,10.52-.11,16.72Zm157.53,478.01c-.38,5.44-.73,10.37-1.1,15.52,7.46-3.33,7.86-9.07,1.1-15.52ZM130.8,347.96c3.13,4.6,6.1,5.09,13.64,2.5-6.59-5.85-7.15-5.96-13.64-2.5Zm100.06,296.76c-2.58,4.07-5.74,7.02-4.08,11.24.8,2.04,3.09,3.49,4.71,5.21.23-.28.47-.56.7-.83-.41-4.8-.81-9.6-1.32-15.61Zm401.67-294.46c7.09,2.72,11.2,1.99,13.52-2.24-6.29-3.52-6.81-3.44-13.52,2.24Zm-535.27-21.94c10.1,4.03,11,3.99,13.44-.5-3.87-3.25-6.82-3.19-13.44.5Zm559.75,18.05c2.22-2.27,3.55-3.63,4.87-4.98-1.62-1.23-3.13-3.15-4.91-3.45-1.08-.18-3.56,2.06-3.63,3.32-.08,1.36,1.92,2.83,3.67,5.11Zm21.54-17.69l.09-1.71c-3.02-.47-6.04-1.3-9.05-1.25-1.3.02-2.57,1.85-3.85,2.86,1.37.68,2.8,2,4.11,1.89,2.93-.22,5.8-1.16,8.69-1.8Zm-118.14,337.97c.6.03,1.2.07,1.81.1,1-1.47,2.95-3.09,2.74-4.37-.24-1.49-2.36-2.69-3.66-4.01-1.23,1.37-3.15,2.61-3.46,4.17-.23,1.15,1.64,2.72,2.58,4.11ZM119.37,336.41c-2.11,2-3.47,3.29-4.83,4.58,1.46,1.24,2.88,3.39,4.38,3.45,1.37.06,3.37-1.92,4.03-3.46.31-.71-1.89-2.51-3.58-4.58Zm539.46-12.17c-2.44-1.65-4-3.46-5.01-3.2-1.4.37-3.08,2.2-3.29,3.61-.14.94,2.06,3.14,3.21,3.14,1.34,0,2.69-1.77,5.08-3.56Zm-443.86,343.1c1.57-2.32,3.37-3.83,3.14-4.91-.3-1.4-2.21-2.46-3.43-3.67-1.07,1.25-2.87,2.44-2.98,3.76-.1,1.21,1.65,2.57,3.27,4.82Zm455.84-311.57c-2.16-1.72-3.48-3.58-4.69-3.52-1.22.07-2.33,2.05-3.5,3.2,1.29,1.15,2.42,2.79,3.92,3.25.82.25,2.26-1.48,4.27-2.94Zm-543.47-30.96c-2.51-1.69-3.81-3.22-5.16-3.26-1.06-.03-3.05,1.8-3.03,2.77.02,1.17,1.65,3.12,2.74,3.24,1.3.14,2.77-1.3,5.45-2.75Zm-12.21,30.53c-2.22-1.64-4-3.5-4.48-3.21-1.42.86-2.56,2.45-3.25,4.01-.16.37,1.97,2.53,2.86,2.42,1.37-.18,2.58-1.61,4.87-3.22Zm130.22,72.79c-1.27,2.19-2.6,3.49-2.55,4.74.03.85,2.05,2.38,3.01,2.26,1.03-.13,2.53-1.81,2.58-2.87.04-1.04-1.48-2.14-3.03-4.13Zm285.28,8.24c1.5-2,2.75-3.09,3.1-4.42.14-.54-1.92-2.42-2.56-2.24-1.17.34-2.45,1.61-2.85,2.78-.24.71,1.1,1.95,2.31,3.87Z"/></svg>